M48
; DRILL file {KiCad 8.0.5} date 2024-11-30T13:26:35+0100
; FORMAT={-:-/ absolute / metric / decimal}
; #@! TF.CreationDate,2024-11-30T13:26:35+01:00
; #@! TF.GenerationSoftware,Kicad,Pcbnew,8.0.5
; #@! TF.FileFunction,Plated,1,2,PTH
FMAT,2
METRIC
; #@! TA.AperFunction,Plated,PTH,ComponentDrill
T1C0.900
; #@! TA.AperFunction,Plated,PTH,ViaDrill
T2C1.000
; #@! TA.AperFunction,Plated,PTH,ComponentDrill
T3C1.190
; #@! TA.AperFunction,Plated,PTH,ComponentDrill
T4C1.200
%
G90
G05
T1
X93.3Y-73.89
X93.3Y-75.16
X93.3Y-76.43
X93.3Y-77.7
X93.3Y-82.035
X93.3Y-84.575
X93.4Y-89.435
X93.4Y-91.975
T2
X82.61Y-106.01
X83.36Y-78.96
X83.38Y-76.42
X83.4Y-73.88
X83.4Y-81.5
X83.4Y-86.6
X83.4Y-89.12
X83.4Y-91.66
X83.46Y-84.04
X84.1Y-103.5
X96.65Y-140.2
X96.65Y-142.8
X103.9Y-102.0
X103.9Y-120.6
T3
X77.0Y-73.88
X77.0Y-76.42
X77.0Y-78.96
X77.0Y-81.5
X77.0Y-84.04
X77.0Y-86.58
X77.0Y-89.12
X77.0Y-91.66
X77.12Y-98.39
X77.12Y-100.93
X77.12Y-103.47
X77.12Y-106.01
X91.75Y-140.2
X91.75Y-142.74
X91.75Y-145.28
X101.25Y-140.2
X101.25Y-142.74
T4
X89.95Y-108.2
X89.95Y-113.2
X89.95Y-126.8
X89.95Y-131.8
X102.45Y-108.2
X102.45Y-113.2
X102.45Y-126.8
X102.45Y-131.8
M30
