%TF.GenerationSoftware,KiCad,Pcbnew,8.0.5*%
%TF.CreationDate,2024-11-30T13:26:41+01:00*%
%TF.ProjectId,hmi,686d692e-6b69-4636-9164-5f7063625858,rev?*%
%TF.SameCoordinates,Original*%
%TF.FileFunction,Copper,L2,Bot*%
%TF.FilePolarity,Positive*%
%FSLAX46Y46*%
G04 Gerber Fmt 4.6, Leading zero omitted, Abs format (unit mm)*
G04 Created by KiCad (PCBNEW 8.0.5) date 2024-11-30 13:26:41*
%MOMM*%
%LPD*%
G01*
G04 APERTURE LIST*
G04 Aperture macros list*
%AMRoundRect*
0 Rectangle with rounded corners*
0 $1 Rounding radius*
0 $2 $3 $4 $5 $6 $7 $8 $9 X,Y pos of 4 corners*
0 Add a 4 corners polygon primitive as box body*
4,1,4,$2,$3,$4,$5,$6,$7,$8,$9,$2,$3,0*
0 Add four circle primitives for the rounded corners*
1,1,$1+$1,$2,$3*
1,1,$1+$1,$4,$5*
1,1,$1+$1,$6,$7*
1,1,$1+$1,$8,$9*
0 Add four rect primitives between the rounded corners*
20,1,$1+$1,$2,$3,$4,$5,0*
20,1,$1+$1,$4,$5,$6,$7,0*
20,1,$1+$1,$6,$7,$8,$9,0*
20,1,$1+$1,$8,$9,$2,$3,0*%
G04 Aperture macros list end*
%TA.AperFunction,ComponentPad*%
%ADD10O,2.900000X1.700000*%
%TD*%
%TA.AperFunction,ComponentPad*%
%ADD11R,1.800000X1.070000*%
%TD*%
%TA.AperFunction,ComponentPad*%
%ADD12O,1.800000X1.070000*%
%TD*%
%TA.AperFunction,ComponentPad*%
%ADD13R,1.800000X1.800000*%
%TD*%
%TA.AperFunction,ComponentPad*%
%ADD14C,1.800000*%
%TD*%
%TA.AperFunction,ComponentPad*%
%ADD15RoundRect,0.250000X-0.845000X0.620000X-0.845000X-0.620000X0.845000X-0.620000X0.845000X0.620000X0*%
%TD*%
%TA.AperFunction,ComponentPad*%
%ADD16O,2.190000X1.740000*%
%TD*%
%TA.AperFunction,ComponentPad*%
%ADD17RoundRect,0.250000X0.845000X-0.620000X0.845000X0.620000X-0.845000X0.620000X-0.845000X-0.620000X0*%
%TD*%
%TA.AperFunction,ViaPad*%
%ADD18C,2.000000*%
%TD*%
%TA.AperFunction,Conductor*%
%ADD19C,1.000000*%
%TD*%
G04 APERTURE END LIST*
D10*
%TO.P,Next/Stop,1,1*%
%TO.N,Net-(J2-Pin_3)*%
X102450000Y-113200000D03*
X89950000Y-113200000D03*
%TO.P,Next/Stop,2,2*%
%TO.N,Net-(J2-Pin_1)*%
X102450000Y-108200000D03*
X89950000Y-108200000D03*
%TD*%
D11*
%TO.P,D3_RGB,1,DO*%
%TO.N,Net-(D3-DO)*%
X93300000Y-77700000D03*
D12*
%TO.P,D3_RGB,2,GND*%
%TO.N,GND*%
X93300000Y-76430000D03*
%TO.P,D3_RGB,3,VDD*%
%TO.N,Net-(D3-VDD)*%
X93300000Y-75160000D03*
%TO.P,D3_RGB,4,DI*%
%TO.N,Net-(D3-DI)*%
X93300000Y-73890000D03*
%TD*%
D13*
%TO.P,D1_Red,1,K*%
%TO.N,Net-(D1-K)*%
X93400000Y-91975000D03*
D14*
%TO.P,D1_Red,2,A*%
%TO.N,GND*%
X93400000Y-89435000D03*
%TD*%
D13*
%TO.P,D2_Green,1,K*%
%TO.N,Net-(D2-K)*%
X93300000Y-84575000D03*
D14*
%TO.P,D2_Green,2,A*%
%TO.N,GND*%
X93300000Y-82035000D03*
%TD*%
D10*
%TO.P,Select,1,1*%
%TO.N,Net-(J2-Pin_2)*%
X89950000Y-126800000D03*
X102450000Y-126800000D03*
%TO.P,Select,2,2*%
%TO.N,Net-(J2-Pin_4)*%
X89950000Y-131800000D03*
X102450000Y-131800000D03*
%TD*%
D15*
%TO.P,BRIDGE,1,Pin_1*%
%TO.N,Net-(J3-Pin_1)*%
X91750000Y-140200000D03*
D16*
%TO.P,BRIDGE,2,Pin_2*%
%TO.N,Net-(J3-Pin_2)*%
X91750000Y-142740000D03*
%TO.P,BRIDGE,3,Pin_3*%
%TO.N,unconnected-(J3-Pin_3-Pad3)*%
X91750000Y-145280000D03*
%TD*%
D17*
%TO.P,Pwr,1,Pin_1*%
%TO.N,Net-(J3-Pin_2)*%
X101250000Y-142740000D03*
D16*
%TO.P,Pwr,2,Pin_2*%
%TO.N,Net-(J3-Pin_1)*%
X101250000Y-140200000D03*
%TD*%
D17*
%TO.P,LEDs,1,Pin_1*%
%TO.N,Net-(D1-K)*%
X77000000Y-91660000D03*
D16*
%TO.P,LEDs,2,Pin_2*%
%TO.N,Net-(D2-K)*%
X77000000Y-89120000D03*
%TO.P,LEDs,3,Pin_3*%
%TO.N,Net-(D3-DO)*%
X77000000Y-86580000D03*
%TO.P,LEDs,4,Pin_4*%
%TO.N,Net-(D3-VDD)*%
X77000000Y-84040000D03*
%TO.P,LEDs,5,Pin_5*%
%TO.N,Net-(D3-DI)*%
X77000000Y-81500000D03*
%TO.P,LEDs,6,Pin_6*%
%TO.N,GND*%
X77000000Y-78960000D03*
%TO.P,LEDs,7,Pin_7*%
X77000000Y-76420000D03*
%TO.P,LEDs,8,Pin_8*%
X77000000Y-73880000D03*
%TD*%
D15*
%TO.P,Switches,1,Pin_1*%
%TO.N,Net-(J2-Pin_1)*%
X77120000Y-98390000D03*
D16*
%TO.P,Switches,2,Pin_2*%
%TO.N,Net-(J2-Pin_2)*%
X77120000Y-100930000D03*
%TO.P,Switches,3,Pin_3*%
%TO.N,Net-(J2-Pin_3)*%
X77120000Y-103470000D03*
%TO.P,Switches,4,Pin_4*%
%TO.N,Net-(J2-Pin_4)*%
X77120000Y-106010000D03*
%TD*%
D18*
%TO.N,GND*%
X83400000Y-73880000D03*
X83380000Y-76420000D03*
X83360000Y-78960000D03*
%TO.N,Net-(D1-K)*%
X83400000Y-91660000D03*
%TO.N,Net-(D2-K)*%
X83400000Y-89120000D03*
%TO.N,Net-(D3-VDD)*%
X83460000Y-84040000D03*
%TO.N,Net-(D3-DO)*%
X83400000Y-86600000D03*
%TO.N,Net-(D3-DI)*%
X83400000Y-81500000D03*
%TO.N,Net-(J2-Pin_1)*%
X103900000Y-102000000D03*
%TO.N,Net-(J2-Pin_2)*%
X103900000Y-120600000D03*
%TO.N,Net-(J2-Pin_3)*%
X84100000Y-103500000D03*
%TO.N,Net-(J2-Pin_4)*%
X82610000Y-106010000D03*
%TO.N,Net-(J3-Pin_1)*%
X96650000Y-140200000D03*
%TO.N,Net-(J3-Pin_2)*%
X96650000Y-142800000D03*
%TD*%
D19*
%TO.N,Net-(D1-K)*%
X83400000Y-91660000D02*
X93085000Y-91660000D01*
X93085000Y-91660000D02*
X93400000Y-91975000D01*
%TO.N,Net-(D2-K)*%
X83400000Y-89120000D02*
X85480000Y-89120000D01*
X85480000Y-89120000D02*
X90025000Y-84575000D01*
X90025000Y-84575000D02*
X93300000Y-84575000D01*
%TO.N,Net-(D3-VDD)*%
X87000000Y-80500000D02*
X87000000Y-76200000D01*
X83460000Y-84040000D02*
X87000000Y-80500000D01*
X88040000Y-75160000D02*
X87000000Y-76200000D01*
X93300000Y-75160000D02*
X88040000Y-75160000D01*
%TO.N,Net-(D3-DO)*%
X88300000Y-81700000D02*
X88300000Y-78500000D01*
X93300000Y-77700000D02*
X89100000Y-77700000D01*
X89100000Y-77700000D02*
X88300000Y-78500000D01*
X83400000Y-86600000D02*
X88300000Y-81700000D01*
%TO.N,Net-(D3-DI)*%
X87360000Y-73840000D02*
X93250000Y-73840000D01*
X83400000Y-81500000D02*
X85600000Y-79300000D01*
X85600000Y-79300000D02*
X85600000Y-75600000D01*
X93250000Y-73840000D02*
X93300000Y-73890000D01*
X85600000Y-75600000D02*
X87360000Y-73840000D01*
%TO.N,Net-(J2-Pin_1)*%
X102450000Y-108200000D02*
X89950000Y-108200000D01*
X103900000Y-106750000D02*
X102450000Y-108200000D01*
X103900000Y-102000000D02*
X103900000Y-106750000D01*
%TO.N,Net-(J2-Pin_2)*%
X89950000Y-126800000D02*
X102450000Y-126800000D01*
X103900000Y-125350000D02*
X102450000Y-126800000D01*
X103900000Y-120600000D02*
X103900000Y-125350000D01*
%TO.N,Net-(J2-Pin_3)*%
X86900000Y-113200000D02*
X89950000Y-113200000D01*
X85900000Y-112200000D02*
X86900000Y-113200000D01*
X85900000Y-105300000D02*
X85900000Y-112200000D01*
X102450000Y-113200000D02*
X89950000Y-113200000D01*
X84100000Y-103500000D02*
X85900000Y-105300000D01*
%TO.N,Net-(J2-Pin_4)*%
X83700000Y-128500000D02*
X87000000Y-131800000D01*
X83700000Y-107100000D02*
X83700000Y-128500000D01*
X87000000Y-131800000D02*
X89950000Y-131800000D01*
X102450000Y-131800000D02*
X89950000Y-131800000D01*
X82610000Y-106010000D02*
X83700000Y-107100000D01*
%TO.N,Net-(J3-Pin_1)*%
X91750000Y-140200000D02*
X96650000Y-140200000D01*
%TO.N,Net-(J3-Pin_2)*%
X91750000Y-142740000D02*
X96590000Y-142740000D01*
X96590000Y-142740000D02*
X96650000Y-142800000D01*
%TD*%
%TA.AperFunction,Conductor*%
%TO.N,GND*%
G36*
X91921209Y-76180000D02*
G01*
X92742878Y-76180000D01*
X92767067Y-76182382D01*
X92807066Y-76190339D01*
X92833011Y-76195500D01*
X92833012Y-76195500D01*
X92915773Y-76195500D01*
X92880667Y-76256306D01*
X92850000Y-76370756D01*
X92850000Y-76489244D01*
X92880667Y-76603694D01*
X92915773Y-76664500D01*
X92352129Y-76664500D01*
X92352123Y-76664501D01*
X92292516Y-76670908D01*
X92289106Y-76672181D01*
X92245771Y-76680000D01*
X91912725Y-76680000D01*
X91892908Y-76693499D01*
X91854800Y-76699500D01*
X89001455Y-76699500D01*
X88904812Y-76718724D01*
X88808170Y-76737947D01*
X88808162Y-76737949D01*
X88780277Y-76749500D01*
X88626088Y-76813366D01*
X88626079Y-76813371D01*
X88462219Y-76922859D01*
X88410627Y-76974452D01*
X88322861Y-77062218D01*
X88212181Y-77172898D01*
X88150858Y-77206383D01*
X88081166Y-77201399D01*
X88025233Y-77159527D01*
X88000816Y-77094063D01*
X88000500Y-77085217D01*
X88000500Y-76665782D01*
X88020185Y-76598743D01*
X88036819Y-76578101D01*
X88418101Y-76196819D01*
X88479424Y-76163334D01*
X88505782Y-76160500D01*
X91854800Y-76160500D01*
X91921209Y-76180000D01*
G37*
%TD.AperFunction*%
%TA.AperFunction,Conductor*%
G36*
X77250000Y-78417290D02*
G01*
X77229661Y-78405548D01*
X77078333Y-78365000D01*
X76921667Y-78365000D01*
X76770339Y-78405548D01*
X76750000Y-78417290D01*
X76750000Y-76962709D01*
X76770339Y-76974452D01*
X76921667Y-77015000D01*
X77078333Y-77015000D01*
X77229661Y-76974452D01*
X77250000Y-76962709D01*
X77250000Y-78417290D01*
G37*
%TD.AperFunction*%
%TA.AperFunction,Conductor*%
G36*
X77250000Y-75877290D02*
G01*
X77229661Y-75865548D01*
X77078333Y-75825000D01*
X76921667Y-75825000D01*
X76770339Y-75865548D01*
X76750000Y-75877290D01*
X76750000Y-74422709D01*
X76770339Y-74434452D01*
X76921667Y-74475000D01*
X77078333Y-74475000D01*
X77229661Y-74434452D01*
X77250000Y-74422709D01*
X77250000Y-75877290D01*
G37*
%TD.AperFunction*%
%TA.AperFunction,Conductor*%
G36*
X105516944Y-71019685D02*
G01*
X105526378Y-71026389D01*
X105651573Y-71124473D01*
X105662781Y-71134403D01*
X105865596Y-71337218D01*
X105875525Y-71348425D01*
X105973610Y-71473621D01*
X105999460Y-71538532D01*
X106000000Y-71550094D01*
X106000000Y-147449904D01*
X105980315Y-147516943D01*
X105973611Y-147526377D01*
X105875526Y-147651573D01*
X105865596Y-147662781D01*
X105662781Y-147865596D01*
X105651574Y-147875525D01*
X105526379Y-147973610D01*
X105461467Y-147999460D01*
X105449905Y-148000000D01*
X72550095Y-148000000D01*
X72483056Y-147980315D01*
X72473622Y-147973611D01*
X72348426Y-147875526D01*
X72337218Y-147865596D01*
X72134403Y-147662781D01*
X72124473Y-147651573D01*
X72026389Y-147526377D01*
X72000540Y-147461464D01*
X72000000Y-147449904D01*
X72000000Y-139529983D01*
X90154500Y-139529983D01*
X90154500Y-140870001D01*
X90154501Y-140870018D01*
X90165000Y-140972796D01*
X90165001Y-140972799D01*
X90204772Y-141092819D01*
X90220186Y-141139334D01*
X90312288Y-141288656D01*
X90436344Y-141412712D01*
X90585666Y-141504814D01*
X90585668Y-141504814D01*
X90585669Y-141504815D01*
X90586348Y-141505132D01*
X90586735Y-141505473D01*
X90591813Y-141508605D01*
X90591277Y-141509472D01*
X90638787Y-141551304D01*
X90657939Y-141618498D01*
X90637723Y-141685379D01*
X90621625Y-141705195D01*
X90479640Y-141847180D01*
X90352843Y-142021700D01*
X90254909Y-142213908D01*
X90188245Y-142419077D01*
X90154500Y-142632133D01*
X90154500Y-142847866D01*
X90188245Y-143060922D01*
X90188246Y-143060926D01*
X90254908Y-143266089D01*
X90352843Y-143458299D01*
X90479641Y-143632821D01*
X90632179Y-143785359D01*
X90753454Y-143873471D01*
X90803294Y-143909682D01*
X90845959Y-143965012D01*
X90851938Y-144034626D01*
X90819332Y-144096421D01*
X90803294Y-144110318D01*
X90803045Y-144110499D01*
X90632179Y-144234641D01*
X90632177Y-144234643D01*
X90632176Y-144234643D01*
X90479643Y-144387176D01*
X90479643Y-144387177D01*
X90479641Y-144387179D01*
X90425186Y-144462129D01*
X90352843Y-144561700D01*
X90254909Y-144753908D01*
X90188245Y-144959077D01*
X90154500Y-145172133D01*
X90154500Y-145387866D01*
X90188245Y-145600922D01*
X90188246Y-145600926D01*
X90254908Y-145806089D01*
X90352843Y-145998299D01*
X90479641Y-146172821D01*
X90632179Y-146325359D01*
X90806701Y-146452157D01*
X90998911Y-146550092D01*
X91204074Y-146616754D01*
X91283973Y-146629408D01*
X91417134Y-146650500D01*
X91417139Y-146650500D01*
X92082866Y-146650500D01*
X92201230Y-146631752D01*
X92295926Y-146616754D01*
X92501089Y-146550092D01*
X92693299Y-146452157D01*
X92867821Y-146325359D01*
X93020359Y-146172821D01*
X93147157Y-145998299D01*
X93245092Y-145806089D01*
X93311754Y-145600926D01*
X93326752Y-145506230D01*
X93345500Y-145387866D01*
X93345500Y-145172133D01*
X93311754Y-144959077D01*
X93311754Y-144959074D01*
X93245092Y-144753911D01*
X93147157Y-144561701D01*
X93020359Y-144387179D01*
X92867821Y-144234641D01*
X92696704Y-144110317D01*
X92654040Y-144054988D01*
X92648061Y-143985374D01*
X92680667Y-143923580D01*
X92696702Y-143909684D01*
X92867821Y-143785359D01*
X92876361Y-143776819D01*
X92937684Y-143743334D01*
X92964042Y-143740500D01*
X95421911Y-143740500D01*
X95488950Y-143760185D01*
X95513141Y-143780517D01*
X95527708Y-143796341D01*
X95630256Y-143907738D01*
X95826491Y-144060474D01*
X96045190Y-144178828D01*
X96280386Y-144259571D01*
X96525665Y-144300500D01*
X96774335Y-144300500D01*
X97019614Y-144259571D01*
X97254810Y-144178828D01*
X97473509Y-144060474D01*
X97669744Y-143907738D01*
X97838164Y-143724785D01*
X97974173Y-143516607D01*
X98074063Y-143288881D01*
X98135108Y-143047821D01*
X98151677Y-142847866D01*
X98155643Y-142800005D01*
X98155643Y-142799994D01*
X98135109Y-142552187D01*
X98135107Y-142552175D01*
X98074063Y-142311118D01*
X97974173Y-142083393D01*
X97838166Y-141875217D01*
X97812355Y-141847179D01*
X97669744Y-141692262D01*
X97669739Y-141692258D01*
X97669737Y-141692256D01*
X97548448Y-141597853D01*
X97507635Y-141541143D01*
X97503960Y-141471370D01*
X97538592Y-141410687D01*
X97548448Y-141402147D01*
X97652070Y-141321494D01*
X97669744Y-141307738D01*
X97838164Y-141124785D01*
X97974173Y-140916607D01*
X98074063Y-140688881D01*
X98135108Y-140447821D01*
X98146705Y-140307866D01*
X98155643Y-140200005D01*
X98155643Y-140199994D01*
X98146705Y-140092133D01*
X99654500Y-140092133D01*
X99654500Y-140307866D01*
X99688245Y-140520922D01*
X99688246Y-140520926D01*
X99754908Y-140726089D01*
X99852843Y-140918299D01*
X99979641Y-141092821D01*
X99979643Y-141092823D01*
X100121624Y-141234804D01*
X100155109Y-141296127D01*
X100150125Y-141365819D01*
X100108253Y-141421752D01*
X100086360Y-141434861D01*
X100085677Y-141435179D01*
X99936342Y-141527289D01*
X99812289Y-141651342D01*
X99720187Y-141800663D01*
X99720186Y-141800666D01*
X99665001Y-141967203D01*
X99665001Y-141967204D01*
X99665000Y-141967204D01*
X99654500Y-142069983D01*
X99654500Y-143410001D01*
X99654501Y-143410018D01*
X99665000Y-143512796D01*
X99665001Y-143512799D01*
X99704773Y-143632821D01*
X99720186Y-143679334D01*
X99812288Y-143828656D01*
X99936344Y-143952712D01*
X100085666Y-144044814D01*
X100252203Y-144099999D01*
X100354991Y-144110500D01*
X102145008Y-144110499D01*
X102247797Y-144099999D01*
X102414334Y-144044814D01*
X102563656Y-143952712D01*
X102687712Y-143828656D01*
X102779814Y-143679334D01*
X102834999Y-143512797D01*
X102845500Y-143410009D01*
X102845499Y-142069992D01*
X102834999Y-141967203D01*
X102779814Y-141800666D01*
X102687712Y-141651344D01*
X102563656Y-141527288D01*
X102414334Y-141435186D01*
X102414326Y-141435181D01*
X102413645Y-141434864D01*
X102413256Y-141434521D01*
X102408187Y-141431395D01*
X102408721Y-141430528D01*
X102361208Y-141388688D01*
X102342060Y-141321494D01*
X102362280Y-141254614D01*
X102378366Y-141234813D01*
X102520359Y-141092821D01*
X102647157Y-140918299D01*
X102745092Y-140726089D01*
X102811754Y-140520926D01*
X102826752Y-140426230D01*
X102845500Y-140307866D01*
X102845500Y-140092133D01*
X102811754Y-139879077D01*
X102811754Y-139879074D01*
X102745092Y-139673911D01*
X102647157Y-139481701D01*
X102520359Y-139307179D01*
X102367821Y-139154641D01*
X102193299Y-139027843D01*
X102001089Y-138929908D01*
X101795926Y-138863246D01*
X101795924Y-138863245D01*
X101795922Y-138863245D01*
X101582866Y-138829500D01*
X101582861Y-138829500D01*
X100917139Y-138829500D01*
X100917134Y-138829500D01*
X100704077Y-138863245D01*
X100498908Y-138929909D01*
X100306700Y-139027843D01*
X100218037Y-139092261D01*
X100132179Y-139154641D01*
X100132177Y-139154643D01*
X100132176Y-139154643D01*
X99979643Y-139307176D01*
X99979643Y-139307177D01*
X99979641Y-139307179D01*
X99925186Y-139382129D01*
X99852843Y-139481700D01*
X99754909Y-139673908D01*
X99688245Y-139879077D01*
X99654500Y-140092133D01*
X98146705Y-140092133D01*
X98135109Y-139952187D01*
X98135107Y-139952175D01*
X98074063Y-139711118D01*
X97974173Y-139483393D01*
X97838166Y-139275217D01*
X97731625Y-139159483D01*
X97669744Y-139092262D01*
X97473509Y-138939526D01*
X97473507Y-138939525D01*
X97473506Y-138939524D01*
X97254811Y-138821172D01*
X97254802Y-138821169D01*
X97019616Y-138740429D01*
X96774335Y-138699500D01*
X96525665Y-138699500D01*
X96280383Y-138740429D01*
X96045197Y-138821169D01*
X96045188Y-138821172D01*
X95826493Y-138939524D01*
X95630255Y-139092262D01*
X95630252Y-139092265D01*
X95568374Y-139159483D01*
X95508487Y-139195474D01*
X95477145Y-139199500D01*
X93311294Y-139199500D01*
X93244255Y-139179815D01*
X93205755Y-139140597D01*
X93187712Y-139111344D01*
X93063656Y-138987288D01*
X92914334Y-138895186D01*
X92747797Y-138840001D01*
X92747795Y-138840000D01*
X92645010Y-138829500D01*
X90854998Y-138829500D01*
X90854981Y-138829501D01*
X90752203Y-138840000D01*
X90752200Y-138840001D01*
X90585668Y-138895185D01*
X90585663Y-138895187D01*
X90436342Y-138987289D01*
X90312289Y-139111342D01*
X90220187Y-139260663D01*
X90220186Y-139260666D01*
X90165001Y-139427203D01*
X90165001Y-139427204D01*
X90165000Y-139427204D01*
X90154500Y-139529983D01*
X72000000Y-139529983D01*
X72000000Y-97719983D01*
X75524500Y-97719983D01*
X75524500Y-99060001D01*
X75524501Y-99060018D01*
X75535000Y-99162796D01*
X75535001Y-99162799D01*
X75590185Y-99329331D01*
X75590186Y-99329334D01*
X75682288Y-99478656D01*
X75806344Y-99602712D01*
X75955666Y-99694814D01*
X75955668Y-99694814D01*
X75955669Y-99694815D01*
X75956348Y-99695132D01*
X75956735Y-99695473D01*
X75961813Y-99698605D01*
X75961277Y-99699472D01*
X76008787Y-99741304D01*
X76027939Y-99808498D01*
X76007723Y-99875379D01*
X75991625Y-99895195D01*
X75849640Y-100037180D01*
X75722843Y-100211700D01*
X75624909Y-100403908D01*
X75558245Y-100609077D01*
X75524500Y-100822133D01*
X75524500Y-101037866D01*
X75558245Y-101250922D01*
X75558246Y-101250926D01*
X75624908Y-101456089D01*
X75722843Y-101648299D01*
X75849641Y-101822821D01*
X76002179Y-101975359D01*
X76091740Y-102040429D01*
X76173294Y-102099682D01*
X76215959Y-102155012D01*
X76221938Y-102224626D01*
X76189332Y-102286421D01*
X76173294Y-102300318D01*
X76002179Y-102424641D01*
X76002177Y-102424643D01*
X76002176Y-102424643D01*
X75849643Y-102577176D01*
X75849643Y-102577177D01*
X75849641Y-102577179D01*
X75795186Y-102652129D01*
X75722843Y-102751700D01*
X75624909Y-102943908D01*
X75558245Y-103149077D01*
X75524500Y-103362133D01*
X75524500Y-103577866D01*
X75551419Y-103747824D01*
X75558246Y-103790926D01*
X75624908Y-103996089D01*
X75722843Y-104188299D01*
X75849641Y-104362821D01*
X76002179Y-104515359D01*
X76123454Y-104603471D01*
X76173294Y-104639682D01*
X76215959Y-104695012D01*
X76221938Y-104764626D01*
X76189332Y-104826421D01*
X76173294Y-104840318D01*
X76173044Y-104840500D01*
X76002179Y-104964641D01*
X76002177Y-104964643D01*
X76002176Y-104964643D01*
X75849643Y-105117176D01*
X75849643Y-105117177D01*
X75849641Y-105117179D01*
X75808293Y-105174090D01*
X75722843Y-105291700D01*
X75624909Y-105483908D01*
X75558245Y-105689077D01*
X75524500Y-105902133D01*
X75524500Y-106117866D01*
X75558245Y-106330922D01*
X75558246Y-106330926D01*
X75624908Y-106536089D01*
X75722843Y-106728299D01*
X75849641Y-106902821D01*
X76002179Y-107055359D01*
X76176701Y-107182157D01*
X76368911Y-107280092D01*
X76574074Y-107346754D01*
X76653973Y-107359408D01*
X76787134Y-107380500D01*
X76787139Y-107380500D01*
X77452866Y-107380500D01*
X77571230Y-107361752D01*
X77665926Y-107346754D01*
X77871089Y-107280092D01*
X78063299Y-107182157D01*
X78237821Y-107055359D01*
X78390359Y-106902821D01*
X78517157Y-106728299D01*
X78615092Y-106536089D01*
X78681754Y-106330926D01*
X78696752Y-106236230D01*
X78715500Y-106117866D01*
X78715500Y-106009994D01*
X81104357Y-106009994D01*
X81104357Y-106010005D01*
X81124890Y-106257812D01*
X81124892Y-106257824D01*
X81185936Y-106498881D01*
X81285826Y-106726606D01*
X81421833Y-106934782D01*
X81435381Y-106949499D01*
X81590256Y-107117738D01*
X81786491Y-107270474D01*
X81786493Y-107270475D01*
X82003251Y-107387779D01*
X82005190Y-107388828D01*
X82240386Y-107469571D01*
X82485665Y-107510500D01*
X82575500Y-107510500D01*
X82642539Y-107530185D01*
X82688294Y-107582989D01*
X82699500Y-107634500D01*
X82699500Y-128598541D01*
X82699500Y-128598543D01*
X82699499Y-128598543D01*
X82737947Y-128791829D01*
X82737950Y-128791839D01*
X82813364Y-128973907D01*
X82813371Y-128973920D01*
X82922859Y-129137780D01*
X82922860Y-129137781D01*
X82922861Y-129137782D01*
X83062218Y-129277139D01*
X83062219Y-129277139D01*
X83069286Y-129284206D01*
X83069285Y-129284206D01*
X83069288Y-129284208D01*
X86222860Y-132437781D01*
X86222861Y-132437782D01*
X86292895Y-132507816D01*
X86362219Y-132577140D01*
X86526079Y-132686628D01*
X86526086Y-132686632D01*
X86639934Y-132733789D01*
X86708164Y-132762051D01*
X86804812Y-132781275D01*
X86853135Y-132790887D01*
X86901458Y-132800500D01*
X86901459Y-132800500D01*
X86901460Y-132800500D01*
X87098540Y-132800500D01*
X88389800Y-132800500D01*
X88456839Y-132820185D01*
X88469365Y-132829493D01*
X88642179Y-132955048D01*
X88642181Y-132955049D01*
X88642184Y-132955051D01*
X88831588Y-133051557D01*
X89033757Y-133117246D01*
X89243713Y-133150500D01*
X89243714Y-133150500D01*
X90656286Y-133150500D01*
X90656287Y-133150500D01*
X90866243Y-133117246D01*
X91068412Y-133051557D01*
X91257816Y-132955051D01*
X91359511Y-132881166D01*
X91433734Y-132827241D01*
X91434364Y-132828108D01*
X91493419Y-132801641D01*
X91510200Y-132800500D01*
X95273084Y-132800500D01*
X95340123Y-132820185D01*
X95385878Y-132872989D01*
X95395822Y-132942147D01*
X95366797Y-133005703D01*
X95360765Y-133012181D01*
X95322445Y-133050500D01*
X95322441Y-133050505D01*
X95216006Y-133197002D01*
X95133788Y-133358360D01*
X95133787Y-133358363D01*
X95077829Y-133530589D01*
X95049500Y-133709448D01*
X95049500Y-133890551D01*
X95077829Y-134069410D01*
X95133787Y-134241636D01*
X95133788Y-134241639D01*
X95216006Y-134402997D01*
X95322441Y-134549494D01*
X95322445Y-134549499D01*
X95450500Y-134677554D01*
X95450505Y-134677558D01*
X95578287Y-134770396D01*
X95597006Y-134783996D01*
X95702484Y-134837740D01*
X95758360Y-134866211D01*
X95758363Y-134866212D01*
X95844476Y-134894191D01*
X95930591Y-134922171D01*
X96013429Y-134935291D01*
X96109449Y-134950500D01*
X96109454Y-134950500D01*
X96290551Y-134950500D01*
X96377259Y-134936765D01*
X96469409Y-134922171D01*
X96641639Y-134866211D01*
X96802994Y-134783996D01*
X96949501Y-134677553D01*
X97077553Y-134549501D01*
X97183996Y-134402994D01*
X97266211Y-134241639D01*
X97322171Y-134069409D01*
X97336765Y-133977259D01*
X97350500Y-133890551D01*
X97350500Y-133709448D01*
X97334019Y-133605397D01*
X97322171Y-133530591D01*
X97266211Y-133358361D01*
X97266211Y-133358360D01*
X97237740Y-133302484D01*
X97183996Y-133197006D01*
X97150208Y-133150500D01*
X97077558Y-133050505D01*
X97077554Y-133050500D01*
X97039235Y-133012181D01*
X97005750Y-132950858D01*
X97010734Y-132881166D01*
X97052606Y-132825233D01*
X97118070Y-132800816D01*
X97126916Y-132800500D01*
X100889800Y-132800500D01*
X100956839Y-132820185D01*
X100969365Y-132829493D01*
X101142179Y-132955048D01*
X101142181Y-132955049D01*
X101142184Y-132955051D01*
X101331588Y-133051557D01*
X101533757Y-133117246D01*
X101743713Y-133150500D01*
X101743714Y-133150500D01*
X103156286Y-133150500D01*
X103156287Y-133150500D01*
X103366243Y-133117246D01*
X103568412Y-133051557D01*
X103757816Y-132955051D01*
X103859511Y-132881166D01*
X103929786Y-132830109D01*
X103929788Y-132830106D01*
X103929792Y-132830104D01*
X104080104Y-132679792D01*
X104080106Y-132679788D01*
X104080109Y-132679786D01*
X104205048Y-132507820D01*
X104205047Y-132507820D01*
X104205051Y-132507816D01*
X104301557Y-132318412D01*
X104367246Y-132116243D01*
X104400500Y-131906287D01*
X104400500Y-131693713D01*
X104367246Y-131483757D01*
X104301557Y-131281588D01*
X104205051Y-131092184D01*
X104205049Y-131092181D01*
X104205048Y-131092179D01*
X104080109Y-130920213D01*
X103929786Y-130769890D01*
X103757820Y-130644951D01*
X103568414Y-130548444D01*
X103568413Y-130548443D01*
X103568412Y-130548443D01*
X103366243Y-130482754D01*
X103366241Y-130482753D01*
X103366240Y-130482753D01*
X103204957Y-130457208D01*
X103156287Y-130449500D01*
X101743713Y-130449500D01*
X101695042Y-130457208D01*
X101533760Y-130482753D01*
X101331585Y-130548444D01*
X101142179Y-130644951D01*
X100966266Y-130772759D01*
X100965635Y-130771891D01*
X100906581Y-130798359D01*
X100889800Y-130799500D01*
X91510200Y-130799500D01*
X91443161Y-130779815D01*
X91430634Y-130770506D01*
X91257820Y-130644951D01*
X91068414Y-130548444D01*
X91068413Y-130548443D01*
X91068412Y-130548443D01*
X90866243Y-130482754D01*
X90866241Y-130482753D01*
X90866240Y-130482753D01*
X90704957Y-130457208D01*
X90656287Y-130449500D01*
X89243713Y-130449500D01*
X89195042Y-130457208D01*
X89033760Y-130482753D01*
X88831585Y-130548444D01*
X88642179Y-130644951D01*
X88466266Y-130772759D01*
X88465635Y-130771891D01*
X88406581Y-130798359D01*
X88389800Y-130799500D01*
X87465783Y-130799500D01*
X87398744Y-130779815D01*
X87378102Y-130763181D01*
X84736819Y-128121898D01*
X84703334Y-128060575D01*
X84700500Y-128034217D01*
X84700500Y-126693713D01*
X87999500Y-126693713D01*
X87999500Y-126906286D01*
X88032753Y-127116239D01*
X88098444Y-127318414D01*
X88194951Y-127507820D01*
X88319890Y-127679786D01*
X88470213Y-127830109D01*
X88642179Y-127955048D01*
X88642181Y-127955049D01*
X88642184Y-127955051D01*
X88831588Y-128051557D01*
X89033757Y-128117246D01*
X89243713Y-128150500D01*
X89243714Y-128150500D01*
X90656286Y-128150500D01*
X90656287Y-128150500D01*
X90866243Y-128117246D01*
X91068412Y-128051557D01*
X91257816Y-127955051D01*
X91272769Y-127944186D01*
X91433734Y-127827241D01*
X91434364Y-127828108D01*
X91493419Y-127801641D01*
X91510200Y-127800500D01*
X100889800Y-127800500D01*
X100956839Y-127820185D01*
X100969365Y-127829493D01*
X101142179Y-127955048D01*
X101142181Y-127955049D01*
X101142184Y-127955051D01*
X101331588Y-128051557D01*
X101533757Y-128117246D01*
X101743713Y-128150500D01*
X101743714Y-128150500D01*
X103156286Y-128150500D01*
X103156287Y-128150500D01*
X103366243Y-128117246D01*
X103568412Y-128051557D01*
X103757816Y-127955051D01*
X103779789Y-127939086D01*
X103929786Y-127830109D01*
X103929788Y-127830106D01*
X103929792Y-127830104D01*
X104080104Y-127679792D01*
X104080106Y-127679788D01*
X104080109Y-127679786D01*
X104205048Y-127507820D01*
X104205047Y-127507820D01*
X104205051Y-127507816D01*
X104301557Y-127318412D01*
X104367246Y-127116243D01*
X104400500Y-126906287D01*
X104400500Y-126693713D01*
X104367246Y-126483757D01*
X104345091Y-126415574D01*
X104343097Y-126345735D01*
X104375339Y-126289581D01*
X104677140Y-125987781D01*
X104786632Y-125823914D01*
X104862052Y-125641835D01*
X104900500Y-125448540D01*
X104900500Y-125251459D01*
X104900500Y-121777027D01*
X104920185Y-121709988D01*
X104933265Y-121693049D01*
X105088164Y-121524785D01*
X105224173Y-121316607D01*
X105324063Y-121088881D01*
X105385108Y-120847821D01*
X105405643Y-120600000D01*
X105385108Y-120352179D01*
X105324063Y-120111119D01*
X105224173Y-119883393D01*
X105088166Y-119675217D01*
X105066557Y-119651744D01*
X104919744Y-119492262D01*
X104723509Y-119339526D01*
X104723507Y-119339525D01*
X104723506Y-119339524D01*
X104504811Y-119221172D01*
X104504802Y-119221169D01*
X104269616Y-119140429D01*
X104024335Y-119099500D01*
X103775665Y-119099500D01*
X103530383Y-119140429D01*
X103295197Y-119221169D01*
X103295188Y-119221172D01*
X103076493Y-119339524D01*
X102880257Y-119492261D01*
X102711833Y-119675217D01*
X102575826Y-119883393D01*
X102475936Y-120111118D01*
X102414892Y-120352175D01*
X102414890Y-120352187D01*
X102394357Y-120599994D01*
X102394357Y-120600005D01*
X102414890Y-120847812D01*
X102414892Y-120847824D01*
X102475936Y-121088881D01*
X102575826Y-121316606D01*
X102711833Y-121524782D01*
X102711836Y-121524785D01*
X102866730Y-121693045D01*
X102897652Y-121755698D01*
X102899500Y-121777027D01*
X102899500Y-124884217D01*
X102879815Y-124951256D01*
X102863181Y-124971898D01*
X102421899Y-125413181D01*
X102360576Y-125446666D01*
X102334218Y-125449500D01*
X101743713Y-125449500D01*
X101695042Y-125457208D01*
X101533760Y-125482753D01*
X101331585Y-125548444D01*
X101142179Y-125644951D01*
X100966266Y-125772759D01*
X100965635Y-125771891D01*
X100906581Y-125798359D01*
X100889800Y-125799500D01*
X97126916Y-125799500D01*
X97059877Y-125779815D01*
X97014122Y-125727011D01*
X97004178Y-125657853D01*
X97033203Y-125594297D01*
X97039235Y-125587819D01*
X97077553Y-125549501D01*
X97183996Y-125402994D01*
X97266211Y-125241639D01*
X97322171Y-125069409D01*
X97343368Y-124935579D01*
X97350500Y-124890551D01*
X97350500Y-124709448D01*
X97334019Y-124605397D01*
X97322171Y-124530591D01*
X97266211Y-124358361D01*
X97266211Y-124358360D01*
X97237740Y-124302484D01*
X97183996Y-124197006D01*
X97170396Y-124178287D01*
X97077558Y-124050505D01*
X97077554Y-124050500D01*
X96949499Y-123922445D01*
X96949494Y-123922441D01*
X96802997Y-123816006D01*
X96802996Y-123816005D01*
X96802994Y-123816004D01*
X96751300Y-123789664D01*
X96641639Y-123733788D01*
X96641636Y-123733787D01*
X96469410Y-123677829D01*
X96290551Y-123649500D01*
X96290546Y-123649500D01*
X96109454Y-123649500D01*
X96109449Y-123649500D01*
X95930589Y-123677829D01*
X95758363Y-123733787D01*
X95758360Y-123733788D01*
X95597002Y-123816006D01*
X95450505Y-123922441D01*
X95450500Y-123922445D01*
X95322445Y-124050500D01*
X95322441Y-124050505D01*
X95216006Y-124197002D01*
X95133788Y-124358360D01*
X95133787Y-124358363D01*
X95077829Y-124530589D01*
X95049500Y-124709448D01*
X95049500Y-124890551D01*
X95077829Y-125069410D01*
X95133787Y-125241636D01*
X95133788Y-125241639D01*
X95216006Y-125402997D01*
X95322441Y-125549494D01*
X95322445Y-125549499D01*
X95360765Y-125587819D01*
X95394250Y-125649142D01*
X95389266Y-125718834D01*
X95347394Y-125774767D01*
X95281930Y-125799184D01*
X95273084Y-125799500D01*
X91510200Y-125799500D01*
X91443161Y-125779815D01*
X91430634Y-125770506D01*
X91257820Y-125644951D01*
X91068414Y-125548444D01*
X91068413Y-125548443D01*
X91068412Y-125548443D01*
X90866243Y-125482754D01*
X90866241Y-125482753D01*
X90866240Y-125482753D01*
X90704957Y-125457208D01*
X90656287Y-125449500D01*
X89243713Y-125449500D01*
X89195042Y-125457208D01*
X89033760Y-125482753D01*
X88831585Y-125548444D01*
X88642179Y-125644951D01*
X88470213Y-125769890D01*
X88319890Y-125920213D01*
X88194951Y-126092179D01*
X88098444Y-126281585D01*
X88032753Y-126483760D01*
X87999500Y-126693713D01*
X84700500Y-126693713D01*
X84700500Y-112541974D01*
X84720185Y-112474935D01*
X84772989Y-112429180D01*
X84842147Y-112419236D01*
X84905703Y-112448261D01*
X84939061Y-112494521D01*
X84958716Y-112541974D01*
X84960038Y-112545164D01*
X85013366Y-112673911D01*
X85013371Y-112673920D01*
X85122859Y-112837780D01*
X85122860Y-112837781D01*
X85122861Y-112837782D01*
X85262218Y-112977139D01*
X85262219Y-112977139D01*
X85269286Y-112984206D01*
X85269285Y-112984206D01*
X85269289Y-112984209D01*
X86262215Y-113977137D01*
X86262219Y-113977140D01*
X86426079Y-114086628D01*
X86426085Y-114086631D01*
X86426086Y-114086632D01*
X86608165Y-114162052D01*
X86801455Y-114200500D01*
X86801458Y-114200501D01*
X86801460Y-114200501D01*
X87004655Y-114200501D01*
X87004675Y-114200500D01*
X88389800Y-114200500D01*
X88456839Y-114220185D01*
X88469365Y-114229493D01*
X88642179Y-114355048D01*
X88642181Y-114355049D01*
X88642184Y-114355051D01*
X88831588Y-114451557D01*
X89033757Y-114517246D01*
X89243713Y-114550500D01*
X89243714Y-114550500D01*
X90656286Y-114550500D01*
X90656287Y-114550500D01*
X90866243Y-114517246D01*
X91068412Y-114451557D01*
X91257816Y-114355051D01*
X91359511Y-114281166D01*
X91433734Y-114227241D01*
X91434364Y-114228108D01*
X91493419Y-114201641D01*
X91510200Y-114200500D01*
X95273084Y-114200500D01*
X95340123Y-114220185D01*
X95385878Y-114272989D01*
X95395822Y-114342147D01*
X95366797Y-114405703D01*
X95360765Y-114412181D01*
X95322445Y-114450500D01*
X95322441Y-114450505D01*
X95216006Y-114597002D01*
X95133788Y-114758360D01*
X95133787Y-114758363D01*
X95077829Y-114930589D01*
X95049500Y-115109448D01*
X95049500Y-115290551D01*
X95077829Y-115469410D01*
X95133787Y-115641636D01*
X95133788Y-115641639D01*
X95216006Y-115802997D01*
X95322441Y-115949494D01*
X95322445Y-115949499D01*
X95450500Y-116077554D01*
X95450505Y-116077558D01*
X95578287Y-116170396D01*
X95597006Y-116183996D01*
X95702484Y-116237740D01*
X95758360Y-116266211D01*
X95758363Y-116266212D01*
X95844476Y-116294191D01*
X95930591Y-116322171D01*
X96013429Y-116335291D01*
X96109449Y-116350500D01*
X96109454Y-116350500D01*
X96290551Y-116350500D01*
X96377259Y-116336765D01*
X96469409Y-116322171D01*
X96641639Y-116266211D01*
X96802994Y-116183996D01*
X96949501Y-116077553D01*
X97077553Y-115949501D01*
X97183996Y-115802994D01*
X97266211Y-115641639D01*
X97322171Y-115469409D01*
X97336765Y-115377259D01*
X97350500Y-115290551D01*
X97350500Y-115109448D01*
X97334019Y-115005397D01*
X97322171Y-114930591D01*
X97266211Y-114758361D01*
X97266211Y-114758360D01*
X97237740Y-114702484D01*
X97183996Y-114597006D01*
X97150208Y-114550500D01*
X97077558Y-114450505D01*
X97077554Y-114450500D01*
X97039235Y-114412181D01*
X97005750Y-114350858D01*
X97010734Y-114281166D01*
X97052606Y-114225233D01*
X97118070Y-114200816D01*
X97126916Y-114200500D01*
X100889800Y-114200500D01*
X100956839Y-114220185D01*
X100969365Y-114229493D01*
X101142179Y-114355048D01*
X101142181Y-114355049D01*
X101142184Y-114355051D01*
X101331588Y-114451557D01*
X101533757Y-114517246D01*
X101743713Y-114550500D01*
X101743714Y-114550500D01*
X103156286Y-114550500D01*
X103156287Y-114550500D01*
X103366243Y-114517246D01*
X103568412Y-114451557D01*
X103757816Y-114355051D01*
X103859511Y-114281166D01*
X103929786Y-114230109D01*
X103929788Y-114230106D01*
X103929792Y-114230104D01*
X104080104Y-114079792D01*
X104080106Y-114079788D01*
X104080109Y-114079786D01*
X104205048Y-113907820D01*
X104205047Y-113907820D01*
X104205051Y-113907816D01*
X104301557Y-113718412D01*
X104367246Y-113516243D01*
X104400500Y-113306287D01*
X104400500Y-113093713D01*
X104367246Y-112883757D01*
X104301557Y-112681588D01*
X104205051Y-112492184D01*
X104205049Y-112492181D01*
X104205048Y-112492179D01*
X104080109Y-112320213D01*
X103929786Y-112169890D01*
X103757820Y-112044951D01*
X103568414Y-111948444D01*
X103568413Y-111948443D01*
X103568412Y-111948443D01*
X103366243Y-111882754D01*
X103366241Y-111882753D01*
X103366240Y-111882753D01*
X103204957Y-111857208D01*
X103156287Y-111849500D01*
X101743713Y-111849500D01*
X101695042Y-111857208D01*
X101533760Y-111882753D01*
X101331585Y-111948444D01*
X101142179Y-112044951D01*
X100966266Y-112172759D01*
X100965635Y-112171891D01*
X100906581Y-112198359D01*
X100889800Y-112199500D01*
X91510200Y-112199500D01*
X91443161Y-112179815D01*
X91430634Y-112170506D01*
X91257820Y-112044951D01*
X91068414Y-111948444D01*
X91068413Y-111948443D01*
X91068412Y-111948443D01*
X90866243Y-111882754D01*
X90866241Y-111882753D01*
X90866240Y-111882753D01*
X90704957Y-111857208D01*
X90656287Y-111849500D01*
X89243713Y-111849500D01*
X89195042Y-111857208D01*
X89033760Y-111882753D01*
X88831585Y-111948444D01*
X88642179Y-112044951D01*
X88466266Y-112172759D01*
X88465635Y-112171891D01*
X88406581Y-112198359D01*
X88389800Y-112199500D01*
X87365783Y-112199500D01*
X87298744Y-112179815D01*
X87278102Y-112163181D01*
X86936819Y-111821898D01*
X86903334Y-111760575D01*
X86900500Y-111734217D01*
X86900500Y-108093713D01*
X87999500Y-108093713D01*
X87999500Y-108306286D01*
X88032753Y-108516239D01*
X88098444Y-108718414D01*
X88194951Y-108907820D01*
X88319890Y-109079786D01*
X88470213Y-109230109D01*
X88642179Y-109355048D01*
X88642181Y-109355049D01*
X88642184Y-109355051D01*
X88831588Y-109451557D01*
X89033757Y-109517246D01*
X89243713Y-109550500D01*
X89243714Y-109550500D01*
X90656286Y-109550500D01*
X90656287Y-109550500D01*
X90866243Y-109517246D01*
X91068412Y-109451557D01*
X91257816Y-109355051D01*
X91272769Y-109344186D01*
X91433734Y-109227241D01*
X91434364Y-109228108D01*
X91493419Y-109201641D01*
X91510200Y-109200500D01*
X100889800Y-109200500D01*
X100956839Y-109220185D01*
X100969365Y-109229493D01*
X101142179Y-109355048D01*
X101142181Y-109355049D01*
X101142184Y-109355051D01*
X101331588Y-109451557D01*
X101533757Y-109517246D01*
X101743713Y-109550500D01*
X101743714Y-109550500D01*
X103156286Y-109550500D01*
X103156287Y-109550500D01*
X103366243Y-109517246D01*
X103568412Y-109451557D01*
X103757816Y-109355051D01*
X103779789Y-109339086D01*
X103929786Y-109230109D01*
X103929788Y-109230106D01*
X103929792Y-109230104D01*
X104080104Y-109079792D01*
X104080106Y-109079788D01*
X104080109Y-109079786D01*
X104205048Y-108907820D01*
X104205047Y-108907820D01*
X104205051Y-108907816D01*
X104301557Y-108718412D01*
X104367246Y-108516243D01*
X104400500Y-108306287D01*
X104400500Y-108093713D01*
X104367246Y-107883757D01*
X104345091Y-107815574D01*
X104343097Y-107745735D01*
X104375339Y-107689581D01*
X104677140Y-107387781D01*
X104786632Y-107223914D01*
X104862052Y-107041835D01*
X104900500Y-106848540D01*
X104900500Y-106651459D01*
X104900500Y-103177027D01*
X104920185Y-103109988D01*
X104933265Y-103093049D01*
X105088164Y-102924785D01*
X105224173Y-102716607D01*
X105324063Y-102488881D01*
X105385108Y-102247821D01*
X105385343Y-102244988D01*
X105405643Y-102000005D01*
X105405643Y-101999994D01*
X105385109Y-101752187D01*
X105385107Y-101752175D01*
X105324063Y-101511118D01*
X105224173Y-101283393D01*
X105088166Y-101075217D01*
X105053777Y-101037861D01*
X104919744Y-100892262D01*
X104723509Y-100739526D01*
X104723507Y-100739525D01*
X104723506Y-100739524D01*
X104504811Y-100621172D01*
X104504802Y-100621169D01*
X104269616Y-100540429D01*
X104024335Y-100499500D01*
X103775665Y-100499500D01*
X103530383Y-100540429D01*
X103295197Y-100621169D01*
X103295188Y-100621172D01*
X103076493Y-100739524D01*
X102880257Y-100892261D01*
X102711833Y-101075217D01*
X102575826Y-101283393D01*
X102475936Y-101511118D01*
X102414892Y-101752175D01*
X102414890Y-101752187D01*
X102394357Y-101999994D01*
X102394357Y-102000005D01*
X102414890Y-102247812D01*
X102414892Y-102247824D01*
X102475936Y-102488881D01*
X102575826Y-102716606D01*
X102711833Y-102924782D01*
X102711836Y-102924785D01*
X102866730Y-103093045D01*
X102897652Y-103155698D01*
X102899500Y-103177027D01*
X102899500Y-106284217D01*
X102879815Y-106351256D01*
X102863181Y-106371898D01*
X102421899Y-106813181D01*
X102360576Y-106846666D01*
X102334218Y-106849500D01*
X101743713Y-106849500D01*
X101695042Y-106857208D01*
X101533760Y-106882753D01*
X101331585Y-106948444D01*
X101142179Y-107044951D01*
X100966266Y-107172759D01*
X100965635Y-107171891D01*
X100906581Y-107198359D01*
X100889800Y-107199500D01*
X97126916Y-107199500D01*
X97059877Y-107179815D01*
X97014122Y-107127011D01*
X97004178Y-107057853D01*
X97033203Y-106994297D01*
X97039235Y-106987819D01*
X97077553Y-106949501D01*
X97183996Y-106802994D01*
X97266211Y-106641639D01*
X97322171Y-106469409D01*
X97343368Y-106335579D01*
X97350500Y-106290551D01*
X97350500Y-106109448D01*
X97334019Y-106005397D01*
X97322171Y-105930591D01*
X97294191Y-105844476D01*
X97266212Y-105758363D01*
X97266211Y-105758360D01*
X97225316Y-105678101D01*
X97183996Y-105597006D01*
X97128861Y-105521119D01*
X97077558Y-105450505D01*
X97077554Y-105450500D01*
X96949499Y-105322445D01*
X96949494Y-105322441D01*
X96802997Y-105216006D01*
X96802996Y-105216005D01*
X96802994Y-105216004D01*
X96720734Y-105174090D01*
X96641639Y-105133788D01*
X96641636Y-105133787D01*
X96469410Y-105077829D01*
X96290551Y-105049500D01*
X96290546Y-105049500D01*
X96109454Y-105049500D01*
X96109449Y-105049500D01*
X95930589Y-105077829D01*
X95758363Y-105133787D01*
X95758360Y-105133788D01*
X95597002Y-105216006D01*
X95450505Y-105322441D01*
X95450500Y-105322445D01*
X95322445Y-105450500D01*
X95322441Y-105450505D01*
X95216006Y-105597002D01*
X95133788Y-105758360D01*
X95133787Y-105758363D01*
X95077829Y-105930589D01*
X95049500Y-106109448D01*
X95049500Y-106290551D01*
X95077829Y-106469410D01*
X95133787Y-106641636D01*
X95133788Y-106641639D01*
X95216006Y-106802997D01*
X95322441Y-106949494D01*
X95322445Y-106949499D01*
X95360765Y-106987819D01*
X95394250Y-107049142D01*
X95389266Y-107118834D01*
X95347394Y-107174767D01*
X95281930Y-107199184D01*
X95273084Y-107199500D01*
X91510200Y-107199500D01*
X91443161Y-107179815D01*
X91430634Y-107170506D01*
X91257820Y-107044951D01*
X91068414Y-106948444D01*
X91068413Y-106948443D01*
X91068412Y-106948443D01*
X90866243Y-106882754D01*
X90866241Y-106882753D01*
X90866240Y-106882753D01*
X90704957Y-106857208D01*
X90656287Y-106849500D01*
X89243713Y-106849500D01*
X89195042Y-106857208D01*
X89033760Y-106882753D01*
X88831585Y-106948444D01*
X88642179Y-107044951D01*
X88470213Y-107169890D01*
X88319890Y-107320213D01*
X88194951Y-107492179D01*
X88098444Y-107681585D01*
X88032753Y-107883760D01*
X87999500Y-108093713D01*
X86900500Y-108093713D01*
X86900500Y-105201458D01*
X86895056Y-105174092D01*
X86895056Y-105174090D01*
X86862051Y-105008164D01*
X86792602Y-104840500D01*
X86786632Y-104826086D01*
X86759171Y-104784988D01*
X86677140Y-104662219D01*
X86646090Y-104631169D01*
X86537782Y-104522861D01*
X86537781Y-104522860D01*
X85639341Y-103624421D01*
X85605857Y-103563099D01*
X85603447Y-103526499D01*
X85605643Y-103500003D01*
X85605643Y-103499995D01*
X85585109Y-103252187D01*
X85585107Y-103252175D01*
X85524063Y-103011118D01*
X85424173Y-102783393D01*
X85288166Y-102575217D01*
X85208688Y-102488881D01*
X85119744Y-102392262D01*
X84923509Y-102239526D01*
X84923507Y-102239525D01*
X84923506Y-102239524D01*
X84704811Y-102121172D01*
X84704802Y-102121169D01*
X84469616Y-102040429D01*
X84224335Y-101999500D01*
X83975665Y-101999500D01*
X83730383Y-102040429D01*
X83495197Y-102121169D01*
X83495188Y-102121172D01*
X83276493Y-102239524D01*
X83080257Y-102392261D01*
X82911833Y-102575217D01*
X82775826Y-102783393D01*
X82675936Y-103011118D01*
X82614892Y-103252175D01*
X82614890Y-103252187D01*
X82594357Y-103499994D01*
X82594357Y-103500005D01*
X82614890Y-103747812D01*
X82614892Y-103747824D01*
X82675936Y-103988881D01*
X82775826Y-104216606D01*
X82841860Y-104317679D01*
X82862048Y-104384568D01*
X82842867Y-104451754D01*
X82790408Y-104497904D01*
X82738051Y-104509500D01*
X82485665Y-104509500D01*
X82240383Y-104550429D01*
X82005197Y-104631169D01*
X82005188Y-104631172D01*
X81786493Y-104749524D01*
X81590257Y-104902261D01*
X81421833Y-105085217D01*
X81285826Y-105293393D01*
X81185936Y-105521118D01*
X81124892Y-105762175D01*
X81124890Y-105762187D01*
X81104357Y-106009994D01*
X78715500Y-106009994D01*
X78715500Y-105902133D01*
X78692728Y-105758360D01*
X78681754Y-105689074D01*
X78615092Y-105483911D01*
X78517157Y-105291701D01*
X78390359Y-105117179D01*
X78237821Y-104964641D01*
X78066704Y-104840317D01*
X78024040Y-104784988D01*
X78018061Y-104715374D01*
X78050667Y-104653580D01*
X78066702Y-104639684D01*
X78237821Y-104515359D01*
X78390359Y-104362821D01*
X78517157Y-104188299D01*
X78615092Y-103996089D01*
X78681754Y-103790926D01*
X78714563Y-103583780D01*
X78715500Y-103577866D01*
X78715500Y-103362133D01*
X78681754Y-103149077D01*
X78681754Y-103149074D01*
X78615092Y-102943911D01*
X78517157Y-102751701D01*
X78390359Y-102577179D01*
X78237821Y-102424641D01*
X78066704Y-102300317D01*
X78024040Y-102244988D01*
X78018061Y-102175374D01*
X78050667Y-102113580D01*
X78066702Y-102099684D01*
X78237821Y-101975359D01*
X78390359Y-101822821D01*
X78517157Y-101648299D01*
X78615092Y-101456089D01*
X78681754Y-101250926D01*
X78696752Y-101156230D01*
X78715500Y-101037866D01*
X78715500Y-100822133D01*
X78683670Y-100621172D01*
X78681754Y-100609074D01*
X78615092Y-100403911D01*
X78517157Y-100211701D01*
X78390359Y-100037179D01*
X78248375Y-99895195D01*
X78214890Y-99833872D01*
X78219874Y-99764180D01*
X78261746Y-99708247D01*
X78283657Y-99695129D01*
X78284322Y-99694817D01*
X78284334Y-99694814D01*
X78433656Y-99602712D01*
X78557712Y-99478656D01*
X78649814Y-99329334D01*
X78704999Y-99162797D01*
X78715500Y-99060009D01*
X78715499Y-97719992D01*
X78704999Y-97617203D01*
X78649814Y-97450666D01*
X78557712Y-97301344D01*
X78433656Y-97177288D01*
X78284334Y-97085186D01*
X78117797Y-97030001D01*
X78117795Y-97030000D01*
X78015010Y-97019500D01*
X76224998Y-97019500D01*
X76224981Y-97019501D01*
X76122203Y-97030000D01*
X76122200Y-97030001D01*
X75955668Y-97085185D01*
X75955663Y-97085187D01*
X75806342Y-97177289D01*
X75682289Y-97301342D01*
X75590187Y-97450663D01*
X75590186Y-97450666D01*
X75535001Y-97617203D01*
X75535001Y-97617204D01*
X75535000Y-97617204D01*
X75524500Y-97719983D01*
X72000000Y-97719983D01*
X72000000Y-81392133D01*
X75404500Y-81392133D01*
X75404500Y-81607866D01*
X75438245Y-81820922D01*
X75438246Y-81820926D01*
X75504908Y-82026089D01*
X75602843Y-82218299D01*
X75729641Y-82392821D01*
X75882179Y-82545359D01*
X75968036Y-82607738D01*
X76053294Y-82669682D01*
X76095959Y-82725012D01*
X76101938Y-82794626D01*
X76069332Y-82856421D01*
X76053294Y-82870318D01*
X75988038Y-82917729D01*
X75882179Y-82994641D01*
X75882177Y-82994643D01*
X75882176Y-82994643D01*
X75729643Y-83147176D01*
X75729643Y-83147177D01*
X75729641Y-83147179D01*
X75705135Y-83180909D01*
X75602843Y-83321700D01*
X75504909Y-83513908D01*
X75438245Y-83719077D01*
X75404500Y-83932133D01*
X75404500Y-84147866D01*
X75438245Y-84360922D01*
X75438246Y-84360926D01*
X75504908Y-84566089D01*
X75602843Y-84758299D01*
X75729641Y-84932821D01*
X75882179Y-85085359D01*
X75968036Y-85147738D01*
X76053294Y-85209682D01*
X76095959Y-85265012D01*
X76101938Y-85334626D01*
X76069332Y-85396421D01*
X76053294Y-85410318D01*
X75882179Y-85534641D01*
X75882177Y-85534643D01*
X75882176Y-85534643D01*
X75729643Y-85687176D01*
X75729643Y-85687177D01*
X75729641Y-85687179D01*
X75675186Y-85762129D01*
X75602843Y-85861700D01*
X75504909Y-86053908D01*
X75438245Y-86259077D01*
X75404500Y-86472133D01*
X75404500Y-86687866D01*
X75438245Y-86900922D01*
X75438246Y-86900926D01*
X75504908Y-87106089D01*
X75602843Y-87298299D01*
X75729641Y-87472821D01*
X75882179Y-87625359D01*
X75995558Y-87707734D01*
X76053294Y-87749682D01*
X76095959Y-87805012D01*
X76101938Y-87874626D01*
X76069332Y-87936421D01*
X76053294Y-87950318D01*
X76042922Y-87957854D01*
X75882179Y-88074641D01*
X75882177Y-88074643D01*
X75882176Y-88074643D01*
X75729643Y-88227176D01*
X75729643Y-88227177D01*
X75729641Y-88227179D01*
X75689341Y-88282647D01*
X75602843Y-88401700D01*
X75504909Y-88593908D01*
X75438245Y-88799077D01*
X75404500Y-89012133D01*
X75404500Y-89227866D01*
X75427924Y-89375756D01*
X75438246Y-89440926D01*
X75504908Y-89646089D01*
X75602843Y-89838299D01*
X75729641Y-90012821D01*
X75729643Y-90012823D01*
X75871624Y-90154804D01*
X75905109Y-90216127D01*
X75900125Y-90285819D01*
X75858253Y-90341752D01*
X75836360Y-90354861D01*
X75835677Y-90355179D01*
X75686342Y-90447289D01*
X75562289Y-90571342D01*
X75470187Y-90720663D01*
X75470186Y-90720666D01*
X75415001Y-90887203D01*
X75415001Y-90887204D01*
X75415000Y-90887204D01*
X75404500Y-90989983D01*
X75404500Y-92330001D01*
X75404501Y-92330018D01*
X75415000Y-92432796D01*
X75415001Y-92432799D01*
X75465364Y-92584782D01*
X75470186Y-92599334D01*
X75562288Y-92748656D01*
X75686344Y-92872712D01*
X75835666Y-92964814D01*
X76002203Y-93019999D01*
X76104991Y-93030500D01*
X77895008Y-93030499D01*
X77997797Y-93019999D01*
X78164334Y-92964814D01*
X78313656Y-92872712D01*
X78437712Y-92748656D01*
X78529814Y-92599334D01*
X78584999Y-92432797D01*
X78595500Y-92330009D01*
X78595499Y-90989992D01*
X78584999Y-90887203D01*
X78529814Y-90720666D01*
X78437712Y-90571344D01*
X78313656Y-90447288D01*
X78164334Y-90355186D01*
X78164326Y-90355181D01*
X78163645Y-90354864D01*
X78163256Y-90354521D01*
X78158187Y-90351395D01*
X78158721Y-90350528D01*
X78111208Y-90308688D01*
X78092060Y-90241494D01*
X78112280Y-90174614D01*
X78128366Y-90154813D01*
X78270359Y-90012821D01*
X78397157Y-89838299D01*
X78495092Y-89646089D01*
X78561754Y-89440926D01*
X78590203Y-89261306D01*
X78595500Y-89227866D01*
X78595500Y-89012133D01*
X78561754Y-88799077D01*
X78561754Y-88799074D01*
X78495092Y-88593911D01*
X78397157Y-88401701D01*
X78270359Y-88227179D01*
X78117821Y-88074641D01*
X77946704Y-87950317D01*
X77904040Y-87894988D01*
X77898061Y-87825374D01*
X77930667Y-87763580D01*
X77946702Y-87749684D01*
X78117821Y-87625359D01*
X78270359Y-87472821D01*
X78397157Y-87298299D01*
X78495092Y-87106089D01*
X78561754Y-86900926D01*
X78576752Y-86806230D01*
X78595500Y-86687866D01*
X78595500Y-86472133D01*
X78561754Y-86259077D01*
X78561754Y-86259074D01*
X78495092Y-86053911D01*
X78397157Y-85861701D01*
X78270359Y-85687179D01*
X78117821Y-85534641D01*
X77946704Y-85410317D01*
X77904040Y-85354988D01*
X77898061Y-85285374D01*
X77930667Y-85223580D01*
X77946702Y-85209684D01*
X78117821Y-85085359D01*
X78270359Y-84932821D01*
X78397157Y-84758299D01*
X78495092Y-84566089D01*
X78561754Y-84360926D01*
X78576752Y-84266230D01*
X78595500Y-84147866D01*
X78595500Y-83932133D01*
X78561754Y-83719077D01*
X78561754Y-83719074D01*
X78495092Y-83513911D01*
X78397157Y-83321701D01*
X78270359Y-83147179D01*
X78117821Y-82994641D01*
X77946704Y-82870317D01*
X77904040Y-82814988D01*
X77898061Y-82745374D01*
X77930667Y-82683580D01*
X77946702Y-82669684D01*
X78117821Y-82545359D01*
X78270359Y-82392821D01*
X78397157Y-82218299D01*
X78495092Y-82026089D01*
X78561754Y-81820926D01*
X78576752Y-81726230D01*
X78595500Y-81607866D01*
X78595500Y-81499994D01*
X81894357Y-81499994D01*
X81894357Y-81500005D01*
X81914890Y-81747812D01*
X81914892Y-81747824D01*
X81975936Y-81988881D01*
X82075826Y-82216606D01*
X82211833Y-82424782D01*
X82211836Y-82424785D01*
X82380256Y-82607738D01*
X82493008Y-82695496D01*
X82533820Y-82752206D01*
X82537495Y-82821979D01*
X82502864Y-82882662D01*
X82493009Y-82891201D01*
X82440259Y-82932259D01*
X82271833Y-83115217D01*
X82135826Y-83323393D01*
X82035936Y-83551118D01*
X81974892Y-83792175D01*
X81974890Y-83792187D01*
X81954357Y-84039994D01*
X81954357Y-84040005D01*
X81974890Y-84287812D01*
X81974892Y-84287824D01*
X82035936Y-84528881D01*
X82135826Y-84756606D01*
X82271833Y-84964782D01*
X82271836Y-84964785D01*
X82440256Y-85147738D01*
X82505856Y-85198796D01*
X82546668Y-85255505D01*
X82550343Y-85325278D01*
X82515712Y-85385962D01*
X82505856Y-85394502D01*
X82380258Y-85492260D01*
X82211833Y-85675217D01*
X82075826Y-85883393D01*
X81975936Y-86111118D01*
X81914892Y-86352175D01*
X81914890Y-86352187D01*
X81894357Y-86599994D01*
X81894357Y-86600005D01*
X81914890Y-86847812D01*
X81914892Y-86847824D01*
X81975936Y-87088881D01*
X82075826Y-87316606D01*
X82211833Y-87524782D01*
X82211836Y-87524785D01*
X82380256Y-87707738D01*
X82450160Y-87762147D01*
X82490973Y-87818857D01*
X82494648Y-87888630D01*
X82460016Y-87949313D01*
X82450165Y-87957848D01*
X82400905Y-87996189D01*
X82380257Y-88012261D01*
X82211833Y-88195217D01*
X82075826Y-88403393D01*
X81975936Y-88631118D01*
X81914892Y-88872175D01*
X81914890Y-88872187D01*
X81894357Y-89119994D01*
X81894357Y-89120005D01*
X81914890Y-89367812D01*
X81914892Y-89367824D01*
X81975936Y-89608881D01*
X82075826Y-89836606D01*
X82211833Y-90044782D01*
X82211836Y-90044785D01*
X82380256Y-90227738D01*
X82463008Y-90292147D01*
X82503821Y-90348857D01*
X82507496Y-90418630D01*
X82472864Y-90479313D01*
X82463014Y-90487848D01*
X82404400Y-90533469D01*
X82380257Y-90552261D01*
X82211833Y-90735217D01*
X82075826Y-90943393D01*
X81975936Y-91171118D01*
X81914892Y-91412175D01*
X81914890Y-91412187D01*
X81894357Y-91659994D01*
X81894357Y-91660005D01*
X81914890Y-91907812D01*
X81914892Y-91907824D01*
X81975936Y-92148881D01*
X82075826Y-92376606D01*
X82211833Y-92584782D01*
X82225229Y-92599334D01*
X82380256Y-92767738D01*
X82576491Y-92920474D01*
X82658420Y-92964812D01*
X82779797Y-93030498D01*
X82795190Y-93038828D01*
X83030386Y-93119571D01*
X83275665Y-93160500D01*
X83524335Y-93160500D01*
X83769614Y-93119571D01*
X84004810Y-93038828D01*
X84223509Y-92920474D01*
X84419744Y-92767738D01*
X84451733Y-92732989D01*
X84481626Y-92700517D01*
X84541513Y-92664526D01*
X84572855Y-92660500D01*
X91875501Y-92660500D01*
X91942540Y-92680185D01*
X91988295Y-92732989D01*
X91999501Y-92784500D01*
X91999501Y-92922876D01*
X92005908Y-92982483D01*
X92056202Y-93117328D01*
X92056206Y-93117335D01*
X92142452Y-93232544D01*
X92142455Y-93232547D01*
X92257664Y-93318793D01*
X92257671Y-93318797D01*
X92392517Y-93369091D01*
X92392516Y-93369091D01*
X92399444Y-93369835D01*
X92452127Y-93375500D01*
X94347872Y-93375499D01*
X94407483Y-93369091D01*
X94542331Y-93318796D01*
X94657546Y-93232546D01*
X94743796Y-93117331D01*
X94794091Y-92982483D01*
X94800500Y-92922873D01*
X94800499Y-91027128D01*
X94794091Y-90967517D01*
X94785093Y-90943393D01*
X94743797Y-90832671D01*
X94743793Y-90832664D01*
X94657547Y-90717455D01*
X94657544Y-90717452D01*
X94542335Y-90631206D01*
X94542328Y-90631202D01*
X94407482Y-90580908D01*
X94407483Y-90580908D01*
X94347883Y-90574501D01*
X94347881Y-90574500D01*
X94347873Y-90574500D01*
X94347865Y-90574500D01*
X94237308Y-90574500D01*
X94170269Y-90554815D01*
X94149627Y-90538181D01*
X93488585Y-89877137D01*
X93573694Y-89854333D01*
X93676306Y-89795090D01*
X93760090Y-89711306D01*
X93819333Y-89608694D01*
X93842138Y-89523585D01*
X94551186Y-90232633D01*
X94635482Y-90103611D01*
X94728682Y-89891135D01*
X94785638Y-89666218D01*
X94804798Y-89435005D01*
X94804798Y-89434994D01*
X94785638Y-89203781D01*
X94728682Y-88978864D01*
X94635484Y-88766393D01*
X94551186Y-88637365D01*
X93842137Y-89346414D01*
X93819333Y-89261306D01*
X93760090Y-89158694D01*
X93676306Y-89074910D01*
X93573694Y-89015667D01*
X93488584Y-88992861D01*
X94198797Y-88282647D01*
X94198797Y-88282645D01*
X94168360Y-88258955D01*
X94168354Y-88258951D01*
X93964302Y-88148523D01*
X93964293Y-88148520D01*
X93744860Y-88073188D01*
X93516007Y-88035000D01*
X93283993Y-88035000D01*
X93055139Y-88073188D01*
X92835706Y-88148520D01*
X92835697Y-88148523D01*
X92631650Y-88258949D01*
X92601200Y-88282647D01*
X93311415Y-88992861D01*
X93226306Y-89015667D01*
X93123694Y-89074910D01*
X93039910Y-89158694D01*
X92980667Y-89261306D01*
X92957861Y-89346415D01*
X92248811Y-88637365D01*
X92164516Y-88766390D01*
X92071317Y-88978864D01*
X92014361Y-89203781D01*
X91995202Y-89434994D01*
X91995202Y-89435005D01*
X92014361Y-89666218D01*
X92071317Y-89891135D01*
X92164515Y-90103606D01*
X92248812Y-90232633D01*
X92957861Y-89523584D01*
X92980667Y-89608694D01*
X93039910Y-89711306D01*
X93123694Y-89795090D01*
X93226306Y-89854333D01*
X93311414Y-89877138D01*
X92650371Y-90538181D01*
X92589048Y-90571666D01*
X92562691Y-90574500D01*
X92452130Y-90574500D01*
X92452123Y-90574501D01*
X92392516Y-90580908D01*
X92257671Y-90631202D01*
X92257667Y-90631204D01*
X92252912Y-90634765D01*
X92187448Y-90659184D01*
X92178599Y-90659500D01*
X84572855Y-90659500D01*
X84505816Y-90639815D01*
X84481626Y-90619483D01*
X84419747Y-90552265D01*
X84419744Y-90552262D01*
X84401653Y-90538181D01*
X84336991Y-90487852D01*
X84296179Y-90431143D01*
X84292504Y-90361370D01*
X84327136Y-90300687D01*
X84336985Y-90292151D01*
X84419744Y-90227738D01*
X84444194Y-90201177D01*
X84481626Y-90160517D01*
X84541513Y-90124526D01*
X84572855Y-90120500D01*
X85578542Y-90120500D01*
X85597870Y-90116655D01*
X85675188Y-90101275D01*
X85771836Y-90082051D01*
X85832420Y-90056956D01*
X85953914Y-90006632D01*
X86117782Y-89897139D01*
X86257139Y-89757782D01*
X86257139Y-89757780D01*
X86267347Y-89747573D01*
X86267348Y-89747570D01*
X90403102Y-85611819D01*
X90464425Y-85578334D01*
X90490783Y-85575500D01*
X91817209Y-85575500D01*
X91884248Y-85595185D01*
X91930003Y-85647989D01*
X91933391Y-85656167D01*
X91956202Y-85717328D01*
X91956206Y-85717335D01*
X92042452Y-85832544D01*
X92042455Y-85832547D01*
X92157664Y-85918793D01*
X92157671Y-85918797D01*
X92292517Y-85969091D01*
X92292516Y-85969091D01*
X92299444Y-85969835D01*
X92352127Y-85975500D01*
X94247872Y-85975499D01*
X94307483Y-85969091D01*
X94442331Y-85918796D01*
X94557546Y-85832546D01*
X94643796Y-85717331D01*
X94694091Y-85582483D01*
X94700500Y-85522873D01*
X94700499Y-83627128D01*
X94694091Y-83567517D01*
X94674097Y-83513911D01*
X94643797Y-83432671D01*
X94643793Y-83432664D01*
X94557547Y-83317455D01*
X94557544Y-83317452D01*
X94442335Y-83231206D01*
X94442328Y-83231202D01*
X94307482Y-83180908D01*
X94307483Y-83180908D01*
X94247883Y-83174501D01*
X94247881Y-83174500D01*
X94247873Y-83174500D01*
X94247865Y-83174500D01*
X94137308Y-83174500D01*
X94070269Y-83154815D01*
X94049627Y-83138181D01*
X93388585Y-82477137D01*
X93473694Y-82454333D01*
X93576306Y-82395090D01*
X93660090Y-82311306D01*
X93719333Y-82208694D01*
X93742138Y-82123585D01*
X94451186Y-82832633D01*
X94535482Y-82703611D01*
X94628682Y-82491135D01*
X94685638Y-82266218D01*
X94704798Y-82035005D01*
X94704798Y-82034994D01*
X94685638Y-81803781D01*
X94628682Y-81578864D01*
X94535484Y-81366393D01*
X94451186Y-81237365D01*
X93742137Y-81946414D01*
X93719333Y-81861306D01*
X93660090Y-81758694D01*
X93576306Y-81674910D01*
X93473694Y-81615667D01*
X93388584Y-81592861D01*
X94098797Y-80882647D01*
X94098797Y-80882645D01*
X94068360Y-80858955D01*
X94068354Y-80858951D01*
X93864302Y-80748523D01*
X93864293Y-80748520D01*
X93644860Y-80673188D01*
X93416007Y-80635000D01*
X93183993Y-80635000D01*
X92955139Y-80673188D01*
X92735706Y-80748520D01*
X92735697Y-80748523D01*
X92531650Y-80858949D01*
X92501200Y-80882647D01*
X93211415Y-81592861D01*
X93126306Y-81615667D01*
X93023694Y-81674910D01*
X92939910Y-81758694D01*
X92880667Y-81861306D01*
X92857861Y-81946415D01*
X92148811Y-81237365D01*
X92064516Y-81366390D01*
X91971317Y-81578864D01*
X91914361Y-81803781D01*
X91895202Y-82034994D01*
X91895202Y-82035005D01*
X91914361Y-82266218D01*
X91971317Y-82491135D01*
X92064515Y-82703606D01*
X92148812Y-82832633D01*
X92857861Y-82123584D01*
X92880667Y-82208694D01*
X92939910Y-82311306D01*
X93023694Y-82395090D01*
X93126306Y-82454333D01*
X93211414Y-82477138D01*
X92550371Y-83138181D01*
X92489048Y-83171666D01*
X92462691Y-83174500D01*
X92352130Y-83174500D01*
X92352123Y-83174501D01*
X92292516Y-83180908D01*
X92157671Y-83231202D01*
X92157664Y-83231206D01*
X92042455Y-83317452D01*
X92042452Y-83317455D01*
X91956206Y-83432664D01*
X91956202Y-83432671D01*
X91933391Y-83493833D01*
X91891520Y-83549767D01*
X91826056Y-83574184D01*
X91817209Y-83574500D01*
X89926454Y-83574500D01*
X89894391Y-83580876D01*
X89894392Y-83580877D01*
X89733170Y-83612946D01*
X89733164Y-83612948D01*
X89551088Y-83688366D01*
X89551079Y-83688371D01*
X89387219Y-83797859D01*
X89387215Y-83797862D01*
X85101899Y-88083181D01*
X85040576Y-88116666D01*
X85014218Y-88119500D01*
X84572855Y-88119500D01*
X84505816Y-88099815D01*
X84481626Y-88079483D01*
X84419747Y-88012265D01*
X84419737Y-88012256D01*
X84349839Y-87957852D01*
X84309026Y-87901142D01*
X84305351Y-87831369D01*
X84339983Y-87770686D01*
X84349825Y-87762157D01*
X84419744Y-87707738D01*
X84588164Y-87524785D01*
X84724173Y-87316607D01*
X84824063Y-87088881D01*
X84885108Y-86847821D01*
X84885109Y-86847812D01*
X84905643Y-86600004D01*
X84905643Y-86599995D01*
X84903447Y-86573498D01*
X84917527Y-86505062D01*
X84939339Y-86475579D01*
X89077139Y-82337782D01*
X89156975Y-82218299D01*
X89186631Y-82173916D01*
X89186636Y-82173906D01*
X89262050Y-81991837D01*
X89262051Y-81991835D01*
X89276236Y-81920526D01*
X89300500Y-81798541D01*
X89300500Y-81601460D01*
X89300500Y-78965782D01*
X89320185Y-78898743D01*
X89336819Y-78878101D01*
X89478101Y-78736819D01*
X89539424Y-78703334D01*
X89565782Y-78700500D01*
X92193488Y-78700500D01*
X92236821Y-78708318D01*
X92292517Y-78729091D01*
X92292516Y-78729091D01*
X92299444Y-78729835D01*
X92352127Y-78735500D01*
X94247872Y-78735499D01*
X94307483Y-78729091D01*
X94442331Y-78678796D01*
X94557546Y-78592546D01*
X94643796Y-78477331D01*
X94694091Y-78342483D01*
X94700500Y-78282873D01*
X94700499Y-77117128D01*
X94694091Y-77057517D01*
X94678233Y-77015000D01*
X94643797Y-76922671D01*
X94639546Y-76914886D01*
X94641508Y-76913814D01*
X94621400Y-76859908D01*
X94630523Y-76803604D01*
X94660226Y-76731894D01*
X94660227Y-76731890D01*
X94670549Y-76680000D01*
X94354230Y-76680000D01*
X94310895Y-76672181D01*
X94307488Y-76670910D01*
X94307480Y-76670908D01*
X94247883Y-76664501D01*
X94247881Y-76664500D01*
X94247873Y-76664500D01*
X94247864Y-76664500D01*
X93684227Y-76664500D01*
X93719333Y-76603694D01*
X93750000Y-76489244D01*
X93750000Y-76370756D01*
X93719333Y-76256306D01*
X93684227Y-76195500D01*
X93766989Y-76195500D01*
X93792934Y-76190339D01*
X93832932Y-76182382D01*
X93857122Y-76180000D01*
X94670550Y-76180000D01*
X94670549Y-76179999D01*
X94660227Y-76128109D01*
X94660225Y-76128101D01*
X94582204Y-75939742D01*
X94531822Y-75864339D01*
X94510944Y-75797662D01*
X94529429Y-75730282D01*
X94531805Y-75726584D01*
X94582648Y-75650493D01*
X94660706Y-75462044D01*
X94700500Y-75261988D01*
X94700500Y-75058012D01*
X94700500Y-75058009D01*
X94660707Y-74857961D01*
X94660706Y-74857960D01*
X94660706Y-74857956D01*
X94625308Y-74772497D01*
X94582651Y-74669513D01*
X94582649Y-74669509D01*
X94582648Y-74669507D01*
X94582644Y-74669501D01*
X94532123Y-74593891D01*
X94511245Y-74527214D01*
X94529729Y-74459834D01*
X94532123Y-74456109D01*
X94546594Y-74434452D01*
X94582648Y-74380493D01*
X94660706Y-74192044D01*
X94700500Y-73991988D01*
X94700500Y-73788012D01*
X94700500Y-73788009D01*
X94660707Y-73587961D01*
X94660706Y-73587960D01*
X94660706Y-73587956D01*
X94630347Y-73514662D01*
X94582651Y-73399513D01*
X94582644Y-73399500D01*
X94469325Y-73229907D01*
X94469322Y-73229903D01*
X94325096Y-73085677D01*
X94325092Y-73085674D01*
X94155499Y-72972355D01*
X94155486Y-72972348D01*
X93967048Y-72894295D01*
X93967038Y-72894292D01*
X93766990Y-72854500D01*
X93766988Y-72854500D01*
X93436162Y-72854500D01*
X93411970Y-72852117D01*
X93348543Y-72839500D01*
X93348541Y-72839500D01*
X87261459Y-72839500D01*
X87261457Y-72839500D01*
X87186050Y-72854500D01*
X87186049Y-72854500D01*
X87068171Y-72877947D01*
X87068163Y-72877949D01*
X87028704Y-72894294D01*
X87028703Y-72894294D01*
X86886092Y-72953364D01*
X86886079Y-72953371D01*
X86722219Y-73062859D01*
X86652540Y-73132538D01*
X86582861Y-73202218D01*
X86582858Y-73202221D01*
X84962221Y-74822858D01*
X84962218Y-74822861D01*
X84927128Y-74857951D01*
X84822859Y-74962219D01*
X84713371Y-75126079D01*
X84713364Y-75126092D01*
X84637950Y-75308160D01*
X84637947Y-75308170D01*
X84599500Y-75501456D01*
X84599500Y-78834218D01*
X84579815Y-78901257D01*
X84563181Y-78921899D01*
X83521899Y-79963181D01*
X83460576Y-79996666D01*
X83434218Y-79999500D01*
X83275665Y-79999500D01*
X83030383Y-80040429D01*
X82795197Y-80121169D01*
X82795188Y-80121172D01*
X82576493Y-80239524D01*
X82380257Y-80392261D01*
X82211833Y-80575217D01*
X82075826Y-80783393D01*
X81975936Y-81011118D01*
X81914892Y-81252175D01*
X81914890Y-81252187D01*
X81894357Y-81499994D01*
X78595500Y-81499994D01*
X78595500Y-81392133D01*
X78561754Y-81179077D01*
X78561754Y-81179074D01*
X78495092Y-80973911D01*
X78397157Y-80781701D01*
X78270359Y-80607179D01*
X78117821Y-80454641D01*
X77946279Y-80330008D01*
X77903614Y-80274678D01*
X77897635Y-80205064D01*
X77930241Y-80143269D01*
X77946280Y-80129372D01*
X78117491Y-80004979D01*
X78117497Y-80004974D01*
X78269974Y-79852497D01*
X78269974Y-79852496D01*
X78396728Y-79678036D01*
X78494627Y-79485901D01*
X78561266Y-79280809D01*
X78572481Y-79210000D01*
X77542709Y-79210000D01*
X77554452Y-79189661D01*
X77595000Y-79038333D01*
X77595000Y-78881667D01*
X77554452Y-78730339D01*
X77542709Y-78710000D01*
X78572481Y-78710000D01*
X78561266Y-78639190D01*
X78494627Y-78434098D01*
X78396728Y-78241963D01*
X78269974Y-78067503D01*
X78269974Y-78067502D01*
X78117497Y-77915025D01*
X77945853Y-77790318D01*
X77903188Y-77734988D01*
X77897209Y-77665375D01*
X77929815Y-77603580D01*
X77945853Y-77589682D01*
X78117497Y-77464974D01*
X78269974Y-77312497D01*
X78269974Y-77312496D01*
X78396728Y-77138036D01*
X78494627Y-76945901D01*
X78561266Y-76740809D01*
X78572481Y-76670000D01*
X77542709Y-76670000D01*
X77554452Y-76649661D01*
X77595000Y-76498333D01*
X77595000Y-76341667D01*
X77554452Y-76190339D01*
X77542709Y-76170000D01*
X78572481Y-76170000D01*
X78561266Y-76099190D01*
X78494627Y-75894098D01*
X78396728Y-75701963D01*
X78269974Y-75527503D01*
X78269974Y-75527502D01*
X78117497Y-75375025D01*
X77945853Y-75250318D01*
X77903188Y-75194988D01*
X77897209Y-75125375D01*
X77929815Y-75063580D01*
X77945853Y-75049682D01*
X78117497Y-74924974D01*
X78269974Y-74772497D01*
X78269974Y-74772496D01*
X78396728Y-74598036D01*
X78494627Y-74405901D01*
X78561266Y-74200809D01*
X78572481Y-74130000D01*
X77542709Y-74130000D01*
X77554452Y-74109661D01*
X77595000Y-73958333D01*
X77595000Y-73801667D01*
X77554452Y-73650339D01*
X77542709Y-73630000D01*
X78572481Y-73630000D01*
X78561266Y-73559190D01*
X78494627Y-73354098D01*
X78396728Y-73161963D01*
X78269974Y-72987503D01*
X78269974Y-72987502D01*
X78117497Y-72835025D01*
X77943036Y-72708271D01*
X77750901Y-72610372D01*
X77545809Y-72543734D01*
X77332820Y-72510000D01*
X77250000Y-72510000D01*
X77250000Y-73337290D01*
X77229661Y-73325548D01*
X77078333Y-73285000D01*
X76921667Y-73285000D01*
X76770339Y-73325548D01*
X76750000Y-73337290D01*
X76750000Y-72510000D01*
X76667180Y-72510000D01*
X76454190Y-72543734D01*
X76249098Y-72610372D01*
X76056963Y-72708271D01*
X75882503Y-72835025D01*
X75882502Y-72835025D01*
X75730025Y-72987502D01*
X75730025Y-72987503D01*
X75603271Y-73161963D01*
X75505372Y-73354098D01*
X75438733Y-73559190D01*
X75427519Y-73630000D01*
X76457291Y-73630000D01*
X76445548Y-73650339D01*
X76405000Y-73801667D01*
X76405000Y-73958333D01*
X76445548Y-74109661D01*
X76457291Y-74130000D01*
X75427519Y-74130000D01*
X75438733Y-74200809D01*
X75505372Y-74405901D01*
X75603271Y-74598036D01*
X75730025Y-74772496D01*
X75730025Y-74772497D01*
X75882502Y-74924974D01*
X76054146Y-75049682D01*
X76096811Y-75105012D01*
X76102790Y-75174626D01*
X76070184Y-75236421D01*
X76054146Y-75250318D01*
X75882503Y-75375025D01*
X75882502Y-75375025D01*
X75730025Y-75527502D01*
X75730025Y-75527503D01*
X75603271Y-75701963D01*
X75505372Y-75894098D01*
X75438733Y-76099190D01*
X75427519Y-76170000D01*
X76457291Y-76170000D01*
X76445548Y-76190339D01*
X76405000Y-76341667D01*
X76405000Y-76498333D01*
X76445548Y-76649661D01*
X76457291Y-76670000D01*
X75427519Y-76670000D01*
X75438733Y-76740809D01*
X75505372Y-76945901D01*
X75603271Y-77138036D01*
X75730025Y-77312496D01*
X75730025Y-77312497D01*
X75882502Y-77464974D01*
X76054146Y-77589682D01*
X76096811Y-77645012D01*
X76102790Y-77714626D01*
X76070184Y-77776421D01*
X76054146Y-77790318D01*
X75882503Y-77915025D01*
X75882502Y-77915025D01*
X75730025Y-78067502D01*
X75730025Y-78067503D01*
X75603271Y-78241963D01*
X75505372Y-78434098D01*
X75438733Y-78639190D01*
X75427519Y-78710000D01*
X76457291Y-78710000D01*
X76445548Y-78730339D01*
X76405000Y-78881667D01*
X76405000Y-79038333D01*
X76445548Y-79189661D01*
X76457291Y-79210000D01*
X75427519Y-79210000D01*
X75438733Y-79280809D01*
X75505372Y-79485901D01*
X75603271Y-79678036D01*
X75730025Y-79852496D01*
X75730025Y-79852497D01*
X75882502Y-80004974D01*
X76053720Y-80129372D01*
X76096385Y-80184702D01*
X76102364Y-80254316D01*
X76069758Y-80316110D01*
X76053720Y-80330008D01*
X75882177Y-80454642D01*
X75729643Y-80607176D01*
X75729643Y-80607177D01*
X75729641Y-80607179D01*
X75709428Y-80635000D01*
X75602843Y-80781700D01*
X75504909Y-80973908D01*
X75438245Y-81179077D01*
X75404500Y-81392133D01*
X72000000Y-81392133D01*
X72000000Y-71550094D01*
X72019685Y-71483055D01*
X72026378Y-71473635D01*
X72124480Y-71348417D01*
X72134395Y-71337226D01*
X72337226Y-71134395D01*
X72348417Y-71124480D01*
X72473622Y-71026388D01*
X72538535Y-71000540D01*
X72550095Y-71000000D01*
X105449905Y-71000000D01*
X105516944Y-71019685D01*
G37*
%TD.AperFunction*%
%TD*%
M02*
