%TF.GenerationSoftware,KiCad,Pcbnew,8.0.5*%
%TF.CreationDate,2024-11-30T13:26:41+01:00*%
%TF.ProjectId,hmi,686d692e-6b69-4636-9164-5f7063625858,rev?*%
%TF.SameCoordinates,Original*%
%TF.FileFunction,Legend,Top*%
%TF.FilePolarity,Positive*%
%FSLAX46Y46*%
G04 Gerber Fmt 4.6, Leading zero omitted, Abs format (unit mm)*
G04 Created by KiCad (PCBNEW 8.0.5) date 2024-11-30 13:26:41*
%MOMM*%
%LPD*%
G01*
G04 APERTURE LIST*
%ADD10C,0.200000*%
%ADD11C,0.300000*%
%ADD12C,0.150000*%
%ADD13C,0.120000*%
%ADD14C,0.000000*%
G04 APERTURE END LIST*
D10*
X76111896Y-144277945D02*
X76111896Y-143801755D01*
X76397611Y-144373183D02*
X75397611Y-144039850D01*
X75397611Y-144039850D02*
X76397611Y-143706517D01*
X76397611Y-142896993D02*
X76397611Y-143373183D01*
X76397611Y-143373183D02*
X75397611Y-143373183D01*
X75397611Y-142373183D02*
X75397611Y-142182707D01*
X75397611Y-142182707D02*
X75445230Y-142087469D01*
X75445230Y-142087469D02*
X75540468Y-141992231D01*
X75540468Y-141992231D02*
X75730944Y-141944612D01*
X75730944Y-141944612D02*
X76064277Y-141944612D01*
X76064277Y-141944612D02*
X76254753Y-141992231D01*
X76254753Y-141992231D02*
X76349992Y-142087469D01*
X76349992Y-142087469D02*
X76397611Y-142182707D01*
X76397611Y-142182707D02*
X76397611Y-142373183D01*
X76397611Y-142373183D02*
X76349992Y-142468421D01*
X76349992Y-142468421D02*
X76254753Y-142563659D01*
X76254753Y-142563659D02*
X76064277Y-142611278D01*
X76064277Y-142611278D02*
X75730944Y-142611278D01*
X75730944Y-142611278D02*
X75540468Y-142563659D01*
X75540468Y-142563659D02*
X75445230Y-142468421D01*
X75445230Y-142468421D02*
X75397611Y-142373183D01*
X75016658Y-142182707D02*
X75159515Y-142325564D01*
X76349992Y-141563659D02*
X76397611Y-141420802D01*
X76397611Y-141420802D02*
X76397611Y-141182707D01*
X76397611Y-141182707D02*
X76349992Y-141087469D01*
X76349992Y-141087469D02*
X76302372Y-141039850D01*
X76302372Y-141039850D02*
X76207134Y-140992231D01*
X76207134Y-140992231D02*
X76111896Y-140992231D01*
X76111896Y-140992231D02*
X76016658Y-141039850D01*
X76016658Y-141039850D02*
X75969039Y-141087469D01*
X75969039Y-141087469D02*
X75921420Y-141182707D01*
X75921420Y-141182707D02*
X75873801Y-141373183D01*
X75873801Y-141373183D02*
X75826182Y-141468421D01*
X75826182Y-141468421D02*
X75778563Y-141516040D01*
X75778563Y-141516040D02*
X75683325Y-141563659D01*
X75683325Y-141563659D02*
X75588087Y-141563659D01*
X75588087Y-141563659D02*
X75492849Y-141516040D01*
X75492849Y-141516040D02*
X75445230Y-141468421D01*
X75445230Y-141468421D02*
X75397611Y-141373183D01*
X75397611Y-141373183D02*
X75397611Y-141135088D01*
X75397611Y-141135088D02*
X75445230Y-140992231D01*
X76397611Y-139801754D02*
X75397611Y-139801754D01*
X75397611Y-139801754D02*
X76111896Y-139468421D01*
X76111896Y-139468421D02*
X75397611Y-139135088D01*
X75397611Y-139135088D02*
X76397611Y-139135088D01*
X76111896Y-138706516D02*
X76111896Y-138230326D01*
X76397611Y-138801754D02*
X75397611Y-138468421D01*
X75397611Y-138468421D02*
X76397611Y-138135088D01*
X76397611Y-137801754D02*
X75397611Y-137801754D01*
X76397611Y-136754136D02*
X75921420Y-137087469D01*
X76397611Y-137325564D02*
X75397611Y-137325564D01*
X75397611Y-137325564D02*
X75397611Y-136944612D01*
X75397611Y-136944612D02*
X75445230Y-136849374D01*
X75445230Y-136849374D02*
X75492849Y-136801755D01*
X75492849Y-136801755D02*
X75588087Y-136754136D01*
X75588087Y-136754136D02*
X75730944Y-136754136D01*
X75730944Y-136754136D02*
X75826182Y-136801755D01*
X75826182Y-136801755D02*
X75873801Y-136849374D01*
X75873801Y-136849374D02*
X75921420Y-136944612D01*
X75921420Y-136944612D02*
X75921420Y-137325564D01*
X76111896Y-136373183D02*
X76111896Y-135896993D01*
X76397611Y-136468421D02*
X75397611Y-136135088D01*
X75397611Y-136135088D02*
X76397611Y-135801755D01*
X76397611Y-134992231D02*
X76397611Y-135468421D01*
X76397611Y-135468421D02*
X75397611Y-135468421D01*
X76349992Y-134611278D02*
X76397611Y-134611278D01*
X76397611Y-134611278D02*
X76492849Y-134658897D01*
X76492849Y-134658897D02*
X76540468Y-134706516D01*
X75397611Y-133135088D02*
X76111896Y-133135088D01*
X76111896Y-133135088D02*
X76254753Y-133182707D01*
X76254753Y-133182707D02*
X76349992Y-133277945D01*
X76349992Y-133277945D02*
X76397611Y-133420802D01*
X76397611Y-133420802D02*
X76397611Y-133516040D01*
X75397611Y-132658897D02*
X76207134Y-132658897D01*
X76207134Y-132658897D02*
X76302372Y-132611278D01*
X76302372Y-132611278D02*
X76349992Y-132563659D01*
X76349992Y-132563659D02*
X76397611Y-132468421D01*
X76397611Y-132468421D02*
X76397611Y-132277945D01*
X76397611Y-132277945D02*
X76349992Y-132182707D01*
X76349992Y-132182707D02*
X76302372Y-132135088D01*
X76302372Y-132135088D02*
X76207134Y-132087469D01*
X76207134Y-132087469D02*
X75397611Y-132087469D01*
X75016658Y-132277945D02*
X75159515Y-132420802D01*
X76397611Y-131135088D02*
X76397611Y-131611278D01*
X76397611Y-131611278D02*
X75397611Y-131611278D01*
X76397611Y-130801754D02*
X75397611Y-130801754D01*
X76111896Y-130373183D02*
X76111896Y-129896993D01*
X76397611Y-130468421D02*
X75397611Y-130135088D01*
X75397611Y-130135088D02*
X76397611Y-129801755D01*
X77055174Y-143706517D02*
X77007555Y-143801755D01*
X77007555Y-143801755D02*
X77007555Y-143944612D01*
X77007555Y-143944612D02*
X77055174Y-144087469D01*
X77055174Y-144087469D02*
X77150412Y-144182707D01*
X77150412Y-144182707D02*
X77245650Y-144230326D01*
X77245650Y-144230326D02*
X77436126Y-144277945D01*
X77436126Y-144277945D02*
X77578983Y-144277945D01*
X77578983Y-144277945D02*
X77769459Y-144230326D01*
X77769459Y-144230326D02*
X77864697Y-144182707D01*
X77864697Y-144182707D02*
X77959936Y-144087469D01*
X77959936Y-144087469D02*
X78007555Y-143944612D01*
X78007555Y-143944612D02*
X78007555Y-143849374D01*
X78007555Y-143849374D02*
X77959936Y-143706517D01*
X77959936Y-143706517D02*
X77912316Y-143658898D01*
X77912316Y-143658898D02*
X77578983Y-143658898D01*
X77578983Y-143658898D02*
X77578983Y-143849374D01*
X77007555Y-143230326D02*
X77817078Y-143230326D01*
X77817078Y-143230326D02*
X77912316Y-143182707D01*
X77912316Y-143182707D02*
X77959936Y-143135088D01*
X77959936Y-143135088D02*
X78007555Y-143039850D01*
X78007555Y-143039850D02*
X78007555Y-142849374D01*
X78007555Y-142849374D02*
X77959936Y-142754136D01*
X77959936Y-142754136D02*
X77912316Y-142706517D01*
X77912316Y-142706517D02*
X77817078Y-142658898D01*
X77817078Y-142658898D02*
X77007555Y-142658898D01*
X78007555Y-142182707D02*
X77007555Y-142182707D01*
X78007555Y-141135089D02*
X77531364Y-141468422D01*
X78007555Y-141706517D02*
X77007555Y-141706517D01*
X77007555Y-141706517D02*
X77007555Y-141325565D01*
X77007555Y-141325565D02*
X77055174Y-141230327D01*
X77055174Y-141230327D02*
X77102793Y-141182708D01*
X77102793Y-141182708D02*
X77198031Y-141135089D01*
X77198031Y-141135089D02*
X77340888Y-141135089D01*
X77340888Y-141135089D02*
X77436126Y-141182708D01*
X77436126Y-141182708D02*
X77483745Y-141230327D01*
X77483745Y-141230327D02*
X77531364Y-141325565D01*
X77531364Y-141325565D02*
X77531364Y-141706517D01*
X77721840Y-140754136D02*
X77721840Y-140277946D01*
X78007555Y-140849374D02*
X77007555Y-140516041D01*
X77007555Y-140516041D02*
X78007555Y-140182708D01*
X78007555Y-139849374D02*
X77007555Y-139849374D01*
X77007555Y-139849374D02*
X77007555Y-139611279D01*
X77007555Y-139611279D02*
X77055174Y-139468422D01*
X77055174Y-139468422D02*
X77150412Y-139373184D01*
X77150412Y-139373184D02*
X77245650Y-139325565D01*
X77245650Y-139325565D02*
X77436126Y-139277946D01*
X77436126Y-139277946D02*
X77578983Y-139277946D01*
X77578983Y-139277946D02*
X77769459Y-139325565D01*
X77769459Y-139325565D02*
X77864697Y-139373184D01*
X77864697Y-139373184D02*
X77959936Y-139468422D01*
X77959936Y-139468422D02*
X78007555Y-139611279D01*
X78007555Y-139611279D02*
X78007555Y-139849374D01*
X77007555Y-138658898D02*
X77007555Y-138468422D01*
X77007555Y-138468422D02*
X77055174Y-138373184D01*
X77055174Y-138373184D02*
X77150412Y-138277946D01*
X77150412Y-138277946D02*
X77340888Y-138230327D01*
X77340888Y-138230327D02*
X77674221Y-138230327D01*
X77674221Y-138230327D02*
X77864697Y-138277946D01*
X77864697Y-138277946D02*
X77959936Y-138373184D01*
X77959936Y-138373184D02*
X78007555Y-138468422D01*
X78007555Y-138468422D02*
X78007555Y-138658898D01*
X78007555Y-138658898D02*
X77959936Y-138754136D01*
X77959936Y-138754136D02*
X77864697Y-138849374D01*
X77864697Y-138849374D02*
X77674221Y-138896993D01*
X77674221Y-138896993D02*
X77340888Y-138896993D01*
X77340888Y-138896993D02*
X77150412Y-138849374D01*
X77150412Y-138849374D02*
X77055174Y-138754136D01*
X77055174Y-138754136D02*
X77007555Y-138658898D01*
X78007555Y-136563660D02*
X78007555Y-137039850D01*
X78007555Y-137039850D02*
X77007555Y-137039850D01*
X77007555Y-136230326D02*
X77817078Y-136230326D01*
X77817078Y-136230326D02*
X77912316Y-136182707D01*
X77912316Y-136182707D02*
X77959936Y-136135088D01*
X77959936Y-136135088D02*
X78007555Y-136039850D01*
X78007555Y-136039850D02*
X78007555Y-135849374D01*
X78007555Y-135849374D02*
X77959936Y-135754136D01*
X77959936Y-135754136D02*
X77912316Y-135706517D01*
X77912316Y-135706517D02*
X77817078Y-135658898D01*
X77817078Y-135658898D02*
X77007555Y-135658898D01*
X78007555Y-135182707D02*
X77007555Y-135182707D01*
X77007555Y-135182707D02*
X78007555Y-134611279D01*
X78007555Y-134611279D02*
X77007555Y-134611279D01*
X77721840Y-134182707D02*
X77721840Y-133706517D01*
X78007555Y-134277945D02*
X77007555Y-133944612D01*
X77007555Y-133944612D02*
X78007555Y-133611279D01*
X77959936Y-133230326D02*
X78007555Y-133230326D01*
X78007555Y-133230326D02*
X78102793Y-133277945D01*
X78102793Y-133277945D02*
X78150412Y-133325564D01*
X77721840Y-132087469D02*
X77721840Y-131611279D01*
X78007555Y-132182707D02*
X77007555Y-131849374D01*
X77007555Y-131849374D02*
X78007555Y-131516041D01*
X78007555Y-131182707D02*
X77007555Y-131182707D01*
X77007555Y-131182707D02*
X77007555Y-130944612D01*
X77007555Y-130944612D02*
X77055174Y-130801755D01*
X77055174Y-130801755D02*
X77150412Y-130706517D01*
X77150412Y-130706517D02*
X77245650Y-130658898D01*
X77245650Y-130658898D02*
X77436126Y-130611279D01*
X77436126Y-130611279D02*
X77578983Y-130611279D01*
X77578983Y-130611279D02*
X77769459Y-130658898D01*
X77769459Y-130658898D02*
X77864697Y-130706517D01*
X77864697Y-130706517D02*
X77959936Y-130801755D01*
X77959936Y-130801755D02*
X78007555Y-130944612D01*
X78007555Y-130944612D02*
X78007555Y-131182707D01*
X78007555Y-129611279D02*
X77531364Y-129944612D01*
X78007555Y-130182707D02*
X77007555Y-130182707D01*
X77007555Y-130182707D02*
X77007555Y-129801755D01*
X77007555Y-129801755D02*
X77055174Y-129706517D01*
X77055174Y-129706517D02*
X77102793Y-129658898D01*
X77102793Y-129658898D02*
X77198031Y-129611279D01*
X77198031Y-129611279D02*
X77340888Y-129611279D01*
X77340888Y-129611279D02*
X77436126Y-129658898D01*
X77436126Y-129658898D02*
X77483745Y-129706517D01*
X77483745Y-129706517D02*
X77531364Y-129801755D01*
X77531364Y-129801755D02*
X77531364Y-130182707D01*
X78007555Y-129182707D02*
X77007555Y-129182707D01*
X77721840Y-128754136D02*
X77721840Y-128277946D01*
X78007555Y-128849374D02*
X77007555Y-128516041D01*
X77007555Y-128516041D02*
X78007555Y-128182708D01*
X76626602Y-128420803D02*
X76769459Y-128563660D01*
X78007555Y-127849374D02*
X77007555Y-127849374D01*
X77007555Y-127849374D02*
X78007555Y-127277946D01*
X78007555Y-127277946D02*
X77007555Y-127277946D01*
X79093689Y-143896993D02*
X79093689Y-144230326D01*
X79617499Y-144230326D02*
X78617499Y-144230326D01*
X78617499Y-144230326D02*
X78617499Y-143754136D01*
X79093689Y-143373183D02*
X79093689Y-143039850D01*
X79617499Y-142896993D02*
X79617499Y-143373183D01*
X79617499Y-143373183D02*
X78617499Y-143373183D01*
X78617499Y-143373183D02*
X78617499Y-142896993D01*
X79617499Y-141896993D02*
X79141308Y-142230326D01*
X79617499Y-142468421D02*
X78617499Y-142468421D01*
X78617499Y-142468421D02*
X78617499Y-142087469D01*
X78617499Y-142087469D02*
X78665118Y-141992231D01*
X78665118Y-141992231D02*
X78712737Y-141944612D01*
X78712737Y-141944612D02*
X78807975Y-141896993D01*
X78807975Y-141896993D02*
X78950832Y-141896993D01*
X78950832Y-141896993D02*
X79046070Y-141944612D01*
X79046070Y-141944612D02*
X79093689Y-141992231D01*
X79093689Y-141992231D02*
X79141308Y-142087469D01*
X79141308Y-142087469D02*
X79141308Y-142468421D01*
X79617499Y-141468421D02*
X78617499Y-141468421D01*
X78617499Y-141468421D02*
X79617499Y-140896993D01*
X79617499Y-140896993D02*
X78617499Y-140896993D01*
X79617499Y-140420802D02*
X78617499Y-140420802D01*
X78617499Y-140420802D02*
X79617499Y-139849374D01*
X79617499Y-139849374D02*
X78617499Y-139849374D01*
X79617499Y-139373183D02*
X78617499Y-139373183D01*
X78617499Y-139373183D02*
X78617499Y-139135088D01*
X78617499Y-139135088D02*
X78665118Y-138992231D01*
X78665118Y-138992231D02*
X78760356Y-138896993D01*
X78760356Y-138896993D02*
X78855594Y-138849374D01*
X78855594Y-138849374D02*
X79046070Y-138801755D01*
X79046070Y-138801755D02*
X79188927Y-138801755D01*
X79188927Y-138801755D02*
X79379403Y-138849374D01*
X79379403Y-138849374D02*
X79474641Y-138896993D01*
X79474641Y-138896993D02*
X79569880Y-138992231D01*
X79569880Y-138992231D02*
X79617499Y-139135088D01*
X79617499Y-139135088D02*
X79617499Y-139373183D01*
X79093689Y-138373183D02*
X79093689Y-138039850D01*
X79617499Y-137896993D02*
X79617499Y-138373183D01*
X79617499Y-138373183D02*
X78617499Y-138373183D01*
X78617499Y-138373183D02*
X78617499Y-137896993D01*
X78617499Y-137563659D02*
X78617499Y-136896993D01*
X78617499Y-136896993D02*
X79617499Y-137563659D01*
X79617499Y-137563659D02*
X79617499Y-136896993D01*
X79331784Y-135801754D02*
X79331784Y-135325564D01*
X79617499Y-135896992D02*
X78617499Y-135563659D01*
X78617499Y-135563659D02*
X79617499Y-135230326D01*
X79617499Y-134325564D02*
X79141308Y-134658897D01*
X79617499Y-134896992D02*
X78617499Y-134896992D01*
X78617499Y-134896992D02*
X78617499Y-134516040D01*
X78617499Y-134516040D02*
X78665118Y-134420802D01*
X78665118Y-134420802D02*
X78712737Y-134373183D01*
X78712737Y-134373183D02*
X78807975Y-134325564D01*
X78807975Y-134325564D02*
X78950832Y-134325564D01*
X78950832Y-134325564D02*
X79046070Y-134373183D01*
X79046070Y-134373183D02*
X79093689Y-134420802D01*
X79093689Y-134420802D02*
X79141308Y-134516040D01*
X79141308Y-134516040D02*
X79141308Y-134896992D01*
X79617499Y-133896992D02*
X78617499Y-133896992D01*
X78617499Y-133896992D02*
X78617499Y-133658897D01*
X78617499Y-133658897D02*
X78665118Y-133516040D01*
X78665118Y-133516040D02*
X78760356Y-133420802D01*
X78760356Y-133420802D02*
X78855594Y-133373183D01*
X78855594Y-133373183D02*
X79046070Y-133325564D01*
X79046070Y-133325564D02*
X79188927Y-133325564D01*
X79188927Y-133325564D02*
X79379403Y-133373183D01*
X79379403Y-133373183D02*
X79474641Y-133420802D01*
X79474641Y-133420802D02*
X79569880Y-133516040D01*
X79569880Y-133516040D02*
X79617499Y-133658897D01*
X79617499Y-133658897D02*
X79617499Y-133896992D01*
X79331784Y-132944611D02*
X79331784Y-132468421D01*
X79617499Y-133039849D02*
X78617499Y-132706516D01*
X78617499Y-132706516D02*
X79617499Y-132373183D01*
X79617499Y-132039849D02*
X78617499Y-132039849D01*
X78617499Y-132039849D02*
X79617499Y-131468421D01*
X79617499Y-131468421D02*
X78617499Y-131468421D01*
X78617499Y-130992230D02*
X79427022Y-130992230D01*
X79427022Y-130992230D02*
X79522260Y-130944611D01*
X79522260Y-130944611D02*
X79569880Y-130896992D01*
X79569880Y-130896992D02*
X79617499Y-130801754D01*
X79617499Y-130801754D02*
X79617499Y-130611278D01*
X79617499Y-130611278D02*
X79569880Y-130516040D01*
X79569880Y-130516040D02*
X79522260Y-130468421D01*
X79522260Y-130468421D02*
X79427022Y-130420802D01*
X79427022Y-130420802D02*
X78617499Y-130420802D01*
X79141308Y-129754135D02*
X79617499Y-129754135D01*
X78617499Y-130087468D02*
X79141308Y-129754135D01*
X79141308Y-129754135D02*
X78617499Y-129420802D01*
X79569880Y-129039849D02*
X79617499Y-129039849D01*
X79617499Y-129039849D02*
X79712737Y-129087468D01*
X79712737Y-129087468D02*
X79760356Y-129135087D01*
X78617499Y-127563659D02*
X79331784Y-127563659D01*
X79331784Y-127563659D02*
X79474641Y-127611278D01*
X79474641Y-127611278D02*
X79569880Y-127706516D01*
X79569880Y-127706516D02*
X79617499Y-127849373D01*
X79617499Y-127849373D02*
X79617499Y-127944611D01*
X79331784Y-127135087D02*
X79331784Y-126658897D01*
X79617499Y-127230325D02*
X78617499Y-126896992D01*
X78617499Y-126896992D02*
X79617499Y-126563659D01*
X78617499Y-126373182D02*
X79617499Y-126039849D01*
X79617499Y-126039849D02*
X78617499Y-125706516D01*
X79617499Y-125373182D02*
X78617499Y-125373182D01*
X79093689Y-124896992D02*
X79093689Y-124563659D01*
X79617499Y-124420802D02*
X79617499Y-124896992D01*
X79617499Y-124896992D02*
X78617499Y-124896992D01*
X78617499Y-124896992D02*
X78617499Y-124420802D01*
X79617499Y-123420802D02*
X79141308Y-123754135D01*
X79617499Y-123992230D02*
X78617499Y-123992230D01*
X78617499Y-123992230D02*
X78617499Y-123611278D01*
X78617499Y-123611278D02*
X78665118Y-123516040D01*
X78665118Y-123516040D02*
X78712737Y-123468421D01*
X78712737Y-123468421D02*
X78807975Y-123420802D01*
X78807975Y-123420802D02*
X78950832Y-123420802D01*
X78950832Y-123420802D02*
X79046070Y-123468421D01*
X79046070Y-123468421D02*
X79093689Y-123516040D01*
X79093689Y-123516040D02*
X79141308Y-123611278D01*
X79141308Y-123611278D02*
X79141308Y-123992230D01*
X81227443Y-144230326D02*
X80227443Y-144230326D01*
X80227443Y-144230326D02*
X80227443Y-143849374D01*
X80227443Y-143849374D02*
X80275062Y-143754136D01*
X80275062Y-143754136D02*
X80322681Y-143706517D01*
X80322681Y-143706517D02*
X80417919Y-143658898D01*
X80417919Y-143658898D02*
X80560776Y-143658898D01*
X80560776Y-143658898D02*
X80656014Y-143706517D01*
X80656014Y-143706517D02*
X80703633Y-143754136D01*
X80703633Y-143754136D02*
X80751252Y-143849374D01*
X80751252Y-143849374D02*
X80751252Y-144230326D01*
X80941728Y-143277945D02*
X80941728Y-142801755D01*
X81227443Y-143373183D02*
X80227443Y-143039850D01*
X80227443Y-143039850D02*
X81227443Y-142706517D01*
X81179824Y-142420802D02*
X81227443Y-142277945D01*
X81227443Y-142277945D02*
X81227443Y-142039850D01*
X81227443Y-142039850D02*
X81179824Y-141944612D01*
X81179824Y-141944612D02*
X81132204Y-141896993D01*
X81132204Y-141896993D02*
X81036966Y-141849374D01*
X81036966Y-141849374D02*
X80941728Y-141849374D01*
X80941728Y-141849374D02*
X80846490Y-141896993D01*
X80846490Y-141896993D02*
X80798871Y-141944612D01*
X80798871Y-141944612D02*
X80751252Y-142039850D01*
X80751252Y-142039850D02*
X80703633Y-142230326D01*
X80703633Y-142230326D02*
X80656014Y-142325564D01*
X80656014Y-142325564D02*
X80608395Y-142373183D01*
X80608395Y-142373183D02*
X80513157Y-142420802D01*
X80513157Y-142420802D02*
X80417919Y-142420802D01*
X80417919Y-142420802D02*
X80322681Y-142373183D01*
X80322681Y-142373183D02*
X80275062Y-142325564D01*
X80275062Y-142325564D02*
X80227443Y-142230326D01*
X80227443Y-142230326D02*
X80227443Y-141992231D01*
X80227443Y-141992231D02*
X80275062Y-141849374D01*
X80227443Y-141563659D02*
X80227443Y-140992231D01*
X81227443Y-141277945D02*
X80227443Y-141277945D01*
X80227443Y-140468421D02*
X80227443Y-140277945D01*
X80227443Y-140277945D02*
X80275062Y-140182707D01*
X80275062Y-140182707D02*
X80370300Y-140087469D01*
X80370300Y-140087469D02*
X80560776Y-140039850D01*
X80560776Y-140039850D02*
X80894109Y-140039850D01*
X80894109Y-140039850D02*
X81084585Y-140087469D01*
X81084585Y-140087469D02*
X81179824Y-140182707D01*
X81179824Y-140182707D02*
X81227443Y-140277945D01*
X81227443Y-140277945D02*
X81227443Y-140468421D01*
X81227443Y-140468421D02*
X81179824Y-140563659D01*
X81179824Y-140563659D02*
X81084585Y-140658897D01*
X81084585Y-140658897D02*
X80894109Y-140706516D01*
X80894109Y-140706516D02*
X80560776Y-140706516D01*
X80560776Y-140706516D02*
X80370300Y-140658897D01*
X80370300Y-140658897D02*
X80275062Y-140563659D01*
X80275062Y-140563659D02*
X80227443Y-140468421D01*
X81227443Y-139039850D02*
X80751252Y-139373183D01*
X81227443Y-139611278D02*
X80227443Y-139611278D01*
X80227443Y-139611278D02*
X80227443Y-139230326D01*
X80227443Y-139230326D02*
X80275062Y-139135088D01*
X80275062Y-139135088D02*
X80322681Y-139087469D01*
X80322681Y-139087469D02*
X80417919Y-139039850D01*
X80417919Y-139039850D02*
X80560776Y-139039850D01*
X80560776Y-139039850D02*
X80656014Y-139087469D01*
X80656014Y-139087469D02*
X80703633Y-139135088D01*
X80703633Y-139135088D02*
X80751252Y-139230326D01*
X80751252Y-139230326D02*
X80751252Y-139611278D01*
X81227443Y-137277945D02*
X80751252Y-137611278D01*
X81227443Y-137849373D02*
X80227443Y-137849373D01*
X80227443Y-137849373D02*
X80227443Y-137468421D01*
X80227443Y-137468421D02*
X80275062Y-137373183D01*
X80275062Y-137373183D02*
X80322681Y-137325564D01*
X80322681Y-137325564D02*
X80417919Y-137277945D01*
X80417919Y-137277945D02*
X80560776Y-137277945D01*
X80560776Y-137277945D02*
X80656014Y-137325564D01*
X80656014Y-137325564D02*
X80703633Y-137373183D01*
X80703633Y-137373183D02*
X80751252Y-137468421D01*
X80751252Y-137468421D02*
X80751252Y-137849373D01*
X80703633Y-136849373D02*
X80703633Y-136516040D01*
X81227443Y-136373183D02*
X81227443Y-136849373D01*
X81227443Y-136849373D02*
X80227443Y-136849373D01*
X80227443Y-136849373D02*
X80227443Y-136373183D01*
X81227443Y-135944611D02*
X80227443Y-135944611D01*
X80227443Y-135944611D02*
X80227443Y-135706516D01*
X80227443Y-135706516D02*
X80275062Y-135563659D01*
X80275062Y-135563659D02*
X80370300Y-135468421D01*
X80370300Y-135468421D02*
X80465538Y-135420802D01*
X80465538Y-135420802D02*
X80656014Y-135373183D01*
X80656014Y-135373183D02*
X80798871Y-135373183D01*
X80798871Y-135373183D02*
X80989347Y-135420802D01*
X80989347Y-135420802D02*
X81084585Y-135468421D01*
X81084585Y-135468421D02*
X81179824Y-135563659D01*
X81179824Y-135563659D02*
X81227443Y-135706516D01*
X81227443Y-135706516D02*
X81227443Y-135944611D01*
X80227443Y-134754135D02*
X80227443Y-134563659D01*
X80227443Y-134563659D02*
X80275062Y-134468421D01*
X80275062Y-134468421D02*
X80370300Y-134373183D01*
X80370300Y-134373183D02*
X80560776Y-134325564D01*
X80560776Y-134325564D02*
X80894109Y-134325564D01*
X80894109Y-134325564D02*
X81084585Y-134373183D01*
X81084585Y-134373183D02*
X81179824Y-134468421D01*
X81179824Y-134468421D02*
X81227443Y-134563659D01*
X81227443Y-134563659D02*
X81227443Y-134754135D01*
X81227443Y-134754135D02*
X81179824Y-134849373D01*
X81179824Y-134849373D02*
X81084585Y-134944611D01*
X81084585Y-134944611D02*
X80894109Y-134992230D01*
X80894109Y-134992230D02*
X80560776Y-134992230D01*
X80560776Y-134992230D02*
X80370300Y-134944611D01*
X80370300Y-134944611D02*
X80275062Y-134849373D01*
X80275062Y-134849373D02*
X80227443Y-134754135D01*
X81227443Y-133896992D02*
X80227443Y-133896992D01*
X80227443Y-133896992D02*
X81227443Y-133325564D01*
X81227443Y-133325564D02*
X80227443Y-133325564D01*
X81227443Y-132849373D02*
X80227443Y-132849373D01*
X80227443Y-132849373D02*
X80227443Y-132611278D01*
X80227443Y-132611278D02*
X80275062Y-132468421D01*
X80275062Y-132468421D02*
X80370300Y-132373183D01*
X80370300Y-132373183D02*
X80465538Y-132325564D01*
X80465538Y-132325564D02*
X80656014Y-132277945D01*
X80656014Y-132277945D02*
X80798871Y-132277945D01*
X80798871Y-132277945D02*
X80989347Y-132325564D01*
X80989347Y-132325564D02*
X81084585Y-132373183D01*
X81084585Y-132373183D02*
X81179824Y-132468421D01*
X81179824Y-132468421D02*
X81227443Y-132611278D01*
X81227443Y-132611278D02*
X81227443Y-132849373D01*
X80227443Y-131658897D02*
X80227443Y-131468421D01*
X80227443Y-131468421D02*
X80275062Y-131373183D01*
X80275062Y-131373183D02*
X80370300Y-131277945D01*
X80370300Y-131277945D02*
X80560776Y-131230326D01*
X80560776Y-131230326D02*
X80894109Y-131230326D01*
X80894109Y-131230326D02*
X81084585Y-131277945D01*
X81084585Y-131277945D02*
X81179824Y-131373183D01*
X81179824Y-131373183D02*
X81227443Y-131468421D01*
X81227443Y-131468421D02*
X81227443Y-131658897D01*
X81227443Y-131658897D02*
X81179824Y-131754135D01*
X81179824Y-131754135D02*
X81084585Y-131849373D01*
X81084585Y-131849373D02*
X80894109Y-131896992D01*
X80894109Y-131896992D02*
X80560776Y-131896992D01*
X80560776Y-131896992D02*
X80370300Y-131849373D01*
X80370300Y-131849373D02*
X80275062Y-131754135D01*
X80275062Y-131754135D02*
X80227443Y-131658897D01*
X81179824Y-130754135D02*
X81227443Y-130754135D01*
X81227443Y-130754135D02*
X81322681Y-130801754D01*
X81322681Y-130801754D02*
X81370300Y-130849373D01*
X80941728Y-129611278D02*
X80941728Y-129135088D01*
X81227443Y-129706516D02*
X80227443Y-129373183D01*
X80227443Y-129373183D02*
X81227443Y-129039850D01*
X81227443Y-128706516D02*
X80227443Y-128706516D01*
X80227443Y-128706516D02*
X80227443Y-128468421D01*
X80227443Y-128468421D02*
X80275062Y-128325564D01*
X80275062Y-128325564D02*
X80370300Y-128230326D01*
X80370300Y-128230326D02*
X80465538Y-128182707D01*
X80465538Y-128182707D02*
X80656014Y-128135088D01*
X80656014Y-128135088D02*
X80798871Y-128135088D01*
X80798871Y-128135088D02*
X80989347Y-128182707D01*
X80989347Y-128182707D02*
X81084585Y-128230326D01*
X81084585Y-128230326D02*
X81179824Y-128325564D01*
X81179824Y-128325564D02*
X81227443Y-128468421D01*
X81227443Y-128468421D02*
X81227443Y-128706516D01*
X81227443Y-127135088D02*
X80751252Y-127468421D01*
X81227443Y-127706516D02*
X80227443Y-127706516D01*
X80227443Y-127706516D02*
X80227443Y-127325564D01*
X80227443Y-127325564D02*
X80275062Y-127230326D01*
X80275062Y-127230326D02*
X80322681Y-127182707D01*
X80322681Y-127182707D02*
X80417919Y-127135088D01*
X80417919Y-127135088D02*
X80560776Y-127135088D01*
X80560776Y-127135088D02*
X80656014Y-127182707D01*
X80656014Y-127182707D02*
X80703633Y-127230326D01*
X80703633Y-127230326D02*
X80751252Y-127325564D01*
X80751252Y-127325564D02*
X80751252Y-127706516D01*
X81227443Y-126706516D02*
X80227443Y-126706516D01*
X80941728Y-126277945D02*
X80941728Y-125801755D01*
X81227443Y-126373183D02*
X80227443Y-126039850D01*
X80227443Y-126039850D02*
X81227443Y-125706517D01*
X81227443Y-125373183D02*
X80227443Y-125373183D01*
X80227443Y-125373183D02*
X81227443Y-124801755D01*
X81227443Y-124801755D02*
X80227443Y-124801755D01*
X82932625Y-143563660D02*
X82885006Y-143658898D01*
X82885006Y-143658898D02*
X82789768Y-143754136D01*
X82789768Y-143754136D02*
X82646910Y-143896993D01*
X82646910Y-143896993D02*
X82599291Y-143992231D01*
X82599291Y-143992231D02*
X82599291Y-144087469D01*
X82837387Y-144039850D02*
X82789768Y-144135088D01*
X82789768Y-144135088D02*
X82694529Y-144230326D01*
X82694529Y-144230326D02*
X82504053Y-144277945D01*
X82504053Y-144277945D02*
X82170720Y-144277945D01*
X82170720Y-144277945D02*
X81980244Y-144230326D01*
X81980244Y-144230326D02*
X81885006Y-144135088D01*
X81885006Y-144135088D02*
X81837387Y-144039850D01*
X81837387Y-144039850D02*
X81837387Y-143849374D01*
X81837387Y-143849374D02*
X81885006Y-143754136D01*
X81885006Y-143754136D02*
X81980244Y-143658898D01*
X81980244Y-143658898D02*
X82170720Y-143611279D01*
X82170720Y-143611279D02*
X82504053Y-143611279D01*
X82504053Y-143611279D02*
X82694529Y-143658898D01*
X82694529Y-143658898D02*
X82789768Y-143754136D01*
X82789768Y-143754136D02*
X82837387Y-143849374D01*
X82837387Y-143849374D02*
X82837387Y-144039850D01*
X81837387Y-143182707D02*
X82646910Y-143182707D01*
X82646910Y-143182707D02*
X82742148Y-143135088D01*
X82742148Y-143135088D02*
X82789768Y-143087469D01*
X82789768Y-143087469D02*
X82837387Y-142992231D01*
X82837387Y-142992231D02*
X82837387Y-142801755D01*
X82837387Y-142801755D02*
X82789768Y-142706517D01*
X82789768Y-142706517D02*
X82742148Y-142658898D01*
X82742148Y-142658898D02*
X82646910Y-142611279D01*
X82646910Y-142611279D02*
X81837387Y-142611279D01*
X82837387Y-142135088D02*
X81837387Y-142135088D01*
X82837387Y-141658898D02*
X81837387Y-141658898D01*
X81837387Y-141658898D02*
X82837387Y-141087470D01*
X82837387Y-141087470D02*
X81837387Y-141087470D01*
X81837387Y-140754136D02*
X81837387Y-140182708D01*
X82837387Y-140468422D02*
X81837387Y-140468422D01*
X82313577Y-139849374D02*
X82313577Y-139516041D01*
X82837387Y-139373184D02*
X82837387Y-139849374D01*
X82837387Y-139849374D02*
X81837387Y-139849374D01*
X81837387Y-139849374D02*
X81837387Y-139373184D01*
X82837387Y-138373184D02*
X82361196Y-138706517D01*
X82837387Y-138944612D02*
X81837387Y-138944612D01*
X81837387Y-138944612D02*
X81837387Y-138563660D01*
X81837387Y-138563660D02*
X81885006Y-138468422D01*
X81885006Y-138468422D02*
X81932625Y-138420803D01*
X81932625Y-138420803D02*
X82027863Y-138373184D01*
X82027863Y-138373184D02*
X82170720Y-138373184D01*
X82170720Y-138373184D02*
X82265958Y-138420803D01*
X82265958Y-138420803D02*
X82313577Y-138468422D01*
X82313577Y-138468422D02*
X82361196Y-138563660D01*
X82361196Y-138563660D02*
X82361196Y-138944612D01*
X81837387Y-137754136D02*
X81837387Y-137563660D01*
X81837387Y-137563660D02*
X81885006Y-137468422D01*
X81885006Y-137468422D02*
X81980244Y-137373184D01*
X81980244Y-137373184D02*
X82170720Y-137325565D01*
X82170720Y-137325565D02*
X82504053Y-137325565D01*
X82504053Y-137325565D02*
X82694529Y-137373184D01*
X82694529Y-137373184D02*
X82789768Y-137468422D01*
X82789768Y-137468422D02*
X82837387Y-137563660D01*
X82837387Y-137563660D02*
X82837387Y-137754136D01*
X82837387Y-137754136D02*
X82789768Y-137849374D01*
X82789768Y-137849374D02*
X82694529Y-137944612D01*
X82694529Y-137944612D02*
X82504053Y-137992231D01*
X82504053Y-137992231D02*
X82170720Y-137992231D01*
X82170720Y-137992231D02*
X81980244Y-137944612D01*
X81980244Y-137944612D02*
X81885006Y-137849374D01*
X81885006Y-137849374D02*
X81837387Y-137754136D01*
X81837387Y-136135088D02*
X82646910Y-136135088D01*
X82646910Y-136135088D02*
X82742148Y-136087469D01*
X82742148Y-136087469D02*
X82789768Y-136039850D01*
X82789768Y-136039850D02*
X82837387Y-135944612D01*
X82837387Y-135944612D02*
X82837387Y-135754136D01*
X82837387Y-135754136D02*
X82789768Y-135658898D01*
X82789768Y-135658898D02*
X82742148Y-135611279D01*
X82742148Y-135611279D02*
X82646910Y-135563660D01*
X82646910Y-135563660D02*
X81837387Y-135563660D01*
X82837387Y-134516041D02*
X82361196Y-134849374D01*
X82837387Y-135087469D02*
X81837387Y-135087469D01*
X81837387Y-135087469D02*
X81837387Y-134706517D01*
X81837387Y-134706517D02*
X81885006Y-134611279D01*
X81885006Y-134611279D02*
X81932625Y-134563660D01*
X81932625Y-134563660D02*
X82027863Y-134516041D01*
X82027863Y-134516041D02*
X82170720Y-134516041D01*
X82170720Y-134516041D02*
X82265958Y-134563660D01*
X82265958Y-134563660D02*
X82313577Y-134611279D01*
X82313577Y-134611279D02*
X82361196Y-134706517D01*
X82361196Y-134706517D02*
X82361196Y-135087469D01*
X82837387Y-133516041D02*
X82361196Y-133849374D01*
X82837387Y-134087469D02*
X81837387Y-134087469D01*
X81837387Y-134087469D02*
X81837387Y-133706517D01*
X81837387Y-133706517D02*
X81885006Y-133611279D01*
X81885006Y-133611279D02*
X81932625Y-133563660D01*
X81932625Y-133563660D02*
X82027863Y-133516041D01*
X82027863Y-133516041D02*
X82170720Y-133516041D01*
X82170720Y-133516041D02*
X82265958Y-133563660D01*
X82265958Y-133563660D02*
X82313577Y-133611279D01*
X82313577Y-133611279D02*
X82361196Y-133706517D01*
X82361196Y-133706517D02*
X82361196Y-134087469D01*
X82313577Y-133087469D02*
X82313577Y-132754136D01*
X82837387Y-132611279D02*
X82837387Y-133087469D01*
X82837387Y-133087469D02*
X81837387Y-133087469D01*
X81837387Y-133087469D02*
X81837387Y-132611279D01*
X82551672Y-132230326D02*
X82551672Y-131754136D01*
X82837387Y-132325564D02*
X81837387Y-131992231D01*
X81837387Y-131992231D02*
X82837387Y-131658898D01*
X82789768Y-131277945D02*
X82837387Y-131277945D01*
X82837387Y-131277945D02*
X82932625Y-131325564D01*
X82932625Y-131325564D02*
X82980244Y-131373183D01*
X81837387Y-129801755D02*
X82551672Y-129801755D01*
X82551672Y-129801755D02*
X82694529Y-129849374D01*
X82694529Y-129849374D02*
X82789768Y-129944612D01*
X82789768Y-129944612D02*
X82837387Y-130087469D01*
X82837387Y-130087469D02*
X82837387Y-130182707D01*
X81837387Y-129325564D02*
X82646910Y-129325564D01*
X82646910Y-129325564D02*
X82742148Y-129277945D01*
X82742148Y-129277945D02*
X82789768Y-129230326D01*
X82789768Y-129230326D02*
X82837387Y-129135088D01*
X82837387Y-129135088D02*
X82837387Y-128944612D01*
X82837387Y-128944612D02*
X82789768Y-128849374D01*
X82789768Y-128849374D02*
X82742148Y-128801755D01*
X82742148Y-128801755D02*
X82646910Y-128754136D01*
X82646910Y-128754136D02*
X81837387Y-128754136D01*
X82837387Y-127801755D02*
X82837387Y-128277945D01*
X82837387Y-128277945D02*
X81837387Y-128277945D01*
X82837387Y-127468421D02*
X81837387Y-127468421D01*
X82551672Y-127039850D02*
X82551672Y-126563660D01*
X82837387Y-127135088D02*
X81837387Y-126801755D01*
X81837387Y-126801755D02*
X82837387Y-126468422D01*
X81456434Y-126706517D02*
X81599291Y-126849374D01*
X82837387Y-126135088D02*
X81837387Y-126135088D01*
X81837387Y-126135088D02*
X82837387Y-125563660D01*
X82837387Y-125563660D02*
X81837387Y-125563660D01*
X82837387Y-124325564D02*
X81837387Y-124325564D01*
X81837387Y-124325564D02*
X81837387Y-124087469D01*
X81837387Y-124087469D02*
X81885006Y-123944612D01*
X81885006Y-123944612D02*
X81980244Y-123849374D01*
X81980244Y-123849374D02*
X82075482Y-123801755D01*
X82075482Y-123801755D02*
X82265958Y-123754136D01*
X82265958Y-123754136D02*
X82408815Y-123754136D01*
X82408815Y-123754136D02*
X82599291Y-123801755D01*
X82599291Y-123801755D02*
X82694529Y-123849374D01*
X82694529Y-123849374D02*
X82789768Y-123944612D01*
X82789768Y-123944612D02*
X82837387Y-124087469D01*
X82837387Y-124087469D02*
X82837387Y-124325564D01*
X82551672Y-123373183D02*
X82551672Y-122896993D01*
X82837387Y-123468421D02*
X81837387Y-123135088D01*
X81837387Y-123135088D02*
X82837387Y-122801755D01*
X81837387Y-122611278D02*
X82837387Y-122277945D01*
X82837387Y-122277945D02*
X81837387Y-121944612D01*
X82837387Y-121611278D02*
X81837387Y-121611278D01*
X82837387Y-121135088D02*
X81837387Y-121135088D01*
X81837387Y-121135088D02*
X81837387Y-120896993D01*
X81837387Y-120896993D02*
X81885006Y-120754136D01*
X81885006Y-120754136D02*
X81980244Y-120658898D01*
X81980244Y-120658898D02*
X82075482Y-120611279D01*
X82075482Y-120611279D02*
X82265958Y-120563660D01*
X82265958Y-120563660D02*
X82408815Y-120563660D01*
X82408815Y-120563660D02*
X82599291Y-120611279D01*
X82599291Y-120611279D02*
X82694529Y-120658898D01*
X82694529Y-120658898D02*
X82789768Y-120754136D01*
X82789768Y-120754136D02*
X82837387Y-120896993D01*
X82837387Y-120896993D02*
X82837387Y-121135088D01*
X84352092Y-143658898D02*
X84399712Y-143706517D01*
X84399712Y-143706517D02*
X84447331Y-143849374D01*
X84447331Y-143849374D02*
X84447331Y-143944612D01*
X84447331Y-143944612D02*
X84399712Y-144087469D01*
X84399712Y-144087469D02*
X84304473Y-144182707D01*
X84304473Y-144182707D02*
X84209235Y-144230326D01*
X84209235Y-144230326D02*
X84018759Y-144277945D01*
X84018759Y-144277945D02*
X83875902Y-144277945D01*
X83875902Y-144277945D02*
X83685426Y-144230326D01*
X83685426Y-144230326D02*
X83590188Y-144182707D01*
X83590188Y-144182707D02*
X83494950Y-144087469D01*
X83494950Y-144087469D02*
X83447331Y-143944612D01*
X83447331Y-143944612D02*
X83447331Y-143849374D01*
X83447331Y-143849374D02*
X83494950Y-143706517D01*
X83494950Y-143706517D02*
X83542569Y-143658898D01*
X84161616Y-143277945D02*
X84161616Y-142801755D01*
X84447331Y-143373183D02*
X83447331Y-143039850D01*
X83447331Y-143039850D02*
X84447331Y-142706517D01*
X84447331Y-141801755D02*
X83971140Y-142135088D01*
X84447331Y-142373183D02*
X83447331Y-142373183D01*
X83447331Y-142373183D02*
X83447331Y-141992231D01*
X83447331Y-141992231D02*
X83494950Y-141896993D01*
X83494950Y-141896993D02*
X83542569Y-141849374D01*
X83542569Y-141849374D02*
X83637807Y-141801755D01*
X83637807Y-141801755D02*
X83780664Y-141801755D01*
X83780664Y-141801755D02*
X83875902Y-141849374D01*
X83875902Y-141849374D02*
X83923521Y-141896993D01*
X83923521Y-141896993D02*
X83971140Y-141992231D01*
X83971140Y-141992231D02*
X83971140Y-142373183D01*
X84161616Y-141420802D02*
X84161616Y-140944612D01*
X84447331Y-141516040D02*
X83447331Y-141182707D01*
X83447331Y-141182707D02*
X84447331Y-140849374D01*
X83971140Y-140325564D02*
X84447331Y-140325564D01*
X83447331Y-140658897D02*
X83971140Y-140325564D01*
X83971140Y-140325564D02*
X83447331Y-139992231D01*
X83447331Y-139468421D02*
X83447331Y-139277945D01*
X83447331Y-139277945D02*
X83494950Y-139182707D01*
X83494950Y-139182707D02*
X83590188Y-139087469D01*
X83590188Y-139087469D02*
X83780664Y-139039850D01*
X83780664Y-139039850D02*
X84113997Y-139039850D01*
X84113997Y-139039850D02*
X84304473Y-139087469D01*
X84304473Y-139087469D02*
X84399712Y-139182707D01*
X84399712Y-139182707D02*
X84447331Y-139277945D01*
X84447331Y-139277945D02*
X84447331Y-139468421D01*
X84447331Y-139468421D02*
X84399712Y-139563659D01*
X84399712Y-139563659D02*
X84304473Y-139658897D01*
X84304473Y-139658897D02*
X84113997Y-139706516D01*
X84113997Y-139706516D02*
X83780664Y-139706516D01*
X83780664Y-139706516D02*
X83590188Y-139658897D01*
X83590188Y-139658897D02*
X83494950Y-139563659D01*
X83494950Y-139563659D02*
X83447331Y-139468421D01*
X84447331Y-138135088D02*
X84447331Y-138611278D01*
X84447331Y-138611278D02*
X83447331Y-138611278D01*
X84447331Y-136468421D02*
X83971140Y-136801754D01*
X84447331Y-137039849D02*
X83447331Y-137039849D01*
X83447331Y-137039849D02*
X83447331Y-136658897D01*
X83447331Y-136658897D02*
X83494950Y-136563659D01*
X83494950Y-136563659D02*
X83542569Y-136516040D01*
X83542569Y-136516040D02*
X83637807Y-136468421D01*
X83637807Y-136468421D02*
X83780664Y-136468421D01*
X83780664Y-136468421D02*
X83875902Y-136516040D01*
X83875902Y-136516040D02*
X83923521Y-136563659D01*
X83923521Y-136563659D02*
X83971140Y-136658897D01*
X83971140Y-136658897D02*
X83971140Y-137039849D01*
X83447331Y-135849373D02*
X83447331Y-135658897D01*
X83447331Y-135658897D02*
X83494950Y-135563659D01*
X83494950Y-135563659D02*
X83590188Y-135468421D01*
X83590188Y-135468421D02*
X83780664Y-135420802D01*
X83780664Y-135420802D02*
X84113997Y-135420802D01*
X84113997Y-135420802D02*
X84304473Y-135468421D01*
X84304473Y-135468421D02*
X84399712Y-135563659D01*
X84399712Y-135563659D02*
X84447331Y-135658897D01*
X84447331Y-135658897D02*
X84447331Y-135849373D01*
X84447331Y-135849373D02*
X84399712Y-135944611D01*
X84399712Y-135944611D02*
X84304473Y-136039849D01*
X84304473Y-136039849D02*
X84113997Y-136087468D01*
X84113997Y-136087468D02*
X83780664Y-136087468D01*
X83780664Y-136087468D02*
X83590188Y-136039849D01*
X83590188Y-136039849D02*
X83494950Y-135944611D01*
X83494950Y-135944611D02*
X83447331Y-135849373D01*
X84447331Y-134992230D02*
X83447331Y-134992230D01*
X83447331Y-134992230D02*
X83447331Y-134754135D01*
X83447331Y-134754135D02*
X83494950Y-134611278D01*
X83494950Y-134611278D02*
X83590188Y-134516040D01*
X83590188Y-134516040D02*
X83685426Y-134468421D01*
X83685426Y-134468421D02*
X83875902Y-134420802D01*
X83875902Y-134420802D02*
X84018759Y-134420802D01*
X84018759Y-134420802D02*
X84209235Y-134468421D01*
X84209235Y-134468421D02*
X84304473Y-134516040D01*
X84304473Y-134516040D02*
X84399712Y-134611278D01*
X84399712Y-134611278D02*
X84447331Y-134754135D01*
X84447331Y-134754135D02*
X84447331Y-134992230D01*
X84447331Y-133420802D02*
X83971140Y-133754135D01*
X84447331Y-133992230D02*
X83447331Y-133992230D01*
X83447331Y-133992230D02*
X83447331Y-133611278D01*
X83447331Y-133611278D02*
X83494950Y-133516040D01*
X83494950Y-133516040D02*
X83542569Y-133468421D01*
X83542569Y-133468421D02*
X83637807Y-133420802D01*
X83637807Y-133420802D02*
X83780664Y-133420802D01*
X83780664Y-133420802D02*
X83875902Y-133468421D01*
X83875902Y-133468421D02*
X83923521Y-133516040D01*
X83923521Y-133516040D02*
X83971140Y-133611278D01*
X83971140Y-133611278D02*
X83971140Y-133992230D01*
X84447331Y-132992230D02*
X83447331Y-132992230D01*
X83494950Y-131992231D02*
X83447331Y-132087469D01*
X83447331Y-132087469D02*
X83447331Y-132230326D01*
X83447331Y-132230326D02*
X83494950Y-132373183D01*
X83494950Y-132373183D02*
X83590188Y-132468421D01*
X83590188Y-132468421D02*
X83685426Y-132516040D01*
X83685426Y-132516040D02*
X83875902Y-132563659D01*
X83875902Y-132563659D02*
X84018759Y-132563659D01*
X84018759Y-132563659D02*
X84209235Y-132516040D01*
X84209235Y-132516040D02*
X84304473Y-132468421D01*
X84304473Y-132468421D02*
X84399712Y-132373183D01*
X84399712Y-132373183D02*
X84447331Y-132230326D01*
X84447331Y-132230326D02*
X84447331Y-132135088D01*
X84447331Y-132135088D02*
X84399712Y-131992231D01*
X84399712Y-131992231D02*
X84352092Y-131944612D01*
X84352092Y-131944612D02*
X84018759Y-131944612D01*
X84018759Y-131944612D02*
X84018759Y-132135088D01*
X83447331Y-131516040D02*
X84256854Y-131516040D01*
X84256854Y-131516040D02*
X84352092Y-131468421D01*
X84352092Y-131468421D02*
X84399712Y-131420802D01*
X84399712Y-131420802D02*
X84447331Y-131325564D01*
X84447331Y-131325564D02*
X84447331Y-131135088D01*
X84447331Y-131135088D02*
X84399712Y-131039850D01*
X84399712Y-131039850D02*
X84352092Y-130992231D01*
X84352092Y-130992231D02*
X84256854Y-130944612D01*
X84256854Y-130944612D02*
X83447331Y-130944612D01*
X83923521Y-130468421D02*
X83923521Y-130135088D01*
X84447331Y-129992231D02*
X84447331Y-130468421D01*
X84447331Y-130468421D02*
X83447331Y-130468421D01*
X83447331Y-130468421D02*
X83447331Y-129992231D01*
X83447331Y-129658897D02*
X83447331Y-128992231D01*
X83447331Y-128992231D02*
X84447331Y-129658897D01*
X84447331Y-129658897D02*
X84447331Y-128992231D01*
X84399712Y-128563659D02*
X84447331Y-128563659D01*
X84447331Y-128563659D02*
X84542569Y-128611278D01*
X84542569Y-128611278D02*
X84590188Y-128658897D01*
X84447331Y-126801755D02*
X83971140Y-127135088D01*
X84447331Y-127373183D02*
X83447331Y-127373183D01*
X83447331Y-127373183D02*
X83447331Y-126992231D01*
X83447331Y-126992231D02*
X83494950Y-126896993D01*
X83494950Y-126896993D02*
X83542569Y-126849374D01*
X83542569Y-126849374D02*
X83637807Y-126801755D01*
X83637807Y-126801755D02*
X83780664Y-126801755D01*
X83780664Y-126801755D02*
X83875902Y-126849374D01*
X83875902Y-126849374D02*
X83923521Y-126896993D01*
X83923521Y-126896993D02*
X83971140Y-126992231D01*
X83971140Y-126992231D02*
X83971140Y-127373183D01*
X84161616Y-126420802D02*
X84161616Y-125944612D01*
X84447331Y-126516040D02*
X83447331Y-126182707D01*
X83447331Y-126182707D02*
X84447331Y-125849374D01*
X83447331Y-125516040D02*
X84256854Y-125516040D01*
X84256854Y-125516040D02*
X84352092Y-125468421D01*
X84352092Y-125468421D02*
X84399712Y-125420802D01*
X84399712Y-125420802D02*
X84447331Y-125325564D01*
X84447331Y-125325564D02*
X84447331Y-125135088D01*
X84447331Y-125135088D02*
X84399712Y-125039850D01*
X84399712Y-125039850D02*
X84352092Y-124992231D01*
X84352092Y-124992231D02*
X84256854Y-124944612D01*
X84256854Y-124944612D02*
X83447331Y-124944612D01*
X84447331Y-123992231D02*
X84447331Y-124468421D01*
X84447331Y-124468421D02*
X83447331Y-124468421D01*
X86057275Y-144230326D02*
X85057275Y-144230326D01*
X85057275Y-144230326D02*
X85771560Y-143896993D01*
X85771560Y-143896993D02*
X85057275Y-143563660D01*
X85057275Y-143563660D02*
X86057275Y-143563660D01*
X85057275Y-143087469D02*
X85866798Y-143087469D01*
X85866798Y-143087469D02*
X85962036Y-143039850D01*
X85962036Y-143039850D02*
X86009656Y-142992231D01*
X86009656Y-142992231D02*
X86057275Y-142896993D01*
X86057275Y-142896993D02*
X86057275Y-142706517D01*
X86057275Y-142706517D02*
X86009656Y-142611279D01*
X86009656Y-142611279D02*
X85962036Y-142563660D01*
X85962036Y-142563660D02*
X85866798Y-142516041D01*
X85866798Y-142516041D02*
X85057275Y-142516041D01*
X86057275Y-142039850D02*
X85057275Y-142039850D01*
X85057275Y-142039850D02*
X86057275Y-141468422D01*
X86057275Y-141468422D02*
X85057275Y-141468422D01*
X84819179Y-141992231D02*
X84771560Y-141944612D01*
X84771560Y-141944612D02*
X84723941Y-141849374D01*
X84723941Y-141849374D02*
X84819179Y-141658898D01*
X84819179Y-141658898D02*
X84771560Y-141563660D01*
X84771560Y-141563660D02*
X84723941Y-141516041D01*
X85057275Y-140801755D02*
X85057275Y-140611279D01*
X85057275Y-140611279D02*
X85104894Y-140516041D01*
X85104894Y-140516041D02*
X85200132Y-140420803D01*
X85200132Y-140420803D02*
X85390608Y-140373184D01*
X85390608Y-140373184D02*
X85723941Y-140373184D01*
X85723941Y-140373184D02*
X85914417Y-140420803D01*
X85914417Y-140420803D02*
X86009656Y-140516041D01*
X86009656Y-140516041D02*
X86057275Y-140611279D01*
X86057275Y-140611279D02*
X86057275Y-140801755D01*
X86057275Y-140801755D02*
X86009656Y-140896993D01*
X86009656Y-140896993D02*
X85914417Y-140992231D01*
X85914417Y-140992231D02*
X85723941Y-141039850D01*
X85723941Y-141039850D02*
X85390608Y-141039850D01*
X85390608Y-141039850D02*
X85200132Y-140992231D01*
X85200132Y-140992231D02*
X85104894Y-140896993D01*
X85104894Y-140896993D02*
X85057275Y-140801755D01*
X85057275Y-140039850D02*
X85057275Y-139373184D01*
X85057275Y-139373184D02*
X86057275Y-140039850D01*
X86057275Y-140039850D02*
X86057275Y-139373184D01*
X86009656Y-138277945D02*
X86057275Y-138135088D01*
X86057275Y-138135088D02*
X86057275Y-137896993D01*
X86057275Y-137896993D02*
X86009656Y-137801755D01*
X86009656Y-137801755D02*
X85962036Y-137754136D01*
X85962036Y-137754136D02*
X85866798Y-137706517D01*
X85866798Y-137706517D02*
X85771560Y-137706517D01*
X85771560Y-137706517D02*
X85676322Y-137754136D01*
X85676322Y-137754136D02*
X85628703Y-137801755D01*
X85628703Y-137801755D02*
X85581084Y-137896993D01*
X85581084Y-137896993D02*
X85533465Y-138087469D01*
X85533465Y-138087469D02*
X85485846Y-138182707D01*
X85485846Y-138182707D02*
X85438227Y-138230326D01*
X85438227Y-138230326D02*
X85342989Y-138277945D01*
X85342989Y-138277945D02*
X85247751Y-138277945D01*
X85247751Y-138277945D02*
X85152513Y-138230326D01*
X85152513Y-138230326D02*
X85104894Y-138182707D01*
X85104894Y-138182707D02*
X85057275Y-138087469D01*
X85057275Y-138087469D02*
X85057275Y-137849374D01*
X85057275Y-137849374D02*
X85104894Y-137706517D01*
X85771560Y-137325564D02*
X85771560Y-136849374D01*
X86057275Y-137420802D02*
X85057275Y-137087469D01*
X85057275Y-137087469D02*
X86057275Y-136754136D01*
X86057275Y-136420802D02*
X85057275Y-136420802D01*
X85057275Y-136420802D02*
X86057275Y-135849374D01*
X86057275Y-135849374D02*
X85057275Y-135849374D01*
X85962036Y-134801755D02*
X86009656Y-134849374D01*
X86009656Y-134849374D02*
X86057275Y-134992231D01*
X86057275Y-134992231D02*
X86057275Y-135087469D01*
X86057275Y-135087469D02*
X86009656Y-135230326D01*
X86009656Y-135230326D02*
X85914417Y-135325564D01*
X85914417Y-135325564D02*
X85819179Y-135373183D01*
X85819179Y-135373183D02*
X85628703Y-135420802D01*
X85628703Y-135420802D02*
X85485846Y-135420802D01*
X85485846Y-135420802D02*
X85295370Y-135373183D01*
X85295370Y-135373183D02*
X85200132Y-135325564D01*
X85200132Y-135325564D02*
X85104894Y-135230326D01*
X85104894Y-135230326D02*
X85057275Y-135087469D01*
X85057275Y-135087469D02*
X85057275Y-134992231D01*
X85057275Y-134992231D02*
X85104894Y-134849374D01*
X85104894Y-134849374D02*
X85152513Y-134801755D01*
X86057275Y-134373183D02*
X85057275Y-134373183D01*
X85533465Y-134373183D02*
X85533465Y-133801755D01*
X86057275Y-133801755D02*
X85057275Y-133801755D01*
X86057275Y-133325564D02*
X85057275Y-133325564D01*
X86009656Y-132896993D02*
X86057275Y-132754136D01*
X86057275Y-132754136D02*
X86057275Y-132516041D01*
X86057275Y-132516041D02*
X86009656Y-132420803D01*
X86009656Y-132420803D02*
X85962036Y-132373184D01*
X85962036Y-132373184D02*
X85866798Y-132325565D01*
X85866798Y-132325565D02*
X85771560Y-132325565D01*
X85771560Y-132325565D02*
X85676322Y-132373184D01*
X85676322Y-132373184D02*
X85628703Y-132420803D01*
X85628703Y-132420803D02*
X85581084Y-132516041D01*
X85581084Y-132516041D02*
X85533465Y-132706517D01*
X85533465Y-132706517D02*
X85485846Y-132801755D01*
X85485846Y-132801755D02*
X85438227Y-132849374D01*
X85438227Y-132849374D02*
X85342989Y-132896993D01*
X85342989Y-132896993D02*
X85247751Y-132896993D01*
X85247751Y-132896993D02*
X85152513Y-132849374D01*
X85152513Y-132849374D02*
X85104894Y-132801755D01*
X85104894Y-132801755D02*
X85057275Y-132706517D01*
X85057275Y-132706517D02*
X85057275Y-132468422D01*
X85057275Y-132468422D02*
X85104894Y-132325565D01*
X86009656Y-131849374D02*
X86057275Y-131849374D01*
X86057275Y-131849374D02*
X86152513Y-131896993D01*
X86152513Y-131896993D02*
X86200132Y-131944612D01*
X85057275Y-130373184D02*
X85771560Y-130373184D01*
X85771560Y-130373184D02*
X85914417Y-130420803D01*
X85914417Y-130420803D02*
X86009656Y-130516041D01*
X86009656Y-130516041D02*
X86057275Y-130658898D01*
X86057275Y-130658898D02*
X86057275Y-130754136D01*
X85057275Y-129706517D02*
X85057275Y-129516041D01*
X85057275Y-129516041D02*
X85104894Y-129420803D01*
X85104894Y-129420803D02*
X85200132Y-129325565D01*
X85200132Y-129325565D02*
X85390608Y-129277946D01*
X85390608Y-129277946D02*
X85723941Y-129277946D01*
X85723941Y-129277946D02*
X85914417Y-129325565D01*
X85914417Y-129325565D02*
X86009656Y-129420803D01*
X86009656Y-129420803D02*
X86057275Y-129516041D01*
X86057275Y-129516041D02*
X86057275Y-129706517D01*
X86057275Y-129706517D02*
X86009656Y-129801755D01*
X86009656Y-129801755D02*
X85914417Y-129896993D01*
X85914417Y-129896993D02*
X85723941Y-129944612D01*
X85723941Y-129944612D02*
X85390608Y-129944612D01*
X85390608Y-129944612D02*
X85200132Y-129896993D01*
X85200132Y-129896993D02*
X85104894Y-129801755D01*
X85104894Y-129801755D02*
X85057275Y-129706517D01*
X85771560Y-128896993D02*
X85771560Y-128420803D01*
X86057275Y-128992231D02*
X85057275Y-128658898D01*
X85057275Y-128658898D02*
X86057275Y-128325565D01*
X86057275Y-127992231D02*
X85057275Y-127992231D01*
X85057275Y-127992231D02*
X86057275Y-127420803D01*
X86057275Y-127420803D02*
X85057275Y-127420803D01*
X87667219Y-144230326D02*
X86667219Y-144230326D01*
X86667219Y-144230326D02*
X87381504Y-143896993D01*
X87381504Y-143896993D02*
X86667219Y-143563660D01*
X86667219Y-143563660D02*
X87667219Y-143563660D01*
X87381504Y-143135088D02*
X87381504Y-142658898D01*
X87667219Y-143230326D02*
X86667219Y-142896993D01*
X86667219Y-142896993D02*
X87667219Y-142563660D01*
X87667219Y-141658898D02*
X87191028Y-141992231D01*
X87667219Y-142230326D02*
X86667219Y-142230326D01*
X86667219Y-142230326D02*
X86667219Y-141849374D01*
X86667219Y-141849374D02*
X86714838Y-141754136D01*
X86714838Y-141754136D02*
X86762457Y-141706517D01*
X86762457Y-141706517D02*
X86857695Y-141658898D01*
X86857695Y-141658898D02*
X87000552Y-141658898D01*
X87000552Y-141658898D02*
X87095790Y-141706517D01*
X87095790Y-141706517D02*
X87143409Y-141754136D01*
X87143409Y-141754136D02*
X87191028Y-141849374D01*
X87191028Y-141849374D02*
X87191028Y-142230326D01*
X87143409Y-141230326D02*
X87143409Y-140896993D01*
X87667219Y-140754136D02*
X87667219Y-141230326D01*
X87667219Y-141230326D02*
X86667219Y-141230326D01*
X86667219Y-141230326D02*
X86667219Y-140754136D01*
X87667219Y-140325564D02*
X86667219Y-140325564D01*
X86667219Y-140325564D02*
X87667219Y-139754136D01*
X87667219Y-139754136D02*
X86667219Y-139754136D01*
X87381504Y-139325564D02*
X87381504Y-138849374D01*
X87667219Y-139420802D02*
X86667219Y-139087469D01*
X86667219Y-139087469D02*
X87667219Y-138754136D01*
X87667219Y-138420802D02*
X86667219Y-138420802D01*
X87143409Y-138420802D02*
X87143409Y-137849374D01*
X87667219Y-137849374D02*
X86667219Y-137849374D01*
X87381504Y-137420802D02*
X87381504Y-136944612D01*
X87667219Y-137516040D02*
X86667219Y-137182707D01*
X86667219Y-137182707D02*
X87667219Y-136849374D01*
X87667219Y-136039850D02*
X87667219Y-136516040D01*
X87667219Y-136516040D02*
X86667219Y-136516040D01*
X87667219Y-135230326D02*
X87667219Y-135706516D01*
X87667219Y-135706516D02*
X86667219Y-135706516D01*
X87667219Y-134896992D02*
X86667219Y-134896992D01*
X87667219Y-133658897D02*
X86667219Y-133658897D01*
X86667219Y-133658897D02*
X87667219Y-133087469D01*
X87667219Y-133087469D02*
X86667219Y-133087469D01*
X87381504Y-132658897D02*
X87381504Y-132182707D01*
X87667219Y-132754135D02*
X86667219Y-132420802D01*
X86667219Y-132420802D02*
X87667219Y-132087469D01*
X87667219Y-131182707D02*
X87191028Y-131516040D01*
X87667219Y-131754135D02*
X86667219Y-131754135D01*
X86667219Y-131754135D02*
X86667219Y-131373183D01*
X86667219Y-131373183D02*
X86714838Y-131277945D01*
X86714838Y-131277945D02*
X86762457Y-131230326D01*
X86762457Y-131230326D02*
X86857695Y-131182707D01*
X86857695Y-131182707D02*
X87000552Y-131182707D01*
X87000552Y-131182707D02*
X87095790Y-131230326D01*
X87095790Y-131230326D02*
X87143409Y-131277945D01*
X87143409Y-131277945D02*
X87191028Y-131373183D01*
X87191028Y-131373183D02*
X87191028Y-131754135D01*
X87381504Y-130801754D02*
X87381504Y-130325564D01*
X87667219Y-130896992D02*
X86667219Y-130563659D01*
X86667219Y-130563659D02*
X87667219Y-130230326D01*
X87619600Y-129944611D02*
X87667219Y-129801754D01*
X87667219Y-129801754D02*
X87667219Y-129563659D01*
X87667219Y-129563659D02*
X87619600Y-129468421D01*
X87619600Y-129468421D02*
X87571980Y-129420802D01*
X87571980Y-129420802D02*
X87476742Y-129373183D01*
X87476742Y-129373183D02*
X87381504Y-129373183D01*
X87381504Y-129373183D02*
X87286266Y-129420802D01*
X87286266Y-129420802D02*
X87238647Y-129468421D01*
X87238647Y-129468421D02*
X87191028Y-129563659D01*
X87191028Y-129563659D02*
X87143409Y-129754135D01*
X87143409Y-129754135D02*
X87095790Y-129849373D01*
X87095790Y-129849373D02*
X87048171Y-129896992D01*
X87048171Y-129896992D02*
X86952933Y-129944611D01*
X86952933Y-129944611D02*
X86857695Y-129944611D01*
X86857695Y-129944611D02*
X86762457Y-129896992D01*
X86762457Y-129896992D02*
X86714838Y-129849373D01*
X86714838Y-129849373D02*
X86667219Y-129754135D01*
X86667219Y-129754135D02*
X86667219Y-129516040D01*
X86667219Y-129516040D02*
X86714838Y-129373183D01*
X87667219Y-128944611D02*
X86667219Y-128944611D01*
X87667219Y-128468421D02*
X86667219Y-128468421D01*
X86667219Y-128468421D02*
X87381504Y-128135088D01*
X87381504Y-128135088D02*
X86667219Y-127801755D01*
X86667219Y-127801755D02*
X87667219Y-127801755D01*
X87667219Y-127325564D02*
X86667219Y-127325564D01*
X87143409Y-127325564D02*
X87143409Y-126754136D01*
X87667219Y-126754136D02*
X86667219Y-126754136D01*
X87381504Y-126325564D02*
X87381504Y-125849374D01*
X87667219Y-126420802D02*
X86667219Y-126087469D01*
X86667219Y-126087469D02*
X87667219Y-125754136D01*
X87619600Y-125373183D02*
X87667219Y-125373183D01*
X87667219Y-125373183D02*
X87762457Y-125420802D01*
X87762457Y-125420802D02*
X87810076Y-125468421D01*
X87667219Y-124182707D02*
X86667219Y-124182707D01*
X86667219Y-124182707D02*
X86667219Y-123944612D01*
X86667219Y-123944612D02*
X86714838Y-123801755D01*
X86714838Y-123801755D02*
X86810076Y-123706517D01*
X86810076Y-123706517D02*
X86905314Y-123658898D01*
X86905314Y-123658898D02*
X87095790Y-123611279D01*
X87095790Y-123611279D02*
X87238647Y-123611279D01*
X87238647Y-123611279D02*
X87429123Y-123658898D01*
X87429123Y-123658898D02*
X87524361Y-123706517D01*
X87524361Y-123706517D02*
X87619600Y-123801755D01*
X87619600Y-123801755D02*
X87667219Y-123944612D01*
X87667219Y-123944612D02*
X87667219Y-124182707D01*
X87667219Y-123182707D02*
X86667219Y-123182707D01*
X87667219Y-122230327D02*
X87667219Y-122706517D01*
X87667219Y-122706517D02*
X86667219Y-122706517D01*
X87143409Y-121896993D02*
X87143409Y-121563660D01*
X87667219Y-121420803D02*
X87667219Y-121896993D01*
X87667219Y-121896993D02*
X86667219Y-121896993D01*
X86667219Y-121896993D02*
X86667219Y-121420803D01*
X87143409Y-120992231D02*
X87143409Y-120658898D01*
X87667219Y-120516041D02*
X87667219Y-120992231D01*
X87667219Y-120992231D02*
X86667219Y-120992231D01*
X86667219Y-120992231D02*
X86667219Y-120516041D01*
X87667219Y-120087469D02*
X86667219Y-120087469D01*
X86667219Y-120087469D02*
X86667219Y-119706517D01*
X86667219Y-119706517D02*
X86714838Y-119611279D01*
X86714838Y-119611279D02*
X86762457Y-119563660D01*
X86762457Y-119563660D02*
X86857695Y-119516041D01*
X86857695Y-119516041D02*
X87000552Y-119516041D01*
X87000552Y-119516041D02*
X87095790Y-119563660D01*
X87095790Y-119563660D02*
X87143409Y-119611279D01*
X87143409Y-119611279D02*
X87191028Y-119706517D01*
X87191028Y-119706517D02*
X87191028Y-120087469D01*
X87667219Y-118325564D02*
X86667219Y-118325564D01*
X87667219Y-117754136D02*
X87095790Y-118182707D01*
X86667219Y-117754136D02*
X87238647Y-118325564D01*
X86667219Y-117325564D02*
X87476742Y-117325564D01*
X87476742Y-117325564D02*
X87571980Y-117277945D01*
X87571980Y-117277945D02*
X87619600Y-117230326D01*
X87619600Y-117230326D02*
X87667219Y-117135088D01*
X87667219Y-117135088D02*
X87667219Y-116944612D01*
X87667219Y-116944612D02*
X87619600Y-116849374D01*
X87619600Y-116849374D02*
X87571980Y-116801755D01*
X87571980Y-116801755D02*
X87476742Y-116754136D01*
X87476742Y-116754136D02*
X86667219Y-116754136D01*
X87667219Y-116277945D02*
X86667219Y-116277945D01*
X86667219Y-116277945D02*
X87381504Y-115944612D01*
X87381504Y-115944612D02*
X86667219Y-115611279D01*
X86667219Y-115611279D02*
X87667219Y-115611279D01*
X87381504Y-115182707D02*
X87381504Y-114706517D01*
X87667219Y-115277945D02*
X86667219Y-114944612D01*
X86667219Y-114944612D02*
X87667219Y-114611279D01*
X87667219Y-113706517D02*
X87191028Y-114039850D01*
X87667219Y-114277945D02*
X86667219Y-114277945D01*
X86667219Y-114277945D02*
X86667219Y-113896993D01*
X86667219Y-113896993D02*
X86714838Y-113801755D01*
X86714838Y-113801755D02*
X86762457Y-113754136D01*
X86762457Y-113754136D02*
X86857695Y-113706517D01*
X86857695Y-113706517D02*
X87000552Y-113706517D01*
X87000552Y-113706517D02*
X87095790Y-113754136D01*
X87095790Y-113754136D02*
X87143409Y-113801755D01*
X87143409Y-113801755D02*
X87191028Y-113896993D01*
X87191028Y-113896993D02*
X87191028Y-114277945D01*
D11*
X73788590Y-145521679D02*
X72188590Y-145521679D01*
X72188590Y-145521679D02*
X73331447Y-144988346D01*
X73331447Y-144988346D02*
X72188590Y-144455012D01*
X72188590Y-144455012D02*
X73788590Y-144455012D01*
X72188590Y-143921680D02*
X72188590Y-143007394D01*
X73788590Y-143464537D02*
X72188590Y-143464537D01*
X73788590Y-142474060D02*
X72188590Y-142474060D01*
X72188590Y-142474060D02*
X72188590Y-141864536D01*
X72188590Y-141864536D02*
X72264780Y-141712155D01*
X72264780Y-141712155D02*
X72340971Y-141635965D01*
X72340971Y-141635965D02*
X72493352Y-141559774D01*
X72493352Y-141559774D02*
X72721923Y-141559774D01*
X72721923Y-141559774D02*
X72874304Y-141635965D01*
X72874304Y-141635965D02*
X72950495Y-141712155D01*
X72950495Y-141712155D02*
X73026685Y-141864536D01*
X73026685Y-141864536D02*
X73026685Y-142474060D01*
X72188590Y-139883584D02*
X72188590Y-138969298D01*
X73788590Y-139426441D02*
X72188590Y-139426441D01*
X73712400Y-137826440D02*
X73788590Y-137978821D01*
X73788590Y-137978821D02*
X73788590Y-138283583D01*
X73788590Y-138283583D02*
X73712400Y-138435964D01*
X73712400Y-138435964D02*
X73560019Y-138512155D01*
X73560019Y-138512155D02*
X72950495Y-138512155D01*
X72950495Y-138512155D02*
X72798114Y-138435964D01*
X72798114Y-138435964D02*
X72721923Y-138283583D01*
X72721923Y-138283583D02*
X72721923Y-137978821D01*
X72721923Y-137978821D02*
X72798114Y-137826440D01*
X72798114Y-137826440D02*
X72950495Y-137750250D01*
X72950495Y-137750250D02*
X73102876Y-137750250D01*
X73102876Y-137750250D02*
X73255257Y-138512155D01*
X73788590Y-136378821D02*
X72950495Y-136378821D01*
X72950495Y-136378821D02*
X72798114Y-136455011D01*
X72798114Y-136455011D02*
X72721923Y-136607392D01*
X72721923Y-136607392D02*
X72721923Y-136912154D01*
X72721923Y-136912154D02*
X72798114Y-137064535D01*
X73712400Y-136378821D02*
X73788590Y-136531202D01*
X73788590Y-136531202D02*
X73788590Y-136912154D01*
X73788590Y-136912154D02*
X73712400Y-137064535D01*
X73712400Y-137064535D02*
X73560019Y-137140726D01*
X73560019Y-137140726D02*
X73407638Y-137140726D01*
X73407638Y-137140726D02*
X73255257Y-137064535D01*
X73255257Y-137064535D02*
X73179066Y-136912154D01*
X73179066Y-136912154D02*
X73179066Y-136531202D01*
X73179066Y-136531202D02*
X73102876Y-136378821D01*
X73788590Y-135616916D02*
X72721923Y-135616916D01*
X72874304Y-135616916D02*
X72798114Y-135540726D01*
X72798114Y-135540726D02*
X72721923Y-135388345D01*
X72721923Y-135388345D02*
X72721923Y-135159773D01*
X72721923Y-135159773D02*
X72798114Y-135007392D01*
X72798114Y-135007392D02*
X72950495Y-134931202D01*
X72950495Y-134931202D02*
X73788590Y-134931202D01*
X72950495Y-134931202D02*
X72798114Y-134855011D01*
X72798114Y-134855011D02*
X72721923Y-134702630D01*
X72721923Y-134702630D02*
X72721923Y-134474059D01*
X72721923Y-134474059D02*
X72798114Y-134321678D01*
X72798114Y-134321678D02*
X72950495Y-134245488D01*
X72950495Y-134245488D02*
X73788590Y-134245488D01*
X73331447Y-133559774D02*
X73331447Y-132797869D01*
X73788590Y-133712155D02*
X72188590Y-133178821D01*
X72188590Y-133178821D02*
X73788590Y-132645488D01*
X72950495Y-130359773D02*
X72950495Y-130893106D01*
X73788590Y-130893106D02*
X72188590Y-130893106D01*
X72188590Y-130893106D02*
X72188590Y-130131201D01*
X72340971Y-129597868D02*
X72264780Y-129521677D01*
X72264780Y-129521677D02*
X72188590Y-129369296D01*
X72188590Y-129369296D02*
X72188590Y-128988344D01*
X72188590Y-128988344D02*
X72264780Y-128835963D01*
X72264780Y-128835963D02*
X72340971Y-128759772D01*
X72340971Y-128759772D02*
X72493352Y-128683582D01*
X72493352Y-128683582D02*
X72645733Y-128683582D01*
X72645733Y-128683582D02*
X72874304Y-128759772D01*
X72874304Y-128759772D02*
X73788590Y-129674058D01*
X73788590Y-129674058D02*
X73788590Y-128683582D01*
X72721923Y-127312153D02*
X73788590Y-127312153D01*
X72112400Y-127693105D02*
X73255257Y-128074058D01*
X73255257Y-128074058D02*
X73255257Y-127083581D01*
D10*
X95522054Y-146859600D02*
X95664911Y-146907219D01*
X95664911Y-146907219D02*
X95903006Y-146907219D01*
X95903006Y-146907219D02*
X95998244Y-146859600D01*
X95998244Y-146859600D02*
X96045863Y-146811980D01*
X96045863Y-146811980D02*
X96093482Y-146716742D01*
X96093482Y-146716742D02*
X96093482Y-146621504D01*
X96093482Y-146621504D02*
X96045863Y-146526266D01*
X96045863Y-146526266D02*
X95998244Y-146478647D01*
X95998244Y-146478647D02*
X95903006Y-146431028D01*
X95903006Y-146431028D02*
X95712530Y-146383409D01*
X95712530Y-146383409D02*
X95617292Y-146335790D01*
X95617292Y-146335790D02*
X95569673Y-146288171D01*
X95569673Y-146288171D02*
X95522054Y-146192933D01*
X95522054Y-146192933D02*
X95522054Y-146097695D01*
X95522054Y-146097695D02*
X95569673Y-146002457D01*
X95569673Y-146002457D02*
X95617292Y-145954838D01*
X95617292Y-145954838D02*
X95712530Y-145907219D01*
X95712530Y-145907219D02*
X95950625Y-145907219D01*
X95950625Y-145907219D02*
X96093482Y-145954838D01*
X96474435Y-146621504D02*
X96950625Y-146621504D01*
X96379197Y-146907219D02*
X96712530Y-145907219D01*
X96712530Y-145907219D02*
X97045863Y-146907219D01*
X97712530Y-146383409D02*
X97379197Y-146383409D01*
X97379197Y-146907219D02*
X97379197Y-145907219D01*
X97379197Y-145907219D02*
X97855387Y-145907219D01*
X98236340Y-146383409D02*
X98569673Y-146383409D01*
X98712530Y-146907219D02*
X98236340Y-146907219D01*
X98236340Y-146907219D02*
X98236340Y-145907219D01*
X98236340Y-145907219D02*
X98712530Y-145907219D01*
D12*
X93204761Y-103954819D02*
X93204761Y-102954819D01*
X93204761Y-102954819D02*
X93776189Y-103954819D01*
X93776189Y-103954819D02*
X93776189Y-102954819D01*
X94633332Y-103907200D02*
X94538094Y-103954819D01*
X94538094Y-103954819D02*
X94347618Y-103954819D01*
X94347618Y-103954819D02*
X94252380Y-103907200D01*
X94252380Y-103907200D02*
X94204761Y-103811961D01*
X94204761Y-103811961D02*
X94204761Y-103431009D01*
X94204761Y-103431009D02*
X94252380Y-103335771D01*
X94252380Y-103335771D02*
X94347618Y-103288152D01*
X94347618Y-103288152D02*
X94538094Y-103288152D01*
X94538094Y-103288152D02*
X94633332Y-103335771D01*
X94633332Y-103335771D02*
X94680951Y-103431009D01*
X94680951Y-103431009D02*
X94680951Y-103526247D01*
X94680951Y-103526247D02*
X94204761Y-103621485D01*
X95014285Y-103954819D02*
X95538094Y-103288152D01*
X95014285Y-103288152D02*
X95538094Y-103954819D01*
X95776190Y-103288152D02*
X96157142Y-103288152D01*
X95919047Y-102954819D02*
X95919047Y-103811961D01*
X95919047Y-103811961D02*
X95966666Y-103907200D01*
X95966666Y-103907200D02*
X96061904Y-103954819D01*
X96061904Y-103954819D02*
X96157142Y-103954819D01*
X97204761Y-102907200D02*
X96347619Y-104192914D01*
X97490476Y-103907200D02*
X97633333Y-103954819D01*
X97633333Y-103954819D02*
X97871428Y-103954819D01*
X97871428Y-103954819D02*
X97966666Y-103907200D01*
X97966666Y-103907200D02*
X98014285Y-103859580D01*
X98014285Y-103859580D02*
X98061904Y-103764342D01*
X98061904Y-103764342D02*
X98061904Y-103669104D01*
X98061904Y-103669104D02*
X98014285Y-103573866D01*
X98014285Y-103573866D02*
X97966666Y-103526247D01*
X97966666Y-103526247D02*
X97871428Y-103478628D01*
X97871428Y-103478628D02*
X97680952Y-103431009D01*
X97680952Y-103431009D02*
X97585714Y-103383390D01*
X97585714Y-103383390D02*
X97538095Y-103335771D01*
X97538095Y-103335771D02*
X97490476Y-103240533D01*
X97490476Y-103240533D02*
X97490476Y-103145295D01*
X97490476Y-103145295D02*
X97538095Y-103050057D01*
X97538095Y-103050057D02*
X97585714Y-103002438D01*
X97585714Y-103002438D02*
X97680952Y-102954819D01*
X97680952Y-102954819D02*
X97919047Y-102954819D01*
X97919047Y-102954819D02*
X98061904Y-103002438D01*
X98347619Y-103288152D02*
X98728571Y-103288152D01*
X98490476Y-102954819D02*
X98490476Y-103811961D01*
X98490476Y-103811961D02*
X98538095Y-103907200D01*
X98538095Y-103907200D02*
X98633333Y-103954819D01*
X98633333Y-103954819D02*
X98728571Y-103954819D01*
X99204762Y-103954819D02*
X99109524Y-103907200D01*
X99109524Y-103907200D02*
X99061905Y-103859580D01*
X99061905Y-103859580D02*
X99014286Y-103764342D01*
X99014286Y-103764342D02*
X99014286Y-103478628D01*
X99014286Y-103478628D02*
X99061905Y-103383390D01*
X99061905Y-103383390D02*
X99109524Y-103335771D01*
X99109524Y-103335771D02*
X99204762Y-103288152D01*
X99204762Y-103288152D02*
X99347619Y-103288152D01*
X99347619Y-103288152D02*
X99442857Y-103335771D01*
X99442857Y-103335771D02*
X99490476Y-103383390D01*
X99490476Y-103383390D02*
X99538095Y-103478628D01*
X99538095Y-103478628D02*
X99538095Y-103764342D01*
X99538095Y-103764342D02*
X99490476Y-103859580D01*
X99490476Y-103859580D02*
X99442857Y-103907200D01*
X99442857Y-103907200D02*
X99347619Y-103954819D01*
X99347619Y-103954819D02*
X99204762Y-103954819D01*
X99966667Y-103288152D02*
X99966667Y-104288152D01*
X99966667Y-103335771D02*
X100061905Y-103288152D01*
X100061905Y-103288152D02*
X100252381Y-103288152D01*
X100252381Y-103288152D02*
X100347619Y-103335771D01*
X100347619Y-103335771D02*
X100395238Y-103383390D01*
X100395238Y-103383390D02*
X100442857Y-103478628D01*
X100442857Y-103478628D02*
X100442857Y-103764342D01*
X100442857Y-103764342D02*
X100395238Y-103859580D01*
X100395238Y-103859580D02*
X100347619Y-103907200D01*
X100347619Y-103907200D02*
X100252381Y-103954819D01*
X100252381Y-103954819D02*
X100061905Y-103954819D01*
X100061905Y-103954819D02*
X99966667Y-103907200D01*
X95880952Y-122407200D02*
X96023809Y-122454819D01*
X96023809Y-122454819D02*
X96261904Y-122454819D01*
X96261904Y-122454819D02*
X96357142Y-122407200D01*
X96357142Y-122407200D02*
X96404761Y-122359580D01*
X96404761Y-122359580D02*
X96452380Y-122264342D01*
X96452380Y-122264342D02*
X96452380Y-122169104D01*
X96452380Y-122169104D02*
X96404761Y-122073866D01*
X96404761Y-122073866D02*
X96357142Y-122026247D01*
X96357142Y-122026247D02*
X96261904Y-121978628D01*
X96261904Y-121978628D02*
X96071428Y-121931009D01*
X96071428Y-121931009D02*
X95976190Y-121883390D01*
X95976190Y-121883390D02*
X95928571Y-121835771D01*
X95928571Y-121835771D02*
X95880952Y-121740533D01*
X95880952Y-121740533D02*
X95880952Y-121645295D01*
X95880952Y-121645295D02*
X95928571Y-121550057D01*
X95928571Y-121550057D02*
X95976190Y-121502438D01*
X95976190Y-121502438D02*
X96071428Y-121454819D01*
X96071428Y-121454819D02*
X96309523Y-121454819D01*
X96309523Y-121454819D02*
X96452380Y-121502438D01*
X97261904Y-122407200D02*
X97166666Y-122454819D01*
X97166666Y-122454819D02*
X96976190Y-122454819D01*
X96976190Y-122454819D02*
X96880952Y-122407200D01*
X96880952Y-122407200D02*
X96833333Y-122311961D01*
X96833333Y-122311961D02*
X96833333Y-121931009D01*
X96833333Y-121931009D02*
X96880952Y-121835771D01*
X96880952Y-121835771D02*
X96976190Y-121788152D01*
X96976190Y-121788152D02*
X97166666Y-121788152D01*
X97166666Y-121788152D02*
X97261904Y-121835771D01*
X97261904Y-121835771D02*
X97309523Y-121931009D01*
X97309523Y-121931009D02*
X97309523Y-122026247D01*
X97309523Y-122026247D02*
X96833333Y-122121485D01*
X97880952Y-122454819D02*
X97785714Y-122407200D01*
X97785714Y-122407200D02*
X97738095Y-122311961D01*
X97738095Y-122311961D02*
X97738095Y-121454819D01*
X98642857Y-122407200D02*
X98547619Y-122454819D01*
X98547619Y-122454819D02*
X98357143Y-122454819D01*
X98357143Y-122454819D02*
X98261905Y-122407200D01*
X98261905Y-122407200D02*
X98214286Y-122311961D01*
X98214286Y-122311961D02*
X98214286Y-121931009D01*
X98214286Y-121931009D02*
X98261905Y-121835771D01*
X98261905Y-121835771D02*
X98357143Y-121788152D01*
X98357143Y-121788152D02*
X98547619Y-121788152D01*
X98547619Y-121788152D02*
X98642857Y-121835771D01*
X98642857Y-121835771D02*
X98690476Y-121931009D01*
X98690476Y-121931009D02*
X98690476Y-122026247D01*
X98690476Y-122026247D02*
X98214286Y-122121485D01*
X99547619Y-122407200D02*
X99452381Y-122454819D01*
X99452381Y-122454819D02*
X99261905Y-122454819D01*
X99261905Y-122454819D02*
X99166667Y-122407200D01*
X99166667Y-122407200D02*
X99119048Y-122359580D01*
X99119048Y-122359580D02*
X99071429Y-122264342D01*
X99071429Y-122264342D02*
X99071429Y-121978628D01*
X99071429Y-121978628D02*
X99119048Y-121883390D01*
X99119048Y-121883390D02*
X99166667Y-121835771D01*
X99166667Y-121835771D02*
X99261905Y-121788152D01*
X99261905Y-121788152D02*
X99452381Y-121788152D01*
X99452381Y-121788152D02*
X99547619Y-121835771D01*
X99833334Y-121788152D02*
X100214286Y-121788152D01*
X99976191Y-121454819D02*
X99976191Y-122311961D01*
X99976191Y-122311961D02*
X100023810Y-122407200D01*
X100023810Y-122407200D02*
X100119048Y-122454819D01*
X100119048Y-122454819D02*
X100214286Y-122454819D01*
X94904761Y-137743247D02*
X95019047Y-137781342D01*
X95019047Y-137781342D02*
X95057142Y-137819438D01*
X95057142Y-137819438D02*
X95095238Y-137895628D01*
X95095238Y-137895628D02*
X95095238Y-138009914D01*
X95095238Y-138009914D02*
X95057142Y-138086104D01*
X95057142Y-138086104D02*
X95019047Y-138124200D01*
X95019047Y-138124200D02*
X94942857Y-138162295D01*
X94942857Y-138162295D02*
X94638095Y-138162295D01*
X94638095Y-138162295D02*
X94638095Y-137362295D01*
X94638095Y-137362295D02*
X94904761Y-137362295D01*
X94904761Y-137362295D02*
X94980952Y-137400390D01*
X94980952Y-137400390D02*
X95019047Y-137438485D01*
X95019047Y-137438485D02*
X95057142Y-137514676D01*
X95057142Y-137514676D02*
X95057142Y-137590866D01*
X95057142Y-137590866D02*
X95019047Y-137667057D01*
X95019047Y-137667057D02*
X94980952Y-137705152D01*
X94980952Y-137705152D02*
X94904761Y-137743247D01*
X94904761Y-137743247D02*
X94638095Y-137743247D01*
X95895238Y-138162295D02*
X95628571Y-137781342D01*
X95438095Y-138162295D02*
X95438095Y-137362295D01*
X95438095Y-137362295D02*
X95742857Y-137362295D01*
X95742857Y-137362295D02*
X95819047Y-137400390D01*
X95819047Y-137400390D02*
X95857142Y-137438485D01*
X95857142Y-137438485D02*
X95895238Y-137514676D01*
X95895238Y-137514676D02*
X95895238Y-137628961D01*
X95895238Y-137628961D02*
X95857142Y-137705152D01*
X95857142Y-137705152D02*
X95819047Y-137743247D01*
X95819047Y-137743247D02*
X95742857Y-137781342D01*
X95742857Y-137781342D02*
X95438095Y-137781342D01*
X96238095Y-138162295D02*
X96238095Y-137362295D01*
X96619047Y-138162295D02*
X96619047Y-137362295D01*
X96619047Y-137362295D02*
X96809523Y-137362295D01*
X96809523Y-137362295D02*
X96923809Y-137400390D01*
X96923809Y-137400390D02*
X96999999Y-137476580D01*
X96999999Y-137476580D02*
X97038094Y-137552771D01*
X97038094Y-137552771D02*
X97076190Y-137705152D01*
X97076190Y-137705152D02*
X97076190Y-137819438D01*
X97076190Y-137819438D02*
X97038094Y-137971819D01*
X97038094Y-137971819D02*
X96999999Y-138048009D01*
X96999999Y-138048009D02*
X96923809Y-138124200D01*
X96923809Y-138124200D02*
X96809523Y-138162295D01*
X96809523Y-138162295D02*
X96619047Y-138162295D01*
X97838094Y-137400390D02*
X97761904Y-137362295D01*
X97761904Y-137362295D02*
X97647618Y-137362295D01*
X97647618Y-137362295D02*
X97533332Y-137400390D01*
X97533332Y-137400390D02*
X97457142Y-137476580D01*
X97457142Y-137476580D02*
X97419047Y-137552771D01*
X97419047Y-137552771D02*
X97380951Y-137705152D01*
X97380951Y-137705152D02*
X97380951Y-137819438D01*
X97380951Y-137819438D02*
X97419047Y-137971819D01*
X97419047Y-137971819D02*
X97457142Y-138048009D01*
X97457142Y-138048009D02*
X97533332Y-138124200D01*
X97533332Y-138124200D02*
X97647618Y-138162295D01*
X97647618Y-138162295D02*
X97723809Y-138162295D01*
X97723809Y-138162295D02*
X97838094Y-138124200D01*
X97838094Y-138124200D02*
X97876190Y-138086104D01*
X97876190Y-138086104D02*
X97876190Y-137819438D01*
X97876190Y-137819438D02*
X97723809Y-137819438D01*
X98219047Y-137743247D02*
X98485713Y-137743247D01*
X98599999Y-138162295D02*
X98219047Y-138162295D01*
X98219047Y-138162295D02*
X98219047Y-137362295D01*
X98219047Y-137362295D02*
X98599999Y-137362295D01*
D13*
%TO.C,Next/Stop*%
X90090000Y-104590000D02*
X102310000Y-104590000D01*
X90090000Y-107100000D02*
X90090000Y-104590000D01*
X90090000Y-112000000D02*
X90090000Y-109400000D01*
X90090000Y-116810000D02*
X90090000Y-114300000D01*
X102310000Y-107100000D02*
X102310000Y-104590000D01*
X102310000Y-112000000D02*
X102310000Y-109400000D01*
X102310000Y-116810000D02*
X90090000Y-116810000D01*
X102310000Y-116810000D02*
X102310000Y-114300000D01*
%TO.C,D3_RGB*%
X91755000Y-78355000D02*
X92220000Y-78355000D01*
X94380000Y-78355000D02*
X94845000Y-78355000D01*
X91755170Y-78355000D02*
G75*
G02*
X92219173Y-73007185I1544830J2560000D01*
G01*
X92220000Y-78049684D02*
G75*
G02*
X92219571Y-73540521I1080000J2254684D01*
G01*
X94380429Y-73540521D02*
G75*
G02*
X94380000Y-78049684I-1080429J-2254479D01*
G01*
X94380827Y-73007185D02*
G75*
G02*
X94844830Y-78355000I-1080827J-2787815D01*
G01*
%TO.C,D1_Red*%
X91855000Y-93265000D02*
X94945000Y-93265000D01*
X91855170Y-93265000D02*
G75*
G02*
X93400462Y-87715000I1544830J2560000D01*
G01*
X93399538Y-87715000D02*
G75*
G02*
X94944830Y-93265000I462J-2990000D01*
G01*
X95900000Y-90705000D02*
G75*
G02*
X90900000Y-90705000I-2500000J0D01*
G01*
X90900000Y-90705000D02*
G75*
G02*
X95900000Y-90705000I2500000J0D01*
G01*
%TO.C,D2_Green*%
X91755000Y-85865000D02*
X94845000Y-85865000D01*
X91755170Y-85865000D02*
G75*
G02*
X93300462Y-80315000I1544830J2560000D01*
G01*
X93299538Y-80315000D02*
G75*
G02*
X94844830Y-85865000I462J-2990000D01*
G01*
X95800000Y-83305000D02*
G75*
G02*
X90800000Y-83305000I-2500000J0D01*
G01*
X90800000Y-83305000D02*
G75*
G02*
X95800000Y-83305000I2500000J0D01*
G01*
%TO.C,Select*%
X90090000Y-123190000D02*
X90090000Y-125700000D01*
X90090000Y-123190000D02*
X102310000Y-123190000D01*
X90090000Y-128000000D02*
X90090000Y-130600000D01*
X90090000Y-132900000D02*
X90090000Y-135410000D01*
X102310000Y-123190000D02*
X102310000Y-125700000D01*
X102310000Y-128000000D02*
X102310000Y-130600000D01*
X102310000Y-132900000D02*
X102310000Y-135410000D01*
X102310000Y-135410000D02*
X90090000Y-135410000D01*
%TO.C,BRIDGE*%
X88760000Y-138820000D02*
X88760000Y-146660000D01*
X88760000Y-140200000D02*
X89760000Y-140200000D01*
X88760000Y-140450000D02*
X89760000Y-140450000D01*
X88760000Y-145030000D02*
X89760000Y-145030000D01*
X88760000Y-146660000D02*
X94780000Y-146660000D01*
X89760000Y-140200000D02*
X89760000Y-145280000D01*
X89760000Y-140200000D02*
X90290000Y-140450000D01*
X89760000Y-145280000D02*
X88760000Y-145280000D01*
X90290000Y-140450000D02*
X90290000Y-145030000D01*
X90290000Y-145030000D02*
X89760000Y-145280000D01*
X93750000Y-138530000D02*
X89750000Y-138530000D01*
X94180000Y-139400000D02*
X94180000Y-141000000D01*
X94180000Y-141000000D02*
X94780000Y-141000000D01*
X94180000Y-141940000D02*
X94180000Y-143540000D01*
X94180000Y-143540000D02*
X94780000Y-143540000D01*
X94180000Y-144480000D02*
X94180000Y-146080000D01*
X94180000Y-146080000D02*
X94780000Y-146080000D01*
X94780000Y-138820000D02*
X88760000Y-138820000D01*
X94780000Y-139400000D02*
X94180000Y-139400000D01*
X94780000Y-141940000D02*
X94180000Y-141940000D01*
X94780000Y-144480000D02*
X94180000Y-144480000D01*
X94780000Y-146660000D02*
X94780000Y-138820000D01*
D14*
%TO.C,G_logo*%
G36*
X99684459Y-75008277D02*
G01*
X99684459Y-75115541D01*
X99191047Y-75115541D01*
X98697635Y-75115541D01*
X98697635Y-75008277D01*
X98697635Y-74901014D01*
X99191047Y-74901014D01*
X99684459Y-74901014D01*
X99684459Y-75008277D01*
G37*
G36*
X99684459Y-79620608D02*
G01*
X99684459Y-79749325D01*
X99191047Y-79749325D01*
X98697635Y-79749325D01*
X98697635Y-79620608D01*
X98697635Y-79491892D01*
X99191047Y-79491892D01*
X99684459Y-79491892D01*
X99684459Y-79620608D01*
G37*
G36*
X99684459Y-86206588D02*
G01*
X99684459Y-86313852D01*
X99191047Y-86313852D01*
X98697635Y-86313852D01*
X98697635Y-86206588D01*
X98697635Y-86099325D01*
X99191047Y-86099325D01*
X99684459Y-86099325D01*
X99684459Y-86206588D01*
G37*
G36*
X99684459Y-90926183D02*
G01*
X99684459Y-91033446D01*
X99191047Y-91033446D01*
X98697635Y-91033446D01*
X98697635Y-90926183D01*
X98697635Y-90818919D01*
X99191047Y-90818919D01*
X99684459Y-90818919D01*
X99684459Y-90926183D01*
G37*
G36*
X98609292Y-77848124D02*
G01*
X98611824Y-77891680D01*
X98582023Y-77976430D01*
X98509413Y-78070953D01*
X98500813Y-78079261D01*
X98389802Y-78183277D01*
X98404276Y-78059428D01*
X98448718Y-77943056D01*
X98515287Y-77871847D01*
X98585012Y-77832013D01*
X98609292Y-77848124D01*
G37*
G36*
X102333868Y-97391323D02*
G01*
X102430887Y-97426874D01*
X102465568Y-97501436D01*
X102462181Y-97569443D01*
X102409843Y-97595147D01*
X102347578Y-97597973D01*
X102254373Y-97587196D01*
X102219597Y-97540266D01*
X102215878Y-97487860D01*
X102228244Y-97409406D01*
X102283125Y-97387768D01*
X102333868Y-97391323D01*
G37*
G36*
X101303705Y-86360415D02*
G01*
X101335559Y-86383060D01*
X101351540Y-86442201D01*
X101357119Y-86555344D01*
X101357770Y-86700000D01*
X101357770Y-87043244D01*
X100842905Y-87043244D01*
X100328040Y-87043244D01*
X100328040Y-86935980D01*
X100330871Y-86886289D01*
X100350078Y-86854949D01*
X100401736Y-86837732D01*
X100501917Y-86830407D01*
X100666696Y-86828744D01*
X100735642Y-86828717D01*
X101143243Y-86828717D01*
X101143243Y-86592737D01*
X101146027Y-86457586D01*
X101160744Y-86387215D01*
X101196937Y-86360623D01*
X101250506Y-86356757D01*
X101303705Y-86360415D01*
G37*
G36*
X99630835Y-79924716D02*
G01*
X99662735Y-79947820D01*
X99678541Y-80007950D01*
X99683900Y-80122797D01*
X99684459Y-80257039D01*
X99681037Y-80419375D01*
X99671970Y-80546810D01*
X99659054Y-80616432D01*
X99655856Y-80621735D01*
X99603680Y-80633383D01*
X99484612Y-80642745D01*
X99317562Y-80648726D01*
X99162443Y-80650338D01*
X98697635Y-80650338D01*
X98697635Y-80521622D01*
X98697635Y-80392906D01*
X99083783Y-80392906D01*
X99469932Y-80392906D01*
X99469932Y-80156926D01*
X99472717Y-80021775D01*
X99487433Y-79951404D01*
X99523626Y-79924812D01*
X99577196Y-79920946D01*
X99630835Y-79924716D01*
G37*
G36*
X102989144Y-87608614D02*
G01*
X103014887Y-87643270D01*
X103027240Y-87722764D01*
X103030946Y-87864880D01*
X103031081Y-87922804D01*
X103031081Y-88244595D01*
X102516216Y-88244595D01*
X102294236Y-88242981D01*
X102144897Y-88237046D01*
X102055072Y-88225149D01*
X102011634Y-88205649D01*
X102001351Y-88180237D01*
X102015529Y-88150225D01*
X102067473Y-88130957D01*
X102171297Y-88120316D01*
X102341115Y-88116183D01*
X102430405Y-88115879D01*
X102859459Y-88115879D01*
X102859459Y-87858446D01*
X102862590Y-87714665D01*
X102876344Y-87636973D01*
X102907263Y-87605747D01*
X102945270Y-87601014D01*
X102989144Y-87608614D01*
G37*
G36*
X98846564Y-83331014D02*
G01*
X98868493Y-83407102D01*
X98869256Y-83437579D01*
X98869256Y-83564686D01*
X99266131Y-83577022D01*
X99663006Y-83589358D01*
X99676583Y-83707348D01*
X99690159Y-83825338D01*
X99279708Y-83825338D01*
X98869256Y-83825338D01*
X98869256Y-83975507D01*
X98859658Y-84079007D01*
X98822184Y-84120767D01*
X98783446Y-84125676D01*
X98743563Y-84119521D01*
X98718391Y-84090445D01*
X98704581Y-84022529D01*
X98698779Y-83899856D01*
X98697635Y-83718075D01*
X98698931Y-83528630D01*
X98705052Y-83409067D01*
X98719350Y-83343466D01*
X98745176Y-83315910D01*
X98783446Y-83310473D01*
X98846564Y-83331014D01*
G37*
G36*
X98842588Y-78478961D02*
G01*
X98866451Y-78544539D01*
X98869256Y-78612331D01*
X98869256Y-78762500D01*
X99276858Y-78762500D01*
X99684459Y-78762500D01*
X99684459Y-78891217D01*
X99684459Y-79019933D01*
X99276858Y-79019933D01*
X98869256Y-79019933D01*
X98869256Y-79170102D01*
X98859658Y-79273601D01*
X98822184Y-79315362D01*
X98783446Y-79320271D01*
X98744390Y-79314382D01*
X98719388Y-79286362D01*
X98705334Y-79220678D01*
X98699120Y-79101800D01*
X98697642Y-78914195D01*
X98697635Y-78891217D01*
X98698813Y-78695938D01*
X98704417Y-78570928D01*
X98717553Y-78500656D01*
X98741329Y-78469590D01*
X98778850Y-78462198D01*
X98783446Y-78462162D01*
X98842588Y-78478961D01*
G37*
G36*
X100507265Y-88169727D02*
G01*
X100537394Y-88219447D01*
X100542567Y-88308953D01*
X100542567Y-88459122D01*
X100950169Y-88459122D01*
X101138996Y-88459867D01*
X101258086Y-88464921D01*
X101323512Y-88478515D01*
X101351348Y-88504879D01*
X101357667Y-88548242D01*
X101357770Y-88566385D01*
X101354939Y-88616077D01*
X101335732Y-88647416D01*
X101284075Y-88664634D01*
X101183893Y-88671959D01*
X101019115Y-88673622D01*
X100950169Y-88673649D01*
X100542567Y-88673649D01*
X100542567Y-88826802D01*
X100535654Y-88928263D01*
X100504606Y-88966690D01*
X100446030Y-88966245D01*
X100400529Y-88954376D01*
X100371317Y-88923227D01*
X100353940Y-88855990D01*
X100343939Y-88735858D01*
X100337157Y-88555659D01*
X100324820Y-88158784D01*
X100433694Y-88158784D01*
X100507265Y-88169727D01*
G37*
G36*
X98842588Y-85086393D02*
G01*
X98866451Y-85151971D01*
X98869256Y-85219764D01*
X98869256Y-85369933D01*
X99276858Y-85369933D01*
X99465685Y-85370678D01*
X99584775Y-85375732D01*
X99650201Y-85389326D01*
X99678037Y-85415690D01*
X99684356Y-85459053D01*
X99684459Y-85477196D01*
X99681629Y-85526888D01*
X99662421Y-85558227D01*
X99610764Y-85575444D01*
X99510582Y-85582770D01*
X99345804Y-85584433D01*
X99276858Y-85584460D01*
X98869256Y-85584460D01*
X98869256Y-85734629D01*
X98859658Y-85838128D01*
X98822184Y-85879889D01*
X98783446Y-85884798D01*
X98743563Y-85878643D01*
X98718391Y-85849566D01*
X98704581Y-85781650D01*
X98698779Y-85658978D01*
X98697635Y-85477196D01*
X98698931Y-85287752D01*
X98705052Y-85168188D01*
X98719350Y-85102587D01*
X98745176Y-85075032D01*
X98783446Y-85069595D01*
X98842588Y-85086393D01*
G37*
G36*
X99684459Y-75534724D02*
G01*
X99674127Y-75600438D01*
X99633585Y-75661413D01*
X99548518Y-75731964D01*
X99404611Y-75826407D01*
X99373395Y-75845788D01*
X99062331Y-76038007D01*
X99373395Y-76050613D01*
X99533808Y-76058799D01*
X99626776Y-76071764D01*
X99670635Y-76096462D01*
X99683722Y-76139851D01*
X99684459Y-76168603D01*
X99684459Y-76273987D01*
X99191047Y-76273987D01*
X98697635Y-76273987D01*
X98697635Y-76149977D01*
X98706949Y-76082609D01*
X98744441Y-76021607D01*
X98824436Y-75952211D01*
X98961258Y-75859664D01*
X99008699Y-75829488D01*
X99319763Y-75633010D01*
X99008699Y-75631708D01*
X98848371Y-75629568D01*
X98755474Y-75620548D01*
X98711631Y-75598235D01*
X98698462Y-75556212D01*
X98697635Y-75523142D01*
X98697635Y-75415879D01*
X99191047Y-75415879D01*
X99684459Y-75415879D01*
X99684459Y-75534724D01*
G37*
G36*
X99676583Y-91491180D02*
G01*
X99651527Y-91563336D01*
X99584873Y-91637874D01*
X99462542Y-91728366D01*
X99367131Y-91789415D01*
X99071256Y-91973159D01*
X99367131Y-91985988D01*
X99525109Y-91995764D01*
X99616454Y-92012109D01*
X99660348Y-92041267D01*
X99675543Y-92086394D01*
X99672672Y-92171650D01*
X99657665Y-92204384D01*
X99604714Y-92216774D01*
X99484966Y-92226732D01*
X99317424Y-92233089D01*
X99162443Y-92234798D01*
X98697635Y-92234798D01*
X98697635Y-92104528D01*
X98706253Y-92032772D01*
X98742157Y-91971013D01*
X98820419Y-91903019D01*
X98956111Y-91812558D01*
X98986477Y-91793464D01*
X99275319Y-91612669D01*
X98986477Y-91599983D01*
X98833153Y-91591239D01*
X98746612Y-91576792D01*
X98707850Y-91548878D01*
X98697863Y-91499734D01*
X98697635Y-91481993D01*
X98697635Y-91376690D01*
X99193897Y-91376690D01*
X99690159Y-91376690D01*
X99676583Y-91491180D01*
G37*
G36*
X102181152Y-83622031D02*
G01*
X102210848Y-83672520D01*
X102215878Y-83760980D01*
X102215878Y-83911149D01*
X102623479Y-83911149D01*
X102812307Y-83911894D01*
X102931396Y-83916948D01*
X102996822Y-83930543D01*
X103024658Y-83956906D01*
X103030978Y-84000269D01*
X103031081Y-84018412D01*
X103028250Y-84068104D01*
X103009043Y-84099443D01*
X102957385Y-84116661D01*
X102857204Y-84123986D01*
X102692425Y-84125649D01*
X102623479Y-84125676D01*
X102215878Y-84125676D01*
X102215878Y-84275845D01*
X102207864Y-84377398D01*
X102171801Y-84418972D01*
X102108615Y-84426014D01*
X102058923Y-84423183D01*
X102027584Y-84403976D01*
X102010366Y-84352318D01*
X102003041Y-84252137D01*
X102001378Y-84087358D01*
X102001351Y-84018412D01*
X102002096Y-83829585D01*
X102007150Y-83710496D01*
X102020745Y-83645069D01*
X102047108Y-83617234D01*
X102090471Y-83610914D01*
X102108615Y-83610811D01*
X102181152Y-83622031D01*
G37*
G36*
X101038657Y-92473632D02*
G01*
X101193721Y-92550745D01*
X101294785Y-92686946D01*
X101347183Y-92888519D01*
X101357770Y-93077856D01*
X101357770Y-93307433D01*
X100842905Y-93307433D01*
X100837140Y-93307433D01*
X100316510Y-93307433D01*
X100338609Y-92998565D01*
X100340069Y-92982822D01*
X100542567Y-92982822D01*
X100546661Y-93040322D01*
X100571414Y-93073230D01*
X100635539Y-93088401D01*
X100757744Y-93092695D01*
X100842905Y-93092906D01*
X101143243Y-93092906D01*
X101143243Y-92943726D01*
X101121957Y-92816507D01*
X101046594Y-92731446D01*
X101036169Y-92724388D01*
X100899226Y-92674974D01*
X100779258Y-92682340D01*
X100637333Y-92741485D01*
X100560034Y-92855820D01*
X100542567Y-92982822D01*
X100340069Y-92982822D01*
X100354102Y-92831525D01*
X100377754Y-92723275D01*
X100419422Y-92646810D01*
X100488963Y-92575128D01*
X100495220Y-92569511D01*
X100615386Y-92485226D01*
X100748664Y-92452139D01*
X100824260Y-92449325D01*
X101038657Y-92473632D01*
G37*
G36*
X100430874Y-83245346D02*
G01*
X100539348Y-83300124D01*
X100678298Y-83378089D01*
X100709183Y-83396284D01*
X100899649Y-83498845D01*
X101050625Y-83553054D01*
X101177918Y-83567906D01*
X101291828Y-83573152D01*
X101343805Y-83598309D01*
X101357531Y-83657499D01*
X101357770Y-83675169D01*
X101349942Y-83740957D01*
X101311240Y-83772390D01*
X101218835Y-83781944D01*
X101161470Y-83782433D01*
X101027785Y-83795177D01*
X100890813Y-83840079D01*
X100722276Y-83927142D01*
X100676289Y-83954054D01*
X100536256Y-84035140D01*
X100425149Y-84095566D01*
X100362931Y-84124577D01*
X100357724Y-84125676D01*
X100335465Y-84088862D01*
X100328040Y-84017468D01*
X100350123Y-83934150D01*
X100426604Y-83852726D01*
X100522139Y-83786165D01*
X100716238Y-83663071D01*
X100522139Y-83549322D01*
X100397451Y-83464242D01*
X100338561Y-83387994D01*
X100328040Y-83330117D01*
X100344068Y-83250373D01*
X100374171Y-83224662D01*
X100430874Y-83245346D01*
G37*
G36*
X103031081Y-80714696D02*
G01*
X103024125Y-80778356D01*
X102988629Y-80810114D01*
X102902648Y-80820944D01*
X102816554Y-80821960D01*
X102602027Y-80821960D01*
X102602027Y-81015034D01*
X102602027Y-81208108D01*
X102816554Y-81208108D01*
X102943836Y-81211537D01*
X103007332Y-81229237D01*
X103029008Y-81272329D01*
X103031081Y-81316719D01*
X103011197Y-81406879D01*
X102974548Y-81447022D01*
X102909954Y-81454940D01*
X102780496Y-81459092D01*
X102607053Y-81459090D01*
X102470410Y-81456402D01*
X102022804Y-81444088D01*
X102009228Y-81326098D01*
X102006539Y-81253986D01*
X102034746Y-81219526D01*
X102115269Y-81208857D01*
X102191575Y-81208108D01*
X102387500Y-81208108D01*
X102387500Y-81015034D01*
X102387500Y-80821960D01*
X102194425Y-80821960D01*
X102075283Y-80817514D01*
X102018835Y-80795661D01*
X102002088Y-80743628D01*
X102001351Y-80714696D01*
X102001351Y-80607433D01*
X102516216Y-80607433D01*
X103031081Y-80607433D01*
X103031081Y-80714696D01*
G37*
G36*
X99180321Y-89828023D02*
G01*
X99385224Y-89897502D01*
X99522575Y-89948802D01*
X99606442Y-89990232D01*
X99650893Y-90030103D01*
X99669995Y-90076726D01*
X99676127Y-90120902D01*
X99679414Y-90178311D01*
X99666786Y-90221241D01*
X99624709Y-90258282D01*
X99539652Y-90298027D01*
X99398081Y-90349068D01*
X99225540Y-90406973D01*
X99038327Y-90468466D01*
X98881372Y-90518353D01*
X98772305Y-90551140D01*
X98729733Y-90561487D01*
X98706744Y-90524309D01*
X98697635Y-90439139D01*
X98703896Y-90372255D01*
X98734997Y-90327118D01*
X98809418Y-90290634D01*
X98945637Y-90249709D01*
X98977015Y-90241166D01*
X99120832Y-90198754D01*
X99228061Y-90160604D01*
X99275112Y-90135258D01*
X99246902Y-90108651D01*
X99155184Y-90066230D01*
X99018745Y-90016486D01*
X98995731Y-90008966D01*
X98841486Y-89956700D01*
X98752152Y-89915338D01*
X98710193Y-89871988D01*
X98698075Y-89813759D01*
X98697635Y-89789829D01*
X98697635Y-89666701D01*
X99180321Y-89828023D01*
G37*
G36*
X102765012Y-85587919D02*
G01*
X102929845Y-85601977D01*
X103012415Y-85632159D01*
X103014419Y-85683985D01*
X102937556Y-85762981D01*
X102783524Y-85874667D01*
X102635445Y-85972186D01*
X102239809Y-86228041D01*
X102635445Y-86228041D01*
X102826464Y-86230455D01*
X102946308Y-86239272D01*
X103009516Y-86256859D01*
X103030628Y-86285581D01*
X103031081Y-86292399D01*
X103018172Y-86320147D01*
X102970693Y-86338814D01*
X102875517Y-86350042D01*
X102719517Y-86355472D01*
X102516216Y-86356757D01*
X102268343Y-86353479D01*
X102104022Y-86339932D01*
X102021125Y-86310545D01*
X102017523Y-86259747D01*
X102091085Y-86181969D01*
X102239683Y-86071640D01*
X102372819Y-85981615D01*
X102744287Y-85734629D01*
X102372819Y-85722232D01*
X102186067Y-85712875D01*
X102071215Y-85698110D01*
X102014390Y-85675131D01*
X102001351Y-85647147D01*
X102015402Y-85620005D01*
X102066135Y-85601738D01*
X102166424Y-85590777D01*
X102329143Y-85585557D01*
X102516216Y-85584460D01*
X102765012Y-85587919D01*
G37*
G36*
X99199187Y-81961549D02*
G01*
X99211999Y-81971372D01*
X99291002Y-82083049D01*
X99329595Y-82250258D01*
X99352376Y-82452365D01*
X99518417Y-82452365D01*
X99626634Y-82458630D01*
X99673819Y-82488099D01*
X99684448Y-82556782D01*
X99684459Y-82560975D01*
X99664575Y-82651136D01*
X99627927Y-82691279D01*
X99563333Y-82699196D01*
X99433874Y-82703349D01*
X99260432Y-82703346D01*
X99123788Y-82700659D01*
X98997973Y-82697198D01*
X98676182Y-82688345D01*
X98661814Y-82562152D01*
X98659686Y-82382534D01*
X98667859Y-82328903D01*
X98869256Y-82328903D01*
X98880520Y-82416484D01*
X98932408Y-82448735D01*
X98997973Y-82452365D01*
X99085386Y-82443578D01*
X99120522Y-82399661D01*
X99126689Y-82306787D01*
X99105274Y-82183419D01*
X99056893Y-82134425D01*
X98963778Y-82135804D01*
X98895848Y-82205773D01*
X98869259Y-82327584D01*
X98869256Y-82328903D01*
X98667859Y-82328903D01*
X98687231Y-82201790D01*
X98737761Y-82051290D01*
X98786538Y-81977313D01*
X98910379Y-81908597D01*
X99059111Y-81903186D01*
X99199187Y-81961549D01*
G37*
G36*
X101057570Y-84297775D02*
G01*
X101203668Y-84301091D01*
X101292477Y-84310068D01*
X101338257Y-84327532D01*
X101355267Y-84356307D01*
X101357770Y-84399217D01*
X101357770Y-84399855D01*
X101341361Y-84463036D01*
X101283583Y-84531358D01*
X101171610Y-84617151D01*
X101046706Y-84698891D01*
X100735642Y-84895369D01*
X101046706Y-84896671D01*
X101207034Y-84898811D01*
X101299930Y-84907831D01*
X101343774Y-84930144D01*
X101356943Y-84972167D01*
X101357770Y-85005237D01*
X101357770Y-85112500D01*
X100842905Y-85112500D01*
X100328040Y-85112500D01*
X100328040Y-85009075D01*
X100343972Y-84945446D01*
X100400666Y-84878473D01*
X100511467Y-84795376D01*
X100630492Y-84719463D01*
X100932944Y-84533277D01*
X100641218Y-84511825D01*
X100485279Y-84497541D01*
X100395500Y-84478403D01*
X100352272Y-84446834D01*
X100335988Y-84395261D01*
X100335782Y-84393835D01*
X100332849Y-84353263D01*
X100346969Y-84326027D01*
X100392017Y-84309469D01*
X100481867Y-84300933D01*
X100630395Y-84297761D01*
X100839921Y-84297298D01*
X101057570Y-84297775D01*
G37*
G36*
X102337039Y-89471005D02*
G01*
X102344594Y-89505370D01*
X102311740Y-89569598D01*
X102237331Y-89635075D01*
X102148871Y-89737648D01*
X102125774Y-89868576D01*
X102167695Y-90001023D01*
X102243117Y-90086413D01*
X102386833Y-90157996D01*
X102544580Y-90173278D01*
X102695240Y-90139034D01*
X102817693Y-90062039D01*
X102890820Y-89949065D01*
X102902365Y-89874951D01*
X102863789Y-89728457D01*
X102754611Y-89624640D01*
X102687584Y-89596035D01*
X102618144Y-89548329D01*
X102602027Y-89507413D01*
X102631779Y-89454446D01*
X102707194Y-89451428D01*
X102807503Y-89493984D01*
X102905665Y-89571362D01*
X103005880Y-89726530D01*
X103033680Y-89903605D01*
X102987444Y-90077595D01*
X102942969Y-90147065D01*
X102803140Y-90260911D01*
X102623458Y-90319323D01*
X102429574Y-90322300D01*
X102247137Y-90269844D01*
X102101798Y-90161953D01*
X102089464Y-90147067D01*
X102014321Y-89989636D01*
X102001552Y-89810056D01*
X102050215Y-89640675D01*
X102106566Y-89559475D01*
X102202942Y-89478640D01*
X102286054Y-89447721D01*
X102337039Y-89471005D01*
G37*
G36*
X102338004Y-81627506D02*
G01*
X102342307Y-81707738D01*
X102315342Y-81805684D01*
X102261154Y-81892075D01*
X102256589Y-81896790D01*
X102192787Y-82002330D01*
X102199315Y-82103925D01*
X102260934Y-82191172D01*
X102362408Y-82253669D01*
X102488498Y-82281014D01*
X102623966Y-82262806D01*
X102721196Y-82213953D01*
X102800558Y-82117104D01*
X102818711Y-82001104D01*
X102776621Y-81896022D01*
X102709290Y-81843883D01*
X102619709Y-81766333D01*
X102602027Y-81689982D01*
X102612574Y-81617207D01*
X102661709Y-81601741D01*
X102720017Y-81612674D01*
X102870465Y-81687810D01*
X102975880Y-81818675D01*
X103027796Y-81983368D01*
X103017748Y-82159991D01*
X102974221Y-82270387D01*
X102853332Y-82407253D01*
X102687281Y-82490613D01*
X102499383Y-82518677D01*
X102312950Y-82489657D01*
X102151296Y-82401764D01*
X102089462Y-82338281D01*
X102010596Y-82173972D01*
X102000090Y-81989497D01*
X102056178Y-81814145D01*
X102126767Y-81719673D01*
X102215950Y-81640830D01*
X102285307Y-81597274D01*
X102298388Y-81594257D01*
X102338004Y-81627506D01*
G37*
G36*
X100700805Y-90035131D02*
G01*
X100712607Y-90108608D01*
X100684221Y-90192995D01*
X100628378Y-90251192D01*
X100550856Y-90338994D01*
X100539188Y-90446798D01*
X100583460Y-90554319D01*
X100673761Y-90641272D01*
X100800178Y-90687371D01*
X100842905Y-90690203D01*
X100978320Y-90661105D01*
X101079754Y-90586918D01*
X101138518Y-90487304D01*
X101145922Y-90381922D01*
X101093277Y-90290433D01*
X101035979Y-90253342D01*
X100946316Y-90175685D01*
X100928716Y-90104093D01*
X100955873Y-90024048D01*
X101027742Y-90005016D01*
X101129919Y-90045808D01*
X101232354Y-90129132D01*
X101330516Y-90283853D01*
X101358965Y-90466828D01*
X101314668Y-90652298D01*
X101297895Y-90685480D01*
X101183626Y-90813497D01*
X101011228Y-90884966D01*
X100827888Y-90903210D01*
X100686753Y-90894990D01*
X100586384Y-90855780D01*
X100482730Y-90767615D01*
X100473919Y-90758852D01*
X100356509Y-90592994D01*
X100319836Y-90418911D01*
X100364298Y-90248903D01*
X100453456Y-90129132D01*
X100548323Y-90049676D01*
X100629986Y-90006386D01*
X100646530Y-90003717D01*
X100700805Y-90035131D01*
G37*
G36*
X102107072Y-88528111D02*
G01*
X102124221Y-88606640D01*
X102130028Y-88758927D01*
X102130067Y-88777337D01*
X102130067Y-89059798D01*
X102280236Y-89059798D01*
X102430405Y-89059798D01*
X102430405Y-88802365D01*
X102435348Y-88652886D01*
X102452869Y-88572631D01*
X102487009Y-88545440D01*
X102494763Y-88544933D01*
X102532133Y-88564703D01*
X102552197Y-88634788D01*
X102558994Y-88771347D01*
X102559121Y-88802365D01*
X102559121Y-89059798D01*
X102707243Y-89059798D01*
X102855364Y-89059798D01*
X102868138Y-88791639D01*
X102880825Y-88636497D01*
X102903106Y-88552170D01*
X102939246Y-88523826D01*
X102945270Y-88523480D01*
X102980881Y-88562113D01*
X103007524Y-88661646D01*
X103024092Y-88797526D01*
X103029477Y-88945202D01*
X103022568Y-89080124D01*
X103002259Y-89177740D01*
X102976365Y-89212203D01*
X102910967Y-89220415D01*
X102780810Y-89224797D01*
X102606879Y-89224933D01*
X102470410Y-89222280D01*
X102022804Y-89209967D01*
X102022804Y-88870299D01*
X102028776Y-88673032D01*
X102047229Y-88555412D01*
X102076436Y-88512754D01*
X102107072Y-88528111D01*
G37*
G36*
X99351920Y-80846396D02*
G01*
X99511763Y-80921135D01*
X99624352Y-81040710D01*
X99637898Y-81067049D01*
X99681084Y-81238612D01*
X99673112Y-81421918D01*
X99616890Y-81579044D01*
X99596348Y-81608889D01*
X99469205Y-81710807D01*
X99295200Y-81774931D01*
X99257889Y-81778016D01*
X99108971Y-81790328D01*
X99047298Y-81782180D01*
X98871078Y-81708983D01*
X98744854Y-81582138D01*
X98673552Y-81421019D01*
X98665464Y-81296740D01*
X98869256Y-81296740D01*
X98904991Y-81417115D01*
X98996935Y-81501128D01*
X99122198Y-81545682D01*
X99257889Y-81547683D01*
X99381119Y-81504037D01*
X99468996Y-81411647D01*
X99483062Y-81379730D01*
X99504717Y-81296553D01*
X99487131Y-81232719D01*
X99418618Y-81153006D01*
X99402422Y-81136698D01*
X99305682Y-81060911D01*
X99203779Y-81043456D01*
X99141161Y-81050761D01*
X98982924Y-81095839D01*
X98896089Y-81173769D01*
X98869260Y-81294860D01*
X98869256Y-81296740D01*
X98665464Y-81296740D01*
X98662097Y-81245000D01*
X98715415Y-81073454D01*
X98831102Y-80931810D01*
X98987366Y-80847673D01*
X99169047Y-80820555D01*
X99351920Y-80846396D01*
G37*
G36*
X102677583Y-86624542D02*
G01*
X102779633Y-86668002D01*
X102885202Y-86760068D01*
X103003521Y-86927512D01*
X103037766Y-87103817D01*
X102987669Y-87280742D01*
X102905884Y-87396536D01*
X102828431Y-87474843D01*
X102754413Y-87516873D01*
X102652877Y-87533758D01*
X102516216Y-87536656D01*
X102434657Y-87534519D01*
X102364871Y-87532690D01*
X102268278Y-87513371D01*
X102195484Y-87467569D01*
X102126548Y-87396536D01*
X102026890Y-87243905D01*
X102008615Y-87147329D01*
X102131381Y-87147329D01*
X102178902Y-87270940D01*
X102267402Y-87348194D01*
X102434657Y-87402404D01*
X102595818Y-87395281D01*
X102736091Y-87337705D01*
X102840682Y-87240558D01*
X102894799Y-87114720D01*
X102883647Y-86971074D01*
X102858759Y-86913219D01*
X102767448Y-86824848D01*
X102625654Y-86774309D01*
X102462702Y-86767909D01*
X102333332Y-86800241D01*
X102211487Y-86887948D01*
X102143206Y-87011655D01*
X102131381Y-87147329D01*
X102008615Y-87147329D01*
X102001351Y-87108944D01*
X102035170Y-86900868D01*
X102134516Y-86747140D01*
X102296222Y-86650678D01*
X102517122Y-86614404D01*
X102537853Y-86614190D01*
X102677583Y-86624542D01*
G37*
G36*
X99437399Y-73771134D02*
G01*
X99531883Y-73842264D01*
X99559043Y-73867984D01*
X99644282Y-73973893D01*
X99679701Y-74089614D01*
X99684459Y-74186474D01*
X99671121Y-74330800D01*
X99619051Y-74437434D01*
X99557582Y-74506425D01*
X99395718Y-74617236D01*
X99216023Y-74659822D01*
X99035965Y-74640788D01*
X98873011Y-74566739D01*
X98744630Y-74444280D01*
X98668289Y-74280017D01*
X98654729Y-74165030D01*
X98674635Y-74019988D01*
X98747772Y-73902192D01*
X98780145Y-73867984D01*
X98875012Y-73788527D01*
X98956675Y-73745237D01*
X98973220Y-73742568D01*
X99027306Y-73774531D01*
X99041156Y-73849160D01*
X99017016Y-73934569D01*
X98957136Y-73998868D01*
X98955067Y-74000000D01*
X98884841Y-74079581D01*
X98869520Y-74191631D01*
X98908242Y-74303402D01*
X98964614Y-74362263D01*
X99101075Y-74423607D01*
X99236239Y-74429564D01*
X99355665Y-74391020D01*
X99444917Y-74318860D01*
X99489555Y-74223970D01*
X99475142Y-74117236D01*
X99408311Y-74027747D01*
X99333247Y-73932203D01*
X99300491Y-73837338D01*
X99313509Y-73766496D01*
X99365969Y-73742568D01*
X99437399Y-73771134D01*
G37*
G36*
X99401710Y-76471775D02*
G01*
X99506371Y-76534220D01*
X99599732Y-76608856D01*
X99640282Y-76657759D01*
X99681477Y-76807439D01*
X99675985Y-76982542D01*
X99627321Y-77140511D01*
X99596347Y-77189634D01*
X99496194Y-77276010D01*
X99363193Y-77344284D01*
X99338914Y-77352381D01*
X99133643Y-77377962D01*
X98951211Y-77335725D01*
X98803249Y-77238476D01*
X98701389Y-77099022D01*
X98657263Y-76930171D01*
X98682502Y-76744730D01*
X98715870Y-76666358D01*
X98783230Y-76578452D01*
X98873934Y-76506823D01*
X98961132Y-76468450D01*
X99015145Y-76477082D01*
X99041189Y-76556625D01*
X99009240Y-76657525D01*
X98955067Y-76724494D01*
X98876136Y-76838496D01*
X98872143Y-76953031D01*
X98934023Y-77051114D01*
X99052709Y-77115764D01*
X99172659Y-77132095D01*
X99312577Y-77107449D01*
X99431233Y-77044515D01*
X99502793Y-76959800D01*
X99512838Y-76914747D01*
X99487141Y-76820545D01*
X99427503Y-76737802D01*
X99361159Y-76703041D01*
X99311639Y-76664471D01*
X99298311Y-76574325D01*
X99305154Y-76483882D01*
X99321637Y-76445616D01*
X99321894Y-76445608D01*
X99401710Y-76471775D01*
G37*
G36*
X99092520Y-92459938D02*
G01*
X99282512Y-92472799D01*
X99407616Y-92489093D01*
X99488724Y-92514622D01*
X99546725Y-92555190D01*
X99585932Y-92596998D01*
X99665217Y-92748955D01*
X99685790Y-92929928D01*
X99647101Y-93105842D01*
X99595534Y-93194383D01*
X99549048Y-93247221D01*
X99497301Y-93280377D01*
X99420353Y-93298418D01*
X99298266Y-93305914D01*
X99111101Y-93307432D01*
X99102122Y-93307433D01*
X98914161Y-93306673D01*
X98795875Y-93301542D01*
X98731130Y-93287760D01*
X98703790Y-93261049D01*
X98697720Y-93217130D01*
X98697635Y-93200169D01*
X98701004Y-93148142D01*
X98722460Y-93116430D01*
X98779029Y-93100005D01*
X98887733Y-93093840D01*
X99060821Y-93092906D01*
X99240578Y-93090803D01*
X99353934Y-93081634D01*
X99420254Y-93061112D01*
X99458904Y-93024949D01*
X99472837Y-93001668D01*
X99499241Y-92890160D01*
X99475266Y-92808593D01*
X99446810Y-92759038D01*
X99404037Y-92728837D01*
X99327705Y-92713236D01*
X99198572Y-92707478D01*
X99063251Y-92706757D01*
X98697635Y-92706757D01*
X98697635Y-92572090D01*
X98697635Y-92437422D01*
X99092520Y-92459938D01*
G37*
G36*
X101348483Y-87251648D02*
G01*
X101357770Y-87323191D01*
X101326106Y-87423526D01*
X101250506Y-87472298D01*
X101179495Y-87513983D01*
X101148840Y-87585977D01*
X101143243Y-87686825D01*
X101152310Y-87805296D01*
X101189561Y-87869114D01*
X101250506Y-87901352D01*
X101337937Y-87966570D01*
X101357770Y-88050459D01*
X101345191Y-88131627D01*
X101320724Y-88158784D01*
X101267704Y-88144489D01*
X101152476Y-88105749D01*
X100992982Y-88048783D01*
X100895399Y-88012672D01*
X100838836Y-87991740D01*
X100587556Y-87890659D01*
X100419774Y-87803730D01*
X100335489Y-87725314D01*
X100335240Y-87701405D01*
X100673952Y-87701405D01*
X100745245Y-87734176D01*
X100810814Y-87752347D01*
X100895399Y-87764228D01*
X100925822Y-87730093D01*
X100928716Y-87686825D01*
X100917129Y-87621497D01*
X100865350Y-87609950D01*
X100810814Y-87621303D01*
X100719095Y-87648599D01*
X100674947Y-87668859D01*
X100673952Y-87701405D01*
X100335240Y-87701405D01*
X100334701Y-87649770D01*
X100417411Y-87571460D01*
X100583618Y-87484743D01*
X100833323Y-87383982D01*
X100838836Y-87381910D01*
X101021555Y-87314487D01*
X101174989Y-87260096D01*
X101281200Y-87224956D01*
X101320724Y-87214865D01*
X101348483Y-87251648D01*
G37*
G36*
X103030578Y-91585187D02*
G01*
X102981497Y-91648297D01*
X102880912Y-91707121D01*
X102789226Y-91758036D01*
X102745226Y-91816229D01*
X102731590Y-91913406D01*
X102730743Y-91981984D01*
X102735143Y-92106726D01*
X102759706Y-92174409D01*
X102821477Y-92213731D01*
X102880912Y-92234798D01*
X102972718Y-92281889D01*
X103026374Y-92339309D01*
X103030704Y-92387367D01*
X102978346Y-92406419D01*
X102919344Y-92391417D01*
X102798841Y-92350666D01*
X102634906Y-92290551D01*
X102565934Y-92263975D01*
X102462370Y-92224071D01*
X102234684Y-92130576D01*
X102085806Y-92055136D01*
X102016207Y-91990095D01*
X102019702Y-91968648D01*
X102197770Y-91968648D01*
X102362233Y-92037364D01*
X102493940Y-92088214D01*
X102565934Y-92097820D01*
X102596026Y-92061724D01*
X102602027Y-91977365D01*
X102584182Y-91878203D01*
X102542595Y-91848649D01*
X102464823Y-91864480D01*
X102353801Y-91903146D01*
X102340466Y-91908648D01*
X102197770Y-91968648D01*
X102019702Y-91968648D01*
X102026359Y-91927800D01*
X102116733Y-91860595D01*
X102287801Y-91780826D01*
X102494763Y-91698293D01*
X102681869Y-91628420D01*
X102839600Y-91574217D01*
X102951040Y-91541179D01*
X102998902Y-91534552D01*
X103030578Y-91585187D01*
G37*
G36*
X99675172Y-84162459D02*
G01*
X99684459Y-84234001D01*
X99652795Y-84334337D01*
X99577196Y-84383108D01*
X99506184Y-84424794D01*
X99475529Y-84496788D01*
X99469932Y-84597635D01*
X99478999Y-84716107D01*
X99516250Y-84779925D01*
X99577196Y-84812162D01*
X99664627Y-84877381D01*
X99684459Y-84961269D01*
X99670590Y-85042419D01*
X99643592Y-85069595D01*
X99589274Y-85054913D01*
X99472904Y-85015068D01*
X99312261Y-84956363D01*
X99180633Y-84906351D01*
X99147768Y-84893864D01*
X98951743Y-84817272D01*
X98822568Y-84762052D01*
X98746915Y-84719004D01*
X98711454Y-84678930D01*
X98702856Y-84632630D01*
X98703862Y-84618419D01*
X99013633Y-84618419D01*
X99062331Y-84642251D01*
X99180633Y-84677101D01*
X99241409Y-84656801D01*
X99255405Y-84597635D01*
X99247556Y-84527799D01*
X99236746Y-84511825D01*
X99187744Y-84525933D01*
X99097303Y-84559455D01*
X99018533Y-84594666D01*
X99013633Y-84618419D01*
X98703862Y-84618419D01*
X98705949Y-84588952D01*
X98716618Y-84530605D01*
X98744494Y-84484478D01*
X98803998Y-84441261D01*
X98909549Y-84391642D01*
X99075567Y-84326312D01*
X99164728Y-84292723D01*
X99347632Y-84225349D01*
X99501251Y-84170981D01*
X99607658Y-84135824D01*
X99647413Y-84125676D01*
X99675172Y-84162459D01*
G37*
G36*
X100931314Y-85414585D02*
G01*
X101059889Y-85422640D01*
X101143953Y-85441224D01*
X101204143Y-85474559D01*
X101252457Y-85518151D01*
X101328102Y-85647449D01*
X101357758Y-85818193D01*
X101338383Y-85997539D01*
X101305279Y-86088878D01*
X101213141Y-86182423D01*
X101045693Y-86241561D01*
X100806666Y-86265300D01*
X100649831Y-86263082D01*
X100492856Y-86254192D01*
X100402996Y-86240319D01*
X100361589Y-86213954D01*
X100349976Y-86167590D01*
X100349493Y-86142230D01*
X100353295Y-86091031D01*
X100375740Y-86058201D01*
X100433387Y-86038160D01*
X100542796Y-86025330D01*
X100720526Y-86014130D01*
X100731488Y-86013514D01*
X100917297Y-86000812D01*
X101034856Y-85985022D01*
X101101710Y-85961581D01*
X101135407Y-85925925D01*
X101143878Y-85906250D01*
X101154698Y-85778325D01*
X101101283Y-85675796D01*
X101082014Y-85660201D01*
X101019957Y-85645496D01*
X100895713Y-85634275D01*
X100732893Y-85628437D01*
X100682010Y-85628022D01*
X100508566Y-85626633D01*
X100403691Y-85619755D01*
X100350140Y-85602129D01*
X100330672Y-85568500D01*
X100328040Y-85520102D01*
X100330850Y-85470505D01*
X100349969Y-85439184D01*
X100401433Y-85421937D01*
X100501276Y-85414565D01*
X100665535Y-85412868D01*
X100737592Y-85412838D01*
X100931314Y-85414585D01*
G37*
G36*
X99618733Y-88702381D02*
G01*
X99645269Y-88735207D01*
X99661115Y-88810066D01*
X99670585Y-88943443D01*
X99675403Y-89070524D01*
X99687800Y-89445946D01*
X99192717Y-89445946D01*
X98697635Y-89445946D01*
X98697635Y-89081250D01*
X98699232Y-88903924D01*
X98706654Y-88795610D01*
X98723851Y-88739528D01*
X98754769Y-88718899D01*
X98783446Y-88716554D01*
X98831373Y-88725948D01*
X98857270Y-88767210D01*
X98867679Y-88859965D01*
X98869256Y-88973987D01*
X98871528Y-89116659D01*
X98883938Y-89193688D01*
X98914884Y-89225223D01*
X98972760Y-89231414D01*
X98976520Y-89231419D01*
X99037952Y-89225294D01*
X99069939Y-89192918D01*
X99082026Y-89113292D01*
X99083783Y-88995440D01*
X99087508Y-88859067D01*
X99103612Y-88788025D01*
X99139489Y-88761977D01*
X99169594Y-88759460D01*
X99219184Y-88769702D01*
X99245018Y-88813988D01*
X99254490Y-88912651D01*
X99255405Y-88995440D01*
X99258261Y-89130644D01*
X99273061Y-89201049D01*
X99309156Y-89227624D01*
X99360621Y-89231419D01*
X99418395Y-89225316D01*
X99451439Y-89193882D01*
X99468415Y-89117431D01*
X99477985Y-88976275D01*
X99478611Y-88963260D01*
X99488904Y-88815357D01*
X99506591Y-88734159D01*
X99538696Y-88700559D01*
X99577196Y-88695102D01*
X99618733Y-88702381D01*
G37*
G36*
X99670905Y-72749898D02*
G01*
X99684459Y-72821164D01*
X99652795Y-72921499D01*
X99577196Y-72970271D01*
X99506184Y-73011956D01*
X99475529Y-73083950D01*
X99469932Y-73184798D01*
X99478999Y-73303269D01*
X99516250Y-73367087D01*
X99577196Y-73399325D01*
X99664627Y-73464543D01*
X99684459Y-73548432D01*
X99673596Y-73629622D01*
X99652489Y-73656757D01*
X99601959Y-73642170D01*
X99488689Y-73602531D01*
X99329863Y-73544029D01*
X99243690Y-73511298D01*
X99156867Y-73478321D01*
X98958598Y-73401168D01*
X98827319Y-73345481D01*
X98749803Y-73302247D01*
X98712823Y-73262452D01*
X98703154Y-73217083D01*
X98706151Y-73171155D01*
X98706832Y-73167480D01*
X99009964Y-73167480D01*
X99025399Y-73191869D01*
X99097303Y-73222978D01*
X99198815Y-73260471D01*
X99243690Y-73260749D01*
X99255058Y-73218224D01*
X99255405Y-73184798D01*
X99233169Y-73116587D01*
X99201773Y-73102002D01*
X99119525Y-73120006D01*
X99062331Y-73140183D01*
X99009964Y-73167480D01*
X98706832Y-73167480D01*
X98717114Y-73111982D01*
X98745998Y-73065258D01*
X98807480Y-73021305D01*
X98916242Y-72970442D01*
X99086961Y-72902989D01*
X99148142Y-72879706D01*
X99329593Y-72812521D01*
X99483867Y-72758418D01*
X99591784Y-72723947D01*
X99630827Y-72714913D01*
X99670905Y-72749898D01*
G37*
G36*
X101349703Y-89010849D02*
G01*
X101357770Y-89082312D01*
X101326106Y-89182648D01*
X101250506Y-89231419D01*
X101182180Y-89270131D01*
X101150881Y-89335971D01*
X101143246Y-89457627D01*
X101143243Y-89461686D01*
X101149451Y-89582621D01*
X101176902Y-89644831D01*
X101238836Y-89675026D01*
X101250506Y-89678092D01*
X101335919Y-89726107D01*
X101357770Y-89811460D01*
X101342823Y-89891698D01*
X101314405Y-89917906D01*
X101253042Y-89902843D01*
X101133532Y-89863033D01*
X100977017Y-89806539D01*
X100853944Y-89760050D01*
X100804641Y-89741427D01*
X100637546Y-89675762D01*
X100496875Y-89617608D01*
X100403770Y-89575031D01*
X100381672Y-89562111D01*
X100332258Y-89479410D01*
X100334071Y-89466730D01*
X100686944Y-89466730D01*
X100735642Y-89490561D01*
X100853944Y-89525412D01*
X100914719Y-89505112D01*
X100928716Y-89445946D01*
X100920866Y-89376110D01*
X100910056Y-89360135D01*
X100861055Y-89374244D01*
X100770614Y-89407766D01*
X100691844Y-89442977D01*
X100686944Y-89466730D01*
X100334071Y-89466730D01*
X100345945Y-89383707D01*
X100405296Y-89321809D01*
X100478626Y-89288665D01*
X100604929Y-89237210D01*
X100763616Y-89175219D01*
X100934098Y-89110467D01*
X101095787Y-89050728D01*
X101228093Y-89003777D01*
X101310428Y-88977388D01*
X101325591Y-88974293D01*
X101349703Y-89010849D01*
G37*
G36*
X101349715Y-82317602D02*
G01*
X101357770Y-82388927D01*
X101322284Y-82494762D01*
X101250506Y-82545983D01*
X101180253Y-82592963D01*
X101149311Y-82668099D01*
X101143243Y-82776391D01*
X101150155Y-82894514D01*
X101180269Y-82954648D01*
X101247648Y-82984124D01*
X101250506Y-82984849D01*
X101335919Y-83032864D01*
X101357770Y-83118216D01*
X101340553Y-83198415D01*
X101307758Y-83224662D01*
X101249751Y-83210018D01*
X101129870Y-83170238D01*
X100966114Y-83111551D01*
X100888664Y-83082460D01*
X100792893Y-83046488D01*
X100590899Y-82967119D01*
X100456697Y-82907954D01*
X100377010Y-82861071D01*
X100338560Y-82818545D01*
X100328071Y-82772456D01*
X100328066Y-82771871D01*
X100708695Y-82771871D01*
X100772599Y-82814359D01*
X100800599Y-82825607D01*
X100888664Y-82853260D01*
X100923008Y-82835572D01*
X100928716Y-82767538D01*
X100916939Y-82691934D01*
X100865633Y-82681539D01*
X100832179Y-82690276D01*
X100728196Y-82732049D01*
X100708695Y-82771871D01*
X100328066Y-82771871D01*
X100328040Y-82769112D01*
X100358690Y-82673727D01*
X100405296Y-82628565D01*
X100478626Y-82595421D01*
X100604929Y-82543967D01*
X100763616Y-82481976D01*
X100934098Y-82417224D01*
X101095787Y-82357485D01*
X101228093Y-82310534D01*
X101310428Y-82284145D01*
X101325591Y-82281050D01*
X101349715Y-82317602D01*
G37*
G36*
X101302448Y-91508754D02*
G01*
X101334149Y-91530126D01*
X101350605Y-91586510D01*
X101356813Y-91694895D01*
X101357770Y-91870102D01*
X101357770Y-92234798D01*
X100842905Y-92234798D01*
X100328040Y-92234798D01*
X100328040Y-91870102D01*
X100329025Y-91693499D01*
X100335311Y-91585717D01*
X100351894Y-91529767D01*
X100383772Y-91508660D01*
X100435304Y-91505406D01*
X100494751Y-91510857D01*
X100526846Y-91540642D01*
X100539985Y-91614912D01*
X100542565Y-91753815D01*
X100542567Y-91762838D01*
X100545698Y-91906619D01*
X100559452Y-91984311D01*
X100590371Y-92015538D01*
X100628378Y-92020271D01*
X100677968Y-92010028D01*
X100703802Y-91965743D01*
X100713274Y-91867079D01*
X100714189Y-91784291D01*
X100716973Y-91649140D01*
X100731690Y-91578769D01*
X100767883Y-91552177D01*
X100821452Y-91548311D01*
X100882884Y-91554437D01*
X100914872Y-91586813D01*
X100926959Y-91666438D01*
X100928716Y-91784291D01*
X100931500Y-91919441D01*
X100946217Y-91989813D01*
X100982410Y-92016405D01*
X101035979Y-92020271D01*
X101095426Y-92014820D01*
X101127522Y-91985034D01*
X101140661Y-91910765D01*
X101143241Y-91771861D01*
X101143243Y-91762838D01*
X101145514Y-91620166D01*
X101157925Y-91543137D01*
X101188870Y-91511602D01*
X101246747Y-91505411D01*
X101250506Y-91505406D01*
X101302448Y-91508754D01*
G37*
G36*
X102201520Y-82700513D02*
G01*
X102213492Y-82775567D01*
X102215878Y-82917142D01*
X102215878Y-82921341D01*
X102219058Y-83066378D01*
X102232751Y-83145118D01*
X102263183Y-83176966D01*
X102299447Y-83181757D01*
X102349794Y-83168706D01*
X102378071Y-83116114D01*
X102392917Y-83003826D01*
X102395984Y-82956504D01*
X102408329Y-82823194D01*
X102431426Y-82755288D01*
X102474216Y-82732400D01*
X102494763Y-82731250D01*
X102546254Y-82743509D01*
X102575022Y-82793876D01*
X102590009Y-82902740D01*
X102593543Y-82956504D01*
X102604730Y-83088103D01*
X102626055Y-83155227D01*
X102668692Y-83179205D01*
X102711532Y-83181757D01*
X102769502Y-83176098D01*
X102800947Y-83145775D01*
X102813939Y-83070773D01*
X102816551Y-82931073D01*
X102816554Y-82921341D01*
X102818805Y-82778010D01*
X102830473Y-82701634D01*
X102858927Y-82673379D01*
X102911535Y-82674415D01*
X102913091Y-82674634D01*
X102959656Y-82687025D01*
X102989144Y-82719619D01*
X103006399Y-82789718D01*
X103016262Y-82914623D01*
X103022025Y-83063767D01*
X103034422Y-83439190D01*
X102516216Y-83439190D01*
X101998010Y-83439190D01*
X102010407Y-83063767D01*
X102017855Y-82883213D01*
X102028859Y-82771160D01*
X102048264Y-82710306D01*
X102080912Y-82683350D01*
X102119341Y-82674634D01*
X102172592Y-82673146D01*
X102201520Y-82700513D01*
G37*
G36*
X99627972Y-77521318D02*
G01*
X99659499Y-77541551D01*
X99676364Y-77595455D01*
X99683153Y-77699542D01*
X99684454Y-77870326D01*
X99684459Y-77904392D01*
X99684459Y-78290541D01*
X99191047Y-78290541D01*
X98697635Y-78290541D01*
X98697635Y-77925845D01*
X98699232Y-77748519D01*
X98706654Y-77640204D01*
X98723851Y-77584122D01*
X98754769Y-77563494D01*
X98783446Y-77561149D01*
X98831156Y-77570437D01*
X98857056Y-77611319D01*
X98867581Y-77703325D01*
X98869256Y-77821566D01*
X98871508Y-77964896D01*
X98883176Y-78041272D01*
X98911629Y-78069527D01*
X98964237Y-78068491D01*
X98965794Y-78068272D01*
X99023526Y-78049127D01*
X99055204Y-77997862D01*
X99071071Y-77892125D01*
X99075299Y-77829308D01*
X99087838Y-77695625D01*
X99111268Y-77627567D01*
X99154227Y-77604978D01*
X99171837Y-77604054D01*
X99220225Y-77614953D01*
X99245430Y-77661104D01*
X99254600Y-77762688D01*
X99255405Y-77840034D01*
X99258189Y-77975185D01*
X99272906Y-78045556D01*
X99309099Y-78072148D01*
X99362669Y-78076014D01*
X99420329Y-78071124D01*
X99452445Y-78043529D01*
X99466473Y-77973842D01*
X99469870Y-77842677D01*
X99469932Y-77797129D01*
X99471813Y-77647212D01*
X99482426Y-77563710D01*
X99509229Y-77527237D01*
X99559677Y-77518405D01*
X99577196Y-77518244D01*
X99627972Y-77521318D01*
G37*
G36*
X102838491Y-92563366D02*
G01*
X102926669Y-92624098D01*
X102979006Y-92716314D01*
X103011087Y-92863375D01*
X103023972Y-93010246D01*
X103040764Y-93307433D01*
X102709290Y-93307433D01*
X102521058Y-93307433D01*
X102435344Y-93307433D01*
X102001351Y-93307433D01*
X102001351Y-93038094D01*
X102003771Y-93007095D01*
X102138884Y-93007095D01*
X102156545Y-93109589D01*
X102203952Y-93155061D01*
X102293432Y-93170893D01*
X102435344Y-93184522D01*
X102422148Y-92982213D01*
X102420013Y-92969443D01*
X102559121Y-92969443D01*
X102559121Y-93178717D01*
X102709290Y-93178717D01*
X102859459Y-93178717D01*
X102859459Y-92945628D01*
X102854487Y-92806328D01*
X102834401Y-92729485D01*
X102791444Y-92692065D01*
X102771589Y-92684651D01*
X102663219Y-92682789D01*
X102592818Y-92757328D01*
X102561033Y-92907403D01*
X102559121Y-92969443D01*
X102420013Y-92969443D01*
X102395752Y-92824301D01*
X102339898Y-92738361D01*
X102331355Y-92732605D01*
X102249782Y-92720763D01*
X102183263Y-92778100D01*
X102143412Y-92888051D01*
X102138884Y-93007095D01*
X102003771Y-93007095D01*
X102018603Y-92817109D01*
X102072067Y-92670372D01*
X102164305Y-92593192D01*
X102252635Y-92578041D01*
X102360279Y-92596613D01*
X102424496Y-92631673D01*
X102476086Y-92659654D01*
X102520519Y-92611105D01*
X102521020Y-92610220D01*
X102598384Y-92550348D01*
X102715241Y-92535107D01*
X102838491Y-92563366D01*
G37*
G36*
X103027216Y-84503961D02*
G01*
X103031081Y-84535467D01*
X102994967Y-84593725D01*
X102905656Y-84653510D01*
X102880912Y-84664759D01*
X102789872Y-84709334D01*
X102745800Y-84762781D01*
X102731778Y-84855305D01*
X102730743Y-84932835D01*
X102735189Y-85058641D01*
X102759744Y-85127786D01*
X102821231Y-85169359D01*
X102880912Y-85192469D01*
X102971890Y-85241995D01*
X103025672Y-85300826D01*
X103031421Y-85349292D01*
X102978300Y-85367724D01*
X102977449Y-85367691D01*
X102917892Y-85351581D01*
X102797310Y-85309602D01*
X102634086Y-85248403D01*
X102588217Y-85230412D01*
X102473311Y-85185343D01*
X102244612Y-85089880D01*
X102095584Y-85012892D01*
X102026541Y-84946545D01*
X102030129Y-84926297D01*
X102153851Y-84926297D01*
X102364129Y-84997946D01*
X102485458Y-85038457D01*
X102567931Y-85064432D01*
X102588217Y-85069595D01*
X102597922Y-85032227D01*
X102602026Y-84942222D01*
X102602027Y-84940879D01*
X102587564Y-84845604D01*
X102537461Y-84815414D01*
X102526942Y-84815427D01*
X102436882Y-84831841D01*
X102316711Y-84867589D01*
X102302855Y-84872494D01*
X102153851Y-84926297D01*
X102030129Y-84926297D01*
X102037802Y-84883001D01*
X102129683Y-84814425D01*
X102302502Y-84732980D01*
X102494763Y-84655057D01*
X102681932Y-84582370D01*
X102839699Y-84522981D01*
X102951129Y-84483140D01*
X102998902Y-84469082D01*
X103027216Y-84503961D01*
G37*
G36*
X99464002Y-86586200D02*
G01*
X99572277Y-86656488D01*
X99650717Y-86787193D01*
X99683000Y-86976835D01*
X99683095Y-86995398D01*
X99671342Y-87130400D01*
X99643385Y-87236294D01*
X99629463Y-87261489D01*
X99558133Y-87328002D01*
X99461776Y-87391641D01*
X99379355Y-87427623D01*
X99365489Y-87429392D01*
X99337111Y-87396151D01*
X99339497Y-87317777D01*
X99365858Y-87226299D01*
X99409407Y-87153744D01*
X99427027Y-87139012D01*
X99495475Y-87053169D01*
X99508602Y-86940942D01*
X99463261Y-86842182D01*
X99451350Y-86831099D01*
X99396646Y-86807946D01*
X99344936Y-86852466D01*
X99326845Y-86879477D01*
X99271970Y-86995420D01*
X99234767Y-87118275D01*
X99171433Y-87257544D01*
X99061697Y-87354418D01*
X98943570Y-87386487D01*
X98861119Y-87357662D01*
X98766641Y-87287626D01*
X98760043Y-87281174D01*
X98675377Y-87140708D01*
X98653991Y-86971335D01*
X98696772Y-86803060D01*
X98743654Y-86727239D01*
X98838109Y-86639815D01*
X98923586Y-86614281D01*
X98982265Y-86651043D01*
X98997973Y-86721453D01*
X98983799Y-86802094D01*
X98956577Y-86828717D01*
X98894129Y-86865180D01*
X98856912Y-86950956D01*
X98856611Y-87050620D01*
X98870739Y-87088919D01*
X98926658Y-87144227D01*
X98984659Y-87122232D01*
X99035087Y-87030633D01*
X99058970Y-86938804D01*
X99123376Y-86752629D01*
X99223231Y-86632790D01*
X99342213Y-86577807D01*
X99464002Y-86586200D01*
G37*
G36*
X102983552Y-90575763D02*
G01*
X103030131Y-90616416D01*
X103031081Y-90625027D01*
X103005071Y-90675339D01*
X102919060Y-90711769D01*
X102761075Y-90739003D01*
X102730743Y-90742550D01*
X102667352Y-90758073D01*
X102633072Y-90801376D01*
X102616465Y-90895029D01*
X102610511Y-90979815D01*
X102597542Y-91205068D01*
X102814312Y-91205068D01*
X102950005Y-91211825D01*
X103016689Y-91235257D01*
X103031081Y-91269426D01*
X103018172Y-91297174D01*
X102970693Y-91315841D01*
X102875517Y-91327069D01*
X102719517Y-91332499D01*
X102516216Y-91333784D01*
X102251177Y-91333784D01*
X102001351Y-91333784D01*
X102001351Y-91079145D01*
X102004525Y-91006541D01*
X102138584Y-91006541D01*
X102155197Y-91123210D01*
X102192125Y-91179175D01*
X102251177Y-91197735D01*
X102380943Y-91197448D01*
X102450332Y-91142275D01*
X102472527Y-91020602D01*
X102472653Y-91002614D01*
X102464385Y-90884408D01*
X102444872Y-90802330D01*
X102440474Y-90794337D01*
X102353113Y-90727596D01*
X102249805Y-90726636D01*
X102193458Y-90761658D01*
X102142817Y-90871712D01*
X102138584Y-91006541D01*
X102004525Y-91006541D01*
X102008310Y-90919959D01*
X102026221Y-90780374D01*
X102042739Y-90715647D01*
X102121523Y-90615171D01*
X102244112Y-90570612D01*
X102383552Y-90589341D01*
X102427994Y-90610281D01*
X102525971Y-90649469D01*
X102615565Y-90631745D01*
X102644932Y-90617652D01*
X102764307Y-90575871D01*
X102886062Y-90562078D01*
X102983552Y-90575763D01*
G37*
G36*
X99641989Y-87610754D02*
G01*
X99679672Y-87652438D01*
X99684459Y-87705752D01*
X99671520Y-87775156D01*
X99617721Y-87816336D01*
X99502111Y-87846318D01*
X99387261Y-87874665D01*
X99331948Y-87916499D01*
X99310733Y-87997250D01*
X99306447Y-88041917D01*
X99293131Y-88201690D01*
X99488795Y-88201690D01*
X99608900Y-88205946D01*
X99666192Y-88227187D01*
X99683562Y-88278118D01*
X99684459Y-88310300D01*
X99664575Y-88400460D01*
X99627927Y-88440603D01*
X99563333Y-88448521D01*
X99433874Y-88452673D01*
X99260432Y-88452671D01*
X99123788Y-88449983D01*
X98997973Y-88446522D01*
X98676182Y-88437669D01*
X98678229Y-88145927D01*
X98873751Y-88145927D01*
X98899194Y-88191096D01*
X98972640Y-88201544D01*
X98997973Y-88201690D01*
X99084960Y-88195610D01*
X99119647Y-88160545D01*
X99120952Y-88071250D01*
X99118553Y-88040794D01*
X99101813Y-87934013D01*
X99063491Y-87888560D01*
X98997973Y-87879899D01*
X98925804Y-87891752D01*
X98891212Y-87943592D01*
X98877393Y-88040794D01*
X98873751Y-88145927D01*
X98678229Y-88145927D01*
X98678555Y-88099440D01*
X98682552Y-87924536D01*
X98695140Y-87813074D01*
X98721721Y-87742745D01*
X98767697Y-87691240D01*
X98779846Y-87681112D01*
X98906487Y-87614772D01*
X99031000Y-87608354D01*
X99123632Y-87661688D01*
X99171275Y-87699088D01*
X99235469Y-87688136D01*
X99289780Y-87661952D01*
X99420005Y-87617470D01*
X99545017Y-87601278D01*
X99641989Y-87610754D01*
G37*
G36*
X101309012Y-94519383D02*
G01*
X101568441Y-94564972D01*
X101572297Y-94565960D01*
X101980848Y-94705922D01*
X102381527Y-94907492D01*
X102752795Y-95157017D01*
X103073114Y-95440845D01*
X103225601Y-95613950D01*
X103388548Y-95847818D01*
X103547827Y-96125982D01*
X103687598Y-96417110D01*
X103792024Y-96689874D01*
X103822216Y-96794109D01*
X103871738Y-97057991D01*
X103901757Y-97361721D01*
X103910290Y-97668165D01*
X103895351Y-97940184D01*
X103886860Y-98004042D01*
X103776961Y-98461340D01*
X103596318Y-98904718D01*
X103354596Y-99317229D01*
X103061462Y-99681923D01*
X102784023Y-99937764D01*
X102526162Y-100116036D01*
X102381714Y-100196683D01*
X102220748Y-100286553D01*
X101902202Y-100432089D01*
X101604942Y-100535420D01*
X101572297Y-100544175D01*
X101264389Y-100597937D01*
X101182342Y-100602602D01*
X100912037Y-100617971D01*
X100549495Y-100604766D01*
X100211015Y-100558807D01*
X100136938Y-100541332D01*
X100057771Y-100522656D01*
X99566765Y-100343194D01*
X99125628Y-100097291D01*
X99079977Y-100061126D01*
X98738993Y-99790998D01*
X98411495Y-99430368D01*
X98147768Y-99021453D01*
X97974787Y-98621908D01*
X98653605Y-98621908D01*
X98700939Y-98783788D01*
X98780145Y-98888436D01*
X98925436Y-98986587D01*
X99079977Y-99016094D01*
X99229918Y-98987685D01*
X99361407Y-98912085D01*
X99460590Y-98800020D01*
X99513615Y-98662214D01*
X99509916Y-98581268D01*
X99697302Y-98581268D01*
X99704661Y-98700482D01*
X99773829Y-98856310D01*
X99906106Y-98963316D01*
X100088299Y-99011933D01*
X100136938Y-99013852D01*
X100311250Y-98978068D01*
X100441460Y-98882862D01*
X100520014Y-98746448D01*
X100535128Y-98621908D01*
X100755970Y-98621908D01*
X100803304Y-98783788D01*
X100882510Y-98888436D01*
X101027800Y-98986587D01*
X101182342Y-99016094D01*
X101332283Y-98987685D01*
X101463771Y-98912085D01*
X101562954Y-98800020D01*
X101615980Y-98662214D01*
X101608996Y-98509395D01*
X101545237Y-98375285D01*
X101456610Y-98289440D01*
X101376862Y-98241554D01*
X102001351Y-98241554D01*
X102001351Y-98370271D01*
X102319632Y-98370271D01*
X102524386Y-98374114D01*
X102657824Y-98388856D01*
X102734227Y-98419317D01*
X102767876Y-98470319D01*
X102773648Y-98523520D01*
X102750518Y-98611825D01*
X102674392Y-98670190D01*
X102535163Y-98702707D01*
X102322726Y-98713469D01*
X102304510Y-98713514D01*
X102001351Y-98713514D01*
X102001351Y-98842230D01*
X102001351Y-98970946D01*
X102381714Y-98970946D01*
X102576940Y-98967647D01*
X102708512Y-98955160D01*
X102798423Y-98929598D01*
X102868666Y-98887077D01*
X102872254Y-98884281D01*
X102982474Y-98746150D01*
X103023296Y-98566776D01*
X102992187Y-98358700D01*
X102983662Y-98332862D01*
X102939741Y-98237899D01*
X102875764Y-98174420D01*
X102775540Y-98136419D01*
X102622883Y-98117896D01*
X102494763Y-98114972D01*
X102401602Y-98112845D01*
X102390320Y-98112838D01*
X102001351Y-98112838D01*
X102001351Y-98241554D01*
X101376862Y-98241554D01*
X101337422Y-98217872D01*
X101330710Y-98214994D01*
X101215863Y-98178252D01*
X101186148Y-98180837D01*
X101118378Y-98186733D01*
X101041587Y-98214994D01*
X100879240Y-98320031D01*
X100782658Y-98461495D01*
X100755970Y-98621908D01*
X100535128Y-98621908D01*
X100539359Y-98587042D01*
X100491940Y-98422860D01*
X100423121Y-98323752D01*
X100281462Y-98217932D01*
X100125682Y-98183352D01*
X100120323Y-98184327D01*
X99972579Y-98211203D01*
X99838950Y-98292678D01*
X99741592Y-98418969D01*
X99697302Y-98581268D01*
X99509916Y-98581268D01*
X99506632Y-98509395D01*
X99442872Y-98375285D01*
X99354246Y-98289440D01*
X99235057Y-98217872D01*
X99228345Y-98214994D01*
X99113498Y-98178252D01*
X99083783Y-98180837D01*
X99016013Y-98186733D01*
X98939222Y-98214994D01*
X98776875Y-98320031D01*
X98680293Y-98461495D01*
X98653605Y-98621908D01*
X97974787Y-98621908D01*
X97952446Y-98570306D01*
X97830163Y-98082977D01*
X97786072Y-97571544D01*
X98654297Y-97571544D01*
X98717056Y-97739777D01*
X98779055Y-97821575D01*
X98880192Y-97915459D01*
X98984769Y-97954734D01*
X99083783Y-97960719D01*
X99214099Y-97948306D01*
X99310947Y-97897792D01*
X99393345Y-97816166D01*
X99475122Y-97711129D01*
X99505546Y-97618390D01*
X99500329Y-97522278D01*
X99696661Y-97522278D01*
X99721872Y-97689557D01*
X99809923Y-97830570D01*
X99949641Y-97927023D01*
X100120323Y-97960719D01*
X100251289Y-97946263D01*
X100351027Y-97889314D01*
X100418242Y-97821575D01*
X100522441Y-97654871D01*
X100532570Y-97571544D01*
X100756662Y-97571544D01*
X100819421Y-97739777D01*
X100881420Y-97821575D01*
X100982557Y-97915459D01*
X101087134Y-97954734D01*
X101186148Y-97960719D01*
X101316463Y-97948306D01*
X101413312Y-97897792D01*
X101495710Y-97816166D01*
X101577487Y-97711129D01*
X101607910Y-97618390D01*
X101605638Y-97576521D01*
X102001351Y-97576521D01*
X102001351Y-97855406D01*
X102494763Y-97855406D01*
X102988175Y-97855406D01*
X102988175Y-97726690D01*
X102980658Y-97642257D01*
X102941244Y-97606092D01*
X102844635Y-97597944D01*
X102827280Y-97597887D01*
X102721409Y-97591890D01*
X102673875Y-97557272D01*
X102657275Y-97468865D01*
X102655054Y-97439702D01*
X102615124Y-97270413D01*
X102525991Y-97171938D01*
X102521934Y-97167456D01*
X102371577Y-97126966D01*
X102337944Y-97126014D01*
X102182418Y-97146864D01*
X102079652Y-97216275D01*
X102021958Y-97344536D01*
X102001649Y-97541938D01*
X102001351Y-97576521D01*
X101605638Y-97576521D01*
X101601236Y-97495417D01*
X101540984Y-97312784D01*
X101465294Y-97222618D01*
X101306047Y-97137278D01*
X101200263Y-97130669D01*
X101130101Y-97126286D01*
X100961473Y-97188455D01*
X100882510Y-97251430D01*
X100777696Y-97406125D01*
X100756662Y-97571544D01*
X100532570Y-97571544D01*
X100542838Y-97487073D01*
X100479449Y-97326087D01*
X100417151Y-97251430D01*
X100262030Y-97148085D01*
X100092988Y-97118805D01*
X100044950Y-97131183D01*
X99930473Y-97160679D01*
X99794931Y-97270798D01*
X99745464Y-97347025D01*
X99696661Y-97522278D01*
X99500329Y-97522278D01*
X99498871Y-97495417D01*
X99438619Y-97312784D01*
X99362929Y-97222618D01*
X99203682Y-97137278D01*
X99097898Y-97130669D01*
X99027736Y-97126286D01*
X98859108Y-97188455D01*
X98780145Y-97251430D01*
X98675331Y-97406125D01*
X98654297Y-97571544D01*
X97786072Y-97571544D01*
X97785553Y-97565520D01*
X97785486Y-97555068D01*
X97824035Y-97050881D01*
X97941136Y-96571415D01*
X97967026Y-96510478D01*
X98654729Y-96510478D01*
X98692614Y-96671505D01*
X98792685Y-96799188D01*
X98934571Y-96883577D01*
X99097898Y-96914725D01*
X99262295Y-96882684D01*
X99334750Y-96842538D01*
X99450120Y-96715041D01*
X99505194Y-96552686D01*
X99500541Y-96478267D01*
X99697164Y-96478267D01*
X99704661Y-96598117D01*
X99771368Y-96751290D01*
X99891776Y-96856589D01*
X100044950Y-96908494D01*
X100209961Y-96901482D01*
X100365875Y-96830031D01*
X100417151Y-96786071D01*
X100521668Y-96631039D01*
X100537072Y-96510478D01*
X100757094Y-96510478D01*
X100794979Y-96671505D01*
X100895050Y-96799188D01*
X101036936Y-96883577D01*
X101200263Y-96914725D01*
X101364660Y-96882684D01*
X101437115Y-96842538D01*
X101552485Y-96715041D01*
X101607559Y-96552686D01*
X101596990Y-96383650D01*
X101590593Y-96369962D01*
X102009158Y-96369962D01*
X102023832Y-96587186D01*
X102105474Y-96751667D01*
X102250866Y-96860034D01*
X102456792Y-96908917D01*
X102525991Y-96911487D01*
X102729202Y-96878424D01*
X102880004Y-96777990D01*
X102969429Y-96637823D01*
X103019187Y-96494204D01*
X103023446Y-96371046D01*
X103004038Y-96278632D01*
X102953957Y-96201786D01*
X102863070Y-96182095D01*
X102787373Y-96190008D01*
X102760164Y-96230679D01*
X102765186Y-96329505D01*
X102765729Y-96334178D01*
X102751104Y-96491208D01*
X102673374Y-96601741D01*
X102543325Y-96652312D01*
X102509566Y-96654054D01*
X102362325Y-96617297D01*
X102262622Y-96519156D01*
X102225896Y-96377828D01*
X102230230Y-96324803D01*
X102241053Y-96226528D01*
X102218698Y-96189066D01*
X102147343Y-96189192D01*
X102138523Y-96190191D01*
X102061323Y-96210745D01*
X102024226Y-96266198D01*
X102009158Y-96369962D01*
X101590593Y-96369962D01*
X101545237Y-96272920D01*
X101423630Y-96162238D01*
X101261670Y-96093205D01*
X101098764Y-96082156D01*
X101089130Y-96083825D01*
X100950757Y-96149431D01*
X100836353Y-96272952D01*
X100767605Y-96426522D01*
X100757094Y-96510478D01*
X100537072Y-96510478D01*
X100542908Y-96464799D01*
X100480761Y-96297283D01*
X100423402Y-96221701D01*
X100281161Y-96115118D01*
X100125090Y-96079956D01*
X99971924Y-96107453D01*
X99838392Y-96188845D01*
X99741228Y-96315371D01*
X99697164Y-96478267D01*
X99500541Y-96478267D01*
X99494625Y-96383650D01*
X99442872Y-96272920D01*
X99321265Y-96162238D01*
X99159305Y-96093205D01*
X98996399Y-96082156D01*
X98986765Y-96083825D01*
X98848392Y-96149431D01*
X98733988Y-96272952D01*
X98665240Y-96426522D01*
X98654729Y-96510478D01*
X97967026Y-96510478D01*
X98131399Y-96123591D01*
X98389430Y-95714329D01*
X98709839Y-95350551D01*
X99087233Y-95039177D01*
X99516221Y-94787127D01*
X99991411Y-94601323D01*
X100113513Y-94566890D01*
X100370408Y-94520575D01*
X100677172Y-94497205D01*
X101000981Y-94496801D01*
X101309012Y-94519383D01*
G37*
%TD*%
M02*
