%TF.GenerationSoftware,KiCad,Pcbnew,8.0.5*%
%TF.CreationDate,2024-11-30T13:26:41+01:00*%
%TF.ProjectId,hmi,686d692e-6b69-4636-9164-5f7063625858,rev?*%
%TF.SameCoordinates,Original*%
%TF.FileFunction,Legend,Bot*%
%TF.FilePolarity,Positive*%
%FSLAX46Y46*%
G04 Gerber Fmt 4.6, Leading zero omitted, Abs format (unit mm)*
G04 Created by KiCad (PCBNEW 8.0.5) date 2024-11-30 13:26:41*
%MOMM*%
%LPD*%
G01*
G04 APERTURE LIST*
%ADD10C,0.150000*%
%ADD11C,0.120000*%
G04 APERTURE END LIST*
D10*
X104165237Y-145994819D02*
X104165237Y-144994819D01*
X104165237Y-144994819D02*
X103784285Y-144994819D01*
X103784285Y-144994819D02*
X103689047Y-145042438D01*
X103689047Y-145042438D02*
X103641428Y-145090057D01*
X103641428Y-145090057D02*
X103593809Y-145185295D01*
X103593809Y-145185295D02*
X103593809Y-145328152D01*
X103593809Y-145328152D02*
X103641428Y-145423390D01*
X103641428Y-145423390D02*
X103689047Y-145471009D01*
X103689047Y-145471009D02*
X103784285Y-145518628D01*
X103784285Y-145518628D02*
X104165237Y-145518628D01*
X103260475Y-145328152D02*
X103069999Y-145994819D01*
X103069999Y-145994819D02*
X102879523Y-145518628D01*
X102879523Y-145518628D02*
X102689047Y-145994819D01*
X102689047Y-145994819D02*
X102498571Y-145328152D01*
X102117618Y-145994819D02*
X102117618Y-145328152D01*
X102117618Y-145518628D02*
X102069999Y-145423390D01*
X102069999Y-145423390D02*
X102022380Y-145375771D01*
X102022380Y-145375771D02*
X101927142Y-145328152D01*
X101927142Y-145328152D02*
X101831904Y-145328152D01*
X73354819Y-81722380D02*
X73354819Y-81246190D01*
X73354819Y-81246190D02*
X72354819Y-81246190D01*
X72831009Y-82055714D02*
X72831009Y-82389047D01*
X73354819Y-82531904D02*
X73354819Y-82055714D01*
X73354819Y-82055714D02*
X72354819Y-82055714D01*
X72354819Y-82055714D02*
X72354819Y-82531904D01*
X73354819Y-82960476D02*
X72354819Y-82960476D01*
X72354819Y-82960476D02*
X72354819Y-83198571D01*
X72354819Y-83198571D02*
X72402438Y-83341428D01*
X72402438Y-83341428D02*
X72497676Y-83436666D01*
X72497676Y-83436666D02*
X72592914Y-83484285D01*
X72592914Y-83484285D02*
X72783390Y-83531904D01*
X72783390Y-83531904D02*
X72926247Y-83531904D01*
X72926247Y-83531904D02*
X73116723Y-83484285D01*
X73116723Y-83484285D02*
X73211961Y-83436666D01*
X73211961Y-83436666D02*
X73307200Y-83341428D01*
X73307200Y-83341428D02*
X73354819Y-83198571D01*
X73354819Y-83198571D02*
X73354819Y-82960476D01*
X73307200Y-83912857D02*
X73354819Y-84008095D01*
X73354819Y-84008095D02*
X73354819Y-84198571D01*
X73354819Y-84198571D02*
X73307200Y-84293809D01*
X73307200Y-84293809D02*
X73211961Y-84341428D01*
X73211961Y-84341428D02*
X73164342Y-84341428D01*
X73164342Y-84341428D02*
X73069104Y-84293809D01*
X73069104Y-84293809D02*
X73021485Y-84198571D01*
X73021485Y-84198571D02*
X73021485Y-84055714D01*
X73021485Y-84055714D02*
X72973866Y-83960476D01*
X72973866Y-83960476D02*
X72878628Y-83912857D01*
X72878628Y-83912857D02*
X72831009Y-83912857D01*
X72831009Y-83912857D02*
X72735771Y-83960476D01*
X72735771Y-83960476D02*
X72688152Y-84055714D01*
X72688152Y-84055714D02*
X72688152Y-84198571D01*
X72688152Y-84198571D02*
X72735771Y-84293809D01*
X73407200Y-99152381D02*
X73454819Y-99295238D01*
X73454819Y-99295238D02*
X73454819Y-99533333D01*
X73454819Y-99533333D02*
X73407200Y-99628571D01*
X73407200Y-99628571D02*
X73359580Y-99676190D01*
X73359580Y-99676190D02*
X73264342Y-99723809D01*
X73264342Y-99723809D02*
X73169104Y-99723809D01*
X73169104Y-99723809D02*
X73073866Y-99676190D01*
X73073866Y-99676190D02*
X73026247Y-99628571D01*
X73026247Y-99628571D02*
X72978628Y-99533333D01*
X72978628Y-99533333D02*
X72931009Y-99342857D01*
X72931009Y-99342857D02*
X72883390Y-99247619D01*
X72883390Y-99247619D02*
X72835771Y-99200000D01*
X72835771Y-99200000D02*
X72740533Y-99152381D01*
X72740533Y-99152381D02*
X72645295Y-99152381D01*
X72645295Y-99152381D02*
X72550057Y-99200000D01*
X72550057Y-99200000D02*
X72502438Y-99247619D01*
X72502438Y-99247619D02*
X72454819Y-99342857D01*
X72454819Y-99342857D02*
X72454819Y-99580952D01*
X72454819Y-99580952D02*
X72502438Y-99723809D01*
X72788152Y-100057143D02*
X73454819Y-100247619D01*
X73454819Y-100247619D02*
X72978628Y-100438095D01*
X72978628Y-100438095D02*
X73454819Y-100628571D01*
X73454819Y-100628571D02*
X72788152Y-100819047D01*
X73454819Y-101200000D02*
X72788152Y-101200000D01*
X72454819Y-101200000D02*
X72502438Y-101152381D01*
X72502438Y-101152381D02*
X72550057Y-101200000D01*
X72550057Y-101200000D02*
X72502438Y-101247619D01*
X72502438Y-101247619D02*
X72454819Y-101200000D01*
X72454819Y-101200000D02*
X72550057Y-101200000D01*
X72788152Y-101533333D02*
X72788152Y-101914285D01*
X72454819Y-101676190D02*
X73311961Y-101676190D01*
X73311961Y-101676190D02*
X73407200Y-101723809D01*
X73407200Y-101723809D02*
X73454819Y-101819047D01*
X73454819Y-101819047D02*
X73454819Y-101914285D01*
X73407200Y-102676190D02*
X73454819Y-102580952D01*
X73454819Y-102580952D02*
X73454819Y-102390476D01*
X73454819Y-102390476D02*
X73407200Y-102295238D01*
X73407200Y-102295238D02*
X73359580Y-102247619D01*
X73359580Y-102247619D02*
X73264342Y-102200000D01*
X73264342Y-102200000D02*
X72978628Y-102200000D01*
X72978628Y-102200000D02*
X72883390Y-102247619D01*
X72883390Y-102247619D02*
X72835771Y-102295238D01*
X72835771Y-102295238D02*
X72788152Y-102390476D01*
X72788152Y-102390476D02*
X72788152Y-102580952D01*
X72788152Y-102580952D02*
X72835771Y-102676190D01*
X73454819Y-103104762D02*
X72454819Y-103104762D01*
X73454819Y-103533333D02*
X72931009Y-103533333D01*
X72931009Y-103533333D02*
X72835771Y-103485714D01*
X72835771Y-103485714D02*
X72788152Y-103390476D01*
X72788152Y-103390476D02*
X72788152Y-103247619D01*
X72788152Y-103247619D02*
X72835771Y-103152381D01*
X72835771Y-103152381D02*
X72883390Y-103104762D01*
X73407200Y-104390476D02*
X73454819Y-104295238D01*
X73454819Y-104295238D02*
X73454819Y-104104762D01*
X73454819Y-104104762D02*
X73407200Y-104009524D01*
X73407200Y-104009524D02*
X73311961Y-103961905D01*
X73311961Y-103961905D02*
X72931009Y-103961905D01*
X72931009Y-103961905D02*
X72835771Y-104009524D01*
X72835771Y-104009524D02*
X72788152Y-104104762D01*
X72788152Y-104104762D02*
X72788152Y-104295238D01*
X72788152Y-104295238D02*
X72835771Y-104390476D01*
X72835771Y-104390476D02*
X72931009Y-104438095D01*
X72931009Y-104438095D02*
X73026247Y-104438095D01*
X73026247Y-104438095D02*
X73121485Y-103961905D01*
X73407200Y-104819048D02*
X73454819Y-104914286D01*
X73454819Y-104914286D02*
X73454819Y-105104762D01*
X73454819Y-105104762D02*
X73407200Y-105200000D01*
X73407200Y-105200000D02*
X73311961Y-105247619D01*
X73311961Y-105247619D02*
X73264342Y-105247619D01*
X73264342Y-105247619D02*
X73169104Y-105200000D01*
X73169104Y-105200000D02*
X73121485Y-105104762D01*
X73121485Y-105104762D02*
X73121485Y-104961905D01*
X73121485Y-104961905D02*
X73073866Y-104866667D01*
X73073866Y-104866667D02*
X72978628Y-104819048D01*
X72978628Y-104819048D02*
X72931009Y-104819048D01*
X72931009Y-104819048D02*
X72835771Y-104866667D01*
X72835771Y-104866667D02*
X72788152Y-104961905D01*
X72788152Y-104961905D02*
X72788152Y-105104762D01*
X72788152Y-105104762D02*
X72835771Y-105200000D01*
D11*
%TO.C,Pwr*%
X98260000Y-138820000D02*
X98260000Y-144120000D01*
X98260000Y-140200000D02*
X99260000Y-140200000D01*
X98260000Y-144120000D02*
X104280000Y-144120000D01*
X99250000Y-144410000D02*
X103250000Y-144410000D01*
X99260000Y-140200000D02*
X99260000Y-142740000D01*
X99260000Y-140200000D02*
X99790000Y-140450000D01*
X99260000Y-140450000D02*
X98260000Y-140450000D01*
X99260000Y-142490000D02*
X98260000Y-142490000D01*
X99260000Y-142740000D02*
X98260000Y-142740000D01*
X99790000Y-140450000D02*
X99790000Y-142490000D01*
X99790000Y-142490000D02*
X99260000Y-142740000D01*
X103680000Y-139400000D02*
X103680000Y-141000000D01*
X103680000Y-141000000D02*
X104280000Y-141000000D01*
X103680000Y-141940000D02*
X103680000Y-143540000D01*
X103680000Y-143540000D02*
X104280000Y-143540000D01*
X104280000Y-138820000D02*
X98260000Y-138820000D01*
X104280000Y-139400000D02*
X103680000Y-139400000D01*
X104280000Y-141940000D02*
X103680000Y-141940000D01*
X104280000Y-144120000D02*
X104280000Y-138820000D01*
%TO.C,LEDs*%
X74010000Y-72500000D02*
X74010000Y-93040000D01*
X74010000Y-78960000D02*
X75010000Y-78960000D01*
X74010000Y-86580000D02*
X75010000Y-86580000D01*
X74010000Y-93040000D02*
X80030000Y-93040000D01*
X75000000Y-93330000D02*
X79000000Y-93330000D01*
X75010000Y-73880000D02*
X74010000Y-73880000D01*
X75010000Y-74130000D02*
X74010000Y-74130000D01*
X75010000Y-78960000D02*
X75010000Y-73880000D01*
X75010000Y-78960000D02*
X75540000Y-78960000D01*
X75010000Y-86580000D02*
X75010000Y-91660000D01*
X75010000Y-86580000D02*
X75540000Y-86580000D01*
X75010000Y-91410000D02*
X74010000Y-91410000D01*
X75010000Y-91660000D02*
X74010000Y-91660000D01*
X75540000Y-74130000D02*
X75010000Y-73880000D01*
X75540000Y-78960000D02*
X75540000Y-74130000D01*
X75540000Y-86580000D02*
X75540000Y-91410000D01*
X75540000Y-91410000D02*
X75010000Y-91660000D01*
X79430000Y-73080000D02*
X79430000Y-74680000D01*
X79430000Y-74680000D02*
X80030000Y-74680000D01*
X79430000Y-75620000D02*
X79430000Y-77220000D01*
X79430000Y-77220000D02*
X80030000Y-77220000D01*
X79430000Y-78160000D02*
X79430000Y-79760000D01*
X79430000Y-79760000D02*
X80030000Y-79760000D01*
X79430000Y-80700000D02*
X79430000Y-82300000D01*
X79430000Y-82300000D02*
X80030000Y-82300000D01*
X79430000Y-83240000D02*
X79430000Y-84840000D01*
X79430000Y-84840000D02*
X80030000Y-84840000D01*
X79430000Y-85780000D02*
X79430000Y-87380000D01*
X79430000Y-87380000D02*
X80030000Y-87380000D01*
X79430000Y-88320000D02*
X79430000Y-89920000D01*
X79430000Y-89920000D02*
X80030000Y-89920000D01*
X79430000Y-90860000D02*
X79430000Y-92460000D01*
X79430000Y-92460000D02*
X80030000Y-92460000D01*
X80030000Y-72500000D02*
X74010000Y-72500000D01*
X80030000Y-73080000D02*
X79430000Y-73080000D01*
X80030000Y-75620000D02*
X79430000Y-75620000D01*
X80030000Y-78160000D02*
X79430000Y-78160000D01*
X80030000Y-80700000D02*
X79430000Y-80700000D01*
X80030000Y-83240000D02*
X79430000Y-83240000D01*
X80030000Y-85780000D02*
X79430000Y-85780000D01*
X80030000Y-88320000D02*
X79430000Y-88320000D01*
X80030000Y-90860000D02*
X79430000Y-90860000D01*
X80030000Y-93040000D02*
X80030000Y-72500000D01*
%TO.C,Switches*%
X74090000Y-97010000D02*
X74090000Y-107390000D01*
X74090000Y-99190000D02*
X74690000Y-99190000D01*
X74090000Y-101730000D02*
X74690000Y-101730000D01*
X74090000Y-104270000D02*
X74690000Y-104270000D01*
X74090000Y-106810000D02*
X74690000Y-106810000D01*
X74090000Y-107390000D02*
X80110000Y-107390000D01*
X74690000Y-97590000D02*
X74090000Y-97590000D01*
X74690000Y-99190000D02*
X74690000Y-97590000D01*
X74690000Y-100130000D02*
X74090000Y-100130000D01*
X74690000Y-101730000D02*
X74690000Y-100130000D01*
X74690000Y-102670000D02*
X74090000Y-102670000D01*
X74690000Y-104270000D02*
X74690000Y-102670000D01*
X74690000Y-105210000D02*
X74090000Y-105210000D01*
X74690000Y-106810000D02*
X74690000Y-105210000D01*
X78580000Y-98640000D02*
X79110000Y-98390000D01*
X78580000Y-105760000D02*
X78580000Y-98640000D01*
X79110000Y-98390000D02*
X80110000Y-98390000D01*
X79110000Y-98640000D02*
X80110000Y-98640000D01*
X79110000Y-105760000D02*
X80110000Y-105760000D01*
X79110000Y-106010000D02*
X78580000Y-105760000D01*
X79110000Y-106010000D02*
X79110000Y-98390000D01*
X79120000Y-96720000D02*
X75120000Y-96720000D01*
X80110000Y-97010000D02*
X74090000Y-97010000D01*
X80110000Y-106010000D02*
X79110000Y-106010000D01*
X80110000Y-107390000D02*
X80110000Y-97010000D01*
%TD*%
M02*
