M48
; DRILL file {KiCad 8.0.5} date 2024-10-30T11:10:55+0100
; FORMAT={-:-/ absolute / metric / decimal}
; #@! TF.CreationDate,2024-10-30T11:10:55+01:00
; #@! TF.GenerationSoftware,Kicad,Pcbnew,8.0.5
; #@! TF.FileFunction,Plated,1,2,PTH
FMAT,2
METRIC
; #@! TA.AperFunction,Plated,PTH,ComponentDrill
T1C0.600
; #@! TA.AperFunction,Plated,PTH,ComponentDrill
T2C0.800
; #@! TA.AperFunction,Plated,PTH,ViaDrill
T3C1.000
; #@! TA.AperFunction,Plated,PTH,ComponentDrill
T4C1.000
; #@! TA.AperFunction,Plated,PTH,ComponentDrill
T5C1.016
; #@! TA.AperFunction,Plated,PTH,ComponentDrill
T6C1.100
; #@! TA.AperFunction,Plated,PTH,ComponentDrill
T7C1.190
; #@! TA.AperFunction,Plated,PTH,ComponentDrill
T8C1.300
; #@! TA.AperFunction,Plated,PTH,ComponentDrill
T9C1.700
%
G90
G05
T1
X133.4Y-154.45
X133.4Y-155.95
X153.2Y-149.6
X153.2Y-151.1
T2
X104.2Y-191.79
X109.552Y-191.79
X113.18Y-182.81
X114.905Y-191.79
X118.533Y-182.81
X120.257Y-191.79
X123.885Y-182.81
X125.61Y-191.79
X128.832Y-151.168
X129.238Y-182.81
X130.6Y-149.4
X134.59Y-182.81
X134.7Y-192.0
X140.31Y-191.99
X143.68Y-183.02
X149.29Y-183.01
X160.0Y-148.105
X160.0Y-150.605
T3
X100.2Y-178.4
X100.4Y-181.5
X108.2Y-140.5
X110.4Y-178.4
X113.3Y-178.5
X115.7Y-140.0
X120.6Y-165.6
X123.1Y-167.2
X125.1Y-126.9
X129.6Y-169.3
X133.9Y-140.1
X135.0Y-129.3
X138.4Y-169.3
X144.3Y-169.3
X166.4Y-165.6
X168.9Y-167.2
T4
X102.775Y-172.75
X102.775Y-175.29
X102.999Y-132.517
X102.999Y-135.057
X105.315Y-172.75
X105.315Y-175.29
X105.539Y-132.517
X105.539Y-135.057
X107.855Y-172.75
X107.855Y-175.29
X108.079Y-132.517
X108.079Y-135.057
X110.395Y-172.75
X110.395Y-175.29
X110.619Y-132.517
X110.619Y-135.057
X112.935Y-172.75
X112.935Y-175.29
X113.159Y-132.517
X113.159Y-135.057
X115.475Y-172.75
X115.475Y-175.29
X115.699Y-132.517
X115.699Y-135.057
X118.015Y-172.75
X118.015Y-175.29
X118.239Y-132.517
X118.239Y-135.057
X120.555Y-172.75
X120.555Y-175.29
X120.779Y-132.517
X120.779Y-135.057
X123.095Y-172.75
X123.095Y-175.29
X123.319Y-132.517
X123.319Y-135.057
X125.635Y-172.75
X125.635Y-175.29
X125.859Y-132.517
X125.859Y-135.057
X128.175Y-172.75
X128.175Y-175.29
X128.399Y-132.517
X128.399Y-135.057
X130.715Y-172.75
X130.715Y-175.29
X130.939Y-132.517
X130.939Y-135.057
X133.255Y-172.75
X133.255Y-175.29
X133.479Y-132.517
X133.479Y-135.057
X135.795Y-172.75
X135.795Y-175.29
X136.019Y-132.517
X136.019Y-135.057
X138.335Y-172.75
X138.335Y-175.29
X138.559Y-132.517
X138.559Y-135.057
X140.875Y-172.75
X140.875Y-175.29
X141.099Y-132.517
X141.099Y-135.057
X143.415Y-172.75
X143.415Y-175.29
X143.639Y-132.517
X143.639Y-135.057
X145.955Y-172.75
X145.955Y-175.29
X146.179Y-132.517
X146.179Y-135.057
X148.495Y-172.75
X148.495Y-175.29
X148.719Y-132.517
X148.719Y-135.057
X151.035Y-172.75
X151.035Y-175.29
X151.259Y-132.517
X151.259Y-135.057
T5
X88.087Y-139.012
X88.087Y-151.812
X121.648Y-141.593
X121.648Y-144.132
X121.648Y-146.672
X121.648Y-149.213
X124.188Y-141.593
X124.188Y-144.132
X124.188Y-146.672
X124.188Y-149.213
T6
X140.16Y-153.645
X142.7Y-153.645
X145.24Y-153.645
T7
X104.44Y-197.5
X106.98Y-197.5
X109.52Y-197.5
X112.06Y-197.5
X114.6Y-197.5
X117.14Y-197.5
X119.68Y-197.5
X122.22Y-197.5
X136.02Y-197.7
X138.56Y-197.7
X141.1Y-197.7
X143.64Y-197.7
T8
X171.2Y-146.455
X171.2Y-151.535
T9
X94.755Y-179.56
X94.755Y-183.52
X94.755Y-187.48
X94.755Y-191.44
M30
