G04 #@! TF.GenerationSoftware,KiCad,Pcbnew,8.0.5*
G04 #@! TF.CreationDate,2024-10-30T11:11:19+01:00*
G04 #@! TF.ProjectId,raspberry_pi_hat,72617370-6265-4727-9279-5f70695f6861,rev?*
G04 #@! TF.SameCoordinates,Original*
G04 #@! TF.FileFunction,Copper,L1,Top*
G04 #@! TF.FilePolarity,Positive*
%FSLAX46Y46*%
G04 Gerber Fmt 4.6, Leading zero omitted, Abs format (unit mm)*
G04 Created by KiCad (PCBNEW 8.0.5) date 2024-10-30 11:11:19*
%MOMM*%
%LPD*%
G01*
G04 APERTURE LIST*
G04 Aperture macros list*
%AMRoundRect*
0 Rectangle with rounded corners*
0 $1 Rounding radius*
0 $2 $3 $4 $5 $6 $7 $8 $9 X,Y pos of 4 corners*
0 Add a 4 corners polygon primitive as box body*
4,1,4,$2,$3,$4,$5,$6,$7,$8,$9,$2,$3,0*
0 Add four circle primitives for the rounded corners*
1,1,$1+$1,$2,$3*
1,1,$1+$1,$4,$5*
1,1,$1+$1,$6,$7*
1,1,$1+$1,$8,$9*
0 Add four rect primitives between the rounded corners*
20,1,$1+$1,$2,$3,$4,$5,0*
20,1,$1+$1,$4,$5,$6,$7,0*
20,1,$1+$1,$6,$7,$8,$9,0*
20,1,$1+$1,$8,$9,$2,$3,0*%
%AMHorizOval*
0 Thick line with rounded ends*
0 $1 width*
0 $2 $3 position (X,Y) of the first rounded end (center of the circle)*
0 $4 $5 position (X,Y) of the second rounded end (center of the circle)*
0 Add line between two ends*
20,1,$1,$2,$3,$4,$5,0*
0 Add two circle primitives to create the rounded ends*
1,1,$1,$2,$3*
1,1,$1,$4,$5*%
%AMRotRect*
0 Rectangle, with rotation*
0 The origin of the aperture is its center*
0 $1 length*
0 $2 width*
0 $3 Rotation angle, in degrees counterclockwise*
0 Add horizontal line*
21,1,$1,$2,0,0,$3*%
G04 Aperture macros list end*
%ADD10C,0.300000*%
G04 #@! TA.AperFunction,NonConductor*
%ADD11C,0.300000*%
G04 #@! TD*
G04 #@! TA.AperFunction,ComponentPad*
%ADD12RoundRect,0.250000X1.800000X-1.330000X1.800000X1.330000X-1.800000X1.330000X-1.800000X-1.330000X0*%
G04 #@! TD*
G04 #@! TA.AperFunction,ComponentPad*
%ADD13O,4.100000X3.160000*%
G04 #@! TD*
G04 #@! TA.AperFunction,ComponentPad*
%ADD14C,1.200000*%
G04 #@! TD*
G04 #@! TA.AperFunction,ComponentPad*
%ADD15R,1.905000X2.000000*%
G04 #@! TD*
G04 #@! TA.AperFunction,ComponentPad*
%ADD16O,1.905000X2.000000*%
G04 #@! TD*
G04 #@! TA.AperFunction,ComponentPad*
%ADD17R,2.500000X2.500000*%
G04 #@! TD*
G04 #@! TA.AperFunction,ComponentPad*
%ADD18C,2.500000*%
G04 #@! TD*
G04 #@! TA.AperFunction,ComponentPad*
%ADD19C,1.600000*%
G04 #@! TD*
G04 #@! TA.AperFunction,ComponentPad*
%ADD20HorizOval,1.600000X0.000000X0.000000X0.000000X0.000000X0*%
G04 #@! TD*
G04 #@! TA.AperFunction,ComponentPad*
%ADD21R,1.700000X1.700000*%
G04 #@! TD*
G04 #@! TA.AperFunction,ComponentPad*
%ADD22O,1.700000X1.700000*%
G04 #@! TD*
G04 #@! TA.AperFunction,ComponentPad*
%ADD23R,1.524000X1.524000*%
G04 #@! TD*
G04 #@! TA.AperFunction,ComponentPad*
%ADD24C,1.524000*%
G04 #@! TD*
G04 #@! TA.AperFunction,ComponentPad*
%ADD25O,1.740000X2.190000*%
G04 #@! TD*
G04 #@! TA.AperFunction,ComponentPad*
%ADD26RoundRect,0.250000X0.620000X0.845000X-0.620000X0.845000X-0.620000X-0.845000X0.620000X-0.845000X0*%
G04 #@! TD*
G04 #@! TA.AperFunction,ComponentPad*
%ADD27R,1.600000X1.600000*%
G04 #@! TD*
G04 #@! TA.AperFunction,ComponentPad*
%ADD28RotRect,1.600000X1.600000X45.000000*%
G04 #@! TD*
G04 #@! TA.AperFunction,ComponentPad*
%ADD29RoundRect,0.250000X-0.620000X-0.845000X0.620000X-0.845000X0.620000X0.845000X-0.620000X0.845000X0*%
G04 #@! TD*
G04 #@! TA.AperFunction,ViaPad*
%ADD30C,2.000000*%
G04 #@! TD*
G04 #@! TA.AperFunction,Conductor*
%ADD31C,0.800000*%
G04 #@! TD*
G04 APERTURE END LIST*
D10*
D11*
X107354510Y-159400828D02*
X107354510Y-157900828D01*
X107354510Y-157900828D02*
X107854510Y-158972257D01*
X107854510Y-158972257D02*
X108354510Y-157900828D01*
X108354510Y-157900828D02*
X108354510Y-159400828D01*
X108854511Y-157900828D02*
X109711654Y-157900828D01*
X109283082Y-159400828D02*
X109283082Y-157900828D01*
X110211653Y-159400828D02*
X110211653Y-157900828D01*
X110211653Y-157900828D02*
X110783082Y-157900828D01*
X110783082Y-157900828D02*
X110925939Y-157972257D01*
X110925939Y-157972257D02*
X110997368Y-158043685D01*
X110997368Y-158043685D02*
X111068796Y-158186542D01*
X111068796Y-158186542D02*
X111068796Y-158400828D01*
X111068796Y-158400828D02*
X110997368Y-158543685D01*
X110997368Y-158543685D02*
X110925939Y-158615114D01*
X110925939Y-158615114D02*
X110783082Y-158686542D01*
X110783082Y-158686542D02*
X110211653Y-158686542D01*
X112640225Y-158400828D02*
X113211653Y-158400828D01*
X112854510Y-157900828D02*
X112854510Y-159186542D01*
X112854510Y-159186542D02*
X112925939Y-159329400D01*
X112925939Y-159329400D02*
X113068796Y-159400828D01*
X113068796Y-159400828D02*
X113211653Y-159400828D01*
X113711653Y-159400828D02*
X113711653Y-158400828D01*
X113711653Y-158686542D02*
X113783082Y-158543685D01*
X113783082Y-158543685D02*
X113854511Y-158472257D01*
X113854511Y-158472257D02*
X113997368Y-158400828D01*
X113997368Y-158400828D02*
X114140225Y-158400828D01*
X115283082Y-159400828D02*
X115283082Y-158615114D01*
X115283082Y-158615114D02*
X115211653Y-158472257D01*
X115211653Y-158472257D02*
X115068796Y-158400828D01*
X115068796Y-158400828D02*
X114783082Y-158400828D01*
X114783082Y-158400828D02*
X114640224Y-158472257D01*
X115283082Y-159329400D02*
X115140224Y-159400828D01*
X115140224Y-159400828D02*
X114783082Y-159400828D01*
X114783082Y-159400828D02*
X114640224Y-159329400D01*
X114640224Y-159329400D02*
X114568796Y-159186542D01*
X114568796Y-159186542D02*
X114568796Y-159043685D01*
X114568796Y-159043685D02*
X114640224Y-158900828D01*
X114640224Y-158900828D02*
X114783082Y-158829400D01*
X114783082Y-158829400D02*
X115140224Y-158829400D01*
X115140224Y-158829400D02*
X115283082Y-158757971D01*
X115997367Y-158400828D02*
X115997367Y-159400828D01*
X115997367Y-158543685D02*
X116068796Y-158472257D01*
X116068796Y-158472257D02*
X116211653Y-158400828D01*
X116211653Y-158400828D02*
X116425939Y-158400828D01*
X116425939Y-158400828D02*
X116568796Y-158472257D01*
X116568796Y-158472257D02*
X116640225Y-158615114D01*
X116640225Y-158615114D02*
X116640225Y-159400828D01*
X117283082Y-159329400D02*
X117425939Y-159400828D01*
X117425939Y-159400828D02*
X117711653Y-159400828D01*
X117711653Y-159400828D02*
X117854510Y-159329400D01*
X117854510Y-159329400D02*
X117925939Y-159186542D01*
X117925939Y-159186542D02*
X117925939Y-159115114D01*
X117925939Y-159115114D02*
X117854510Y-158972257D01*
X117854510Y-158972257D02*
X117711653Y-158900828D01*
X117711653Y-158900828D02*
X117497368Y-158900828D01*
X117497368Y-158900828D02*
X117354510Y-158829400D01*
X117354510Y-158829400D02*
X117283082Y-158686542D01*
X117283082Y-158686542D02*
X117283082Y-158615114D01*
X117283082Y-158615114D02*
X117354510Y-158472257D01*
X117354510Y-158472257D02*
X117497368Y-158400828D01*
X117497368Y-158400828D02*
X117711653Y-158400828D01*
X117711653Y-158400828D02*
X117854510Y-158472257D01*
X119211654Y-159329400D02*
X119068796Y-159400828D01*
X119068796Y-159400828D02*
X118783082Y-159400828D01*
X118783082Y-159400828D02*
X118640225Y-159329400D01*
X118640225Y-159329400D02*
X118568796Y-159257971D01*
X118568796Y-159257971D02*
X118497368Y-159115114D01*
X118497368Y-159115114D02*
X118497368Y-158686542D01*
X118497368Y-158686542D02*
X118568796Y-158543685D01*
X118568796Y-158543685D02*
X118640225Y-158472257D01*
X118640225Y-158472257D02*
X118783082Y-158400828D01*
X118783082Y-158400828D02*
X119068796Y-158400828D01*
X119068796Y-158400828D02*
X119211654Y-158472257D01*
X120425939Y-159329400D02*
X120283082Y-159400828D01*
X120283082Y-159400828D02*
X119997368Y-159400828D01*
X119997368Y-159400828D02*
X119854510Y-159329400D01*
X119854510Y-159329400D02*
X119783082Y-159186542D01*
X119783082Y-159186542D02*
X119783082Y-158615114D01*
X119783082Y-158615114D02*
X119854510Y-158472257D01*
X119854510Y-158472257D02*
X119997368Y-158400828D01*
X119997368Y-158400828D02*
X120283082Y-158400828D01*
X120283082Y-158400828D02*
X120425939Y-158472257D01*
X120425939Y-158472257D02*
X120497368Y-158615114D01*
X120497368Y-158615114D02*
X120497368Y-158757971D01*
X120497368Y-158757971D02*
X119783082Y-158900828D01*
X121140224Y-159400828D02*
X121140224Y-158400828D01*
X121140224Y-157900828D02*
X121068796Y-157972257D01*
X121068796Y-157972257D02*
X121140224Y-158043685D01*
X121140224Y-158043685D02*
X121211653Y-157972257D01*
X121211653Y-157972257D02*
X121140224Y-157900828D01*
X121140224Y-157900828D02*
X121140224Y-158043685D01*
X121711653Y-158400828D02*
X122068796Y-159400828D01*
X122068796Y-159400828D02*
X122425939Y-158400828D01*
X123568796Y-159329400D02*
X123425939Y-159400828D01*
X123425939Y-159400828D02*
X123140225Y-159400828D01*
X123140225Y-159400828D02*
X122997367Y-159329400D01*
X122997367Y-159329400D02*
X122925939Y-159186542D01*
X122925939Y-159186542D02*
X122925939Y-158615114D01*
X122925939Y-158615114D02*
X122997367Y-158472257D01*
X122997367Y-158472257D02*
X123140225Y-158400828D01*
X123140225Y-158400828D02*
X123425939Y-158400828D01*
X123425939Y-158400828D02*
X123568796Y-158472257D01*
X123568796Y-158472257D02*
X123640225Y-158615114D01*
X123640225Y-158615114D02*
X123640225Y-158757971D01*
X123640225Y-158757971D02*
X122925939Y-158900828D01*
X124283081Y-159400828D02*
X124283081Y-158400828D01*
X124283081Y-158686542D02*
X124354510Y-158543685D01*
X124354510Y-158543685D02*
X124425939Y-158472257D01*
X124425939Y-158472257D02*
X124568796Y-158400828D01*
X124568796Y-158400828D02*
X124711653Y-158400828D01*
X126354509Y-158400828D02*
X126354509Y-159900828D01*
X126354509Y-158472257D02*
X126497367Y-158400828D01*
X126497367Y-158400828D02*
X126783081Y-158400828D01*
X126783081Y-158400828D02*
X126925938Y-158472257D01*
X126925938Y-158472257D02*
X126997367Y-158543685D01*
X126997367Y-158543685D02*
X127068795Y-158686542D01*
X127068795Y-158686542D02*
X127068795Y-159115114D01*
X127068795Y-159115114D02*
X126997367Y-159257971D01*
X126997367Y-159257971D02*
X126925938Y-159329400D01*
X126925938Y-159329400D02*
X126783081Y-159400828D01*
X126783081Y-159400828D02*
X126497367Y-159400828D01*
X126497367Y-159400828D02*
X126354509Y-159329400D01*
X127711652Y-159400828D02*
X127711652Y-158400828D01*
X127711652Y-158686542D02*
X127783081Y-158543685D01*
X127783081Y-158543685D02*
X127854510Y-158472257D01*
X127854510Y-158472257D02*
X127997367Y-158400828D01*
X127997367Y-158400828D02*
X128140224Y-158400828D01*
X128854509Y-159400828D02*
X128711652Y-159329400D01*
X128711652Y-159329400D02*
X128640223Y-159257971D01*
X128640223Y-159257971D02*
X128568795Y-159115114D01*
X128568795Y-159115114D02*
X128568795Y-158686542D01*
X128568795Y-158686542D02*
X128640223Y-158543685D01*
X128640223Y-158543685D02*
X128711652Y-158472257D01*
X128711652Y-158472257D02*
X128854509Y-158400828D01*
X128854509Y-158400828D02*
X129068795Y-158400828D01*
X129068795Y-158400828D02*
X129211652Y-158472257D01*
X129211652Y-158472257D02*
X129283081Y-158543685D01*
X129283081Y-158543685D02*
X129354509Y-158686542D01*
X129354509Y-158686542D02*
X129354509Y-159115114D01*
X129354509Y-159115114D02*
X129283081Y-159257971D01*
X129283081Y-159257971D02*
X129211652Y-159329400D01*
X129211652Y-159329400D02*
X129068795Y-159400828D01*
X129068795Y-159400828D02*
X128854509Y-159400828D01*
X129997366Y-158400828D02*
X129997366Y-159686542D01*
X129997366Y-159686542D02*
X129925938Y-159829400D01*
X129925938Y-159829400D02*
X129783081Y-159900828D01*
X129783081Y-159900828D02*
X129711652Y-159900828D01*
X129997366Y-157900828D02*
X129925938Y-157972257D01*
X129925938Y-157972257D02*
X129997366Y-158043685D01*
X129997366Y-158043685D02*
X130068795Y-157972257D01*
X130068795Y-157972257D02*
X129997366Y-157900828D01*
X129997366Y-157900828D02*
X129997366Y-158043685D01*
X131283081Y-159329400D02*
X131140224Y-159400828D01*
X131140224Y-159400828D02*
X130854510Y-159400828D01*
X130854510Y-159400828D02*
X130711652Y-159329400D01*
X130711652Y-159329400D02*
X130640224Y-159186542D01*
X130640224Y-159186542D02*
X130640224Y-158615114D01*
X130640224Y-158615114D02*
X130711652Y-158472257D01*
X130711652Y-158472257D02*
X130854510Y-158400828D01*
X130854510Y-158400828D02*
X131140224Y-158400828D01*
X131140224Y-158400828D02*
X131283081Y-158472257D01*
X131283081Y-158472257D02*
X131354510Y-158615114D01*
X131354510Y-158615114D02*
X131354510Y-158757971D01*
X131354510Y-158757971D02*
X130640224Y-158900828D01*
X132640224Y-159329400D02*
X132497366Y-159400828D01*
X132497366Y-159400828D02*
X132211652Y-159400828D01*
X132211652Y-159400828D02*
X132068795Y-159329400D01*
X132068795Y-159329400D02*
X131997366Y-159257971D01*
X131997366Y-159257971D02*
X131925938Y-159115114D01*
X131925938Y-159115114D02*
X131925938Y-158686542D01*
X131925938Y-158686542D02*
X131997366Y-158543685D01*
X131997366Y-158543685D02*
X132068795Y-158472257D01*
X132068795Y-158472257D02*
X132211652Y-158400828D01*
X132211652Y-158400828D02*
X132497366Y-158400828D01*
X132497366Y-158400828D02*
X132640224Y-158472257D01*
X133068795Y-158400828D02*
X133640223Y-158400828D01*
X133283080Y-157900828D02*
X133283080Y-159186542D01*
X133283080Y-159186542D02*
X133354509Y-159329400D01*
X133354509Y-159329400D02*
X133497366Y-159400828D01*
X133497366Y-159400828D02*
X133640223Y-159400828D01*
X135068795Y-157900828D02*
X135925938Y-157900828D01*
X135497366Y-159400828D02*
X135497366Y-157900828D01*
X136425937Y-158615114D02*
X136925937Y-158615114D01*
X137140223Y-159400828D02*
X136425937Y-159400828D01*
X136425937Y-159400828D02*
X136425937Y-157900828D01*
X136425937Y-157900828D02*
X137140223Y-157900828D01*
X137711652Y-158972257D02*
X138425938Y-158972257D01*
X137568795Y-159400828D02*
X138068795Y-157900828D01*
X138068795Y-157900828D02*
X138568795Y-159400828D01*
X139068794Y-159400828D02*
X139068794Y-157900828D01*
X139068794Y-157900828D02*
X139568794Y-158972257D01*
X139568794Y-158972257D02*
X140068794Y-157900828D01*
X140068794Y-157900828D02*
X140068794Y-159400828D01*
X141854509Y-158972257D02*
X142568795Y-158972257D01*
X141711652Y-159400828D02*
X142211652Y-157900828D01*
X142211652Y-157900828D02*
X142711652Y-159400828D01*
D10*
D11*
X173600828Y-200045489D02*
X172100828Y-200045489D01*
X172100828Y-200045489D02*
X173172257Y-199545489D01*
X173172257Y-199545489D02*
X172100828Y-199045489D01*
X172100828Y-199045489D02*
X173600828Y-199045489D01*
X172100828Y-198545488D02*
X172100828Y-197688346D01*
X173600828Y-198116917D02*
X172100828Y-198116917D01*
X173600828Y-197188346D02*
X172100828Y-197188346D01*
X172100828Y-197188346D02*
X172100828Y-196616917D01*
X172100828Y-196616917D02*
X172172257Y-196474060D01*
X172172257Y-196474060D02*
X172243685Y-196402631D01*
X172243685Y-196402631D02*
X172386542Y-196331203D01*
X172386542Y-196331203D02*
X172600828Y-196331203D01*
X172600828Y-196331203D02*
X172743685Y-196402631D01*
X172743685Y-196402631D02*
X172815114Y-196474060D01*
X172815114Y-196474060D02*
X172886542Y-196616917D01*
X172886542Y-196616917D02*
X172886542Y-197188346D01*
X172600828Y-194759774D02*
X172600828Y-194188346D01*
X172100828Y-194545489D02*
X173386542Y-194545489D01*
X173386542Y-194545489D02*
X173529400Y-194474060D01*
X173529400Y-194474060D02*
X173600828Y-194331203D01*
X173600828Y-194331203D02*
X173600828Y-194188346D01*
X173600828Y-193688346D02*
X172600828Y-193688346D01*
X172886542Y-193688346D02*
X172743685Y-193616917D01*
X172743685Y-193616917D02*
X172672257Y-193545489D01*
X172672257Y-193545489D02*
X172600828Y-193402631D01*
X172600828Y-193402631D02*
X172600828Y-193259774D01*
X173600828Y-192116918D02*
X172815114Y-192116918D01*
X172815114Y-192116918D02*
X172672257Y-192188346D01*
X172672257Y-192188346D02*
X172600828Y-192331203D01*
X172600828Y-192331203D02*
X172600828Y-192616918D01*
X172600828Y-192616918D02*
X172672257Y-192759775D01*
X173529400Y-192116918D02*
X173600828Y-192259775D01*
X173600828Y-192259775D02*
X173600828Y-192616918D01*
X173600828Y-192616918D02*
X173529400Y-192759775D01*
X173529400Y-192759775D02*
X173386542Y-192831203D01*
X173386542Y-192831203D02*
X173243685Y-192831203D01*
X173243685Y-192831203D02*
X173100828Y-192759775D01*
X173100828Y-192759775D02*
X173029400Y-192616918D01*
X173029400Y-192616918D02*
X173029400Y-192259775D01*
X173029400Y-192259775D02*
X172957971Y-192116918D01*
X172600828Y-191402632D02*
X173600828Y-191402632D01*
X172743685Y-191402632D02*
X172672257Y-191331203D01*
X172672257Y-191331203D02*
X172600828Y-191188346D01*
X172600828Y-191188346D02*
X172600828Y-190974060D01*
X172600828Y-190974060D02*
X172672257Y-190831203D01*
X172672257Y-190831203D02*
X172815114Y-190759775D01*
X172815114Y-190759775D02*
X173600828Y-190759775D01*
X173529400Y-190116917D02*
X173600828Y-189974060D01*
X173600828Y-189974060D02*
X173600828Y-189688346D01*
X173600828Y-189688346D02*
X173529400Y-189545489D01*
X173529400Y-189545489D02*
X173386542Y-189474060D01*
X173386542Y-189474060D02*
X173315114Y-189474060D01*
X173315114Y-189474060D02*
X173172257Y-189545489D01*
X173172257Y-189545489D02*
X173100828Y-189688346D01*
X173100828Y-189688346D02*
X173100828Y-189902632D01*
X173100828Y-189902632D02*
X173029400Y-190045489D01*
X173029400Y-190045489D02*
X172886542Y-190116917D01*
X172886542Y-190116917D02*
X172815114Y-190116917D01*
X172815114Y-190116917D02*
X172672257Y-190045489D01*
X172672257Y-190045489D02*
X172600828Y-189902632D01*
X172600828Y-189902632D02*
X172600828Y-189688346D01*
X172600828Y-189688346D02*
X172672257Y-189545489D01*
X173529400Y-188188346D02*
X173600828Y-188331203D01*
X173600828Y-188331203D02*
X173600828Y-188616917D01*
X173600828Y-188616917D02*
X173529400Y-188759774D01*
X173529400Y-188759774D02*
X173457971Y-188831203D01*
X173457971Y-188831203D02*
X173315114Y-188902631D01*
X173315114Y-188902631D02*
X172886542Y-188902631D01*
X172886542Y-188902631D02*
X172743685Y-188831203D01*
X172743685Y-188831203D02*
X172672257Y-188759774D01*
X172672257Y-188759774D02*
X172600828Y-188616917D01*
X172600828Y-188616917D02*
X172600828Y-188331203D01*
X172600828Y-188331203D02*
X172672257Y-188188346D01*
X173529400Y-186974060D02*
X173600828Y-187116917D01*
X173600828Y-187116917D02*
X173600828Y-187402632D01*
X173600828Y-187402632D02*
X173529400Y-187545489D01*
X173529400Y-187545489D02*
X173386542Y-187616917D01*
X173386542Y-187616917D02*
X172815114Y-187616917D01*
X172815114Y-187616917D02*
X172672257Y-187545489D01*
X172672257Y-187545489D02*
X172600828Y-187402632D01*
X172600828Y-187402632D02*
X172600828Y-187116917D01*
X172600828Y-187116917D02*
X172672257Y-186974060D01*
X172672257Y-186974060D02*
X172815114Y-186902632D01*
X172815114Y-186902632D02*
X172957971Y-186902632D01*
X172957971Y-186902632D02*
X173100828Y-187616917D01*
X173600828Y-186259775D02*
X172600828Y-186259775D01*
X172100828Y-186259775D02*
X172172257Y-186331203D01*
X172172257Y-186331203D02*
X172243685Y-186259775D01*
X172243685Y-186259775D02*
X172172257Y-186188346D01*
X172172257Y-186188346D02*
X172100828Y-186259775D01*
X172100828Y-186259775D02*
X172243685Y-186259775D01*
X172600828Y-185688346D02*
X173600828Y-185331203D01*
X173600828Y-185331203D02*
X172600828Y-184974060D01*
X173529400Y-183831203D02*
X173600828Y-183974060D01*
X173600828Y-183974060D02*
X173600828Y-184259775D01*
X173600828Y-184259775D02*
X173529400Y-184402632D01*
X173529400Y-184402632D02*
X173386542Y-184474060D01*
X173386542Y-184474060D02*
X172815114Y-184474060D01*
X172815114Y-184474060D02*
X172672257Y-184402632D01*
X172672257Y-184402632D02*
X172600828Y-184259775D01*
X172600828Y-184259775D02*
X172600828Y-183974060D01*
X172600828Y-183974060D02*
X172672257Y-183831203D01*
X172672257Y-183831203D02*
X172815114Y-183759775D01*
X172815114Y-183759775D02*
X172957971Y-183759775D01*
X172957971Y-183759775D02*
X173100828Y-184474060D01*
X173600828Y-183116918D02*
X172600828Y-183116918D01*
X172886542Y-183116918D02*
X172743685Y-183045489D01*
X172743685Y-183045489D02*
X172672257Y-182974061D01*
X172672257Y-182974061D02*
X172600828Y-182831203D01*
X172600828Y-182831203D02*
X172600828Y-182688346D01*
X172600828Y-181045490D02*
X174100828Y-181045490D01*
X172672257Y-181045490D02*
X172600828Y-180902633D01*
X172600828Y-180902633D02*
X172600828Y-180616918D01*
X172600828Y-180616918D02*
X172672257Y-180474061D01*
X172672257Y-180474061D02*
X172743685Y-180402633D01*
X172743685Y-180402633D02*
X172886542Y-180331204D01*
X172886542Y-180331204D02*
X173315114Y-180331204D01*
X173315114Y-180331204D02*
X173457971Y-180402633D01*
X173457971Y-180402633D02*
X173529400Y-180474061D01*
X173529400Y-180474061D02*
X173600828Y-180616918D01*
X173600828Y-180616918D02*
X173600828Y-180902633D01*
X173600828Y-180902633D02*
X173529400Y-181045490D01*
X173600828Y-179688347D02*
X172600828Y-179688347D01*
X172886542Y-179688347D02*
X172743685Y-179616918D01*
X172743685Y-179616918D02*
X172672257Y-179545490D01*
X172672257Y-179545490D02*
X172600828Y-179402632D01*
X172600828Y-179402632D02*
X172600828Y-179259775D01*
X173600828Y-178545490D02*
X173529400Y-178688347D01*
X173529400Y-178688347D02*
X173457971Y-178759776D01*
X173457971Y-178759776D02*
X173315114Y-178831204D01*
X173315114Y-178831204D02*
X172886542Y-178831204D01*
X172886542Y-178831204D02*
X172743685Y-178759776D01*
X172743685Y-178759776D02*
X172672257Y-178688347D01*
X172672257Y-178688347D02*
X172600828Y-178545490D01*
X172600828Y-178545490D02*
X172600828Y-178331204D01*
X172600828Y-178331204D02*
X172672257Y-178188347D01*
X172672257Y-178188347D02*
X172743685Y-178116919D01*
X172743685Y-178116919D02*
X172886542Y-178045490D01*
X172886542Y-178045490D02*
X173315114Y-178045490D01*
X173315114Y-178045490D02*
X173457971Y-178116919D01*
X173457971Y-178116919D02*
X173529400Y-178188347D01*
X173529400Y-178188347D02*
X173600828Y-178331204D01*
X173600828Y-178331204D02*
X173600828Y-178545490D01*
X172600828Y-177402633D02*
X173886542Y-177402633D01*
X173886542Y-177402633D02*
X174029400Y-177474061D01*
X174029400Y-177474061D02*
X174100828Y-177616918D01*
X174100828Y-177616918D02*
X174100828Y-177688347D01*
X172100828Y-177402633D02*
X172172257Y-177474061D01*
X172172257Y-177474061D02*
X172243685Y-177402633D01*
X172243685Y-177402633D02*
X172172257Y-177331204D01*
X172172257Y-177331204D02*
X172100828Y-177402633D01*
X172100828Y-177402633D02*
X172243685Y-177402633D01*
X173529400Y-176116918D02*
X173600828Y-176259775D01*
X173600828Y-176259775D02*
X173600828Y-176545490D01*
X173600828Y-176545490D02*
X173529400Y-176688347D01*
X173529400Y-176688347D02*
X173386542Y-176759775D01*
X173386542Y-176759775D02*
X172815114Y-176759775D01*
X172815114Y-176759775D02*
X172672257Y-176688347D01*
X172672257Y-176688347D02*
X172600828Y-176545490D01*
X172600828Y-176545490D02*
X172600828Y-176259775D01*
X172600828Y-176259775D02*
X172672257Y-176116918D01*
X172672257Y-176116918D02*
X172815114Y-176045490D01*
X172815114Y-176045490D02*
X172957971Y-176045490D01*
X172957971Y-176045490D02*
X173100828Y-176759775D01*
X173529400Y-174759776D02*
X173600828Y-174902633D01*
X173600828Y-174902633D02*
X173600828Y-175188347D01*
X173600828Y-175188347D02*
X173529400Y-175331204D01*
X173529400Y-175331204D02*
X173457971Y-175402633D01*
X173457971Y-175402633D02*
X173315114Y-175474061D01*
X173315114Y-175474061D02*
X172886542Y-175474061D01*
X172886542Y-175474061D02*
X172743685Y-175402633D01*
X172743685Y-175402633D02*
X172672257Y-175331204D01*
X172672257Y-175331204D02*
X172600828Y-175188347D01*
X172600828Y-175188347D02*
X172600828Y-174902633D01*
X172600828Y-174902633D02*
X172672257Y-174759776D01*
X172600828Y-174331204D02*
X172600828Y-173759776D01*
X172100828Y-174116919D02*
X173386542Y-174116919D01*
X173386542Y-174116919D02*
X173529400Y-174045490D01*
X173529400Y-174045490D02*
X173600828Y-173902633D01*
X173600828Y-173902633D02*
X173600828Y-173759776D01*
X172100828Y-172331204D02*
X172100828Y-171474062D01*
X173600828Y-171902633D02*
X172100828Y-171902633D01*
X172815114Y-170974062D02*
X172815114Y-170474062D01*
X173600828Y-170259776D02*
X173600828Y-170974062D01*
X173600828Y-170974062D02*
X172100828Y-170974062D01*
X172100828Y-170974062D02*
X172100828Y-170259776D01*
X173172257Y-169688347D02*
X173172257Y-168974062D01*
X173600828Y-169831204D02*
X172100828Y-169331204D01*
X172100828Y-169331204D02*
X173600828Y-168831204D01*
X173600828Y-168331205D02*
X172100828Y-168331205D01*
X172100828Y-168331205D02*
X173172257Y-167831205D01*
X173172257Y-167831205D02*
X172100828Y-167331205D01*
X172100828Y-167331205D02*
X173600828Y-167331205D01*
X173172257Y-165545490D02*
X173172257Y-164831205D01*
X173600828Y-165688347D02*
X172100828Y-165188347D01*
X172100828Y-165188347D02*
X173600828Y-164688347D01*
D12*
X94755000Y-191440000D03*
D13*
X94755000Y-187480000D03*
X94755000Y-183520000D03*
X94755000Y-179560000D03*
D14*
X153200000Y-151100000D03*
X153200000Y-149600000D03*
D15*
X140160000Y-153645000D03*
D16*
X142700000Y-153645000D03*
X145240000Y-153645000D03*
D17*
X171200000Y-146455000D03*
D18*
X171200000Y-151535000D03*
D19*
X123885192Y-182809872D03*
D20*
X114904936Y-191790128D03*
D14*
X133400000Y-155950000D03*
X133400000Y-154450000D03*
D21*
X102775000Y-175290000D03*
D22*
X102775000Y-172750000D03*
X105315000Y-175290000D03*
X105315000Y-172750000D03*
X107855000Y-175290000D03*
X107855000Y-172750000D03*
X110395000Y-175290000D03*
X110395000Y-172750000D03*
X112935000Y-175290000D03*
X112935000Y-172750000D03*
X115475000Y-175290000D03*
X115475000Y-172750000D03*
X118015000Y-175290000D03*
X118015000Y-172750000D03*
X120555000Y-175290000D03*
X120555000Y-172750000D03*
X123095000Y-175290000D03*
X123095000Y-172750000D03*
X125635000Y-175290000D03*
X125635000Y-172750000D03*
X128175000Y-175290000D03*
X128175000Y-172750000D03*
X130715000Y-175290000D03*
X130715000Y-172750000D03*
X133255000Y-175290000D03*
X133255000Y-172750000D03*
X135795000Y-175290000D03*
X135795000Y-172750000D03*
X138335000Y-175290000D03*
X138335000Y-172750000D03*
X140875000Y-175290000D03*
X140875000Y-172750000D03*
X143415000Y-175290000D03*
X143415000Y-172750000D03*
X145955000Y-175290000D03*
X145955000Y-172750000D03*
X148495000Y-175290000D03*
X148495000Y-172750000D03*
X151035000Y-175290000D03*
X151035000Y-172750000D03*
D21*
X102999064Y-135057077D03*
D22*
X102999064Y-132517077D03*
X105539064Y-135057077D03*
X105539064Y-132517077D03*
X108079064Y-135057077D03*
X108079064Y-132517077D03*
X110619064Y-135057077D03*
X110619064Y-132517077D03*
X113159064Y-135057077D03*
X113159064Y-132517077D03*
X115699064Y-135057077D03*
X115699064Y-132517077D03*
X118239064Y-135057077D03*
X118239064Y-132517077D03*
X120779064Y-135057077D03*
X120779064Y-132517077D03*
X123319064Y-135057077D03*
X123319064Y-132517077D03*
X125859064Y-135057077D03*
X125859064Y-132517077D03*
X128399064Y-135057077D03*
X128399064Y-132517077D03*
X130939064Y-135057077D03*
X130939064Y-132517077D03*
X133479064Y-135057077D03*
X133479064Y-132517077D03*
X136019064Y-135057077D03*
X136019064Y-132517077D03*
X138559064Y-135057077D03*
X138559064Y-132517077D03*
X141099064Y-135057077D03*
X141099064Y-132517077D03*
X143639064Y-135057077D03*
X143639064Y-132517077D03*
X146179064Y-135057077D03*
X146179064Y-132517077D03*
X148719064Y-135057077D03*
X148719064Y-132517077D03*
X151259064Y-135057077D03*
X151259064Y-132517077D03*
D19*
X134590128Y-182809872D03*
D20*
X125609872Y-191790128D03*
D23*
X124187500Y-149212500D03*
D24*
X121647600Y-149212500D03*
X124187500Y-146672500D03*
X121647600Y-146672500D03*
X124187500Y-144132500D03*
X121647600Y-144132500D03*
X124187500Y-141592500D03*
X121647600Y-141592500D03*
X88087500Y-151812500D03*
X88087500Y-139012500D03*
D25*
X136020000Y-197700000D03*
X138560000Y-197700000D03*
X141100000Y-197700000D03*
D26*
X143640000Y-197700000D03*
D19*
X118532724Y-182809872D03*
D20*
X109552468Y-191790128D03*
D19*
X129237660Y-182809872D03*
D20*
X120257404Y-191790128D03*
X140309872Y-191990128D03*
D19*
X149290128Y-183009872D03*
X160000000Y-148105113D03*
D27*
X160000000Y-150605113D03*
D19*
X143680256Y-183019744D03*
D20*
X134700000Y-192000000D03*
D28*
X128832233Y-151167767D03*
D19*
X130600000Y-149400000D03*
D20*
X104200000Y-191790128D03*
D19*
X113180256Y-182809872D03*
D29*
X104440000Y-197500000D03*
D25*
X106980000Y-197500000D03*
X109520000Y-197500000D03*
X112060000Y-197500000D03*
X114600000Y-197500000D03*
X117140000Y-197500000D03*
X119680000Y-197500000D03*
X122220000Y-197500000D03*
D30*
X113300000Y-178500000D03*
X100400000Y-181500000D03*
X129600000Y-169300000D03*
X138400000Y-169300000D03*
X144300000Y-169300000D03*
X166400000Y-165600000D03*
X168900000Y-167200000D03*
X123100000Y-167200000D03*
X120600000Y-165600000D03*
X100200000Y-178400000D03*
X108200000Y-140500000D03*
X115700000Y-140000000D03*
X133900000Y-140100000D03*
X125100000Y-126900000D03*
X135000000Y-129300000D03*
X110400000Y-178400000D03*
D31*
X110300000Y-181500000D02*
X113300000Y-178500000D01*
X100400000Y-181500000D02*
X110300000Y-181500000D01*
X100200000Y-178400000D02*
X110400000Y-178400000D01*
X138400000Y-169300000D02*
X129600000Y-169300000D01*
X144300000Y-169300000D02*
X138400000Y-169300000D01*
X123100000Y-167200000D02*
X168900000Y-167200000D01*
X120600000Y-165600000D02*
X166400000Y-165600000D01*
X96200000Y-140500000D02*
X108200000Y-140500000D01*
X93600000Y-137900000D02*
X96200000Y-140500000D01*
X93600000Y-132000000D02*
X93600000Y-137900000D01*
X94900000Y-130700000D02*
X93600000Y-132000000D01*
X94900000Y-128200000D02*
X94900000Y-130700000D01*
X97500000Y-125600000D02*
X94900000Y-128200000D01*
X122000000Y-125600000D02*
X97500000Y-125600000D01*
X123300000Y-126900000D02*
X122000000Y-125600000D01*
X125100000Y-126900000D02*
X123300000Y-126900000D01*
X125100000Y-137500000D02*
X118200000Y-137500000D01*
X118200000Y-137500000D02*
X115700000Y-140000000D01*
X126600000Y-139000000D02*
X125100000Y-137500000D01*
X133900000Y-140100000D02*
X132800000Y-139000000D01*
X132800000Y-139000000D02*
X126600000Y-139000000D01*
X129300000Y-126900000D02*
X125100000Y-126900000D01*
X131700000Y-129300000D02*
X129300000Y-126900000D01*
X135000000Y-129300000D02*
X131700000Y-129300000D01*
M02*
