G04 #@! TF.GenerationSoftware,KiCad,Pcbnew,8.0.5*
G04 #@! TF.CreationDate,2024-11-04T11:20:59+01:00*
G04 #@! TF.ProjectId,raspberry_pi_hat,72617370-6265-4727-9279-5f70695f6861,rev?*
G04 #@! TF.SameCoordinates,Original*
G04 #@! TF.FileFunction,Legend,Bot*
G04 #@! TF.FilePolarity,Positive*
%FSLAX46Y46*%
G04 Gerber Fmt 4.6, Leading zero omitted, Abs format (unit mm)*
G04 Created by KiCad (PCBNEW 8.0.5) date 2024-11-04 11:20:59*
%MOMM*%
%LPD*%
G01*
G04 APERTURE LIST*
%ADD10C,0.150000*%
%ADD11C,0.120000*%
G04 APERTURE END LIST*
D10*
X156354819Y-147833333D02*
X155878628Y-147500000D01*
X156354819Y-147261905D02*
X155354819Y-147261905D01*
X155354819Y-147261905D02*
X155354819Y-147642857D01*
X155354819Y-147642857D02*
X155402438Y-147738095D01*
X155402438Y-147738095D02*
X155450057Y-147785714D01*
X155450057Y-147785714D02*
X155545295Y-147833333D01*
X155545295Y-147833333D02*
X155688152Y-147833333D01*
X155688152Y-147833333D02*
X155783390Y-147785714D01*
X155783390Y-147785714D02*
X155831009Y-147738095D01*
X155831009Y-147738095D02*
X155878628Y-147642857D01*
X155878628Y-147642857D02*
X155878628Y-147261905D01*
X156354819Y-148785714D02*
X156354819Y-148214286D01*
X156354819Y-148500000D02*
X155354819Y-148500000D01*
X155354819Y-148500000D02*
X155497676Y-148404762D01*
X155497676Y-148404762D02*
X155592914Y-148309524D01*
X155592914Y-148309524D02*
X155640533Y-148214286D01*
X152054819Y-145833333D02*
X151578628Y-145500000D01*
X152054819Y-145261905D02*
X151054819Y-145261905D01*
X151054819Y-145261905D02*
X151054819Y-145642857D01*
X151054819Y-145642857D02*
X151102438Y-145738095D01*
X151102438Y-145738095D02*
X151150057Y-145785714D01*
X151150057Y-145785714D02*
X151245295Y-145833333D01*
X151245295Y-145833333D02*
X151388152Y-145833333D01*
X151388152Y-145833333D02*
X151483390Y-145785714D01*
X151483390Y-145785714D02*
X151531009Y-145738095D01*
X151531009Y-145738095D02*
X151578628Y-145642857D01*
X151578628Y-145642857D02*
X151578628Y-145261905D01*
X151150057Y-146214286D02*
X151102438Y-146261905D01*
X151102438Y-146261905D02*
X151054819Y-146357143D01*
X151054819Y-146357143D02*
X151054819Y-146595238D01*
X151054819Y-146595238D02*
X151102438Y-146690476D01*
X151102438Y-146690476D02*
X151150057Y-146738095D01*
X151150057Y-146738095D02*
X151245295Y-146785714D01*
X151245295Y-146785714D02*
X151340533Y-146785714D01*
X151340533Y-146785714D02*
X151483390Y-146738095D01*
X151483390Y-146738095D02*
X152054819Y-146166667D01*
X152054819Y-146166667D02*
X152054819Y-146785714D01*
D11*
X115075000Y-152860000D02*
X115010660Y-110269340D01*
X118070660Y-107209340D02*
X207519340Y-107080660D01*
X118135000Y-155920000D02*
X207545000Y-155870000D01*
X126684999Y-117394999D02*
X126684999Y-114794999D01*
X126684999Y-119994999D02*
X126684999Y-118664999D01*
X128014999Y-119994999D02*
X126684999Y-119994999D01*
X129284999Y-117394999D02*
X126684999Y-117394999D01*
X129284999Y-119994999D02*
X129284999Y-117394999D01*
X177604999Y-114794999D02*
X126684999Y-114794999D01*
X177604999Y-119994999D02*
X129284999Y-119994999D01*
X177604999Y-119994999D02*
X177604999Y-114794999D01*
X210605000Y-110155000D02*
X210605000Y-152810000D01*
X115010660Y-110269340D02*
G75*
G02*
X118070660Y-107209340I3059999J1D01*
G01*
X118135000Y-155920000D02*
G75*
G02*
X115075000Y-152860000I0J3060000D01*
G01*
X207545000Y-107095000D02*
G75*
G02*
X210605000Y-110155000I1J-3059999D01*
G01*
X210605000Y-152810000D02*
G75*
G02*
X207545000Y-155870000I-3060000J0D01*
G01*
X154080000Y-140380000D02*
X154080000Y-149620000D01*
X154080000Y-149620000D02*
X157520000Y-149620000D01*
X155800000Y-140380000D02*
X155800000Y-139690000D01*
X155800000Y-149620000D02*
X155800000Y-150310000D01*
X157520000Y-140380000D02*
X154080000Y-140380000D01*
X157520000Y-149620000D02*
X157520000Y-140380000D01*
X149780000Y-138080000D02*
X149780000Y-147320000D01*
X149780000Y-147320000D02*
X153220000Y-147320000D01*
X151500000Y-138080000D02*
X151500000Y-137390000D01*
X151500000Y-147320000D02*
X151500000Y-148010000D01*
X153220000Y-138080000D02*
X149780000Y-138080000D01*
X153220000Y-147320000D02*
X153220000Y-138080000D01*
M02*
