G04 #@! TF.GenerationSoftware,KiCad,Pcbnew,8.0.5*
G04 #@! TF.CreationDate,2024-11-04T11:20:59+01:00*
G04 #@! TF.ProjectId,raspberry_pi_hat,72617370-6265-4727-9279-5f70695f6861,rev?*
G04 #@! TF.SameCoordinates,Original*
G04 #@! TF.FileFunction,Copper,L1,Top*
G04 #@! TF.FilePolarity,Positive*
%FSLAX46Y46*%
G04 Gerber Fmt 4.6, Leading zero omitted, Abs format (unit mm)*
G04 Created by KiCad (PCBNEW 8.0.5) date 2024-11-04 11:20:59*
%MOMM*%
%LPD*%
G01*
G04 APERTURE LIST*
G04 Aperture macros list*
%AMRoundRect*
0 Rectangle with rounded corners*
0 $1 Rounding radius*
0 $2 $3 $4 $5 $6 $7 $8 $9 X,Y pos of 4 corners*
0 Add a 4 corners polygon primitive as box body*
4,1,4,$2,$3,$4,$5,$6,$7,$8,$9,$2,$3,0*
0 Add four circle primitives for the rounded corners*
1,1,$1+$1,$2,$3*
1,1,$1+$1,$4,$5*
1,1,$1+$1,$6,$7*
1,1,$1+$1,$8,$9*
0 Add four rect primitives between the rounded corners*
20,1,$1+$1,$2,$3,$4,$5,0*
20,1,$1+$1,$4,$5,$6,$7,0*
20,1,$1+$1,$6,$7,$8,$9,0*
20,1,$1+$1,$8,$9,$2,$3,0*%
G04 Aperture macros list end*
%ADD10C,0.375000*%
G04 #@! TA.AperFunction,NonConductor*
%ADD11C,0.375000*%
G04 #@! TD*
G04 #@! TA.AperFunction,ComponentPad*
%ADD12C,1.200000*%
G04 #@! TD*
G04 #@! TA.AperFunction,ComponentPad*
%ADD13R,1.700000X1.700000*%
G04 #@! TD*
G04 #@! TA.AperFunction,ComponentPad*
%ADD14O,1.700000X1.700000*%
G04 #@! TD*
G04 #@! TA.AperFunction,ComponentPad*
%ADD15R,1.600000X1.600000*%
G04 #@! TD*
G04 #@! TA.AperFunction,ComponentPad*
%ADD16C,1.600000*%
G04 #@! TD*
G04 #@! TA.AperFunction,ComponentPad*
%ADD17R,2.000000X1.905000*%
G04 #@! TD*
G04 #@! TA.AperFunction,ComponentPad*
%ADD18O,2.000000X1.905000*%
G04 #@! TD*
G04 #@! TA.AperFunction,ComponentPad*
%ADD19O,1.600000X1.600000*%
G04 #@! TD*
G04 #@! TA.AperFunction,ComponentPad*
%ADD20R,1.524000X1.524000*%
G04 #@! TD*
G04 #@! TA.AperFunction,ComponentPad*
%ADD21C,1.524000*%
G04 #@! TD*
G04 #@! TA.AperFunction,ComponentPad*
%ADD22O,2.190000X1.740000*%
G04 #@! TD*
G04 #@! TA.AperFunction,ComponentPad*
%ADD23RoundRect,0.250000X-0.845000X0.620000X-0.845000X-0.620000X0.845000X-0.620000X0.845000X0.620000X0*%
G04 #@! TD*
G04 #@! TA.AperFunction,ComponentPad*
%ADD24R,2.500000X2.500000*%
G04 #@! TD*
G04 #@! TA.AperFunction,ComponentPad*
%ADD25C,2.500000*%
G04 #@! TD*
G04 #@! TA.AperFunction,ComponentPad*
%ADD26RoundRect,0.250000X0.845000X-0.620000X0.845000X0.620000X-0.845000X0.620000X-0.845000X-0.620000X0*%
G04 #@! TD*
G04 #@! TA.AperFunction,ComponentPad*
%ADD27RoundRect,0.250000X0.620000X0.845000X-0.620000X0.845000X-0.620000X-0.845000X0.620000X-0.845000X0*%
G04 #@! TD*
G04 #@! TA.AperFunction,ComponentPad*
%ADD28O,1.740000X2.190000*%
G04 #@! TD*
G04 #@! TA.AperFunction,ViaPad*
%ADD29C,2.000000*%
G04 #@! TD*
G04 #@! TA.AperFunction,Conductor*
%ADD30C,1.000000*%
G04 #@! TD*
G04 APERTURE END LIST*
D10*
D11*
X180353852Y-136046928D02*
X180353852Y-134546928D01*
X180353852Y-134546928D02*
X180853852Y-135618357D01*
X180853852Y-135618357D02*
X181353852Y-134546928D01*
X181353852Y-134546928D02*
X181353852Y-136046928D01*
X181853853Y-134546928D02*
X182710996Y-134546928D01*
X182282424Y-136046928D02*
X182282424Y-134546928D01*
X183210995Y-136046928D02*
X183210995Y-134546928D01*
X183210995Y-134546928D02*
X183782424Y-134546928D01*
X183782424Y-134546928D02*
X183925281Y-134618357D01*
X183925281Y-134618357D02*
X183996710Y-134689785D01*
X183996710Y-134689785D02*
X184068138Y-134832642D01*
X184068138Y-134832642D02*
X184068138Y-135046928D01*
X184068138Y-135046928D02*
X183996710Y-135189785D01*
X183996710Y-135189785D02*
X183925281Y-135261214D01*
X183925281Y-135261214D02*
X183782424Y-135332642D01*
X183782424Y-135332642D02*
X183210995Y-135332642D01*
X185853852Y-136046928D02*
X185853852Y-134546928D01*
X185853852Y-134546928D02*
X186425281Y-134546928D01*
X186425281Y-134546928D02*
X186568138Y-134618357D01*
X186568138Y-134618357D02*
X186639567Y-134689785D01*
X186639567Y-134689785D02*
X186710995Y-134832642D01*
X186710995Y-134832642D02*
X186710995Y-135046928D01*
X186710995Y-135046928D02*
X186639567Y-135189785D01*
X186639567Y-135189785D02*
X186568138Y-135261214D01*
X186568138Y-135261214D02*
X186425281Y-135332642D01*
X186425281Y-135332642D02*
X185853852Y-135332642D01*
X187353852Y-136046928D02*
X187353852Y-135046928D01*
X187353852Y-135332642D02*
X187425281Y-135189785D01*
X187425281Y-135189785D02*
X187496710Y-135118357D01*
X187496710Y-135118357D02*
X187639567Y-135046928D01*
X187639567Y-135046928D02*
X187782424Y-135046928D01*
X188496709Y-136046928D02*
X188353852Y-135975500D01*
X188353852Y-135975500D02*
X188282423Y-135904071D01*
X188282423Y-135904071D02*
X188210995Y-135761214D01*
X188210995Y-135761214D02*
X188210995Y-135332642D01*
X188210995Y-135332642D02*
X188282423Y-135189785D01*
X188282423Y-135189785D02*
X188353852Y-135118357D01*
X188353852Y-135118357D02*
X188496709Y-135046928D01*
X188496709Y-135046928D02*
X188710995Y-135046928D01*
X188710995Y-135046928D02*
X188853852Y-135118357D01*
X188853852Y-135118357D02*
X188925281Y-135189785D01*
X188925281Y-135189785D02*
X188996709Y-135332642D01*
X188996709Y-135332642D02*
X188996709Y-135761214D01*
X188996709Y-135761214D02*
X188925281Y-135904071D01*
X188925281Y-135904071D02*
X188853852Y-135975500D01*
X188853852Y-135975500D02*
X188710995Y-136046928D01*
X188710995Y-136046928D02*
X188496709Y-136046928D01*
X189639566Y-135046928D02*
X189639566Y-136332642D01*
X189639566Y-136332642D02*
X189568138Y-136475500D01*
X189568138Y-136475500D02*
X189425281Y-136546928D01*
X189425281Y-136546928D02*
X189353852Y-136546928D01*
X189639566Y-134546928D02*
X189568138Y-134618357D01*
X189568138Y-134618357D02*
X189639566Y-134689785D01*
X189639566Y-134689785D02*
X189710995Y-134618357D01*
X189710995Y-134618357D02*
X189639566Y-134546928D01*
X189639566Y-134546928D02*
X189639566Y-134689785D01*
X190925281Y-135975500D02*
X190782424Y-136046928D01*
X190782424Y-136046928D02*
X190496710Y-136046928D01*
X190496710Y-136046928D02*
X190353852Y-135975500D01*
X190353852Y-135975500D02*
X190282424Y-135832642D01*
X190282424Y-135832642D02*
X190282424Y-135261214D01*
X190282424Y-135261214D02*
X190353852Y-135118357D01*
X190353852Y-135118357D02*
X190496710Y-135046928D01*
X190496710Y-135046928D02*
X190782424Y-135046928D01*
X190782424Y-135046928D02*
X190925281Y-135118357D01*
X190925281Y-135118357D02*
X190996710Y-135261214D01*
X190996710Y-135261214D02*
X190996710Y-135404071D01*
X190996710Y-135404071D02*
X190282424Y-135546928D01*
X192282424Y-135975500D02*
X192139566Y-136046928D01*
X192139566Y-136046928D02*
X191853852Y-136046928D01*
X191853852Y-136046928D02*
X191710995Y-135975500D01*
X191710995Y-135975500D02*
X191639566Y-135904071D01*
X191639566Y-135904071D02*
X191568138Y-135761214D01*
X191568138Y-135761214D02*
X191568138Y-135332642D01*
X191568138Y-135332642D02*
X191639566Y-135189785D01*
X191639566Y-135189785D02*
X191710995Y-135118357D01*
X191710995Y-135118357D02*
X191853852Y-135046928D01*
X191853852Y-135046928D02*
X192139566Y-135046928D01*
X192139566Y-135046928D02*
X192282424Y-135118357D01*
X192710995Y-135046928D02*
X193282423Y-135046928D01*
X192925280Y-134546928D02*
X192925280Y-135832642D01*
X192925280Y-135832642D02*
X192996709Y-135975500D01*
X192996709Y-135975500D02*
X193139566Y-136046928D01*
X193139566Y-136046928D02*
X193282423Y-136046928D01*
X194710995Y-134546928D02*
X195568138Y-134546928D01*
X195139566Y-136046928D02*
X195139566Y-134546928D01*
X196068137Y-135261214D02*
X196568137Y-135261214D01*
X196782423Y-136046928D02*
X196068137Y-136046928D01*
X196068137Y-136046928D02*
X196068137Y-134546928D01*
X196068137Y-134546928D02*
X196782423Y-134546928D01*
X197353852Y-135618357D02*
X198068138Y-135618357D01*
X197210995Y-136046928D02*
X197710995Y-134546928D01*
X197710995Y-134546928D02*
X198210995Y-136046928D01*
X198710994Y-136046928D02*
X198710994Y-134546928D01*
X198710994Y-134546928D02*
X199210994Y-135618357D01*
X199210994Y-135618357D02*
X199710994Y-134546928D01*
X199710994Y-134546928D02*
X199710994Y-136046928D01*
X201496709Y-135618357D02*
X202210995Y-135618357D01*
X201353852Y-136046928D02*
X201853852Y-134546928D01*
X201853852Y-134546928D02*
X202353852Y-136046928D01*
D12*
X178500000Y-151300000D03*
X178500000Y-149800000D03*
D13*
X128014999Y-118664999D03*
D14*
X128014999Y-116124999D03*
X130554999Y-118664999D03*
X130554999Y-116124999D03*
X133094999Y-118664999D03*
X133094999Y-116124999D03*
X135634999Y-118664999D03*
X135634999Y-116124999D03*
X138174999Y-118664999D03*
X138174999Y-116124999D03*
X140714999Y-118664999D03*
X140714999Y-116124999D03*
X143254999Y-118664999D03*
X143254999Y-116124999D03*
X145794999Y-118664999D03*
X145794999Y-116124999D03*
X148334999Y-118664999D03*
X148334999Y-116124999D03*
X150874999Y-118664999D03*
X150874999Y-116124999D03*
X153414999Y-118664999D03*
X153414999Y-116124999D03*
X155954999Y-118664999D03*
X155954999Y-116124999D03*
X158494999Y-118664999D03*
X158494999Y-116124999D03*
X161034999Y-118664999D03*
X161034999Y-116124999D03*
X163574999Y-118664999D03*
X163574999Y-116124999D03*
X166114999Y-118664999D03*
X166114999Y-116124999D03*
X168654999Y-118664999D03*
X168654999Y-116124999D03*
X171194999Y-118664999D03*
X171194999Y-116124999D03*
X173734999Y-118664999D03*
X173734999Y-116124999D03*
X176274999Y-118664999D03*
X176274999Y-116124999D03*
D15*
X164005113Y-143900000D03*
D16*
X161505113Y-143900000D03*
D17*
X170155000Y-145360000D03*
D18*
X170155000Y-147900000D03*
X170155000Y-150439999D03*
D19*
X199050001Y-119500000D03*
D16*
X186350001Y-119500000D03*
D15*
X185800000Y-151005113D03*
D16*
X185800000Y-148505113D03*
D19*
X199050001Y-115509872D03*
D16*
X186350001Y-115509872D03*
D19*
X199050001Y-127400000D03*
D16*
X186350001Y-127400000D03*
D20*
X173487500Y-136312500D03*
D21*
X170947600Y-136312500D03*
X173487500Y-133772500D03*
X170947600Y-133772500D03*
X173487500Y-131232500D03*
X170947600Y-131232500D03*
X173487500Y-128692500D03*
X170947600Y-128692500D03*
X137387500Y-138912500D03*
X137387500Y-126112500D03*
D22*
X205500000Y-128200000D03*
X205500000Y-125660000D03*
X205500000Y-123120000D03*
X205500000Y-120580000D03*
X205500000Y-118040000D03*
X205500000Y-115500000D03*
X205500000Y-112960000D03*
D23*
X205500000Y-110420000D03*
D12*
X164150000Y-149900000D03*
X162650000Y-149900000D03*
D19*
X199050001Y-123500000D03*
D16*
X186350001Y-123500000D03*
D19*
X199050001Y-131500000D03*
D16*
X186350001Y-131500000D03*
D24*
X194600000Y-145255000D03*
D25*
X194600000Y-150335000D03*
D26*
X145020000Y-151300000D03*
D22*
X145020000Y-148760000D03*
X145020000Y-146220000D03*
X145020000Y-143680000D03*
D27*
X136320000Y-145400000D03*
D28*
X133780000Y-145400000D03*
X131240000Y-145400000D03*
X128700000Y-145400000D03*
D16*
X155800000Y-151350000D03*
D19*
X155800000Y-138650000D03*
D16*
X151500000Y-149050000D03*
D19*
X151500000Y-136350000D03*
D29*
X143254999Y-127500000D03*
X160250000Y-128750000D03*
X167750000Y-141000000D03*
X160750000Y-139250000D03*
X163500000Y-112600000D03*
X150900000Y-112600000D03*
X140700000Y-112600000D03*
X168800000Y-112600000D03*
X138100000Y-122300000D03*
X153600000Y-111000000D03*
X141200000Y-132400000D03*
X147250000Y-131500000D03*
X176800000Y-134800000D03*
D30*
X160250000Y-128750000D02*
X144500000Y-128750000D01*
X144500000Y-128750000D02*
X143254999Y-127504999D01*
X143254999Y-127504999D02*
X143254999Y-127500000D01*
X176800000Y-137400000D02*
X176800000Y-134800000D01*
X175800000Y-138400000D02*
X176800000Y-137400000D01*
X160700000Y-136000000D02*
X165600000Y-136000000D01*
X165600000Y-136000000D02*
X168000000Y-138400000D01*
X156200000Y-131500000D02*
X160700000Y-136000000D01*
X168000000Y-138400000D02*
X175800000Y-138400000D01*
X147250000Y-131500000D02*
X156200000Y-131500000D01*
X166000000Y-139250000D02*
X160750000Y-139250000D01*
X167750000Y-141000000D02*
X166000000Y-139250000D01*
X163400000Y-112700000D02*
X151000000Y-112700000D01*
X120700000Y-122400000D02*
X138000000Y-122400000D01*
X121700000Y-112600000D02*
X119100000Y-115200000D01*
X151000000Y-112700000D02*
X150900000Y-112600000D01*
X119100000Y-120800000D02*
X120700000Y-122400000D01*
X163500000Y-112600000D02*
X163400000Y-112700000D01*
X168800000Y-112600000D02*
X163500000Y-112600000D01*
X150900000Y-112600000D02*
X140700000Y-112600000D01*
X140700000Y-112600000D02*
X121700000Y-112600000D01*
X138000000Y-122400000D02*
X138100000Y-122300000D01*
X119100000Y-115200000D02*
X119100000Y-120800000D01*
X141200000Y-132400000D02*
X140800000Y-132000000D01*
X121200000Y-110500000D02*
X153100000Y-110500000D01*
X153100000Y-110500000D02*
X153600000Y-111000000D01*
X117700000Y-125500000D02*
X117700000Y-114000000D01*
X124200000Y-132000000D02*
X117700000Y-125500000D01*
X140800000Y-132000000D02*
X124200000Y-132000000D01*
X117700000Y-114000000D02*
X121200000Y-110500000D01*
M02*
