G04 #@! TF.GenerationSoftware,KiCad,Pcbnew,8.0.5*
G04 #@! TF.CreationDate,2024-10-30T11:11:19+01:00*
G04 #@! TF.ProjectId,raspberry_pi_hat,72617370-6265-4727-9279-5f70695f6861,rev?*
G04 #@! TF.SameCoordinates,Original*
G04 #@! TF.FileFunction,Copper,L2,Bot*
G04 #@! TF.FilePolarity,Positive*
%FSLAX46Y46*%
G04 Gerber Fmt 4.6, Leading zero omitted, Abs format (unit mm)*
G04 Created by KiCad (PCBNEW 8.0.5) date 2024-10-30 11:11:19*
%MOMM*%
%LPD*%
G01*
G04 APERTURE LIST*
G04 Aperture macros list*
%AMRoundRect*
0 Rectangle with rounded corners*
0 $1 Rounding radius*
0 $2 $3 $4 $5 $6 $7 $8 $9 X,Y pos of 4 corners*
0 Add a 4 corners polygon primitive as box body*
4,1,4,$2,$3,$4,$5,$6,$7,$8,$9,$2,$3,0*
0 Add four circle primitives for the rounded corners*
1,1,$1+$1,$2,$3*
1,1,$1+$1,$4,$5*
1,1,$1+$1,$6,$7*
1,1,$1+$1,$8,$9*
0 Add four rect primitives between the rounded corners*
20,1,$1+$1,$2,$3,$4,$5,0*
20,1,$1+$1,$4,$5,$6,$7,0*
20,1,$1+$1,$6,$7,$8,$9,0*
20,1,$1+$1,$8,$9,$2,$3,0*%
%AMHorizOval*
0 Thick line with rounded ends*
0 $1 width*
0 $2 $3 position (X,Y) of the first rounded end (center of the circle)*
0 $4 $5 position (X,Y) of the second rounded end (center of the circle)*
0 Add line between two ends*
20,1,$1,$2,$3,$4,$5,0*
0 Add two circle primitives to create the rounded ends*
1,1,$1,$2,$3*
1,1,$1,$4,$5*%
%AMRotRect*
0 Rectangle, with rotation*
0 The origin of the aperture is its center*
0 $1 length*
0 $2 width*
0 $3 Rotation angle, in degrees counterclockwise*
0 Add horizontal line*
21,1,$1,$2,0,0,$3*%
G04 Aperture macros list end*
G04 #@! TA.AperFunction,ComponentPad*
%ADD10RoundRect,0.250000X1.800000X-1.330000X1.800000X1.330000X-1.800000X1.330000X-1.800000X-1.330000X0*%
G04 #@! TD*
G04 #@! TA.AperFunction,ComponentPad*
%ADD11O,4.100000X3.160000*%
G04 #@! TD*
G04 #@! TA.AperFunction,ComponentPad*
%ADD12C,1.200000*%
G04 #@! TD*
G04 #@! TA.AperFunction,ComponentPad*
%ADD13R,1.905000X2.000000*%
G04 #@! TD*
G04 #@! TA.AperFunction,ComponentPad*
%ADD14O,1.905000X2.000000*%
G04 #@! TD*
G04 #@! TA.AperFunction,ComponentPad*
%ADD15R,2.500000X2.500000*%
G04 #@! TD*
G04 #@! TA.AperFunction,ComponentPad*
%ADD16C,2.500000*%
G04 #@! TD*
G04 #@! TA.AperFunction,ComponentPad*
%ADD17C,1.600000*%
G04 #@! TD*
G04 #@! TA.AperFunction,ComponentPad*
%ADD18HorizOval,1.600000X0.000000X0.000000X0.000000X0.000000X0*%
G04 #@! TD*
G04 #@! TA.AperFunction,ComponentPad*
%ADD19R,1.700000X1.700000*%
G04 #@! TD*
G04 #@! TA.AperFunction,ComponentPad*
%ADD20O,1.700000X1.700000*%
G04 #@! TD*
G04 #@! TA.AperFunction,ComponentPad*
%ADD21R,1.524000X1.524000*%
G04 #@! TD*
G04 #@! TA.AperFunction,ComponentPad*
%ADD22C,1.524000*%
G04 #@! TD*
G04 #@! TA.AperFunction,ComponentPad*
%ADD23O,1.740000X2.190000*%
G04 #@! TD*
G04 #@! TA.AperFunction,ComponentPad*
%ADD24RoundRect,0.250000X0.620000X0.845000X-0.620000X0.845000X-0.620000X-0.845000X0.620000X-0.845000X0*%
G04 #@! TD*
G04 #@! TA.AperFunction,ComponentPad*
%ADD25R,1.600000X1.600000*%
G04 #@! TD*
G04 #@! TA.AperFunction,ComponentPad*
%ADD26RotRect,1.600000X1.600000X45.000000*%
G04 #@! TD*
G04 #@! TA.AperFunction,ComponentPad*
%ADD27RoundRect,0.250000X-0.620000X-0.845000X0.620000X-0.845000X0.620000X0.845000X-0.620000X0.845000X0*%
G04 #@! TD*
G04 #@! TA.AperFunction,ViaPad*
%ADD28C,2.000000*%
G04 #@! TD*
G04 #@! TA.AperFunction,Conductor*
%ADD29C,0.800000*%
G04 #@! TD*
G04 APERTURE END LIST*
D10*
X94755000Y-191440000D03*
D11*
X94755000Y-187480000D03*
X94755000Y-183520000D03*
X94755000Y-179560000D03*
D12*
X153200000Y-151100000D03*
X153200000Y-149600000D03*
D13*
X140160000Y-153645000D03*
D14*
X142700000Y-153645000D03*
X145240000Y-153645000D03*
D15*
X171200000Y-146455000D03*
D16*
X171200000Y-151535000D03*
D17*
X123885192Y-182809872D03*
D18*
X114904936Y-191790128D03*
D12*
X133400000Y-155950000D03*
X133400000Y-154450000D03*
D19*
X102775000Y-175290000D03*
D20*
X102775000Y-172750000D03*
X105315000Y-175290000D03*
X105315000Y-172750000D03*
X107855000Y-175290000D03*
X107855000Y-172750000D03*
X110395000Y-175290000D03*
X110395000Y-172750000D03*
X112935000Y-175290000D03*
X112935000Y-172750000D03*
X115475000Y-175290000D03*
X115475000Y-172750000D03*
X118015000Y-175290000D03*
X118015000Y-172750000D03*
X120555000Y-175290000D03*
X120555000Y-172750000D03*
X123095000Y-175290000D03*
X123095000Y-172750000D03*
X125635000Y-175290000D03*
X125635000Y-172750000D03*
X128175000Y-175290000D03*
X128175000Y-172750000D03*
X130715000Y-175290000D03*
X130715000Y-172750000D03*
X133255000Y-175290000D03*
X133255000Y-172750000D03*
X135795000Y-175290000D03*
X135795000Y-172750000D03*
X138335000Y-175290000D03*
X138335000Y-172750000D03*
X140875000Y-175290000D03*
X140875000Y-172750000D03*
X143415000Y-175290000D03*
X143415000Y-172750000D03*
X145955000Y-175290000D03*
X145955000Y-172750000D03*
X148495000Y-175290000D03*
X148495000Y-172750000D03*
X151035000Y-175290000D03*
X151035000Y-172750000D03*
D19*
X102999064Y-135057077D03*
D20*
X102999064Y-132517077D03*
X105539064Y-135057077D03*
X105539064Y-132517077D03*
X108079064Y-135057077D03*
X108079064Y-132517077D03*
X110619064Y-135057077D03*
X110619064Y-132517077D03*
X113159064Y-135057077D03*
X113159064Y-132517077D03*
X115699064Y-135057077D03*
X115699064Y-132517077D03*
X118239064Y-135057077D03*
X118239064Y-132517077D03*
X120779064Y-135057077D03*
X120779064Y-132517077D03*
X123319064Y-135057077D03*
X123319064Y-132517077D03*
X125859064Y-135057077D03*
X125859064Y-132517077D03*
X128399064Y-135057077D03*
X128399064Y-132517077D03*
X130939064Y-135057077D03*
X130939064Y-132517077D03*
X133479064Y-135057077D03*
X133479064Y-132517077D03*
X136019064Y-135057077D03*
X136019064Y-132517077D03*
X138559064Y-135057077D03*
X138559064Y-132517077D03*
X141099064Y-135057077D03*
X141099064Y-132517077D03*
X143639064Y-135057077D03*
X143639064Y-132517077D03*
X146179064Y-135057077D03*
X146179064Y-132517077D03*
X148719064Y-135057077D03*
X148719064Y-132517077D03*
X151259064Y-135057077D03*
X151259064Y-132517077D03*
D17*
X134590128Y-182809872D03*
D18*
X125609872Y-191790128D03*
D21*
X124187500Y-149212500D03*
D22*
X121647600Y-149212500D03*
X124187500Y-146672500D03*
X121647600Y-146672500D03*
X124187500Y-144132500D03*
X121647600Y-144132500D03*
X124187500Y-141592500D03*
X121647600Y-141592500D03*
X88087500Y-151812500D03*
X88087500Y-139012500D03*
D23*
X136020000Y-197700000D03*
X138560000Y-197700000D03*
X141100000Y-197700000D03*
D24*
X143640000Y-197700000D03*
D17*
X118532724Y-182809872D03*
D18*
X109552468Y-191790128D03*
D17*
X129237660Y-182809872D03*
D18*
X120257404Y-191790128D03*
X140309872Y-191990128D03*
D17*
X149290128Y-183009872D03*
X160000000Y-148105113D03*
D25*
X160000000Y-150605113D03*
D17*
X143680256Y-183019744D03*
D18*
X134700000Y-192000000D03*
D26*
X128832233Y-151167767D03*
D17*
X130600000Y-149400000D03*
D18*
X104200000Y-191790128D03*
D17*
X113180256Y-182809872D03*
D27*
X104440000Y-197500000D03*
D23*
X106980000Y-197500000D03*
X109520000Y-197500000D03*
X112060000Y-197500000D03*
X114600000Y-197500000D03*
X117140000Y-197500000D03*
X119680000Y-197500000D03*
X122220000Y-197500000D03*
D28*
X113300000Y-178500000D03*
X100400000Y-181500000D03*
X129600000Y-169300000D03*
X138400000Y-169300000D03*
X144300000Y-169300000D03*
X166400000Y-165600000D03*
X168900000Y-167200000D03*
X123100000Y-167200000D03*
X120600000Y-165600000D03*
X100200000Y-178400000D03*
X108200000Y-140500000D03*
X115700000Y-140000000D03*
X133900000Y-140100000D03*
X125100000Y-126900000D03*
X135000000Y-129300000D03*
X110400000Y-178400000D03*
D29*
X141000000Y-149600000D02*
X140160000Y-150440000D01*
X153200000Y-149600000D02*
X141000000Y-149600000D01*
X154694887Y-148105113D02*
X153200000Y-149600000D01*
X160000000Y-148105113D02*
X154694887Y-148105113D01*
X150300000Y-178500000D02*
X131100000Y-178500000D01*
X151035000Y-177765000D02*
X150300000Y-178500000D01*
X151035000Y-175290000D02*
X151035000Y-177765000D01*
X131900000Y-178500000D02*
X113300000Y-178500000D01*
X132200000Y-178200000D02*
X131900000Y-178500000D01*
X133255000Y-175290000D02*
X133255000Y-177145000D01*
X133255000Y-177145000D02*
X132200000Y-178200000D01*
X94755000Y-183520000D02*
X98380000Y-183520000D01*
X98380000Y-183520000D02*
X100400000Y-181500000D01*
X113300000Y-178500000D02*
X113300000Y-175655000D01*
X113300000Y-175655000D02*
X112935000Y-175290000D01*
X99040000Y-179560000D02*
X94755000Y-179560000D01*
X100200000Y-178400000D02*
X99040000Y-179560000D01*
X111709872Y-182809872D02*
X113180256Y-182809872D01*
X110400000Y-178400000D02*
X110400000Y-181500000D01*
X110400000Y-181500000D02*
X111709872Y-182809872D01*
X126435000Y-169300000D02*
X125635000Y-168500000D01*
X129600000Y-169300000D02*
X126435000Y-169300000D01*
X125635000Y-172750000D02*
X125635000Y-168500000D01*
X125635000Y-168500000D02*
X125635000Y-165735000D01*
X138335000Y-169365000D02*
X138400000Y-169300000D01*
X138335000Y-172750000D02*
X138335000Y-169365000D01*
X143415000Y-170185000D02*
X144300000Y-169300000D01*
X143415000Y-172750000D02*
X143415000Y-170185000D01*
X166400000Y-181100000D02*
X166400000Y-165600000D01*
X156909872Y-190590128D02*
X166400000Y-181100000D01*
X136109872Y-190590128D02*
X156909872Y-190590128D01*
X134700000Y-192000000D02*
X136109872Y-190590128D01*
X167900000Y-168200000D02*
X168900000Y-167200000D01*
X157509872Y-191990128D02*
X167900000Y-181600000D01*
X167900000Y-181600000D02*
X167900000Y-168200000D01*
X140309872Y-191990128D02*
X157509872Y-191990128D01*
X138700000Y-164600000D02*
X133255000Y-170045000D01*
X165000000Y-168700000D02*
X160900000Y-164600000D01*
X133255000Y-170045000D02*
X133255000Y-172750000D01*
X165000000Y-180600000D02*
X165000000Y-168700000D01*
X160900000Y-164600000D02*
X138700000Y-164600000D01*
X128000000Y-189400000D02*
X156200000Y-189400000D01*
X156200000Y-189400000D02*
X165000000Y-180600000D01*
X125609872Y-191790128D02*
X128000000Y-189400000D01*
X160500000Y-165800000D02*
X145000000Y-165800000D01*
X140875000Y-169925000D02*
X140875000Y-172750000D01*
X155600000Y-188200000D02*
X163800000Y-180000000D01*
X123847532Y-188200000D02*
X155600000Y-188200000D01*
X120257404Y-191790128D02*
X123847532Y-188200000D01*
X163800000Y-180000000D02*
X163800000Y-169100000D01*
X163800000Y-169100000D02*
X160500000Y-165800000D01*
X145000000Y-165800000D02*
X140875000Y-169925000D01*
X145955000Y-170545000D02*
X145955000Y-172750000D01*
X149500000Y-167000000D02*
X145955000Y-170545000D01*
X155000000Y-187000000D02*
X162500000Y-179500000D01*
X162500000Y-169500000D02*
X160000000Y-167000000D01*
X160000000Y-167000000D02*
X149500000Y-167000000D01*
X119695064Y-187000000D02*
X155000000Y-187000000D01*
X162500000Y-179500000D02*
X162500000Y-169500000D01*
X114904936Y-191790128D02*
X119695064Y-187000000D01*
X150700000Y-168200000D02*
X148495000Y-170405000D01*
X148495000Y-170405000D02*
X148495000Y-172750000D01*
X159500000Y-168200000D02*
X150700000Y-168200000D01*
X154400000Y-185800000D02*
X161200000Y-179000000D01*
X161200000Y-169900000D02*
X159500000Y-168200000D01*
X115542596Y-185800000D02*
X154400000Y-185800000D01*
X161200000Y-179000000D02*
X161200000Y-169900000D01*
X109552468Y-191790128D02*
X115542596Y-185800000D01*
X160000000Y-178300000D02*
X153700000Y-184600000D01*
X160000000Y-170400000D02*
X160000000Y-178300000D01*
X153700000Y-184600000D02*
X111390128Y-184600000D01*
X152200000Y-169400000D02*
X159000000Y-169400000D01*
X111390128Y-184600000D02*
X104200000Y-191790128D01*
X151035000Y-170565000D02*
X152200000Y-169400000D01*
X159000000Y-169400000D02*
X160000000Y-170400000D01*
X151035000Y-172750000D02*
X151035000Y-170565000D01*
X123100000Y-168800000D02*
X123100000Y-167200000D01*
X123095000Y-168805000D02*
X123100000Y-168800000D01*
X123095000Y-172750000D02*
X123095000Y-168805000D01*
X120600000Y-172705000D02*
X120555000Y-172750000D01*
X120600000Y-166300000D02*
X120600000Y-172705000D01*
X118300000Y-167700000D02*
X117000000Y-169000000D01*
X118700000Y-164000000D02*
X118300000Y-164400000D01*
X118300000Y-164400000D02*
X118300000Y-167700000D01*
X123900000Y-164000000D02*
X118700000Y-164000000D01*
X125635000Y-165735000D02*
X123900000Y-164000000D01*
X123100000Y-172745000D02*
X123095000Y-172750000D01*
X149280256Y-183019744D02*
X149290128Y-183009872D01*
X143680256Y-183019744D02*
X149280256Y-183019744D01*
X135400000Y-183019744D02*
X143680256Y-183019744D01*
X135190128Y-182809872D02*
X135400000Y-183019744D01*
X134590128Y-182809872D02*
X135190128Y-182809872D01*
X136020000Y-193320000D02*
X134700000Y-192000000D01*
X136020000Y-197700000D02*
X136020000Y-193320000D01*
X138560000Y-197700000D02*
X138560000Y-193740000D01*
X138560000Y-193740000D02*
X140309872Y-191990128D01*
X141100000Y-200300000D02*
X140100000Y-201300000D01*
X141100000Y-197700000D02*
X141100000Y-200300000D01*
X142200000Y-201300000D02*
X108500000Y-201300000D01*
X143640000Y-200360000D02*
X142700000Y-201300000D01*
X142700000Y-201300000D02*
X142200000Y-201300000D01*
X143640000Y-197700000D02*
X143640000Y-200360000D01*
X122220000Y-195180000D02*
X125609872Y-191790128D01*
X122220000Y-197500000D02*
X122220000Y-195180000D01*
X119680000Y-192367532D02*
X120257404Y-191790128D01*
X119680000Y-197500000D02*
X119680000Y-192367532D01*
X117140000Y-194025192D02*
X114904936Y-191790128D01*
X117140000Y-197500000D02*
X117140000Y-194025192D01*
X112600000Y-193400000D02*
X111162340Y-193400000D01*
X114600000Y-195400000D02*
X112600000Y-193400000D01*
X114600000Y-197500000D02*
X114600000Y-195400000D01*
X111162340Y-193400000D02*
X109552468Y-191790128D01*
X104200000Y-194400000D02*
X104200000Y-191790128D01*
X104800000Y-195000000D02*
X104200000Y-194400000D01*
X112060000Y-196060000D02*
X111000000Y-195000000D01*
X112060000Y-197500000D02*
X112060000Y-196060000D01*
X111000000Y-195000000D02*
X104800000Y-195000000D01*
X104440000Y-197500000D02*
X104440000Y-200460000D01*
X103600000Y-201300000D02*
X93000000Y-201300000D01*
X104440000Y-200460000D02*
X103600000Y-201300000D01*
X106000000Y-201300000D02*
X103600000Y-201300000D01*
X106980000Y-197500000D02*
X106980000Y-200320000D01*
X106980000Y-200320000D02*
X106000000Y-201300000D01*
X108500000Y-201300000D02*
X106000000Y-201300000D01*
X91000000Y-183740000D02*
X91220000Y-183520000D01*
X91000000Y-199300000D02*
X91000000Y-183740000D01*
X93000000Y-201300000D02*
X91000000Y-199300000D01*
X109520000Y-200280000D02*
X108500000Y-201300000D01*
X109520000Y-197500000D02*
X109520000Y-200280000D01*
X118532724Y-182809872D02*
X113180256Y-182809872D01*
X123885192Y-182809872D02*
X118532724Y-182809872D01*
X129237660Y-182809872D02*
X123885192Y-182809872D01*
X134590128Y-182809872D02*
X129237660Y-182809872D01*
X107855000Y-180545000D02*
X107855000Y-175290000D01*
X96960000Y-191440000D02*
X107855000Y-180545000D01*
X94755000Y-191440000D02*
X96960000Y-191440000D01*
X105315000Y-179985000D02*
X105315000Y-175290000D01*
X97820000Y-187480000D02*
X105315000Y-179985000D01*
X94755000Y-187480000D02*
X97820000Y-187480000D01*
X108300000Y-169000000D02*
X107855000Y-168555000D01*
X118015000Y-170015000D02*
X117000000Y-169000000D01*
X118015000Y-172750000D02*
X118015000Y-170015000D01*
X117000000Y-169000000D02*
X108300000Y-169000000D01*
X91100000Y-178700000D02*
X91960000Y-179560000D01*
X91100000Y-169800000D02*
X91100000Y-178700000D01*
X91960000Y-179560000D02*
X94755000Y-179560000D01*
X100500000Y-167300000D02*
X93600000Y-167300000D01*
X93600000Y-167300000D02*
X91100000Y-169800000D01*
X89600000Y-169500000D02*
X89600000Y-181900000D01*
X91220000Y-183520000D02*
X94755000Y-183520000D01*
X93100000Y-166000000D02*
X89600000Y-169500000D01*
X105300000Y-166000000D02*
X93100000Y-166000000D01*
X107855000Y-168555000D02*
X105300000Y-166000000D01*
X89600000Y-181900000D02*
X91220000Y-183520000D01*
X107855000Y-172750000D02*
X107855000Y-168555000D01*
X102775000Y-169575000D02*
X100500000Y-167300000D01*
X102775000Y-172750000D02*
X102775000Y-169575000D01*
X103200000Y-167300000D02*
X100500000Y-167300000D01*
X105315000Y-169415000D02*
X103200000Y-167300000D01*
X105315000Y-172750000D02*
X105315000Y-169415000D01*
X113159064Y-138740936D02*
X111400000Y-140500000D01*
X111400000Y-140500000D02*
X108200000Y-140500000D01*
X113159064Y-135057077D02*
X113159064Y-138740936D01*
X128399064Y-128800936D02*
X128399064Y-132517077D01*
X163300000Y-126100000D02*
X131100000Y-126100000D01*
X165300000Y-138000000D02*
X165300000Y-128100000D01*
X165300000Y-128100000D02*
X163300000Y-126100000D01*
X132600000Y-141800000D02*
X161500000Y-141800000D01*
X127727500Y-146672500D02*
X132600000Y-141800000D01*
X161500000Y-141800000D02*
X165300000Y-138000000D01*
X131100000Y-126100000D02*
X128399064Y-128800936D01*
X124187500Y-146672500D02*
X127727500Y-146672500D01*
X117572500Y-146672500D02*
X121647600Y-146672500D01*
X115700000Y-144800000D02*
X117572500Y-146672500D01*
X115700000Y-140000000D02*
X115700000Y-144800000D01*
X160500000Y-139900000D02*
X134100000Y-139900000D01*
X162800000Y-129000000D02*
X162800000Y-137600000D01*
X161300000Y-127500000D02*
X162800000Y-129000000D01*
X162800000Y-137600000D02*
X160500000Y-139900000D01*
X130939064Y-129060936D02*
X132500000Y-127500000D01*
X132500000Y-127500000D02*
X161300000Y-127500000D01*
X130939064Y-132517077D02*
X130939064Y-129060936D01*
X134100000Y-139900000D02*
X133900000Y-140100000D01*
X165600000Y-124300000D02*
X127700000Y-124300000D01*
X171200000Y-129900000D02*
X165600000Y-124300000D01*
X171200000Y-146455000D02*
X171200000Y-129900000D01*
X127700000Y-124300000D02*
X125100000Y-126900000D01*
X103000000Y-130100000D02*
X102100000Y-129200000D01*
X102999064Y-130700936D02*
X103000000Y-130700000D01*
X102999064Y-132517077D02*
X102999064Y-130700936D01*
X103000000Y-130700000D02*
X103000000Y-130100000D01*
X102100000Y-129200000D02*
X104200000Y-129200000D01*
X93900000Y-129200000D02*
X102100000Y-129200000D01*
X105539064Y-130539064D02*
X105539064Y-132517077D01*
X104200000Y-129200000D02*
X105539064Y-130539064D01*
X91700000Y-131400000D02*
X93900000Y-129200000D01*
X106800000Y-158600000D02*
X91700000Y-143500000D01*
X144000000Y-158600000D02*
X106800000Y-158600000D01*
X91700000Y-143500000D02*
X91700000Y-131400000D01*
X145240000Y-157360000D02*
X144000000Y-158600000D01*
X145240000Y-153645000D02*
X145240000Y-157360000D01*
X140160000Y-150440000D02*
X140160000Y-153645000D01*
X125100000Y-128800000D02*
X125000000Y-128900000D01*
X125100000Y-126900000D02*
X125100000Y-128800000D01*
X135300000Y-129000000D02*
X135000000Y-129300000D01*
X139700000Y-129000000D02*
X135300000Y-129000000D01*
X108079064Y-130120936D02*
X108079064Y-132517077D01*
X109300000Y-128900000D02*
X108079064Y-130120936D01*
X117100000Y-128900000D02*
X109300000Y-128900000D01*
X118239064Y-132517077D02*
X118239064Y-130039064D01*
X125000000Y-128900000D02*
X117100000Y-128900000D01*
X118239064Y-130039064D02*
X117100000Y-128900000D01*
X125859064Y-132517077D02*
X125859064Y-129759064D01*
X125859064Y-129759064D02*
X125000000Y-128900000D01*
X136405000Y-153645000D02*
X140160000Y-153645000D01*
X135600000Y-154450000D02*
X136405000Y-153645000D01*
X133400000Y-154450000D02*
X135600000Y-154450000D01*
X150655000Y-153645000D02*
X153200000Y-151100000D01*
X145240000Y-153645000D02*
X150655000Y-153645000D01*
X142700000Y-155445000D02*
X142700000Y-153645000D01*
X142195000Y-155950000D02*
X142700000Y-155445000D01*
X133400000Y-155950000D02*
X142195000Y-155950000D01*
X131800000Y-152850000D02*
X133400000Y-154450000D01*
X131800000Y-150600000D02*
X131800000Y-152850000D01*
X130600000Y-149400000D02*
X131800000Y-150600000D01*
X130100000Y-154800000D02*
X131250000Y-155950000D01*
X131250000Y-155950000D02*
X133400000Y-155950000D01*
X128832233Y-151167767D02*
X130100000Y-152435534D01*
X130100000Y-152435534D02*
X130100000Y-154800000D01*
X124187500Y-149212500D02*
X130412500Y-149212500D01*
X130412500Y-149212500D02*
X130600000Y-149400000D01*
X117700000Y-150000000D02*
X118487500Y-149212500D01*
X118500000Y-152400000D02*
X117700000Y-151600000D01*
X127600000Y-152400000D02*
X118500000Y-152400000D01*
X128832233Y-151167767D02*
X127600000Y-152400000D01*
X117700000Y-151600000D02*
X117700000Y-150000000D01*
X118487500Y-149212500D02*
X121647600Y-149212500D01*
X161650113Y-146455000D02*
X160000000Y-148105113D01*
X171200000Y-146455000D02*
X161650113Y-146455000D01*
X168900000Y-150600000D02*
X168894887Y-150605113D01*
X169500000Y-150600000D02*
X168900000Y-150600000D01*
X170435000Y-151535000D02*
X169500000Y-150600000D01*
X171200000Y-151535000D02*
X170435000Y-151535000D01*
X168894887Y-150605113D02*
X160000000Y-150605113D01*
X159505113Y-151100000D02*
X160000000Y-150605113D01*
X153200000Y-151100000D02*
X159505113Y-151100000D01*
X139700000Y-129000000D02*
X144900000Y-129000000D01*
X138559064Y-130140936D02*
X139700000Y-129000000D01*
X138559064Y-132517077D02*
X138559064Y-130140936D01*
X161200000Y-136800000D02*
X160200000Y-137800000D01*
X160200000Y-137800000D02*
X149800000Y-137800000D01*
X161200000Y-130200000D02*
X161200000Y-136800000D01*
X160000000Y-129000000D02*
X161200000Y-130200000D01*
X143639064Y-130260936D02*
X144900000Y-129000000D01*
X143639064Y-132517077D02*
X143639064Y-130260936D01*
X144900000Y-129000000D02*
X160000000Y-129000000D01*
X133900000Y-137800000D02*
X149800000Y-137800000D01*
X149800000Y-137800000D02*
X150400000Y-137800000D01*
X151259064Y-136940936D02*
X151259064Y-135057077D01*
X150400000Y-137800000D02*
X151259064Y-136940936D01*
X133479064Y-137379064D02*
X133900000Y-137800000D01*
X133479064Y-135057077D02*
X133479064Y-137379064D01*
X130939064Y-140460936D02*
X130939064Y-135057077D01*
X127267500Y-144132500D02*
X130939064Y-140460936D01*
X124187500Y-144132500D02*
X127267500Y-144132500D01*
X119000000Y-140000000D02*
X119000000Y-142700000D01*
X120300000Y-138700000D02*
X119000000Y-140000000D01*
X120432500Y-144132500D02*
X121647600Y-144132500D01*
X124800000Y-138700000D02*
X120300000Y-138700000D01*
X125859064Y-135057077D02*
X125859064Y-137640936D01*
X125859064Y-137640936D02*
X124800000Y-138700000D01*
X119000000Y-142700000D02*
X120432500Y-144132500D01*
X126192500Y-141592500D02*
X124187500Y-141592500D01*
X126800000Y-141600000D02*
X126200000Y-141600000D01*
X126200000Y-141600000D02*
X126192500Y-141592500D01*
X128399064Y-140000936D02*
X126800000Y-141600000D01*
X128399064Y-135057077D02*
X128399064Y-140000936D01*
M02*
