G04 #@! TF.GenerationSoftware,KiCad,Pcbnew,8.0.5*
G04 #@! TF.CreationDate,2024-11-05T09:26:53+01:00*
G04 #@! TF.ProjectId,raspberry_pi_hat,72617370-6265-4727-9279-5f70695f6861,rev?*
G04 #@! TF.SameCoordinates,Original*
G04 #@! TF.FileFunction,Copper,L2,Bot*
G04 #@! TF.FilePolarity,Positive*
%FSLAX46Y46*%
G04 Gerber Fmt 4.6, Leading zero omitted, Abs format (unit mm)*
G04 Created by KiCad (PCBNEW 8.0.5) date 2024-11-05 09:26:53*
%MOMM*%
%LPD*%
G01*
G04 APERTURE LIST*
G04 Aperture macros list*
%AMRoundRect*
0 Rectangle with rounded corners*
0 $1 Rounding radius*
0 $2 $3 $4 $5 $6 $7 $8 $9 X,Y pos of 4 corners*
0 Add a 4 corners polygon primitive as box body*
4,1,4,$2,$3,$4,$5,$6,$7,$8,$9,$2,$3,0*
0 Add four circle primitives for the rounded corners*
1,1,$1+$1,$2,$3*
1,1,$1+$1,$4,$5*
1,1,$1+$1,$6,$7*
1,1,$1+$1,$8,$9*
0 Add four rect primitives between the rounded corners*
20,1,$1+$1,$2,$3,$4,$5,0*
20,1,$1+$1,$4,$5,$6,$7,0*
20,1,$1+$1,$6,$7,$8,$9,0*
20,1,$1+$1,$8,$9,$2,$3,0*%
G04 Aperture macros list end*
G04 #@! TA.AperFunction,ComponentPad*
%ADD10R,1.600000X1.600000*%
G04 #@! TD*
G04 #@! TA.AperFunction,ComponentPad*
%ADD11C,1.600000*%
G04 #@! TD*
G04 #@! TA.AperFunction,ComponentPad*
%ADD12R,2.000000X1.905000*%
G04 #@! TD*
G04 #@! TA.AperFunction,ComponentPad*
%ADD13O,2.000000X1.905000*%
G04 #@! TD*
G04 #@! TA.AperFunction,ComponentPad*
%ADD14O,1.600000X1.600000*%
G04 #@! TD*
G04 #@! TA.AperFunction,ComponentPad*
%ADD15R,1.524000X1.524000*%
G04 #@! TD*
G04 #@! TA.AperFunction,ComponentPad*
%ADD16C,1.524000*%
G04 #@! TD*
G04 #@! TA.AperFunction,ComponentPad*
%ADD17RoundRect,0.250000X-0.845000X0.620000X-0.845000X-0.620000X0.845000X-0.620000X0.845000X0.620000X0*%
G04 #@! TD*
G04 #@! TA.AperFunction,ComponentPad*
%ADD18O,2.190000X1.740000*%
G04 #@! TD*
G04 #@! TA.AperFunction,ComponentPad*
%ADD19C,1.200000*%
G04 #@! TD*
G04 #@! TA.AperFunction,ComponentPad*
%ADD20R,2.500000X2.500000*%
G04 #@! TD*
G04 #@! TA.AperFunction,ComponentPad*
%ADD21C,2.500000*%
G04 #@! TD*
G04 #@! TA.AperFunction,ComponentPad*
%ADD22RoundRect,0.250000X0.845000X-0.620000X0.845000X0.620000X-0.845000X0.620000X-0.845000X-0.620000X0*%
G04 #@! TD*
G04 #@! TA.AperFunction,ComponentPad*
%ADD23RoundRect,0.250000X0.620000X0.845000X-0.620000X0.845000X-0.620000X-0.845000X0.620000X-0.845000X0*%
G04 #@! TD*
G04 #@! TA.AperFunction,ComponentPad*
%ADD24O,1.740000X2.190000*%
G04 #@! TD*
G04 #@! TA.AperFunction,ComponentPad*
%ADD25R,1.700000X1.700000*%
G04 #@! TD*
G04 #@! TA.AperFunction,ComponentPad*
%ADD26O,1.700000X1.700000*%
G04 #@! TD*
G04 #@! TA.AperFunction,ViaPad*
%ADD27C,2.000000*%
G04 #@! TD*
G04 #@! TA.AperFunction,Conductor*
%ADD28C,1.000000*%
G04 #@! TD*
G04 APERTURE END LIST*
D10*
X164005113Y-143900000D03*
D11*
X161505113Y-143900000D03*
D12*
X170155000Y-145360000D03*
D13*
X170155000Y-147900000D03*
X170155000Y-150439999D03*
D11*
X186350001Y-119500000D03*
D14*
X199050001Y-119500000D03*
D10*
X185800000Y-151005113D03*
D11*
X185800000Y-148505113D03*
X186350001Y-115509872D03*
D14*
X199050001Y-115509872D03*
D11*
X186350001Y-127400000D03*
D14*
X199050001Y-127400000D03*
D15*
X173487500Y-136312500D03*
D16*
X170947600Y-136312500D03*
X173487500Y-133772500D03*
X170947600Y-133772500D03*
X173487500Y-131232500D03*
X170947600Y-131232500D03*
X173487500Y-128692500D03*
X170947600Y-128692500D03*
X137387500Y-138912500D03*
X137387500Y-126112500D03*
D17*
X205500000Y-110420000D03*
D18*
X205500000Y-112960000D03*
X205500000Y-115500000D03*
X205500000Y-118040000D03*
X205500000Y-120580000D03*
X205500000Y-123120000D03*
X205500000Y-125660000D03*
X205500000Y-128200000D03*
D19*
X164150000Y-149900000D03*
X162650000Y-149900000D03*
X178500000Y-151300000D03*
X178500000Y-149800000D03*
D11*
X186350001Y-123500000D03*
D14*
X199050001Y-123500000D03*
D11*
X186350001Y-131500000D03*
D14*
X199050001Y-131500000D03*
D20*
X194600000Y-145255000D03*
D21*
X194600000Y-150335000D03*
D22*
X145020000Y-151300000D03*
D18*
X145020000Y-148760000D03*
X145020000Y-146220000D03*
X145020000Y-143680000D03*
D23*
X136320000Y-145400000D03*
D24*
X133780000Y-145400000D03*
X131240000Y-145400000D03*
X128700000Y-145400000D03*
D11*
X155800000Y-151350000D03*
D14*
X155800000Y-138650000D03*
D25*
X128014999Y-118664999D03*
D26*
X128014999Y-116124999D03*
X130554999Y-118664999D03*
X130554999Y-116124999D03*
X133094999Y-118664999D03*
X133094999Y-116124999D03*
X135634999Y-118664999D03*
X135634999Y-116124999D03*
X138174999Y-118664999D03*
X138174999Y-116124999D03*
X140714999Y-118664999D03*
X140714999Y-116124999D03*
X143254999Y-118664999D03*
X143254999Y-116124999D03*
X145794999Y-118664999D03*
X145794999Y-116124999D03*
X148334999Y-118664999D03*
X148334999Y-116124999D03*
X150874999Y-118664999D03*
X150874999Y-116124999D03*
X153414999Y-118664999D03*
X153414999Y-116124999D03*
X155954999Y-118664999D03*
X155954999Y-116124999D03*
X158494999Y-118664999D03*
X158494999Y-116124999D03*
X161034999Y-118664999D03*
X161034999Y-116124999D03*
X163574999Y-118664999D03*
X163574999Y-116124999D03*
X166114999Y-118664999D03*
X166114999Y-116124999D03*
X168654999Y-118664999D03*
X168654999Y-116124999D03*
X171194999Y-118664999D03*
X171194999Y-116124999D03*
X173734999Y-118664999D03*
X173734999Y-116124999D03*
X176274999Y-118664999D03*
X176274999Y-116124999D03*
D11*
X151500000Y-149050000D03*
D14*
X151500000Y-136350000D03*
D27*
X160750000Y-139250000D03*
X163500000Y-112600000D03*
X150900000Y-112600000D03*
X167750000Y-141000000D03*
X140700000Y-112600000D03*
X168800000Y-112600000D03*
X138100000Y-122300000D03*
X153600000Y-111000000D03*
X141200000Y-132400000D03*
X147250000Y-131500000D03*
X176800000Y-134800000D03*
X143254999Y-127500000D03*
X160250000Y-128750000D03*
D28*
X170920100Y-133800000D02*
X170947600Y-133772500D01*
X141200000Y-132400000D02*
X142600000Y-133800000D01*
X142600000Y-133800000D02*
X170920100Y-133800000D01*
X155954999Y-113354999D02*
X153600000Y-111000000D01*
X155954999Y-116124999D02*
X155954999Y-113354999D01*
X154600000Y-143700000D02*
X149940000Y-143700000D01*
X125800000Y-123200000D02*
X128700000Y-126100000D01*
X159000000Y-148100000D02*
X154600000Y-143700000D01*
X142600000Y-144600000D02*
X142600000Y-146800000D01*
X145020000Y-143680000D02*
X149920000Y-143680000D01*
X175250000Y-151250000D02*
X178450000Y-151250000D01*
X178500000Y-151300000D02*
X185505113Y-151300000D01*
X169960001Y-150439999D02*
X167000000Y-153400000D01*
X145020000Y-143680000D02*
X143520000Y-143680000D01*
X185800000Y-151005113D02*
X193929887Y-151005113D01*
X119200000Y-114300000D02*
X119200000Y-120500000D01*
X178450000Y-151250000D02*
X178500000Y-151300000D01*
X167000000Y-153400000D02*
X160800000Y-153400000D01*
X142450000Y-146950000D02*
X138900000Y-150500000D01*
X143520000Y-143680000D02*
X142600000Y-144600000D01*
X121900000Y-123200000D02*
X125800000Y-123200000D01*
X170155000Y-150439999D02*
X174439999Y-150439999D01*
X170155000Y-150439999D02*
X169960001Y-150439999D01*
X160800000Y-153400000D02*
X159000000Y-151600000D01*
X128700000Y-126100000D02*
X128700000Y-145400000D01*
X119200000Y-120500000D02*
X121900000Y-123200000D01*
X130554999Y-113845001D02*
X130554999Y-116124999D01*
X120700000Y-112800000D02*
X119200000Y-114300000D01*
X128014999Y-113814999D02*
X127000000Y-112800000D01*
X185505113Y-151300000D02*
X185800000Y-151005113D01*
X149920000Y-143680000D02*
X147380000Y-146220000D01*
X174439999Y-150439999D02*
X175250000Y-151250000D01*
X159000000Y-151600000D02*
X159000000Y-148100000D01*
X130600000Y-150500000D02*
X128700000Y-148600000D01*
X129600000Y-112800000D02*
X130600000Y-113800000D01*
X143180000Y-146220000D02*
X142450000Y-146950000D01*
X127000000Y-112800000D02*
X120700000Y-112800000D01*
X130600000Y-113800000D02*
X130554999Y-113845001D01*
X138900000Y-150500000D02*
X130600000Y-150500000D01*
X147380000Y-146220000D02*
X145020000Y-146220000D01*
X149940000Y-143700000D02*
X149920000Y-143680000D01*
X142600000Y-146800000D02*
X142450000Y-146950000D01*
X145020000Y-146220000D02*
X143180000Y-146220000D01*
X193929887Y-151005113D02*
X194600000Y-150335000D01*
X128014999Y-116124999D02*
X128014999Y-113814999D01*
X128700000Y-148600000D02*
X128700000Y-145400000D01*
X127000000Y-112800000D02*
X129600000Y-112800000D01*
X170947600Y-136312500D02*
X167087500Y-136312500D01*
X164150000Y-149900000D02*
X165900000Y-149900000D01*
X164005113Y-149755113D02*
X164150000Y-149900000D01*
X164000000Y-139400000D02*
X164005113Y-139405113D01*
X164005113Y-139405113D02*
X164005113Y-143900000D01*
X164005113Y-143900000D02*
X164005113Y-149755113D01*
X165900000Y-149900000D02*
X167900000Y-147900000D01*
X167087500Y-136312500D02*
X164000000Y-139400000D01*
X167900000Y-147900000D02*
X170155000Y-147900000D01*
X147250000Y-131500000D02*
X145800000Y-130050000D01*
X145800000Y-118670000D02*
X145794999Y-118664999D01*
X176800000Y-134800000D02*
X175772500Y-133772500D01*
X145800000Y-130050000D02*
X145800000Y-118670000D01*
X175772500Y-133772500D02*
X173487500Y-133772500D01*
X133780000Y-145400000D02*
X133780000Y-143680000D01*
X130554999Y-140454999D02*
X130554999Y-118664999D01*
X133780000Y-143680000D02*
X130554999Y-140454999D01*
X133094999Y-118664999D02*
X133094999Y-140594999D01*
X133094999Y-140594999D02*
X136320000Y-143820000D01*
X136320000Y-143820000D02*
X136320000Y-145400000D01*
X118850000Y-109100000D02*
X145400000Y-109100000D01*
X143200000Y-151300000D02*
X140600000Y-153900000D01*
X145400000Y-109100000D02*
X148334999Y-112034999D01*
X140600000Y-153900000D02*
X127100000Y-153900000D01*
X116400000Y-111550000D02*
X118850000Y-109100000D01*
X145020000Y-151300000D02*
X143200000Y-151300000D01*
X148334999Y-112034999D02*
X148334999Y-116124999D01*
X127100000Y-153900000D02*
X116400000Y-143200000D01*
X116400000Y-143200000D02*
X116400000Y-111550000D01*
X155750000Y-151300000D02*
X155800000Y-151350000D01*
X145020000Y-151300000D02*
X155750000Y-151300000D01*
X170715100Y-131000000D02*
X158600000Y-131000000D01*
X150874999Y-123274999D02*
X150874999Y-118664999D01*
X158600000Y-131000000D02*
X150874999Y-123274999D01*
X170947600Y-131232500D02*
X170715100Y-131000000D01*
X177000000Y-113500000D02*
X184340129Y-113500000D01*
X176274999Y-114225001D02*
X177000000Y-113500000D01*
X176274999Y-116124999D02*
X176274999Y-114225001D01*
X184340129Y-113500000D02*
X186350001Y-115509872D01*
X176200000Y-130000000D02*
X176200000Y-127800000D01*
X173300000Y-124900000D02*
X158600000Y-124900000D01*
X174967500Y-131232500D02*
X176200000Y-130000000D01*
X155954999Y-122254999D02*
X155954999Y-118664999D01*
X173487500Y-131232500D02*
X174967500Y-131232500D01*
X176200000Y-127800000D02*
X173300000Y-124900000D01*
X158600000Y-124900000D02*
X155954999Y-122254999D01*
X173734999Y-114165001D02*
X175800000Y-112100000D01*
X188209872Y-113378679D02*
X188209872Y-117640129D01*
X175800000Y-112100000D02*
X186931193Y-112100000D01*
X173734999Y-116124999D02*
X173734999Y-114165001D01*
X188209872Y-117640129D02*
X186350001Y-119500000D01*
X186931193Y-112100000D02*
X188209872Y-113378679D01*
X174200000Y-110700000D02*
X187228249Y-110700000D01*
X187228249Y-110700000D02*
X189409872Y-112881623D01*
X189409872Y-112881623D02*
X189409872Y-120440129D01*
X189409872Y-120440129D02*
X186350001Y-123500000D01*
X171194999Y-113705001D02*
X174200000Y-110700000D01*
X171194999Y-116124999D02*
X171194999Y-113705001D01*
X145794999Y-111994999D02*
X145794999Y-116124999D01*
X127900000Y-152300000D02*
X117800000Y-142200000D01*
X151210000Y-148760000D02*
X151500000Y-149050000D01*
X144400000Y-110600000D02*
X145794999Y-111994999D01*
X117800000Y-142200000D02*
X117800000Y-112100000D01*
X119300000Y-110600000D02*
X144400000Y-110600000D01*
X145020000Y-148760000D02*
X143140000Y-148760000D01*
X143140000Y-148760000D02*
X139600000Y-152300000D01*
X117800000Y-112100000D02*
X119300000Y-110600000D01*
X145020000Y-148760000D02*
X151210000Y-148760000D01*
X139600000Y-152300000D02*
X127900000Y-152300000D01*
X187875000Y-109250000D02*
X191750000Y-113125000D01*
X166114999Y-116124999D02*
X166114999Y-110985001D01*
X191750000Y-122000001D02*
X186350001Y-127400000D01*
X167850000Y-109250000D02*
X187875000Y-109250000D01*
X191750000Y-113125000D02*
X191750000Y-122000001D01*
X166114999Y-110985001D02*
X167850000Y-109250000D01*
X160307500Y-128692500D02*
X170947600Y-128692500D01*
X160250000Y-128750000D02*
X160307500Y-128692500D01*
X143254999Y-127500000D02*
X143254999Y-118664999D01*
X173487500Y-127387500D02*
X172800000Y-126700000D01*
X172800000Y-126700000D02*
X157800000Y-126700000D01*
X153414999Y-122314999D02*
X153414999Y-118664999D01*
X157800000Y-126700000D02*
X153414999Y-122314999D01*
X173487500Y-128692500D02*
X173487500Y-127387500D01*
X193250000Y-124600001D02*
X186350001Y-131500000D01*
X193250000Y-112500000D02*
X193250000Y-124600001D01*
X188750000Y-108000000D02*
X193250000Y-112500000D01*
X158494999Y-116124999D02*
X158494999Y-112705001D01*
X158494999Y-112705001D02*
X163200000Y-108000000D01*
X163200000Y-108000000D02*
X188750000Y-108000000D01*
X202200000Y-131500000D02*
X205500000Y-128200000D01*
X199050001Y-131500000D02*
X202200000Y-131500000D01*
X203240000Y-118040000D02*
X205500000Y-118040000D01*
X199050001Y-115509872D02*
X200709872Y-115509872D01*
X200709872Y-115509872D02*
X203240000Y-118040000D01*
X199050001Y-123500000D02*
X201700000Y-123500000D01*
X202100000Y-123100000D02*
X202120000Y-123120000D01*
X201700000Y-123500000D02*
X202100000Y-123100000D01*
X202120000Y-123120000D02*
X205500000Y-123120000D01*
X205500000Y-125660000D02*
X203740000Y-125660000D01*
X203740000Y-125660000D02*
X202000000Y-127400000D01*
X202000000Y-127400000D02*
X199050001Y-127400000D01*
X203000000Y-120600000D02*
X203020000Y-120580000D01*
X203020000Y-120580000D02*
X205500000Y-120580000D01*
X201300000Y-119500000D02*
X202400000Y-120600000D01*
X199050001Y-119500000D02*
X201300000Y-119500000D01*
X202400000Y-120600000D02*
X203000000Y-120600000D01*
G04 #@! TA.AperFunction,Conductor*
G36*
X205750000Y-114957290D02*
G01*
X205729661Y-114945548D01*
X205578333Y-114905000D01*
X205421667Y-114905000D01*
X205270339Y-114945548D01*
X205250000Y-114957290D01*
X205250000Y-113502709D01*
X205270339Y-113514452D01*
X205421667Y-113555000D01*
X205578333Y-113555000D01*
X205729661Y-113514452D01*
X205750000Y-113502709D01*
X205750000Y-114957290D01*
G37*
G04 #@! TD.AperFunction*
G04 #@! TA.AperFunction,Conductor*
G36*
X205750000Y-112417290D02*
G01*
X205729661Y-112405548D01*
X205578333Y-112365000D01*
X205421667Y-112365000D01*
X205270339Y-112405548D01*
X205250000Y-112417290D01*
X205250000Y-110962709D01*
X205270339Y-110974452D01*
X205421667Y-111015000D01*
X205578333Y-111015000D01*
X205729661Y-110974452D01*
X205750000Y-110962709D01*
X205750000Y-112417290D01*
G37*
G04 #@! TD.AperFunction*
G04 #@! TA.AperFunction,Conductor*
G36*
X210376133Y-107199869D02*
G01*
X210443149Y-107219624D01*
X210488848Y-107272476D01*
X210500000Y-107323869D01*
X210500000Y-155675869D01*
X210480315Y-155742908D01*
X210427511Y-155788663D01*
X210375870Y-155799869D01*
X115423870Y-155700130D01*
X115356851Y-155680375D01*
X115311152Y-155627523D01*
X115300000Y-155576130D01*
X115300000Y-144521389D01*
X115319685Y-144454350D01*
X115372489Y-144408595D01*
X115441647Y-144398651D01*
X115505203Y-144427676D01*
X115511681Y-144433708D01*
X126122490Y-155044517D01*
X126313566Y-155183343D01*
X126524008Y-155290568D01*
X126748631Y-155363553D01*
X126836109Y-155377408D01*
X126981903Y-155400500D01*
X126981908Y-155400500D01*
X140718097Y-155400500D01*
X140951368Y-155363553D01*
X141175992Y-155290568D01*
X141386434Y-155183343D01*
X141577510Y-155044517D01*
X143532207Y-153089818D01*
X143593528Y-153056335D01*
X143663219Y-153061319D01*
X143671150Y-153064594D01*
X143760317Y-153105096D01*
X143760318Y-153105096D01*
X143760322Y-153105098D01*
X143978579Y-153160094D01*
X143978581Y-153160094D01*
X143978588Y-153160096D01*
X144110783Y-153170500D01*
X145929216Y-153170499D01*
X146061412Y-153160096D01*
X146279683Y-153105096D01*
X146484626Y-153012007D01*
X146669654Y-152883819D01*
X146716654Y-152836819D01*
X146777977Y-152803334D01*
X146804335Y-152800500D01*
X154693014Y-152800500D01*
X154760053Y-152820185D01*
X154762865Y-152822046D01*
X154853479Y-152883825D01*
X154897226Y-152913651D01*
X155140359Y-153030738D01*
X155398228Y-153110280D01*
X155398229Y-153110280D01*
X155398232Y-153110281D01*
X155665063Y-153150499D01*
X155665068Y-153150499D01*
X155665071Y-153150500D01*
X155665072Y-153150500D01*
X155934928Y-153150500D01*
X155934929Y-153150500D01*
X155934936Y-153150499D01*
X156201767Y-153110281D01*
X156201768Y-153110280D01*
X156201772Y-153110280D01*
X156459641Y-153030738D01*
X156702775Y-152913651D01*
X156925741Y-152761635D01*
X157123561Y-152578085D01*
X157291815Y-152367102D01*
X157398069Y-152183062D01*
X157448635Y-152134847D01*
X157517242Y-152121623D01*
X157582107Y-152147591D01*
X157615941Y-152188767D01*
X157716657Y-152386434D01*
X157855483Y-152577510D01*
X159822490Y-154544517D01*
X160013566Y-154683343D01*
X160116781Y-154735933D01*
X160224006Y-154790568D01*
X160224012Y-154790570D01*
X160296991Y-154814282D01*
X160296992Y-154814282D01*
X160372812Y-154838917D01*
X160448631Y-154863553D01*
X160681903Y-154900500D01*
X160681908Y-154900500D01*
X167118097Y-154900500D01*
X167351368Y-154863553D01*
X167575992Y-154790568D01*
X167786434Y-154683343D01*
X167977510Y-154544517D01*
X170092710Y-152429318D01*
X170154033Y-152395833D01*
X170180391Y-152392999D01*
X170330499Y-152392999D01*
X170330506Y-152392999D01*
X170584329Y-152359582D01*
X170831618Y-152293321D01*
X171068143Y-152195349D01*
X171289857Y-152067343D01*
X171363862Y-152010556D01*
X171421770Y-151966123D01*
X171486939Y-151940929D01*
X171497256Y-151940499D01*
X173767110Y-151940499D01*
X173834149Y-151960184D01*
X173854791Y-151976818D01*
X174272490Y-152394517D01*
X174463566Y-152533343D01*
X174551378Y-152578085D01*
X174627080Y-152616657D01*
X174674003Y-152640566D01*
X174674005Y-152640566D01*
X174674008Y-152640568D01*
X174794412Y-152679689D01*
X174898631Y-152713553D01*
X175131903Y-152750500D01*
X175131908Y-152750500D01*
X177794843Y-152750500D01*
X177842296Y-152759939D01*
X178003886Y-152826872D01*
X178003887Y-152826872D01*
X178003889Y-152826873D01*
X178248852Y-152885683D01*
X178500000Y-152905449D01*
X178751148Y-152885683D01*
X178996111Y-152826873D01*
X179028066Y-152813636D01*
X179036994Y-152809939D01*
X179084446Y-152800500D01*
X184878952Y-152800500D01*
X184889931Y-152800986D01*
X184941963Y-152805613D01*
X186658036Y-152805612D01*
X186777418Y-152794999D01*
X186973049Y-152739022D01*
X187153407Y-152644811D01*
X187289906Y-152533510D01*
X187354301Y-152506402D01*
X187368266Y-152505613D01*
X193811795Y-152505613D01*
X193972627Y-152505613D01*
X194012483Y-152512192D01*
X194016278Y-152513481D01*
X194305620Y-152571034D01*
X194333888Y-152572886D01*
X194599993Y-152590329D01*
X194600000Y-152590329D01*
X194600007Y-152590329D01*
X194835675Y-152574881D01*
X194894380Y-152571034D01*
X195183722Y-152513481D01*
X195463077Y-152418652D01*
X195727665Y-152288172D01*
X195972957Y-152124273D01*
X196194758Y-151929758D01*
X196389273Y-151707957D01*
X196553172Y-151462665D01*
X196683652Y-151198077D01*
X196778481Y-150918722D01*
X196836034Y-150629380D01*
X196845569Y-150483911D01*
X196855329Y-150335007D01*
X196855329Y-150334992D01*
X196836035Y-150040636D01*
X196836034Y-150040620D01*
X196778481Y-149751278D01*
X196683652Y-149471923D01*
X196553172Y-149207336D01*
X196551353Y-149204614D01*
X196448046Y-149050004D01*
X196389273Y-148962043D01*
X196304832Y-148865757D01*
X196194758Y-148740241D01*
X195972955Y-148545725D01*
X195727667Y-148381829D01*
X195727660Y-148381825D01*
X195463080Y-148251349D01*
X195183730Y-148156521D01*
X195183724Y-148156519D01*
X195183722Y-148156519D01*
X194894380Y-148098966D01*
X194894373Y-148098965D01*
X194894363Y-148098964D01*
X194600007Y-148079671D01*
X194599993Y-148079671D01*
X194305636Y-148098964D01*
X194305624Y-148098965D01*
X194305620Y-148098966D01*
X194305612Y-148098967D01*
X194305609Y-148098968D01*
X194016283Y-148156518D01*
X194016269Y-148156521D01*
X193736919Y-148251349D01*
X193472334Y-148381828D01*
X193227041Y-148545728D01*
X193005241Y-148740241D01*
X192810728Y-148962041D01*
X192646828Y-149207334D01*
X192534331Y-149435457D01*
X192487026Y-149486876D01*
X192423119Y-149504613D01*
X187368266Y-149504613D01*
X187301227Y-149484928D01*
X187289911Y-149476719D01*
X187153407Y-149365415D01*
X187001004Y-149285806D01*
X186950699Y-149237321D01*
X186934592Y-149169333D01*
X186946036Y-149123494D01*
X187026265Y-148951439D01*
X187026269Y-148951430D01*
X187085139Y-148731723D01*
X187085141Y-148731712D01*
X187104966Y-148505115D01*
X187104966Y-148505110D01*
X187085141Y-148278513D01*
X187085139Y-148278502D01*
X187026269Y-148058795D01*
X187026264Y-148058781D01*
X186930136Y-147852634D01*
X186930132Y-147852626D01*
X186879025Y-147779639D01*
X186200000Y-148458664D01*
X186200000Y-148452452D01*
X186172741Y-148350719D01*
X186120080Y-148259507D01*
X186045606Y-148185033D01*
X185954394Y-148132372D01*
X185852661Y-148105113D01*
X185846448Y-148105113D01*
X186525472Y-147426087D01*
X186452478Y-147374976D01*
X186246331Y-147278848D01*
X186246317Y-147278843D01*
X186026610Y-147219973D01*
X186026599Y-147219971D01*
X185800002Y-147200147D01*
X185799998Y-147200147D01*
X185573400Y-147219971D01*
X185573389Y-147219973D01*
X185353682Y-147278843D01*
X185353673Y-147278847D01*
X185147516Y-147374979D01*
X185147512Y-147374981D01*
X185074526Y-147426086D01*
X185074526Y-147426087D01*
X185753553Y-148105113D01*
X185747339Y-148105113D01*
X185645606Y-148132372D01*
X185554394Y-148185033D01*
X185479920Y-148259507D01*
X185427259Y-148350719D01*
X185400000Y-148452452D01*
X185400000Y-148458665D01*
X184720974Y-147779639D01*
X184720973Y-147779639D01*
X184669868Y-147852625D01*
X184669866Y-147852629D01*
X184573734Y-148058786D01*
X184573730Y-148058795D01*
X184514860Y-148278502D01*
X184514858Y-148278513D01*
X184495034Y-148505110D01*
X184495034Y-148505115D01*
X184514858Y-148731712D01*
X184514860Y-148731723D01*
X184573730Y-148951430D01*
X184573734Y-148951439D01*
X184653964Y-149123494D01*
X184664456Y-149192572D01*
X184635936Y-149256356D01*
X184598995Y-149285806D01*
X184446593Y-149365415D01*
X184446591Y-149365416D01*
X184446590Y-149365417D01*
X184288890Y-149494003D01*
X184160302Y-149651706D01*
X184160300Y-149651708D01*
X184117883Y-149732912D01*
X184069397Y-149783219D01*
X184007975Y-149799500D01*
X179717708Y-149799500D01*
X179650669Y-149779815D01*
X179604914Y-149727011D01*
X179594237Y-149686942D01*
X179585902Y-149597010D01*
X179585902Y-149597007D01*
X179530116Y-149400936D01*
X179530113Y-149400930D01*
X179439249Y-149218449D01*
X179439247Y-149218447D01*
X179437465Y-149216087D01*
X178951925Y-149701626D01*
X178890602Y-149735111D01*
X178835298Y-149734519D01*
X178790132Y-149723675D01*
X178779556Y-149684204D01*
X178740060Y-149615795D01*
X178684205Y-149559940D01*
X178615796Y-149520444D01*
X178539496Y-149500000D01*
X178460504Y-149500000D01*
X178384204Y-149520444D01*
X178315795Y-149559940D01*
X178259940Y-149615795D01*
X178220444Y-149684204D01*
X178209867Y-149723675D01*
X178164700Y-149734519D01*
X178094917Y-149731028D01*
X178048073Y-149701626D01*
X177562533Y-149216087D01*
X177560755Y-149218442D01*
X177560754Y-149218443D01*
X177469886Y-149400930D01*
X177469883Y-149400936D01*
X177414097Y-149597007D01*
X177414096Y-149597010D01*
X177410397Y-149636941D01*
X177384611Y-149701878D01*
X177327811Y-149742566D01*
X177286926Y-149749500D01*
X175922889Y-149749500D01*
X175855850Y-149729815D01*
X175835208Y-149713181D01*
X175417510Y-149295483D01*
X175292439Y-149204613D01*
X175226433Y-149156656D01*
X175161349Y-149123494D01*
X175015995Y-149049432D01*
X174791367Y-148976445D01*
X174558096Y-148939499D01*
X174558091Y-148939499D01*
X172071416Y-148939499D01*
X172004377Y-148919814D01*
X171958622Y-148867010D01*
X171958442Y-148865758D01*
X177919311Y-148865758D01*
X178500000Y-149446446D01*
X178500001Y-149446446D01*
X179080687Y-148865758D01*
X178992413Y-148811101D01*
X178992411Y-148811100D01*
X178802321Y-148737460D01*
X178601928Y-148700000D01*
X178398072Y-148700000D01*
X178197678Y-148737460D01*
X178007588Y-148811100D01*
X178007581Y-148811104D01*
X177919312Y-148865757D01*
X177919311Y-148865758D01*
X171958442Y-148865758D01*
X171948678Y-148797852D01*
X171956855Y-148768047D01*
X172043952Y-148557774D01*
X172055822Y-148529118D01*
X172122083Y-148281829D01*
X172155500Y-148028006D01*
X172155500Y-147771994D01*
X172122083Y-147518171D01*
X172055822Y-147270882D01*
X171992435Y-147117853D01*
X171957855Y-147034368D01*
X171957848Y-147034353D01*
X171829847Y-146812647D01*
X171738607Y-146693741D01*
X171673993Y-146609535D01*
X171660323Y-146595865D01*
X171626839Y-146534546D01*
X171631821Y-146464854D01*
X171631823Y-146464849D01*
X171648597Y-146419875D01*
X171648598Y-146419872D01*
X171654999Y-146360344D01*
X171655000Y-146360327D01*
X171655000Y-145610000D01*
X170645748Y-145610000D01*
X170667518Y-145572292D01*
X170705000Y-145432409D01*
X170705000Y-145287591D01*
X170667518Y-145147708D01*
X170645748Y-145110000D01*
X171655000Y-145110000D01*
X171655000Y-144359672D01*
X171654999Y-144359655D01*
X171648598Y-144300127D01*
X171648596Y-144300120D01*
X171598354Y-144165413D01*
X171598350Y-144165406D01*
X171512190Y-144050312D01*
X171512187Y-144050309D01*
X171397093Y-143964149D01*
X171397086Y-143964145D01*
X171378345Y-143957155D01*
X192850000Y-143957155D01*
X192850000Y-145005000D01*
X193999999Y-145005000D01*
X193974979Y-145065402D01*
X193950000Y-145190981D01*
X193950000Y-145319019D01*
X193974979Y-145444598D01*
X193999999Y-145505000D01*
X192850000Y-145505000D01*
X192850000Y-146552844D01*
X192856401Y-146612372D01*
X192856403Y-146612379D01*
X192906645Y-146747086D01*
X192906649Y-146747093D01*
X192992809Y-146862187D01*
X192992812Y-146862190D01*
X193107906Y-146948350D01*
X193107913Y-146948354D01*
X193242620Y-146998596D01*
X193242627Y-146998598D01*
X193302155Y-147004999D01*
X193302172Y-147005000D01*
X194350000Y-147005000D01*
X194350000Y-145855001D01*
X194410402Y-145880021D01*
X194535981Y-145905000D01*
X194664019Y-145905000D01*
X194789598Y-145880021D01*
X194850000Y-145855001D01*
X194850000Y-147005000D01*
X195897828Y-147005000D01*
X195897844Y-147004999D01*
X195957372Y-146998598D01*
X195957379Y-146998596D01*
X196092086Y-146948354D01*
X196092093Y-146948350D01*
X196207187Y-146862190D01*
X196207190Y-146862187D01*
X196293350Y-146747093D01*
X196293354Y-146747086D01*
X196343596Y-146612379D01*
X196343598Y-146612372D01*
X196349999Y-146552844D01*
X196350000Y-146552827D01*
X196350000Y-145505000D01*
X195200001Y-145505000D01*
X195225021Y-145444598D01*
X195250000Y-145319019D01*
X195250000Y-145190981D01*
X195225021Y-145065402D01*
X195200001Y-145005000D01*
X196350000Y-145005000D01*
X196350000Y-143957172D01*
X196349999Y-143957155D01*
X196343598Y-143897627D01*
X196343596Y-143897620D01*
X196293354Y-143762913D01*
X196293350Y-143762906D01*
X196207190Y-143647812D01*
X196207187Y-143647809D01*
X196092093Y-143561649D01*
X196092086Y-143561645D01*
X195957379Y-143511403D01*
X195957372Y-143511401D01*
X195897844Y-143505000D01*
X194850000Y-143505000D01*
X194850000Y-144654998D01*
X194789598Y-144629979D01*
X194664019Y-144605000D01*
X194535981Y-144605000D01*
X194410402Y-144629979D01*
X194350000Y-144654998D01*
X194350000Y-143505000D01*
X193302155Y-143505000D01*
X193242627Y-143511401D01*
X193242620Y-143511403D01*
X193107913Y-143561645D01*
X193107906Y-143561649D01*
X192992812Y-143647809D01*
X192992809Y-143647812D01*
X192906649Y-143762906D01*
X192906645Y-143762913D01*
X192856403Y-143897620D01*
X192856401Y-143897627D01*
X192850000Y-143957155D01*
X171378345Y-143957155D01*
X171262379Y-143913903D01*
X171262372Y-143913901D01*
X171202844Y-143907500D01*
X170405000Y-143907500D01*
X170405000Y-144869252D01*
X170367292Y-144847482D01*
X170227409Y-144810000D01*
X170082591Y-144810000D01*
X169942708Y-144847482D01*
X169905000Y-144869252D01*
X169905000Y-143907500D01*
X169107155Y-143907500D01*
X169047627Y-143913901D01*
X169047620Y-143913903D01*
X168912913Y-143964145D01*
X168912906Y-143964149D01*
X168797812Y-144050309D01*
X168797809Y-144050312D01*
X168711649Y-144165406D01*
X168711645Y-144165413D01*
X168661403Y-144300120D01*
X168661401Y-144300127D01*
X168655000Y-144359655D01*
X168655000Y-145110000D01*
X169664252Y-145110000D01*
X169642482Y-145147708D01*
X169605000Y-145287591D01*
X169605000Y-145432409D01*
X169642482Y-145572292D01*
X169664252Y-145610000D01*
X168655000Y-145610000D01*
X168655000Y-146275500D01*
X168635315Y-146342539D01*
X168582511Y-146388294D01*
X168531000Y-146399500D01*
X167781903Y-146399500D01*
X167548634Y-146436446D01*
X167324005Y-146509433D01*
X167113565Y-146616657D01*
X166922488Y-146755484D01*
X166922487Y-146755485D01*
X165717294Y-147960679D01*
X165655971Y-147994164D01*
X165586279Y-147989180D01*
X165530346Y-147947308D01*
X165505929Y-147881844D01*
X165505613Y-147872998D01*
X165505613Y-145468265D01*
X165525298Y-145401226D01*
X165533499Y-145389919D01*
X165644811Y-145253407D01*
X165739022Y-145073049D01*
X165794999Y-144877418D01*
X165805613Y-144758037D01*
X165805612Y-143041964D01*
X165794999Y-142922582D01*
X165739022Y-142726951D01*
X165644811Y-142546593D01*
X165533511Y-142410094D01*
X165506402Y-142345697D01*
X165505613Y-142331733D01*
X165505613Y-140067776D01*
X165525298Y-140000737D01*
X165541932Y-139980095D01*
X167672708Y-137849319D01*
X167734031Y-137815834D01*
X167760389Y-137813000D01*
X169981408Y-137813000D01*
X170048447Y-137832685D01*
X170051249Y-137834539D01*
X170063879Y-137843150D01*
X170063882Y-137843151D01*
X170063886Y-137843154D01*
X170190288Y-137904025D01*
X170301877Y-137957763D01*
X170301878Y-137957763D01*
X170301881Y-137957765D01*
X170554307Y-138035629D01*
X170554308Y-138035629D01*
X170554311Y-138035630D01*
X170815511Y-138074999D01*
X170815516Y-138074999D01*
X170815519Y-138075000D01*
X170815520Y-138075000D01*
X171079680Y-138075000D01*
X171079681Y-138075000D01*
X171079688Y-138074999D01*
X171340888Y-138035630D01*
X171340889Y-138035629D01*
X171340893Y-138035629D01*
X171593319Y-137957765D01*
X171831321Y-137843150D01*
X172049582Y-137694342D01*
X172243227Y-137514666D01*
X172256438Y-137498099D01*
X172313623Y-137457959D01*
X172383434Y-137455107D01*
X172427697Y-137476145D01*
X172483410Y-137517852D01*
X172483413Y-137517854D01*
X172618120Y-137568096D01*
X172618127Y-137568098D01*
X172677655Y-137574499D01*
X172677672Y-137574500D01*
X173237500Y-137574500D01*
X173237500Y-136754751D01*
X173291419Y-136785881D01*
X173420620Y-136820500D01*
X173554380Y-136820500D01*
X173683581Y-136785881D01*
X173737500Y-136754751D01*
X173737500Y-137574500D01*
X174297328Y-137574500D01*
X174297344Y-137574499D01*
X174356872Y-137568098D01*
X174356879Y-137568096D01*
X174491586Y-137517854D01*
X174491593Y-137517850D01*
X174606687Y-137431690D01*
X174606690Y-137431687D01*
X174692850Y-137316593D01*
X174692854Y-137316586D01*
X174743096Y-137181879D01*
X174743098Y-137181872D01*
X174749499Y-137122344D01*
X174749500Y-137122327D01*
X174749500Y-136562500D01*
X173929751Y-136562500D01*
X173960881Y-136508581D01*
X173995500Y-136379380D01*
X173995500Y-136245620D01*
X173960881Y-136116419D01*
X173929751Y-136062500D01*
X174749500Y-136062500D01*
X174749500Y-135704857D01*
X174769185Y-135637818D01*
X174821989Y-135592063D01*
X174891147Y-135582119D01*
X174954703Y-135611144D01*
X174982332Y-135645430D01*
X175112770Y-135884309D01*
X175112775Y-135884317D01*
X175284254Y-136113387D01*
X175284270Y-136113405D01*
X175486594Y-136315729D01*
X175486612Y-136315745D01*
X175715682Y-136487224D01*
X175715690Y-136487229D01*
X175966833Y-136624364D01*
X175966832Y-136624364D01*
X175966836Y-136624365D01*
X175966839Y-136624367D01*
X176234954Y-136724369D01*
X176234960Y-136724370D01*
X176234962Y-136724371D01*
X176514566Y-136785195D01*
X176514568Y-136785195D01*
X176514572Y-136785196D01*
X176768220Y-136803337D01*
X176799999Y-136805610D01*
X176800000Y-136805610D01*
X176800001Y-136805610D01*
X176828595Y-136803564D01*
X177085428Y-136785196D01*
X177365046Y-136724369D01*
X177633161Y-136624367D01*
X177884315Y-136487226D01*
X178113395Y-136315739D01*
X178315739Y-136113395D01*
X178487226Y-135884315D01*
X178624367Y-135633161D01*
X178724369Y-135365046D01*
X178762325Y-135190566D01*
X178785195Y-135085433D01*
X178785195Y-135085432D01*
X178785196Y-135085428D01*
X178805610Y-134800000D01*
X178785196Y-134514572D01*
X178764135Y-134417758D01*
X178724371Y-134234962D01*
X178724370Y-134234960D01*
X178724369Y-134234954D01*
X178624367Y-133966839D01*
X178596467Y-133915745D01*
X178487229Y-133715690D01*
X178487224Y-133715682D01*
X178315745Y-133486612D01*
X178315729Y-133486594D01*
X178113405Y-133284270D01*
X178113387Y-133284254D01*
X177884317Y-133112775D01*
X177884309Y-133112770D01*
X177633166Y-132975635D01*
X177633167Y-132975635D01*
X177461576Y-132911635D01*
X177365046Y-132875631D01*
X177365043Y-132875630D01*
X177365037Y-132875628D01*
X177085436Y-132814805D01*
X177085429Y-132814804D01*
X176971514Y-132806656D01*
X176906050Y-132782239D01*
X176892680Y-132770653D01*
X176750011Y-132627984D01*
X176637871Y-132546509D01*
X176558934Y-132489157D01*
X176348496Y-132381933D01*
X176232693Y-132344306D01*
X176175018Y-132304868D01*
X176147820Y-132240509D01*
X176159735Y-132171663D01*
X176183328Y-132138697D01*
X177344517Y-130977510D01*
X177483343Y-130786434D01*
X177590568Y-130575992D01*
X177626425Y-130465636D01*
X177663553Y-130351368D01*
X177689649Y-130186605D01*
X177700500Y-130118097D01*
X177700500Y-127681902D01*
X177663553Y-127448631D01*
X177638303Y-127370921D01*
X177590568Y-127224008D01*
X177539384Y-127123553D01*
X177483343Y-127013566D01*
X177344517Y-126822490D01*
X174277510Y-123755483D01*
X174086434Y-123616657D01*
X173875996Y-123509433D01*
X173651368Y-123436446D01*
X173418097Y-123399500D01*
X173418092Y-123399500D01*
X159272889Y-123399500D01*
X159205850Y-123379815D01*
X159185208Y-123363181D01*
X157491818Y-121669791D01*
X157458333Y-121608468D01*
X157455499Y-121582110D01*
X157455499Y-119823379D01*
X157475184Y-119756340D01*
X157527988Y-119710585D01*
X157597146Y-119700641D01*
X157650623Y-119721805D01*
X157817413Y-119838595D01*
X157817419Y-119838598D01*
X158031506Y-119938428D01*
X158031515Y-119938432D01*
X158244999Y-119995633D01*
X158244999Y-119098011D01*
X158302006Y-119130924D01*
X158429173Y-119164999D01*
X158560825Y-119164999D01*
X158687992Y-119130924D01*
X158744999Y-119098011D01*
X158744999Y-119995632D01*
X158958482Y-119938432D01*
X158958491Y-119938428D01*
X159172577Y-119838599D01*
X159355907Y-119710229D01*
X159422113Y-119687902D01*
X159489881Y-119704912D01*
X159526298Y-119737494D01*
X159632905Y-119879906D01*
X159632921Y-119879924D01*
X159820073Y-120067076D01*
X159820091Y-120067092D01*
X160031985Y-120225713D01*
X160031993Y-120225718D01*
X160264304Y-120352570D01*
X160264308Y-120352572D01*
X160264310Y-120352573D01*
X160512321Y-120445076D01*
X160512324Y-120445076D01*
X160512325Y-120445077D01*
X160568978Y-120457401D01*
X160770973Y-120501342D01*
X161014659Y-120518771D01*
X161034998Y-120520226D01*
X161034999Y-120520226D01*
X161035000Y-120520226D01*
X161053884Y-120518875D01*
X161299025Y-120501342D01*
X161557677Y-120445076D01*
X161805688Y-120352573D01*
X162038010Y-120225715D01*
X162148154Y-120143262D01*
X162230689Y-120081478D01*
X162296153Y-120057061D01*
X162364426Y-120071913D01*
X162379309Y-120081478D01*
X162571985Y-120225713D01*
X162571993Y-120225718D01*
X162804304Y-120352570D01*
X162804308Y-120352572D01*
X162804310Y-120352573D01*
X163052321Y-120445076D01*
X163052324Y-120445076D01*
X163052325Y-120445077D01*
X163108978Y-120457401D01*
X163310973Y-120501342D01*
X163554659Y-120518771D01*
X163574998Y-120520226D01*
X163574999Y-120520226D01*
X163575000Y-120520226D01*
X163593884Y-120518875D01*
X163839025Y-120501342D01*
X164097677Y-120445076D01*
X164345688Y-120352573D01*
X164578010Y-120225715D01*
X164688154Y-120143262D01*
X164770689Y-120081478D01*
X164836153Y-120057061D01*
X164904426Y-120071913D01*
X164919309Y-120081478D01*
X165111985Y-120225713D01*
X165111993Y-120225718D01*
X165344304Y-120352570D01*
X165344308Y-120352572D01*
X165344310Y-120352573D01*
X165592321Y-120445076D01*
X165592324Y-120445076D01*
X165592325Y-120445077D01*
X165648978Y-120457401D01*
X165850973Y-120501342D01*
X166094659Y-120518771D01*
X166114998Y-120520226D01*
X166114999Y-120520226D01*
X166115000Y-120520226D01*
X166133884Y-120518875D01*
X166379025Y-120501342D01*
X166637677Y-120445076D01*
X166885688Y-120352573D01*
X167118010Y-120225715D01*
X167228154Y-120143262D01*
X167310689Y-120081478D01*
X167376153Y-120057061D01*
X167444426Y-120071913D01*
X167459309Y-120081478D01*
X167651985Y-120225713D01*
X167651993Y-120225718D01*
X167884304Y-120352570D01*
X167884308Y-120352572D01*
X167884310Y-120352573D01*
X168132321Y-120445076D01*
X168132324Y-120445076D01*
X168132325Y-120445077D01*
X168188978Y-120457401D01*
X168390973Y-120501342D01*
X168634659Y-120518771D01*
X168654998Y-120520226D01*
X168654999Y-120520226D01*
X168655000Y-120520226D01*
X168673884Y-120518875D01*
X168919025Y-120501342D01*
X169177677Y-120445076D01*
X169425688Y-120352573D01*
X169658010Y-120225715D01*
X169768154Y-120143262D01*
X169850689Y-120081478D01*
X169916153Y-120057061D01*
X169984426Y-120071913D01*
X169999309Y-120081478D01*
X170191985Y-120225713D01*
X170191993Y-120225718D01*
X170424304Y-120352570D01*
X170424308Y-120352572D01*
X170424310Y-120352573D01*
X170672321Y-120445076D01*
X170672324Y-120445076D01*
X170672325Y-120445077D01*
X170728978Y-120457401D01*
X170930973Y-120501342D01*
X171174659Y-120518771D01*
X171194998Y-120520226D01*
X171194999Y-120520226D01*
X171195000Y-120520226D01*
X171213884Y-120518875D01*
X171459025Y-120501342D01*
X171717677Y-120445076D01*
X171965688Y-120352573D01*
X172198010Y-120225715D01*
X172308154Y-120143262D01*
X172390689Y-120081478D01*
X172456153Y-120057061D01*
X172524426Y-120071913D01*
X172539309Y-120081478D01*
X172731985Y-120225713D01*
X172731993Y-120225718D01*
X172964304Y-120352570D01*
X172964308Y-120352572D01*
X172964310Y-120352573D01*
X173212321Y-120445076D01*
X173212324Y-120445076D01*
X173212325Y-120445077D01*
X173268978Y-120457401D01*
X173470973Y-120501342D01*
X173714659Y-120518771D01*
X173734998Y-120520226D01*
X173734999Y-120520226D01*
X173735000Y-120520226D01*
X173753884Y-120518875D01*
X173999025Y-120501342D01*
X174257677Y-120445076D01*
X174505688Y-120352573D01*
X174738010Y-120225715D01*
X174949914Y-120067086D01*
X175137086Y-119879914D01*
X175243700Y-119737493D01*
X175299633Y-119695622D01*
X175369325Y-119690638D01*
X175414091Y-119710229D01*
X175597420Y-119838599D01*
X175811506Y-119938428D01*
X175811515Y-119938432D01*
X176024999Y-119995633D01*
X176024999Y-119098011D01*
X176082006Y-119130924D01*
X176209173Y-119164999D01*
X176340825Y-119164999D01*
X176467992Y-119130924D01*
X176524999Y-119098011D01*
X176524999Y-119995632D01*
X176738482Y-119938432D01*
X176738491Y-119938428D01*
X176952577Y-119838599D01*
X177146081Y-119703104D01*
X177313104Y-119536081D01*
X177448599Y-119342577D01*
X177548428Y-119128491D01*
X177548431Y-119128485D01*
X177605635Y-118914999D01*
X176708011Y-118914999D01*
X176740924Y-118857992D01*
X176774999Y-118730825D01*
X176774999Y-118599173D01*
X176740924Y-118472006D01*
X176708011Y-118414999D01*
X177605635Y-118414999D01*
X177605634Y-118414998D01*
X177548431Y-118201512D01*
X177548428Y-118201506D01*
X177448599Y-117987421D01*
X177448598Y-117987419D01*
X177320229Y-117804089D01*
X177297902Y-117737883D01*
X177314912Y-117670116D01*
X177347488Y-117633704D01*
X177489914Y-117527086D01*
X177677086Y-117339914D01*
X177835715Y-117128010D01*
X177962573Y-116895688D01*
X178055076Y-116647677D01*
X178111342Y-116389025D01*
X178130226Y-116124999D01*
X178111342Y-115860973D01*
X178055076Y-115602321D01*
X177962573Y-115354310D01*
X177962570Y-115354304D01*
X177869537Y-115183927D01*
X177854685Y-115115654D01*
X177879102Y-115050190D01*
X177935035Y-115008318D01*
X177978369Y-115000500D01*
X183667240Y-115000500D01*
X183734279Y-115020185D01*
X183754921Y-115036819D01*
X184559331Y-115841229D01*
X184592540Y-115901315D01*
X184624667Y-116042067D01*
X184624671Y-116042077D01*
X184693730Y-116218036D01*
X184723258Y-116293270D01*
X184858186Y-116526974D01*
X184909185Y-116590924D01*
X185026443Y-116737961D01*
X185124190Y-116828656D01*
X185224260Y-116921507D01*
X185447227Y-117073523D01*
X185690360Y-117190610D01*
X185948229Y-117270152D01*
X185948230Y-117270152D01*
X185948233Y-117270153D01*
X186148185Y-117300291D01*
X186211542Y-117329747D01*
X186248916Y-117388781D01*
X186248441Y-117458649D01*
X186217385Y-117510587D01*
X186024207Y-117703764D01*
X185962884Y-117737249D01*
X185955013Y-117738697D01*
X185948240Y-117739718D01*
X185948228Y-117739720D01*
X185690359Y-117819262D01*
X185447231Y-117936346D01*
X185224259Y-118088365D01*
X185026443Y-118271910D01*
X184858186Y-118482898D01*
X184723259Y-118716599D01*
X184723257Y-118716603D01*
X184624667Y-118967804D01*
X184624665Y-118967811D01*
X184564617Y-119230898D01*
X184544452Y-119499995D01*
X184544452Y-119500004D01*
X184564617Y-119769101D01*
X184624665Y-120032188D01*
X184624667Y-120032195D01*
X184696139Y-120214302D01*
X184723258Y-120283398D01*
X184858186Y-120517102D01*
X184994081Y-120687509D01*
X185026443Y-120728089D01*
X185213184Y-120901358D01*
X185224260Y-120911635D01*
X185447227Y-121063651D01*
X185690360Y-121180738D01*
X185948229Y-121260280D01*
X185948230Y-121260280D01*
X185948233Y-121260281D01*
X186156765Y-121291712D01*
X186220122Y-121321168D01*
X186257496Y-121380202D01*
X186257021Y-121450070D01*
X186225965Y-121502008D01*
X186024208Y-121703764D01*
X185962885Y-121737249D01*
X185955014Y-121738697D01*
X185948228Y-121739720D01*
X185948226Y-121739720D01*
X185690359Y-121819262D01*
X185447231Y-121936346D01*
X185224259Y-122088365D01*
X185026443Y-122271910D01*
X184858186Y-122482898D01*
X184723259Y-122716599D01*
X184723257Y-122716603D01*
X184624667Y-122967804D01*
X184624665Y-122967811D01*
X184564617Y-123230898D01*
X184544452Y-123499995D01*
X184544452Y-123500004D01*
X184564617Y-123769101D01*
X184605696Y-123949078D01*
X184624667Y-124032195D01*
X184723258Y-124283398D01*
X184858186Y-124517102D01*
X184939109Y-124618576D01*
X185026443Y-124728089D01*
X185201555Y-124890568D01*
X185224260Y-124911635D01*
X185447227Y-125063651D01*
X185690360Y-125180738D01*
X185948229Y-125260280D01*
X185948234Y-125260280D01*
X185948235Y-125260281D01*
X185991311Y-125266773D01*
X186069862Y-125278613D01*
X186133219Y-125308069D01*
X186170594Y-125367102D01*
X186170119Y-125436970D01*
X186139063Y-125488909D01*
X186024208Y-125603764D01*
X185962885Y-125637249D01*
X185955014Y-125638697D01*
X185948228Y-125639720D01*
X185948226Y-125639720D01*
X185690359Y-125719262D01*
X185447231Y-125836346D01*
X185224259Y-125988365D01*
X185026443Y-126171910D01*
X184858186Y-126382898D01*
X184723259Y-126616599D01*
X184723257Y-126616603D01*
X184624667Y-126867804D01*
X184624665Y-126867811D01*
X184564617Y-127130898D01*
X184544452Y-127399995D01*
X184544452Y-127400004D01*
X184564617Y-127669101D01*
X184624665Y-127932188D01*
X184624667Y-127932195D01*
X184723258Y-128183398D01*
X184858186Y-128417102D01*
X184976687Y-128565697D01*
X185026443Y-128628089D01*
X185201555Y-128790568D01*
X185224260Y-128811635D01*
X185447227Y-128963651D01*
X185690360Y-129080738D01*
X185948229Y-129160280D01*
X185948230Y-129160280D01*
X185948233Y-129160281D01*
X186215064Y-129200499D01*
X186215069Y-129200499D01*
X186215072Y-129200500D01*
X186215073Y-129200500D01*
X186228111Y-129200500D01*
X186295150Y-129220185D01*
X186340905Y-129272989D01*
X186350849Y-129342147D01*
X186321824Y-129405703D01*
X186315792Y-129412181D01*
X186024208Y-129703764D01*
X185962885Y-129737249D01*
X185955014Y-129738697D01*
X185948228Y-129739720D01*
X185948226Y-129739720D01*
X185690359Y-129819262D01*
X185447231Y-129936346D01*
X185224259Y-130088365D01*
X185026443Y-130271910D01*
X184858186Y-130482898D01*
X184723259Y-130716599D01*
X184723257Y-130716603D01*
X184624667Y-130967804D01*
X184624665Y-130967811D01*
X184564617Y-131230898D01*
X184544452Y-131499995D01*
X184544452Y-131500004D01*
X184564617Y-131769101D01*
X184624665Y-132032188D01*
X184624667Y-132032195D01*
X184719870Y-132274767D01*
X184723258Y-132283398D01*
X184858186Y-132517102D01*
X184992422Y-132685428D01*
X185026443Y-132728089D01*
X185185457Y-132875631D01*
X185224260Y-132911635D01*
X185447227Y-133063651D01*
X185690360Y-133180738D01*
X185948229Y-133260280D01*
X185948230Y-133260280D01*
X185948233Y-133260281D01*
X186215064Y-133300499D01*
X186215069Y-133300499D01*
X186215072Y-133300500D01*
X186215073Y-133300500D01*
X186484929Y-133300500D01*
X186484930Y-133300500D01*
X186484937Y-133300499D01*
X186751768Y-133260281D01*
X186751769Y-133260280D01*
X186751773Y-133260280D01*
X187009642Y-133180738D01*
X187252776Y-133063651D01*
X187475742Y-132911635D01*
X187673562Y-132728085D01*
X187841816Y-132517102D01*
X187976744Y-132283398D01*
X188075335Y-132032195D01*
X188107459Y-131891445D01*
X188140667Y-131831359D01*
X194394517Y-125577511D01*
X194533343Y-125386435D01*
X194640568Y-125175993D01*
X194713553Y-124951370D01*
X194740166Y-124783343D01*
X194750500Y-124718098D01*
X194750500Y-115509867D01*
X197244452Y-115509867D01*
X197244452Y-115509876D01*
X197264617Y-115778973D01*
X197324665Y-116042060D01*
X197324667Y-116042067D01*
X197406667Y-116250999D01*
X197423258Y-116293270D01*
X197558186Y-116526974D01*
X197609185Y-116590924D01*
X197726443Y-116737961D01*
X197824190Y-116828656D01*
X197924260Y-116921507D01*
X198147227Y-117073523D01*
X198390360Y-117190610D01*
X198648229Y-117270152D01*
X198648230Y-117270152D01*
X198648233Y-117270153D01*
X198915064Y-117310371D01*
X198915069Y-117310371D01*
X198915072Y-117310372D01*
X198915073Y-117310372D01*
X199184929Y-117310372D01*
X199184930Y-117310372D01*
X199184937Y-117310371D01*
X199451768Y-117270153D01*
X199451769Y-117270152D01*
X199451773Y-117270152D01*
X199709642Y-117190610D01*
X199952776Y-117073523D01*
X199986049Y-117050837D01*
X200052527Y-117029336D01*
X200120077Y-117047189D01*
X200143582Y-117065609D01*
X200865792Y-117787819D01*
X200899277Y-117849142D01*
X200894293Y-117918834D01*
X200852421Y-117974767D01*
X200786957Y-117999184D01*
X200778111Y-117999500D01*
X200083650Y-117999500D01*
X200016611Y-117979815D01*
X200013831Y-117977976D01*
X199952776Y-117936349D01*
X199952770Y-117936346D01*
X199952769Y-117936345D01*
X199952768Y-117936344D01*
X199709644Y-117819263D01*
X199709646Y-117819263D01*
X199451774Y-117739720D01*
X199451768Y-117739718D01*
X199184937Y-117699500D01*
X199184930Y-117699500D01*
X198915072Y-117699500D01*
X198915064Y-117699500D01*
X198648233Y-117739718D01*
X198648227Y-117739720D01*
X198390359Y-117819262D01*
X198147231Y-117936346D01*
X197924259Y-118088365D01*
X197726443Y-118271910D01*
X197558186Y-118482898D01*
X197423259Y-118716599D01*
X197423257Y-118716603D01*
X197324667Y-118967804D01*
X197324665Y-118967811D01*
X197264617Y-119230898D01*
X197244452Y-119499995D01*
X197244452Y-119500004D01*
X197264617Y-119769101D01*
X197324665Y-120032188D01*
X197324667Y-120032195D01*
X197396139Y-120214302D01*
X197423258Y-120283398D01*
X197558186Y-120517102D01*
X197694081Y-120687509D01*
X197726443Y-120728089D01*
X197913184Y-120901358D01*
X197924260Y-120911635D01*
X198147227Y-121063651D01*
X198390360Y-121180738D01*
X198648229Y-121260280D01*
X198648230Y-121260280D01*
X198648233Y-121260281D01*
X198915064Y-121300499D01*
X198915069Y-121300499D01*
X198915072Y-121300500D01*
X198915073Y-121300500D01*
X199184929Y-121300500D01*
X199184930Y-121300500D01*
X199243235Y-121291712D01*
X199451768Y-121260281D01*
X199451769Y-121260280D01*
X199451773Y-121260280D01*
X199709642Y-121180738D01*
X199952776Y-121063651D01*
X200013799Y-121022045D01*
X200080278Y-121000546D01*
X200083650Y-121000500D01*
X200627111Y-121000500D01*
X200694150Y-121020185D01*
X200714792Y-121036819D01*
X201315775Y-121637802D01*
X201349260Y-121699125D01*
X201344276Y-121768817D01*
X201302404Y-121824750D01*
X201300980Y-121825801D01*
X201122488Y-121955484D01*
X201122487Y-121955485D01*
X201114792Y-121963181D01*
X201053469Y-121996666D01*
X201027111Y-121999500D01*
X200083650Y-121999500D01*
X200016611Y-121979815D01*
X200013831Y-121977976D01*
X199952776Y-121936349D01*
X199952770Y-121936346D01*
X199952769Y-121936345D01*
X199952768Y-121936344D01*
X199709644Y-121819263D01*
X199709646Y-121819263D01*
X199451774Y-121739720D01*
X199451768Y-121739718D01*
X199184937Y-121699500D01*
X199184930Y-121699500D01*
X198915072Y-121699500D01*
X198915064Y-121699500D01*
X198648233Y-121739718D01*
X198648227Y-121739720D01*
X198390359Y-121819262D01*
X198147231Y-121936346D01*
X197924259Y-122088365D01*
X197726443Y-122271910D01*
X197558186Y-122482898D01*
X197423259Y-122716599D01*
X197423257Y-122716603D01*
X197324667Y-122967804D01*
X197324665Y-122967811D01*
X197264617Y-123230898D01*
X197244452Y-123499995D01*
X197244452Y-123500004D01*
X197264617Y-123769101D01*
X197305696Y-123949078D01*
X197324667Y-124032195D01*
X197423258Y-124283398D01*
X197558186Y-124517102D01*
X197639109Y-124618576D01*
X197726443Y-124728089D01*
X197901555Y-124890568D01*
X197924260Y-124911635D01*
X198147227Y-125063651D01*
X198390360Y-125180738D01*
X198648229Y-125260280D01*
X198648230Y-125260280D01*
X198648233Y-125260281D01*
X198915064Y-125300499D01*
X198915069Y-125300499D01*
X198915072Y-125300500D01*
X198915073Y-125300500D01*
X199184929Y-125300500D01*
X199184930Y-125300500D01*
X199184937Y-125300499D01*
X199451768Y-125260281D01*
X199451769Y-125260280D01*
X199451773Y-125260280D01*
X199709642Y-125180738D01*
X199952776Y-125063651D01*
X200013799Y-125022045D01*
X200080278Y-125000546D01*
X200083650Y-125000500D01*
X201818096Y-125000500D01*
X201889308Y-124989220D01*
X201986990Y-124973749D01*
X202056281Y-124982703D01*
X202109733Y-125027699D01*
X202130373Y-125094450D01*
X202111649Y-125161764D01*
X202094067Y-125183903D01*
X201414792Y-125863181D01*
X201353469Y-125896666D01*
X201327111Y-125899500D01*
X200083650Y-125899500D01*
X200016611Y-125879815D01*
X200013831Y-125877976D01*
X199952776Y-125836349D01*
X199952770Y-125836346D01*
X199952769Y-125836345D01*
X199952768Y-125836344D01*
X199709644Y-125719263D01*
X199709646Y-125719263D01*
X199451774Y-125639720D01*
X199451768Y-125639718D01*
X199184937Y-125599500D01*
X199184930Y-125599500D01*
X198915072Y-125599500D01*
X198915064Y-125599500D01*
X198648233Y-125639718D01*
X198648227Y-125639720D01*
X198390359Y-125719262D01*
X198147231Y-125836346D01*
X197924259Y-125988365D01*
X197726443Y-126171910D01*
X197558186Y-126382898D01*
X197423259Y-126616599D01*
X197423257Y-126616603D01*
X197324667Y-126867804D01*
X197324665Y-126867811D01*
X197264617Y-127130898D01*
X197244452Y-127399995D01*
X197244452Y-127400004D01*
X197264617Y-127669101D01*
X197324665Y-127932188D01*
X197324667Y-127932195D01*
X197423258Y-128183398D01*
X197558186Y-128417102D01*
X197676687Y-128565697D01*
X197726443Y-128628089D01*
X197901555Y-128790568D01*
X197924260Y-128811635D01*
X198147227Y-128963651D01*
X198390360Y-129080738D01*
X198648229Y-129160280D01*
X198648230Y-129160280D01*
X198648233Y-129160281D01*
X198915064Y-129200499D01*
X198915069Y-129200499D01*
X198915072Y-129200500D01*
X198915073Y-129200500D01*
X199184929Y-129200500D01*
X199184930Y-129200500D01*
X199272978Y-129187229D01*
X199451768Y-129160281D01*
X199451769Y-129160280D01*
X199451773Y-129160280D01*
X199709642Y-129080738D01*
X199952776Y-128963651D01*
X200013799Y-128922045D01*
X200080278Y-128900546D01*
X200083650Y-128900500D01*
X202118097Y-128900500D01*
X202351368Y-128863553D01*
X202397939Y-128848421D01*
X202467780Y-128846426D01*
X202527613Y-128882506D01*
X202558442Y-128945206D01*
X202550478Y-129014621D01*
X202523939Y-129054033D01*
X201614792Y-129963181D01*
X201553469Y-129996666D01*
X201527111Y-129999500D01*
X200083650Y-129999500D01*
X200016611Y-129979815D01*
X200013831Y-129977976D01*
X199952776Y-129936349D01*
X199952770Y-129936346D01*
X199952769Y-129936345D01*
X199952768Y-129936344D01*
X199709644Y-129819263D01*
X199709646Y-129819263D01*
X199451774Y-129739720D01*
X199451768Y-129739718D01*
X199184937Y-129699500D01*
X199184930Y-129699500D01*
X198915072Y-129699500D01*
X198915064Y-129699500D01*
X198648233Y-129739718D01*
X198648227Y-129739720D01*
X198390359Y-129819262D01*
X198147231Y-129936346D01*
X197924259Y-130088365D01*
X197726443Y-130271910D01*
X197558186Y-130482898D01*
X197423259Y-130716599D01*
X197423257Y-130716603D01*
X197324667Y-130967804D01*
X197324665Y-130967811D01*
X197264617Y-131230898D01*
X197244452Y-131499995D01*
X197244452Y-131500004D01*
X197264617Y-131769101D01*
X197324665Y-132032188D01*
X197324667Y-132032195D01*
X197419870Y-132274767D01*
X197423258Y-132283398D01*
X197558186Y-132517102D01*
X197692422Y-132685428D01*
X197726443Y-132728089D01*
X197885457Y-132875631D01*
X197924260Y-132911635D01*
X198147227Y-133063651D01*
X198390360Y-133180738D01*
X198648229Y-133260280D01*
X198648230Y-133260280D01*
X198648233Y-133260281D01*
X198915064Y-133300499D01*
X198915069Y-133300499D01*
X198915072Y-133300500D01*
X198915073Y-133300500D01*
X199184929Y-133300500D01*
X199184930Y-133300500D01*
X199184937Y-133300499D01*
X199451768Y-133260281D01*
X199451769Y-133260280D01*
X199451773Y-133260280D01*
X199709642Y-133180738D01*
X199952776Y-133063651D01*
X200013799Y-133022045D01*
X200080278Y-133000546D01*
X200083650Y-133000500D01*
X202318097Y-133000500D01*
X202551368Y-132963553D01*
X202775992Y-132890568D01*
X202986434Y-132783343D01*
X203177510Y-132644517D01*
X205715209Y-130106819D01*
X205776532Y-130073334D01*
X205802890Y-130070500D01*
X205847592Y-130070500D01*
X205847599Y-130070500D01*
X206090699Y-130038495D01*
X206327542Y-129975033D01*
X206554076Y-129881200D01*
X206766424Y-129758601D01*
X206960952Y-129609333D01*
X206960956Y-129609328D01*
X206960961Y-129609325D01*
X207134325Y-129435961D01*
X207134328Y-129435956D01*
X207134333Y-129435952D01*
X207283601Y-129241424D01*
X207406200Y-129029076D01*
X207500033Y-128802542D01*
X207563495Y-128565699D01*
X207595500Y-128322599D01*
X207595500Y-128077401D01*
X207563495Y-127834301D01*
X207500033Y-127597458D01*
X207406200Y-127370924D01*
X207283601Y-127158576D01*
X207166129Y-127005485D01*
X207140935Y-126940318D01*
X207154973Y-126871873D01*
X207166127Y-126854517D01*
X207283601Y-126701424D01*
X207406200Y-126489076D01*
X207500033Y-126262542D01*
X207563495Y-126025699D01*
X207595500Y-125782599D01*
X207595500Y-125537401D01*
X207563495Y-125294301D01*
X207500033Y-125057458D01*
X207487706Y-125027699D01*
X207439631Y-124911634D01*
X207406200Y-124830924D01*
X207283601Y-124618576D01*
X207166129Y-124465485D01*
X207140935Y-124400318D01*
X207154973Y-124331873D01*
X207166127Y-124314517D01*
X207283601Y-124161424D01*
X207406200Y-123949076D01*
X207500033Y-123722542D01*
X207563495Y-123485699D01*
X207595500Y-123242599D01*
X207595500Y-122997401D01*
X207563495Y-122754301D01*
X207500033Y-122517458D01*
X207406200Y-122290924D01*
X207283601Y-122078576D01*
X207166129Y-121925485D01*
X207140935Y-121860318D01*
X207154973Y-121791873D01*
X207166127Y-121774517D01*
X207283601Y-121621424D01*
X207406200Y-121409076D01*
X207500033Y-121182542D01*
X207563495Y-120945699D01*
X207595500Y-120702599D01*
X207595500Y-120457401D01*
X207563495Y-120214301D01*
X207500033Y-119977458D01*
X207406200Y-119750924D01*
X207283601Y-119538576D01*
X207254003Y-119500004D01*
X207232102Y-119471463D01*
X207166129Y-119385485D01*
X207140935Y-119320318D01*
X207154973Y-119251873D01*
X207166127Y-119234517D01*
X207283601Y-119081424D01*
X207406200Y-118869076D01*
X207500033Y-118642542D01*
X207563495Y-118405699D01*
X207595500Y-118162599D01*
X207595500Y-117917401D01*
X207563495Y-117674301D01*
X207500033Y-117437458D01*
X207479870Y-117388781D01*
X207455418Y-117329747D01*
X207406200Y-117210924D01*
X207283601Y-116998576D01*
X207134333Y-116804048D01*
X207134332Y-116804047D01*
X207134325Y-116804039D01*
X206960961Y-116630675D01*
X206960952Y-116630667D01*
X206823065Y-116524861D01*
X206781862Y-116468433D01*
X206777708Y-116398687D01*
X206798235Y-116353600D01*
X206896726Y-116218040D01*
X206994627Y-116025901D01*
X207061266Y-115820809D01*
X207072481Y-115750000D01*
X206042709Y-115750000D01*
X206054452Y-115729661D01*
X206095000Y-115578333D01*
X206095000Y-115421667D01*
X206054452Y-115270339D01*
X206042709Y-115250000D01*
X207072481Y-115250000D01*
X207061266Y-115179190D01*
X206994627Y-114974098D01*
X206896728Y-114781963D01*
X206769974Y-114607503D01*
X206769974Y-114607502D01*
X206617497Y-114455025D01*
X206445853Y-114330318D01*
X206403188Y-114274988D01*
X206397209Y-114205375D01*
X206429815Y-114143580D01*
X206445853Y-114129682D01*
X206617497Y-114004974D01*
X206769974Y-113852497D01*
X206769974Y-113852496D01*
X206896728Y-113678036D01*
X206994627Y-113485901D01*
X207061266Y-113280809D01*
X207072481Y-113210000D01*
X206042709Y-113210000D01*
X206054452Y-113189661D01*
X206095000Y-113038333D01*
X206095000Y-112881667D01*
X206054452Y-112730339D01*
X206042709Y-112710000D01*
X207072481Y-112710000D01*
X207061266Y-112639190D01*
X206994627Y-112434098D01*
X206896728Y-112241963D01*
X206769974Y-112067503D01*
X206769974Y-112067502D01*
X206627513Y-111925041D01*
X206594028Y-111863718D01*
X206599012Y-111794026D01*
X206640884Y-111738093D01*
X206662808Y-111724969D01*
X206664128Y-111724353D01*
X206813345Y-111632315D01*
X206937315Y-111508345D01*
X207029356Y-111359124D01*
X207029358Y-111359119D01*
X207084505Y-111192697D01*
X207084506Y-111192690D01*
X207094999Y-111089986D01*
X207095000Y-111089973D01*
X207095000Y-110670000D01*
X206042709Y-110670000D01*
X206054452Y-110649661D01*
X206095000Y-110498333D01*
X206095000Y-110341667D01*
X206054452Y-110190339D01*
X206042709Y-110170000D01*
X207094999Y-110170000D01*
X207094999Y-109750028D01*
X207094998Y-109750013D01*
X207084505Y-109647302D01*
X207029358Y-109480880D01*
X207029356Y-109480875D01*
X206937315Y-109331654D01*
X206813345Y-109207684D01*
X206664124Y-109115643D01*
X206664119Y-109115641D01*
X206497697Y-109060494D01*
X206497690Y-109060493D01*
X206394986Y-109050000D01*
X205750000Y-109050000D01*
X205750000Y-109877290D01*
X205729661Y-109865548D01*
X205578333Y-109825000D01*
X205421667Y-109825000D01*
X205270339Y-109865548D01*
X205250000Y-109877290D01*
X205250000Y-109050000D01*
X204605028Y-109050000D01*
X204605012Y-109050001D01*
X204502302Y-109060494D01*
X204335880Y-109115641D01*
X204335875Y-109115643D01*
X204186654Y-109207684D01*
X204062684Y-109331654D01*
X203970643Y-109480875D01*
X203970641Y-109480880D01*
X203915494Y-109647302D01*
X203915493Y-109647309D01*
X203905000Y-109750013D01*
X203905000Y-110170000D01*
X204957291Y-110170000D01*
X204945548Y-110190339D01*
X204905000Y-110341667D01*
X204905000Y-110498333D01*
X204945548Y-110649661D01*
X204957291Y-110670000D01*
X203905001Y-110670000D01*
X203905001Y-111089986D01*
X203915494Y-111192697D01*
X203970641Y-111359119D01*
X203970643Y-111359124D01*
X204062684Y-111508345D01*
X204186654Y-111632315D01*
X204335875Y-111724355D01*
X204337197Y-111724972D01*
X204337952Y-111725637D01*
X204342025Y-111728149D01*
X204341596Y-111728844D01*
X204389641Y-111771138D01*
X204408801Y-111838329D01*
X204388593Y-111905213D01*
X204372487Y-111925041D01*
X204230022Y-112067506D01*
X204103271Y-112241963D01*
X204005372Y-112434098D01*
X203938733Y-112639190D01*
X203927519Y-112710000D01*
X204957291Y-112710000D01*
X204945548Y-112730339D01*
X204905000Y-112881667D01*
X204905000Y-113038333D01*
X204945548Y-113189661D01*
X204957291Y-113210000D01*
X203927519Y-113210000D01*
X203938733Y-113280809D01*
X204005372Y-113485901D01*
X204103271Y-113678036D01*
X204230025Y-113852496D01*
X204230025Y-113852497D01*
X204382502Y-114004974D01*
X204554146Y-114129682D01*
X204596811Y-114185012D01*
X204602790Y-114254626D01*
X204570184Y-114316421D01*
X204554146Y-114330318D01*
X204382503Y-114455025D01*
X204382502Y-114455025D01*
X204230025Y-114607502D01*
X204230025Y-114607503D01*
X204103271Y-114781963D01*
X204005372Y-114974098D01*
X203938733Y-115179190D01*
X203927519Y-115250000D01*
X204957291Y-115250000D01*
X204945548Y-115270339D01*
X204905000Y-115421667D01*
X204905000Y-115578333D01*
X204945548Y-115729661D01*
X204957291Y-115750000D01*
X203927519Y-115750000D01*
X203938733Y-115820809D01*
X204005372Y-116025901D01*
X204103271Y-116218036D01*
X204193783Y-116342614D01*
X204217263Y-116408421D01*
X204201438Y-116476474D01*
X204151332Y-116525169D01*
X204093465Y-116539500D01*
X203912889Y-116539500D01*
X203845850Y-116519815D01*
X203825208Y-116503181D01*
X201687383Y-114365356D01*
X201659258Y-114344922D01*
X201496306Y-114226529D01*
X201435987Y-114195795D01*
X201285868Y-114119305D01*
X201061240Y-114046318D01*
X200827969Y-114009372D01*
X200827964Y-114009372D01*
X200083650Y-114009372D01*
X200016611Y-113989687D01*
X200013831Y-113987848D01*
X199952776Y-113946221D01*
X199952770Y-113946218D01*
X199952769Y-113946217D01*
X199952768Y-113946216D01*
X199709644Y-113829135D01*
X199709646Y-113829135D01*
X199451774Y-113749592D01*
X199451768Y-113749590D01*
X199184937Y-113709372D01*
X199184930Y-113709372D01*
X198915072Y-113709372D01*
X198915064Y-113709372D01*
X198648233Y-113749590D01*
X198648227Y-113749592D01*
X198390359Y-113829134D01*
X198147231Y-113946218D01*
X197924259Y-114098237D01*
X197726443Y-114281782D01*
X197558186Y-114492770D01*
X197423259Y-114726471D01*
X197423257Y-114726475D01*
X197324667Y-114977676D01*
X197324665Y-114977683D01*
X197264617Y-115240770D01*
X197244452Y-115509867D01*
X194750500Y-115509867D01*
X194750500Y-112381902D01*
X194713553Y-112148631D01*
X194677102Y-112036448D01*
X194640568Y-111924008D01*
X194640566Y-111924005D01*
X194640566Y-111924003D01*
X194616569Y-111876907D01*
X194539493Y-111725637D01*
X194533343Y-111713566D01*
X194394517Y-111522490D01*
X190262541Y-107390514D01*
X190229056Y-107329191D01*
X190234040Y-107259499D01*
X190275912Y-107203566D01*
X190341376Y-107179149D01*
X190350313Y-107178834D01*
X210376133Y-107199869D01*
G37*
G04 #@! TD.AperFunction*
G04 #@! TA.AperFunction,Conductor*
G36*
X138424999Y-119995632D02*
G01*
X138638482Y-119938432D01*
X138638491Y-119938428D01*
X138852577Y-119838599D01*
X139035907Y-119710229D01*
X139102113Y-119687902D01*
X139169881Y-119704912D01*
X139206298Y-119737494D01*
X139312905Y-119879906D01*
X139312921Y-119879924D01*
X139500073Y-120067076D01*
X139500091Y-120067092D01*
X139711985Y-120225713D01*
X139711993Y-120225718D01*
X139944304Y-120352570D01*
X139944308Y-120352572D01*
X139944310Y-120352573D01*
X140192321Y-120445076D01*
X140192324Y-120445076D01*
X140192325Y-120445077D01*
X140248978Y-120457401D01*
X140450973Y-120501342D01*
X140694659Y-120518771D01*
X140714998Y-120520226D01*
X140714999Y-120520226D01*
X140715000Y-120520226D01*
X140733884Y-120518875D01*
X140979025Y-120501342D01*
X141237677Y-120445076D01*
X141485688Y-120352573D01*
X141571074Y-120305948D01*
X141639344Y-120291097D01*
X141704808Y-120315513D01*
X141746680Y-120371446D01*
X141754499Y-120414781D01*
X141754499Y-126124976D01*
X141734814Y-126192015D01*
X141729766Y-126199286D01*
X141567774Y-126415682D01*
X141567769Y-126415690D01*
X141430634Y-126666833D01*
X141330627Y-126934962D01*
X141269803Y-127214566D01*
X141249389Y-127499998D01*
X141249389Y-127500001D01*
X141269803Y-127785433D01*
X141330627Y-128065037D01*
X141330629Y-128065043D01*
X141330630Y-128065046D01*
X141374773Y-128183398D01*
X141430634Y-128333166D01*
X141567769Y-128584309D01*
X141567774Y-128584317D01*
X141739253Y-128813387D01*
X141739269Y-128813405D01*
X141941593Y-129015729D01*
X141941611Y-129015745D01*
X142170681Y-129187224D01*
X142170689Y-129187229D01*
X142421832Y-129324364D01*
X142421831Y-129324364D01*
X142421835Y-129324365D01*
X142421838Y-129324367D01*
X142689953Y-129424369D01*
X142689959Y-129424370D01*
X142689961Y-129424371D01*
X142969565Y-129485195D01*
X142969567Y-129485195D01*
X142969571Y-129485196D01*
X143223219Y-129503337D01*
X143254998Y-129505610D01*
X143254999Y-129505610D01*
X143255000Y-129505610D01*
X143286500Y-129503357D01*
X143540427Y-129485196D01*
X143554021Y-129482239D01*
X143820036Y-129424371D01*
X143820036Y-129424370D01*
X143820045Y-129424369D01*
X144088160Y-129324367D01*
X144116072Y-129309125D01*
X144184343Y-129294273D01*
X144249808Y-129318688D01*
X144291681Y-129374621D01*
X144299500Y-129417957D01*
X144299500Y-130168097D01*
X144336446Y-130401368D01*
X144409433Y-130625996D01*
X144455600Y-130716603D01*
X144516657Y-130836434D01*
X144612104Y-130967805D01*
X144655484Y-131027511D01*
X145220653Y-131592680D01*
X145254138Y-131654003D01*
X145256656Y-131671514D01*
X145264804Y-131785429D01*
X145264805Y-131785436D01*
X145325629Y-132065039D01*
X145325631Y-132065046D01*
X145350666Y-132132167D01*
X145355650Y-132201859D01*
X145322165Y-132263182D01*
X145260842Y-132296666D01*
X145234484Y-132299500D01*
X143313870Y-132299500D01*
X143246831Y-132279815D01*
X143201076Y-132227011D01*
X143190186Y-132184346D01*
X143187668Y-132149142D01*
X143185196Y-132114572D01*
X143124369Y-131834954D01*
X143024367Y-131566839D01*
X142987867Y-131499995D01*
X142887229Y-131315690D01*
X142887224Y-131315682D01*
X142715745Y-131086612D01*
X142715729Y-131086594D01*
X142513405Y-130884270D01*
X142513387Y-130884254D01*
X142284317Y-130712775D01*
X142284309Y-130712770D01*
X142033166Y-130575635D01*
X142033167Y-130575635D01*
X141925915Y-130535632D01*
X141765046Y-130475631D01*
X141765043Y-130475630D01*
X141765037Y-130475628D01*
X141485433Y-130414804D01*
X141200001Y-130394390D01*
X141199999Y-130394390D01*
X140914566Y-130414804D01*
X140634962Y-130475628D01*
X140366833Y-130575635D01*
X140115690Y-130712770D01*
X140115682Y-130712775D01*
X139886612Y-130884254D01*
X139886594Y-130884270D01*
X139684270Y-131086594D01*
X139684254Y-131086612D01*
X139512775Y-131315682D01*
X139512770Y-131315690D01*
X139375635Y-131566833D01*
X139275628Y-131834962D01*
X139214804Y-132114566D01*
X139194390Y-132399998D01*
X139194390Y-132400001D01*
X139214804Y-132685433D01*
X139275628Y-132965037D01*
X139275630Y-132965043D01*
X139275631Y-132965046D01*
X139356080Y-133180737D01*
X139375635Y-133233166D01*
X139512770Y-133484309D01*
X139512775Y-133484317D01*
X139684254Y-133713387D01*
X139684270Y-133713405D01*
X139886594Y-133915729D01*
X139886612Y-133915745D01*
X140115682Y-134087224D01*
X140115690Y-134087229D01*
X140366833Y-134224364D01*
X140366832Y-134224364D01*
X140366836Y-134224365D01*
X140366839Y-134224367D01*
X140634954Y-134324369D01*
X140634960Y-134324370D01*
X140634962Y-134324371D01*
X140774763Y-134354782D01*
X140914572Y-134385196D01*
X141028484Y-134393342D01*
X141093947Y-134417758D01*
X141107318Y-134429345D01*
X141622490Y-134944517D01*
X141813566Y-135083343D01*
X141952910Y-135154342D01*
X141970036Y-135163068D01*
X142024003Y-135190566D01*
X142024005Y-135190566D01*
X142024008Y-135190568D01*
X142144412Y-135229689D01*
X142248631Y-135263553D01*
X142481903Y-135300500D01*
X142481908Y-135300500D01*
X150411660Y-135300500D01*
X150478699Y-135320185D01*
X150524454Y-135372989D01*
X150534398Y-135442147D01*
X150505373Y-135505703D01*
X150500962Y-135510439D01*
X150500346Y-135511174D01*
X150369865Y-135697517D01*
X150273734Y-135903673D01*
X150273730Y-135903682D01*
X150221127Y-136099999D01*
X150221128Y-136100000D01*
X151184314Y-136100000D01*
X151179920Y-136104394D01*
X151127259Y-136195606D01*
X151100000Y-136297339D01*
X151100000Y-136402661D01*
X151127259Y-136504394D01*
X151179920Y-136595606D01*
X151184314Y-136600000D01*
X150221128Y-136600000D01*
X150273730Y-136796317D01*
X150273734Y-136796326D01*
X150369865Y-137002482D01*
X150500342Y-137188820D01*
X150661179Y-137349657D01*
X150847517Y-137480134D01*
X151053673Y-137576265D01*
X151053682Y-137576269D01*
X151249999Y-137628872D01*
X151250000Y-137628871D01*
X151250000Y-136665686D01*
X151254394Y-136670080D01*
X151345606Y-136722741D01*
X151447339Y-136750000D01*
X151552661Y-136750000D01*
X151654394Y-136722741D01*
X151745606Y-136670080D01*
X151750000Y-136665686D01*
X151750000Y-137628872D01*
X151946317Y-137576269D01*
X151946326Y-137576265D01*
X152152482Y-137480134D01*
X152338820Y-137349657D01*
X152499657Y-137188820D01*
X152630134Y-137002482D01*
X152726265Y-136796326D01*
X152726269Y-136796317D01*
X152778872Y-136600000D01*
X151815686Y-136600000D01*
X151820080Y-136595606D01*
X151872741Y-136504394D01*
X151900000Y-136402661D01*
X151900000Y-136297339D01*
X151872741Y-136195606D01*
X151820080Y-136104394D01*
X151815686Y-136100000D01*
X152778872Y-136100000D01*
X152778872Y-136099999D01*
X152726269Y-135903682D01*
X152726265Y-135903673D01*
X152630134Y-135697517D01*
X152499653Y-135511174D01*
X152496180Y-135507034D01*
X152497324Y-135506073D01*
X152467174Y-135450858D01*
X152472158Y-135381166D01*
X152514030Y-135325233D01*
X152579494Y-135300816D01*
X152588340Y-135300500D01*
X165678111Y-135300500D01*
X165745150Y-135320185D01*
X165790905Y-135372989D01*
X165800849Y-135442147D01*
X165771824Y-135505703D01*
X165765792Y-135512181D01*
X162855485Y-138422487D01*
X162855484Y-138422488D01*
X162716657Y-138613565D01*
X162609433Y-138824003D01*
X162536446Y-139048631D01*
X162499500Y-139281902D01*
X162499500Y-139518091D01*
X162503086Y-139540732D01*
X162504613Y-139560130D01*
X162504613Y-142331733D01*
X162484928Y-142398772D01*
X162476715Y-142410094D01*
X162440222Y-142454850D01*
X162365415Y-142546593D01*
X162285806Y-142698995D01*
X162237321Y-142749301D01*
X162169333Y-142765408D01*
X162123494Y-142753964D01*
X161951439Y-142673734D01*
X161951430Y-142673730D01*
X161731723Y-142614860D01*
X161731712Y-142614858D01*
X161505115Y-142595034D01*
X161505111Y-142595034D01*
X161278513Y-142614858D01*
X161278502Y-142614860D01*
X161058795Y-142673730D01*
X161058786Y-142673734D01*
X160852629Y-142769866D01*
X160852625Y-142769868D01*
X160779639Y-142820973D01*
X160779639Y-142820974D01*
X161458666Y-143500000D01*
X161452452Y-143500000D01*
X161350719Y-143527259D01*
X161259507Y-143579920D01*
X161185033Y-143654394D01*
X161132372Y-143745606D01*
X161105113Y-143847339D01*
X161105113Y-143853552D01*
X160426087Y-143174526D01*
X160426086Y-143174526D01*
X160374981Y-143247512D01*
X160374979Y-143247516D01*
X160278847Y-143453673D01*
X160278843Y-143453682D01*
X160219973Y-143673389D01*
X160219971Y-143673400D01*
X160200147Y-143899997D01*
X160200147Y-143900002D01*
X160219971Y-144126599D01*
X160219973Y-144126610D01*
X160278843Y-144346317D01*
X160278848Y-144346331D01*
X160374976Y-144552478D01*
X160426087Y-144625472D01*
X161105113Y-143946446D01*
X161105113Y-143952661D01*
X161132372Y-144054394D01*
X161185033Y-144145606D01*
X161259507Y-144220080D01*
X161350719Y-144272741D01*
X161452452Y-144300000D01*
X161458664Y-144300000D01*
X160779639Y-144979025D01*
X160852626Y-145030132D01*
X160852634Y-145030136D01*
X161058781Y-145126264D01*
X161058795Y-145126269D01*
X161278502Y-145185139D01*
X161278513Y-145185141D01*
X161505111Y-145204966D01*
X161505115Y-145204966D01*
X161731712Y-145185141D01*
X161731723Y-145185139D01*
X161951430Y-145126269D01*
X161951439Y-145126265D01*
X162123494Y-145046036D01*
X162192572Y-145035544D01*
X162256356Y-145064064D01*
X162285806Y-145101004D01*
X162365415Y-145253407D01*
X162476716Y-145389907D01*
X162503824Y-145454300D01*
X162504613Y-145468265D01*
X162504613Y-148705154D01*
X162484928Y-148772193D01*
X162432124Y-148817948D01*
X162403400Y-148827042D01*
X162347681Y-148837458D01*
X162157588Y-148911100D01*
X162157581Y-148911104D01*
X162069312Y-148965757D01*
X162069311Y-148965758D01*
X162468294Y-149364740D01*
X162501779Y-149426063D01*
X162504613Y-149452421D01*
X162504613Y-149637528D01*
X162465795Y-149659940D01*
X162409940Y-149715795D01*
X162370444Y-149784204D01*
X162350000Y-149860504D01*
X162350000Y-149939496D01*
X162370444Y-150015796D01*
X162409940Y-150084205D01*
X162465795Y-150140060D01*
X162534204Y-150179556D01*
X162568268Y-150188683D01*
X162580739Y-150227064D01*
X162582734Y-150296905D01*
X162550489Y-150353063D01*
X162069311Y-150834240D01*
X162157585Y-150888897D01*
X162347678Y-150962539D01*
X162548072Y-151000000D01*
X162751928Y-151000000D01*
X162882149Y-150975657D01*
X162951664Y-150982688D01*
X162999222Y-151017013D01*
X163014776Y-151035224D01*
X163157555Y-151157169D01*
X163206343Y-151198838D01*
X163206346Y-151198839D01*
X163421140Y-151330466D01*
X163653879Y-151426869D01*
X163653889Y-151426873D01*
X163898852Y-151485683D01*
X164150000Y-151505449D01*
X164401148Y-151485683D01*
X164646111Y-151426873D01*
X164678066Y-151413636D01*
X164686994Y-151409939D01*
X164734446Y-151400500D01*
X166018097Y-151400500D01*
X166251368Y-151363553D01*
X166475992Y-151290568D01*
X166686434Y-151183343D01*
X166877510Y-151044517D01*
X167979338Y-149942687D01*
X168040659Y-149909204D01*
X168110350Y-149914188D01*
X168166284Y-149956059D01*
X168190701Y-150021524D01*
X168188633Y-150054570D01*
X168187336Y-150061088D01*
X168154946Y-150122997D01*
X168153401Y-150124569D01*
X166414792Y-151863181D01*
X166353469Y-151896666D01*
X166327111Y-151899500D01*
X161472889Y-151899500D01*
X161405850Y-151879815D01*
X161385208Y-151863181D01*
X160536819Y-151014792D01*
X160503334Y-150953469D01*
X160500500Y-150927111D01*
X160500500Y-149899999D01*
X161545287Y-149899999D01*
X161545287Y-149900000D01*
X161564096Y-150102989D01*
X161564097Y-150102992D01*
X161619883Y-150299063D01*
X161619886Y-150299069D01*
X161710751Y-150481551D01*
X161712533Y-150483911D01*
X162296571Y-149899874D01*
X162292932Y-149896486D01*
X161712533Y-149316087D01*
X161710755Y-149318442D01*
X161710754Y-149318443D01*
X161619886Y-149500930D01*
X161619883Y-149500936D01*
X161564097Y-149697007D01*
X161564096Y-149697010D01*
X161545287Y-149899999D01*
X160500500Y-149899999D01*
X160500500Y-147981902D01*
X160463553Y-147748631D01*
X160390566Y-147524003D01*
X160314632Y-147374976D01*
X160283343Y-147313567D01*
X160277567Y-147305618D01*
X160266019Y-147289722D01*
X160266017Y-147289721D01*
X160266017Y-147289720D01*
X160144518Y-147122490D01*
X155577510Y-142555483D01*
X155386434Y-142416657D01*
X155371593Y-142409095D01*
X155175996Y-142309433D01*
X154951368Y-142236446D01*
X154718097Y-142199500D01*
X154718092Y-142199500D01*
X150174125Y-142199500D01*
X150154727Y-142197973D01*
X150134736Y-142194806D01*
X150038096Y-142179500D01*
X150038092Y-142179500D01*
X146404234Y-142179500D01*
X146337195Y-142159815D01*
X146328759Y-142153884D01*
X146286424Y-142121399D01*
X146074076Y-141998800D01*
X146074069Y-141998797D01*
X145847544Y-141904967D01*
X145729120Y-141873236D01*
X145610699Y-141841505D01*
X145556676Y-141834392D01*
X145367606Y-141809500D01*
X145367599Y-141809500D01*
X144672401Y-141809500D01*
X144672393Y-141809500D01*
X144456312Y-141837948D01*
X144429301Y-141841505D01*
X144370090Y-141857370D01*
X144192455Y-141904967D01*
X143965930Y-141998797D01*
X143965921Y-141998801D01*
X143753582Y-142121395D01*
X143753576Y-142121399D01*
X143711251Y-142153875D01*
X143646085Y-142179070D01*
X143635766Y-142179500D01*
X143401903Y-142179500D01*
X143168635Y-142216446D01*
X143168634Y-142216446D01*
X143033661Y-142260302D01*
X143033660Y-142260302D01*
X142944012Y-142289429D01*
X142944006Y-142289431D01*
X142733565Y-142396657D01*
X142542488Y-142535484D01*
X141455484Y-143622488D01*
X141316657Y-143813565D01*
X141253208Y-143938092D01*
X141209434Y-144024003D01*
X141209433Y-144024005D01*
X141209432Y-144024008D01*
X141193319Y-144073596D01*
X141136446Y-144248631D01*
X141099500Y-144481902D01*
X141099500Y-146127111D01*
X141079815Y-146194150D01*
X141063181Y-146214792D01*
X138314792Y-148963181D01*
X138253469Y-148996666D01*
X138227111Y-148999500D01*
X131272890Y-148999500D01*
X131205851Y-148979815D01*
X131185209Y-148963181D01*
X130236819Y-148014791D01*
X130203334Y-147953468D01*
X130200500Y-147927110D01*
X130200500Y-146806535D01*
X130220185Y-146739496D01*
X130272989Y-146693741D01*
X130342147Y-146683797D01*
X130397386Y-146706217D01*
X130521963Y-146796728D01*
X130714098Y-146894627D01*
X130919190Y-146961266D01*
X130990000Y-146972481D01*
X130990000Y-145942709D01*
X131010339Y-145954452D01*
X131161667Y-145995000D01*
X131318333Y-145995000D01*
X131469661Y-145954452D01*
X131490000Y-145942709D01*
X131490000Y-146972480D01*
X131560809Y-146961266D01*
X131765901Y-146894627D01*
X131958040Y-146796726D01*
X132093600Y-146698235D01*
X132159406Y-146674754D01*
X132227460Y-146690579D01*
X132264861Y-146723065D01*
X132370667Y-146860952D01*
X132370675Y-146860961D01*
X132544039Y-147034325D01*
X132544047Y-147034332D01*
X132544048Y-147034333D01*
X132611260Y-147085907D01*
X132738565Y-147183593D01*
X132738568Y-147183595D01*
X132738576Y-147183601D01*
X132950924Y-147306200D01*
X133101946Y-147368755D01*
X133177455Y-147400032D01*
X133177456Y-147400032D01*
X133177458Y-147400033D01*
X133414301Y-147463495D01*
X133646472Y-147494061D01*
X133657385Y-147495498D01*
X133657401Y-147495500D01*
X133657408Y-147495500D01*
X133902592Y-147495500D01*
X133902599Y-147495500D01*
X134145699Y-147463495D01*
X134382542Y-147400033D01*
X134609076Y-147306200D01*
X134773853Y-147211065D01*
X134841752Y-147194593D01*
X134906468Y-147216525D01*
X135012118Y-147289719D01*
X135080374Y-147337007D01*
X135285317Y-147430096D01*
X135285321Y-147430097D01*
X135503579Y-147485094D01*
X135503581Y-147485094D01*
X135503588Y-147485096D01*
X135635783Y-147495500D01*
X137004216Y-147495499D01*
X137136412Y-147485096D01*
X137354683Y-147430096D01*
X137559626Y-147337007D01*
X137744654Y-147208819D01*
X137903819Y-147049654D01*
X138032007Y-146864626D01*
X138125096Y-146659683D01*
X138180096Y-146441412D01*
X138190500Y-146309217D01*
X138190499Y-144490784D01*
X138180096Y-144358588D01*
X138177007Y-144346331D01*
X138125097Y-144140321D01*
X138125096Y-144140318D01*
X138122036Y-144133582D01*
X138032007Y-143935374D01*
X137947618Y-143813566D01*
X137903825Y-143750354D01*
X137903822Y-143750350D01*
X137903819Y-143750346D01*
X137842424Y-143688951D01*
X137808939Y-143627628D01*
X137807639Y-143620710D01*
X137783553Y-143468632D01*
X137761242Y-143399967D01*
X137761242Y-143399966D01*
X137710569Y-143244010D01*
X137710567Y-143244007D01*
X137607626Y-143041971D01*
X137603343Y-143033566D01*
X137464517Y-142842490D01*
X134631818Y-140009791D01*
X134598333Y-139948468D01*
X134595499Y-139922110D01*
X134595499Y-138912495D01*
X135620058Y-138912495D01*
X135620058Y-138912504D01*
X135639798Y-139175922D01*
X135639798Y-139175924D01*
X135698577Y-139433453D01*
X135698580Y-139433463D01*
X135795090Y-139679364D01*
X135927171Y-139908136D01*
X136001018Y-140000737D01*
X136091876Y-140114670D01*
X136274676Y-140284282D01*
X136285518Y-140294342D01*
X136503779Y-140443150D01*
X136503784Y-140443152D01*
X136503785Y-140443153D01*
X136503786Y-140443154D01*
X136630188Y-140504025D01*
X136741777Y-140557763D01*
X136741778Y-140557763D01*
X136741781Y-140557765D01*
X136994207Y-140635629D01*
X136994208Y-140635629D01*
X136994211Y-140635630D01*
X137255411Y-140674999D01*
X137255416Y-140674999D01*
X137255419Y-140675000D01*
X137255420Y-140675000D01*
X137519580Y-140675000D01*
X137519581Y-140675000D01*
X137519588Y-140674999D01*
X137780788Y-140635630D01*
X137780789Y-140635629D01*
X137780793Y-140635629D01*
X138033219Y-140557765D01*
X138271221Y-140443150D01*
X138489482Y-140294342D01*
X138683127Y-140114666D01*
X138847829Y-139908136D01*
X138979910Y-139679364D01*
X139076420Y-139433463D01*
X139135201Y-139175924D01*
X139154942Y-138912500D01*
X139154005Y-138900000D01*
X139135201Y-138649077D01*
X139135201Y-138649075D01*
X139078351Y-138399999D01*
X154521127Y-138399999D01*
X154521128Y-138400000D01*
X155484314Y-138400000D01*
X155479920Y-138404394D01*
X155427259Y-138495606D01*
X155400000Y-138597339D01*
X155400000Y-138702661D01*
X155427259Y-138804394D01*
X155479920Y-138895606D01*
X155484314Y-138900000D01*
X154521128Y-138900000D01*
X154573730Y-139096317D01*
X154573734Y-139096326D01*
X154669865Y-139302482D01*
X154800342Y-139488820D01*
X154961179Y-139649657D01*
X155147517Y-139780134D01*
X155353673Y-139876265D01*
X155353682Y-139876269D01*
X155549999Y-139928872D01*
X155550000Y-139928871D01*
X155550000Y-138965686D01*
X155554394Y-138970080D01*
X155645606Y-139022741D01*
X155747339Y-139050000D01*
X155852661Y-139050000D01*
X155954394Y-139022741D01*
X156045606Y-138970080D01*
X156050000Y-138965686D01*
X156050000Y-139928872D01*
X156246317Y-139876269D01*
X156246326Y-139876265D01*
X156452482Y-139780134D01*
X156638820Y-139649657D01*
X156799657Y-139488820D01*
X156930134Y-139302482D01*
X157026265Y-139096326D01*
X157026269Y-139096317D01*
X157078872Y-138900000D01*
X156115686Y-138900000D01*
X156120080Y-138895606D01*
X156172741Y-138804394D01*
X156200000Y-138702661D01*
X156200000Y-138597339D01*
X156172741Y-138495606D01*
X156120080Y-138404394D01*
X156115686Y-138400000D01*
X157078872Y-138400000D01*
X157078872Y-138399999D01*
X157026269Y-138203682D01*
X157026265Y-138203673D01*
X156930134Y-137997517D01*
X156799657Y-137811179D01*
X156638820Y-137650342D01*
X156452482Y-137519865D01*
X156246328Y-137423734D01*
X156050000Y-137371127D01*
X156050000Y-138334314D01*
X156045606Y-138329920D01*
X155954394Y-138277259D01*
X155852661Y-138250000D01*
X155747339Y-138250000D01*
X155645606Y-138277259D01*
X155554394Y-138329920D01*
X155550000Y-138334314D01*
X155550000Y-137371127D01*
X155353671Y-137423734D01*
X155147517Y-137519865D01*
X154961179Y-137650342D01*
X154800342Y-137811179D01*
X154669865Y-137997517D01*
X154573734Y-138203673D01*
X154573730Y-138203682D01*
X154521127Y-138399999D01*
X139078351Y-138399999D01*
X139076422Y-138391546D01*
X139076420Y-138391537D01*
X138979910Y-138145636D01*
X138847829Y-137916864D01*
X138683127Y-137710334D01*
X138683126Y-137710333D01*
X138683123Y-137710329D01*
X138489482Y-137530658D01*
X138466026Y-137514666D01*
X138271221Y-137381850D01*
X138271217Y-137381848D01*
X138271214Y-137381846D01*
X138271213Y-137381845D01*
X138033221Y-137267236D01*
X138033223Y-137267236D01*
X137780794Y-137189371D01*
X137780788Y-137189369D01*
X137519588Y-137150000D01*
X137519581Y-137150000D01*
X137255419Y-137150000D01*
X137255411Y-137150000D01*
X136994211Y-137189369D01*
X136994205Y-137189371D01*
X136741777Y-137267236D01*
X136503786Y-137381845D01*
X136503785Y-137381846D01*
X136285517Y-137530658D01*
X136091876Y-137710329D01*
X135927171Y-137916864D01*
X135795091Y-138145633D01*
X135795089Y-138145637D01*
X135698580Y-138391536D01*
X135698577Y-138391546D01*
X135639798Y-138649075D01*
X135639798Y-138649077D01*
X135620058Y-138912495D01*
X134595499Y-138912495D01*
X134595499Y-126112495D01*
X135620058Y-126112495D01*
X135620058Y-126112504D01*
X135639798Y-126375922D01*
X135639798Y-126375924D01*
X135698577Y-126633453D01*
X135698580Y-126633463D01*
X135785336Y-126854513D01*
X135795090Y-126879364D01*
X135927171Y-127108136D01*
X136012046Y-127214566D01*
X136091876Y-127314670D01*
X136236253Y-127448631D01*
X136285518Y-127494342D01*
X136503779Y-127643150D01*
X136503784Y-127643152D01*
X136503785Y-127643153D01*
X136503786Y-127643154D01*
X136584261Y-127681908D01*
X136741777Y-127757763D01*
X136741778Y-127757763D01*
X136741781Y-127757765D01*
X136994207Y-127835629D01*
X136994208Y-127835629D01*
X136994211Y-127835630D01*
X137255411Y-127874999D01*
X137255416Y-127874999D01*
X137255419Y-127875000D01*
X137255420Y-127875000D01*
X137519580Y-127875000D01*
X137519581Y-127875000D01*
X137519588Y-127874999D01*
X137780788Y-127835630D01*
X137780789Y-127835629D01*
X137780793Y-127835629D01*
X138033219Y-127757765D01*
X138271221Y-127643150D01*
X138489482Y-127494342D01*
X138683127Y-127314666D01*
X138847829Y-127108136D01*
X138979910Y-126879364D01*
X139076420Y-126633463D01*
X139135201Y-126375924D01*
X139149389Y-126186605D01*
X139154942Y-126112504D01*
X139154942Y-126112495D01*
X139135201Y-125849077D01*
X139135201Y-125849075D01*
X139076422Y-125591546D01*
X139076420Y-125591537D01*
X138979910Y-125345636D01*
X138847829Y-125116864D01*
X138683127Y-124910334D01*
X138683126Y-124910333D01*
X138683123Y-124910329D01*
X138489482Y-124730658D01*
X138471060Y-124718098D01*
X138271221Y-124581850D01*
X138271217Y-124581848D01*
X138271214Y-124581846D01*
X138271213Y-124581845D01*
X138033221Y-124467236D01*
X138033223Y-124467236D01*
X137780794Y-124389371D01*
X137780788Y-124389369D01*
X137519588Y-124350000D01*
X137519581Y-124350000D01*
X137255419Y-124350000D01*
X137255411Y-124350000D01*
X136994211Y-124389369D01*
X136994205Y-124389371D01*
X136741777Y-124467236D01*
X136503786Y-124581845D01*
X136503785Y-124581846D01*
X136285517Y-124730658D01*
X136091876Y-124910329D01*
X135927171Y-125116864D01*
X135795091Y-125345633D01*
X135795089Y-125345637D01*
X135698580Y-125591536D01*
X135698577Y-125591546D01*
X135639798Y-125849075D01*
X135639798Y-125849077D01*
X135620058Y-126112495D01*
X134595499Y-126112495D01*
X134595499Y-120414781D01*
X134615184Y-120347742D01*
X134667988Y-120301987D01*
X134737146Y-120292043D01*
X134778921Y-120305947D01*
X134864310Y-120352573D01*
X135112321Y-120445076D01*
X135112324Y-120445076D01*
X135112325Y-120445077D01*
X135168978Y-120457401D01*
X135370973Y-120501342D01*
X135614659Y-120518771D01*
X135634998Y-120520226D01*
X135634999Y-120520226D01*
X135635000Y-120520226D01*
X135653884Y-120518875D01*
X135899025Y-120501342D01*
X136157677Y-120445076D01*
X136405688Y-120352573D01*
X136638010Y-120225715D01*
X136849914Y-120067086D01*
X137037086Y-119879914D01*
X137143700Y-119737493D01*
X137199633Y-119695622D01*
X137269325Y-119690638D01*
X137314091Y-119710229D01*
X137497420Y-119838599D01*
X137711506Y-119938428D01*
X137711515Y-119938432D01*
X137924999Y-119995633D01*
X137924999Y-119098011D01*
X137982006Y-119130924D01*
X138109173Y-119164999D01*
X138240825Y-119164999D01*
X138367992Y-119130924D01*
X138424999Y-119098011D01*
X138424999Y-119995632D01*
G37*
G04 #@! TD.AperFunction*
G04 #@! TA.AperFunction,Conductor*
G36*
X130405703Y-142428176D02*
G01*
X130412181Y-142434208D01*
X131595009Y-143617036D01*
X131628494Y-143678359D01*
X131623510Y-143748051D01*
X131581638Y-143803984D01*
X131516174Y-143828401D01*
X131490267Y-143827290D01*
X131490000Y-143827518D01*
X131490000Y-144857290D01*
X131469661Y-144845548D01*
X131318333Y-144805000D01*
X131161667Y-144805000D01*
X131010339Y-144845548D01*
X130990000Y-144857290D01*
X130990000Y-143827518D01*
X130989999Y-143827518D01*
X130919194Y-143838733D01*
X130714100Y-143905372D01*
X130521960Y-144003273D01*
X130397385Y-144093782D01*
X130331579Y-144117262D01*
X130263525Y-144101436D01*
X130214830Y-144051331D01*
X130200500Y-143993464D01*
X130200500Y-142521889D01*
X130220185Y-142454850D01*
X130272989Y-142409095D01*
X130342147Y-142399151D01*
X130405703Y-142428176D01*
G37*
G04 #@! TD.AperFunction*
G04 #@! TA.AperFunction,Conductor*
G36*
X143794150Y-112120185D02*
G01*
X143814792Y-112136819D01*
X144258180Y-112580207D01*
X144291665Y-112641530D01*
X144294499Y-112667888D01*
X144294499Y-114966618D01*
X144274814Y-115033657D01*
X144222010Y-115079412D01*
X144152852Y-115089356D01*
X144099375Y-115068193D01*
X143932577Y-114951398D01*
X143718491Y-114851569D01*
X143718485Y-114851566D01*
X143504999Y-114794363D01*
X143504999Y-115691987D01*
X143447992Y-115659074D01*
X143320825Y-115624999D01*
X143189173Y-115624999D01*
X143062006Y-115659074D01*
X143004999Y-115691987D01*
X143004999Y-114794363D01*
X143004998Y-114794363D01*
X142791512Y-114851566D01*
X142791506Y-114851569D01*
X142577421Y-114951398D01*
X142577419Y-114951399D01*
X142394089Y-115079768D01*
X142327883Y-115102095D01*
X142260116Y-115085085D01*
X142223699Y-115052503D01*
X142215498Y-115041548D01*
X142190623Y-115008318D01*
X142117092Y-114910091D01*
X142117076Y-114910073D01*
X141929924Y-114722921D01*
X141929906Y-114722905D01*
X141718012Y-114564284D01*
X141718004Y-114564279D01*
X141485693Y-114437427D01*
X141485689Y-114437425D01*
X141237672Y-114344920D01*
X140979033Y-114288657D01*
X140979026Y-114288656D01*
X140715000Y-114269772D01*
X140714998Y-114269772D01*
X140450971Y-114288656D01*
X140450964Y-114288657D01*
X140192325Y-114344920D01*
X139944308Y-114437425D01*
X139944304Y-114437427D01*
X139711993Y-114564279D01*
X139711985Y-114564284D01*
X139519309Y-114708519D01*
X139453844Y-114732936D01*
X139385572Y-114718084D01*
X139370689Y-114708519D01*
X139178012Y-114564284D01*
X139178004Y-114564279D01*
X138945693Y-114437427D01*
X138945689Y-114437425D01*
X138697672Y-114344920D01*
X138439033Y-114288657D01*
X138439026Y-114288656D01*
X138175000Y-114269772D01*
X138174998Y-114269772D01*
X137910971Y-114288656D01*
X137910964Y-114288657D01*
X137652325Y-114344920D01*
X137404308Y-114437425D01*
X137404304Y-114437427D01*
X137171993Y-114564279D01*
X137171985Y-114564284D01*
X136979309Y-114708519D01*
X136913844Y-114732936D01*
X136845572Y-114718084D01*
X136830689Y-114708519D01*
X136638012Y-114564284D01*
X136638004Y-114564279D01*
X136405693Y-114437427D01*
X136405689Y-114437425D01*
X136157672Y-114344920D01*
X135899033Y-114288657D01*
X135899026Y-114288656D01*
X135635000Y-114269772D01*
X135634998Y-114269772D01*
X135370971Y-114288656D01*
X135370964Y-114288657D01*
X135112325Y-114344920D01*
X134864308Y-114437425D01*
X134864304Y-114437427D01*
X134631993Y-114564279D01*
X134631985Y-114564284D01*
X134420091Y-114722905D01*
X134420073Y-114722921D01*
X134232921Y-114910073D01*
X134232911Y-114910085D01*
X134126297Y-115052504D01*
X134070363Y-115094375D01*
X134000671Y-115099359D01*
X133955906Y-115079768D01*
X133772577Y-114951398D01*
X133558491Y-114851569D01*
X133558485Y-114851566D01*
X133344999Y-114794363D01*
X133344999Y-115691987D01*
X133287992Y-115659074D01*
X133160825Y-115624999D01*
X133029173Y-115624999D01*
X132902006Y-115659074D01*
X132844999Y-115691987D01*
X132844999Y-114794363D01*
X132844998Y-114794363D01*
X132631512Y-114851566D01*
X132631506Y-114851569D01*
X132417421Y-114951398D01*
X132417419Y-114951399D01*
X132250622Y-115068192D01*
X132184416Y-115090519D01*
X132116649Y-115073509D01*
X132068836Y-115022561D01*
X132055499Y-114966617D01*
X132055499Y-114195795D01*
X132061568Y-114157477D01*
X132063553Y-114151369D01*
X132086043Y-114009372D01*
X132100500Y-113918097D01*
X132100500Y-113681909D01*
X132085378Y-113586434D01*
X132085378Y-113586433D01*
X132078103Y-113540500D01*
X132063553Y-113448632D01*
X131990568Y-113224008D01*
X131990566Y-113224005D01*
X131990566Y-113224003D01*
X131895962Y-113038333D01*
X131883343Y-113013566D01*
X131862730Y-112985195D01*
X131814324Y-112918569D01*
X131814321Y-112918566D01*
X131814320Y-112918565D01*
X131744518Y-112822490D01*
X131234207Y-112312180D01*
X131200723Y-112250858D01*
X131205707Y-112181167D01*
X131247578Y-112125233D01*
X131313043Y-112100816D01*
X131321889Y-112100500D01*
X143727111Y-112100500D01*
X143794150Y-112120185D01*
G37*
G04 #@! TD.AperFunction*
G04 #@! TA.AperFunction,Conductor*
G36*
X161630074Y-107148666D02*
G01*
X161697093Y-107168421D01*
X161742792Y-107221273D01*
X161752663Y-107290442D01*
X161723572Y-107353967D01*
X161717625Y-107360347D01*
X157350483Y-111727489D01*
X157211656Y-111918566D01*
X157151593Y-112036448D01*
X157104429Y-112129010D01*
X157102570Y-112133502D01*
X157101300Y-112132976D01*
X157065348Y-112185517D01*
X157000981Y-112212693D01*
X156932138Y-112200756D01*
X156899206Y-112177178D01*
X155629345Y-110907317D01*
X155595860Y-110845994D01*
X155593343Y-110828489D01*
X155585196Y-110714572D01*
X155524369Y-110434954D01*
X155424367Y-110166839D01*
X155363113Y-110054662D01*
X155287229Y-109915690D01*
X155287224Y-109915682D01*
X155115745Y-109686612D01*
X155115729Y-109686594D01*
X154913405Y-109484270D01*
X154913387Y-109484254D01*
X154684317Y-109312775D01*
X154684309Y-109312770D01*
X154433166Y-109175635D01*
X154433167Y-109175635D01*
X154272322Y-109115643D01*
X154165046Y-109075631D01*
X154165043Y-109075630D01*
X154165037Y-109075628D01*
X153885433Y-109014804D01*
X153600001Y-108994390D01*
X153599999Y-108994390D01*
X153314566Y-109014804D01*
X153034962Y-109075628D01*
X152766833Y-109175635D01*
X152515690Y-109312770D01*
X152515682Y-109312775D01*
X152286612Y-109484254D01*
X152286594Y-109484270D01*
X152084270Y-109686594D01*
X152084254Y-109686612D01*
X151912775Y-109915682D01*
X151912770Y-109915690D01*
X151775635Y-110166833D01*
X151675628Y-110434962D01*
X151614804Y-110714566D01*
X151594390Y-110999998D01*
X151594390Y-111000001D01*
X151614804Y-111285433D01*
X151675628Y-111565037D01*
X151675630Y-111565043D01*
X151675631Y-111565046D01*
X151775633Y-111833161D01*
X151775635Y-111833166D01*
X151912770Y-112084309D01*
X151912775Y-112084317D01*
X152084254Y-112313387D01*
X152084270Y-112313405D01*
X152286594Y-112515729D01*
X152286612Y-112515745D01*
X152515682Y-112687224D01*
X152515690Y-112687229D01*
X152766833Y-112824364D01*
X152766832Y-112824364D01*
X152766836Y-112824365D01*
X152766839Y-112824367D01*
X153034954Y-112924369D01*
X153034960Y-112924370D01*
X153034962Y-112924371D01*
X153174763Y-112954782D01*
X153314572Y-112985196D01*
X153428483Y-112993342D01*
X153493946Y-113017758D01*
X153507317Y-113029345D01*
X153963873Y-113485901D01*
X154418180Y-113940207D01*
X154451665Y-114001530D01*
X154454499Y-114027888D01*
X154454499Y-114375215D01*
X154434814Y-114442254D01*
X154382010Y-114488009D01*
X154312852Y-114497953D01*
X154271073Y-114484048D01*
X154185689Y-114437425D01*
X153937672Y-114344920D01*
X153679033Y-114288657D01*
X153679026Y-114288656D01*
X153415000Y-114269772D01*
X153414998Y-114269772D01*
X153150971Y-114288656D01*
X153150964Y-114288657D01*
X152892325Y-114344920D01*
X152644308Y-114437425D01*
X152644304Y-114437427D01*
X152411993Y-114564279D01*
X152411985Y-114564284D01*
X152200091Y-114722905D01*
X152200073Y-114722921D01*
X152012921Y-114910073D01*
X152012911Y-114910085D01*
X151906297Y-115052504D01*
X151850363Y-115094375D01*
X151780671Y-115099359D01*
X151735906Y-115079768D01*
X151552577Y-114951398D01*
X151338491Y-114851569D01*
X151338485Y-114851566D01*
X151124999Y-114794363D01*
X151124999Y-115691987D01*
X151067992Y-115659074D01*
X150940825Y-115624999D01*
X150809173Y-115624999D01*
X150682006Y-115659074D01*
X150624999Y-115691987D01*
X150624999Y-114794363D01*
X150624998Y-114794363D01*
X150411512Y-114851566D01*
X150411506Y-114851569D01*
X150197421Y-114951398D01*
X150197419Y-114951399D01*
X150030622Y-115068192D01*
X149964416Y-115090519D01*
X149896649Y-115073509D01*
X149848836Y-115022561D01*
X149835499Y-114966617D01*
X149835499Y-111916901D01*
X149798552Y-111683630D01*
X149725565Y-111459002D01*
X149644295Y-111299501D01*
X149618342Y-111248565D01*
X149479516Y-111057489D01*
X146377510Y-107955483D01*
X146186434Y-107816657D01*
X145975996Y-107709433D01*
X145751368Y-107636446D01*
X145518097Y-107599500D01*
X145518092Y-107599500D01*
X118731908Y-107599500D01*
X118731903Y-107599500D01*
X118498631Y-107636446D01*
X118274003Y-107709433D01*
X118063565Y-107816657D01*
X117872488Y-107955484D01*
X117872487Y-107955485D01*
X115511681Y-110316292D01*
X115450358Y-110349777D01*
X115380666Y-110344793D01*
X115324733Y-110302921D01*
X115300316Y-110237457D01*
X115300000Y-110228611D01*
X115300000Y-107224130D01*
X115319685Y-107157091D01*
X115372489Y-107111336D01*
X115424128Y-107100130D01*
X161630074Y-107148666D01*
G37*
G04 #@! TD.AperFunction*
G04 #@! TA.AperFunction,Conductor*
G36*
X165245150Y-109520185D02*
G01*
X165290905Y-109572989D01*
X165300849Y-109642147D01*
X165271824Y-109705703D01*
X165265792Y-109712181D01*
X164970484Y-110007488D01*
X164970483Y-110007489D01*
X164831656Y-110198566D01*
X164784582Y-110290955D01*
X164737508Y-110383343D01*
X164737507Y-110383343D01*
X164724430Y-110409009D01*
X164724430Y-110409010D01*
X164651446Y-110633628D01*
X164651446Y-110633631D01*
X164614499Y-110866903D01*
X164614499Y-114966618D01*
X164594814Y-115033657D01*
X164542010Y-115079412D01*
X164472852Y-115089356D01*
X164419375Y-115068193D01*
X164252577Y-114951398D01*
X164038491Y-114851569D01*
X164038485Y-114851566D01*
X163824999Y-114794363D01*
X163824999Y-115691987D01*
X163767992Y-115659074D01*
X163640825Y-115624999D01*
X163509173Y-115624999D01*
X163382006Y-115659074D01*
X163324999Y-115691987D01*
X163324999Y-114794363D01*
X163324998Y-114794363D01*
X163111512Y-114851566D01*
X163111506Y-114851569D01*
X162897421Y-114951398D01*
X162897419Y-114951399D01*
X162714089Y-115079768D01*
X162647883Y-115102095D01*
X162580116Y-115085085D01*
X162543699Y-115052503D01*
X162535498Y-115041548D01*
X162510623Y-115008318D01*
X162437092Y-114910091D01*
X162437076Y-114910073D01*
X162249924Y-114722921D01*
X162249906Y-114722905D01*
X162038012Y-114564284D01*
X162038004Y-114564279D01*
X161805693Y-114437427D01*
X161805689Y-114437425D01*
X161557672Y-114344920D01*
X161299033Y-114288657D01*
X161299026Y-114288656D01*
X161035000Y-114269772D01*
X161034998Y-114269772D01*
X160770971Y-114288656D01*
X160770964Y-114288657D01*
X160512325Y-114344920D01*
X160264308Y-114437425D01*
X160178925Y-114484048D01*
X160110652Y-114498899D01*
X160045188Y-114474482D01*
X160003317Y-114418548D01*
X159995499Y-114375215D01*
X159995499Y-113377890D01*
X160015184Y-113310851D01*
X160031818Y-113290209D01*
X163785208Y-109536819D01*
X163846531Y-109503334D01*
X163872889Y-109500500D01*
X165178111Y-109500500D01*
X165245150Y-109520185D01*
G37*
G04 #@! TD.AperFunction*
G04 #@! TA.AperFunction,Conductor*
G36*
X171795150Y-110770185D02*
G01*
X171840905Y-110822989D01*
X171850849Y-110892147D01*
X171821824Y-110955703D01*
X171815792Y-110962181D01*
X170050484Y-112727488D01*
X170050483Y-112727489D01*
X169911658Y-112918563D01*
X169911657Y-112918565D01*
X169855610Y-113028565D01*
X169804432Y-113129004D01*
X169731445Y-113353632D01*
X169694499Y-113586903D01*
X169694499Y-114966618D01*
X169674814Y-115033657D01*
X169622010Y-115079412D01*
X169552852Y-115089356D01*
X169499375Y-115068193D01*
X169332577Y-114951398D01*
X169118491Y-114851569D01*
X169118485Y-114851566D01*
X168904999Y-114794363D01*
X168904999Y-115691987D01*
X168847992Y-115659074D01*
X168720825Y-115624999D01*
X168589173Y-115624999D01*
X168462006Y-115659074D01*
X168404999Y-115691987D01*
X168404999Y-114794363D01*
X168404998Y-114794363D01*
X168191512Y-114851566D01*
X168191506Y-114851569D01*
X167977421Y-114951398D01*
X167977419Y-114951399D01*
X167810622Y-115068192D01*
X167744416Y-115090519D01*
X167676649Y-115073509D01*
X167628836Y-115022561D01*
X167615499Y-114966617D01*
X167615499Y-111657890D01*
X167635184Y-111590851D01*
X167651818Y-111570209D01*
X168435208Y-110786819D01*
X168496531Y-110753334D01*
X168522889Y-110750500D01*
X171728111Y-110750500D01*
X171795150Y-110770185D01*
G37*
G04 #@! TD.AperFunction*
M02*
