M48
; DRILL file {KiCad 8.0.5} date 2024-11-05T09:26:50+0100
; FORMAT={-:-/ absolute / metric / decimal}
; #@! TF.CreationDate,2024-11-05T09:26:50+01:00
; #@! TF.GenerationSoftware,Kicad,Pcbnew,8.0.5
; #@! TF.FileFunction,Plated,1,2,PTH
FMAT,2
METRIC
; #@! TA.AperFunction,Plated,PTH,ComponentDrill
T1C0.600
; #@! TA.AperFunction,Plated,PTH,ComponentDrill
T2C0.800
; #@! TA.AperFunction,Plated,PTH,ViaDrill
T3C1.000
; #@! TA.AperFunction,Plated,PTH,ComponentDrill
T4C1.000
; #@! TA.AperFunction,Plated,PTH,ComponentDrill
T5C1.016
; #@! TA.AperFunction,Plated,PTH,ComponentDrill
T6C1.100
; #@! TA.AperFunction,Plated,PTH,ComponentDrill
T7C1.190
; #@! TA.AperFunction,Plated,PTH,ComponentDrill
T8C1.300
%
G90
G05
T1
X162.65Y-149.9
X164.15Y-149.9
X178.5Y-149.8
X178.5Y-151.3
T2
X151.5Y-136.35
X151.5Y-149.05
X155.8Y-138.65
X155.8Y-151.35
X161.505Y-143.9
X164.005Y-143.9
X185.8Y-148.505
X185.8Y-151.005
X186.35Y-115.51
X186.35Y-119.5
X186.35Y-123.5
X186.35Y-127.4
X186.35Y-131.5
X199.05Y-115.51
X199.05Y-119.5
X199.05Y-123.5
X199.05Y-127.4
X199.05Y-131.5
T3
X138.1Y-122.3
X140.7Y-112.6
X141.2Y-132.4
X143.255Y-127.5
X147.25Y-131.5
X150.9Y-112.6
X153.6Y-111.0
X160.25Y-128.75
X160.75Y-139.25
X163.5Y-112.6
X167.75Y-141.0
X168.8Y-112.6
X176.8Y-134.8
T4
X128.015Y-116.125
X128.015Y-118.665
X130.555Y-116.125
X130.555Y-118.665
X133.095Y-116.125
X133.095Y-118.665
X135.635Y-116.125
X135.635Y-118.665
X138.175Y-116.125
X138.175Y-118.665
X140.715Y-116.125
X140.715Y-118.665
X143.255Y-116.125
X143.255Y-118.665
X145.795Y-116.125
X145.795Y-118.665
X148.335Y-116.125
X148.335Y-118.665
X150.875Y-116.125
X150.875Y-118.665
X153.415Y-116.125
X153.415Y-118.665
X155.955Y-116.125
X155.955Y-118.665
X158.495Y-116.125
X158.495Y-118.665
X161.035Y-116.125
X161.035Y-118.665
X163.575Y-116.125
X163.575Y-118.665
X166.115Y-116.125
X166.115Y-118.665
X168.655Y-116.125
X168.655Y-118.665
X171.195Y-116.125
X171.195Y-118.665
X173.735Y-116.125
X173.735Y-118.665
X176.275Y-116.125
X176.275Y-118.665
T5
X137.387Y-126.112
X137.387Y-138.912
X170.948Y-128.692
X170.948Y-131.232
X170.948Y-133.773
X170.948Y-136.312
X173.487Y-128.692
X173.487Y-131.232
X173.487Y-133.773
X173.487Y-136.312
T6
X170.155Y-145.36
X170.155Y-147.9
X170.155Y-150.44
T7
X128.7Y-145.4
X131.24Y-145.4
X133.78Y-145.4
X136.32Y-145.4
X145.02Y-143.68
X145.02Y-146.22
X145.02Y-148.76
X145.02Y-151.3
X205.5Y-110.42
X205.5Y-112.96
X205.5Y-115.5
X205.5Y-118.04
X205.5Y-120.58
X205.5Y-123.12
X205.5Y-125.66
X205.5Y-128.2
T8
X194.6Y-145.255
X194.6Y-150.335
M30
