G04 #@! TF.GenerationSoftware,KiCad,Pcbnew,8.0.5*
G04 #@! TF.CreationDate,2024-11-05T09:26:54+01:00*
G04 #@! TF.ProjectId,raspberry_pi_hat,72617370-6265-4727-9279-5f70695f6861,rev?*
G04 #@! TF.SameCoordinates,Original*
G04 #@! TF.FileFunction,Soldermask,Bot*
G04 #@! TF.FilePolarity,Negative*
%FSLAX46Y46*%
G04 Gerber Fmt 4.6, Leading zero omitted, Abs format (unit mm)*
G04 Created by KiCad (PCBNEW 8.0.5) date 2024-11-05 09:26:54*
%MOMM*%
%LPD*%
G01*
G04 APERTURE LIST*
G04 Aperture macros list*
%AMRoundRect*
0 Rectangle with rounded corners*
0 $1 Rounding radius*
0 $2 $3 $4 $5 $6 $7 $8 $9 X,Y pos of 4 corners*
0 Add a 4 corners polygon primitive as box body*
4,1,4,$2,$3,$4,$5,$6,$7,$8,$9,$2,$3,0*
0 Add four circle primitives for the rounded corners*
1,1,$1+$1,$2,$3*
1,1,$1+$1,$4,$5*
1,1,$1+$1,$6,$7*
1,1,$1+$1,$8,$9*
0 Add four rect primitives between the rounded corners*
20,1,$1+$1,$2,$3,$4,$5,0*
20,1,$1+$1,$4,$5,$6,$7,0*
20,1,$1+$1,$6,$7,$8,$9,0*
20,1,$1+$1,$8,$9,$2,$3,0*%
G04 Aperture macros list end*
%ADD10R,1.600000X1.600000*%
%ADD11C,1.600000*%
%ADD12R,2.000000X1.905000*%
%ADD13O,2.000000X1.905000*%
%ADD14O,1.600000X1.600000*%
%ADD15RoundRect,0.102000X0.762000X0.762000X-0.762000X0.762000X-0.762000X-0.762000X0.762000X-0.762000X0*%
%ADD16C,1.728000*%
%ADD17RoundRect,0.250000X-0.845000X0.620000X-0.845000X-0.620000X0.845000X-0.620000X0.845000X0.620000X0*%
%ADD18O,2.190000X1.740000*%
%ADD19C,1.200000*%
%ADD20R,2.500000X2.500000*%
%ADD21C,2.500000*%
%ADD22RoundRect,0.250000X0.845000X-0.620000X0.845000X0.620000X-0.845000X0.620000X-0.845000X-0.620000X0*%
%ADD23RoundRect,0.250000X0.620000X0.845000X-0.620000X0.845000X-0.620000X-0.845000X0.620000X-0.845000X0*%
%ADD24O,1.740000X2.190000*%
%ADD25C,6.000000*%
%ADD26R,1.700000X1.700000*%
%ADD27O,1.700000X1.700000*%
G04 APERTURE END LIST*
D10*
X164005113Y-143900000D03*
D11*
X161505113Y-143900000D03*
D12*
X170155000Y-145360000D03*
D13*
X170155000Y-147900000D03*
X170155000Y-150439999D03*
D11*
X186350001Y-119500000D03*
D14*
X199050001Y-119500000D03*
D10*
X185800000Y-151005113D03*
D11*
X185800000Y-148505113D03*
X186350001Y-115509872D03*
D14*
X199050001Y-115509872D03*
D11*
X186350001Y-127400000D03*
D14*
X199050001Y-127400000D03*
D15*
X173487500Y-136312500D03*
D16*
X170947600Y-136312500D03*
X173487500Y-133772500D03*
X170947600Y-133772500D03*
X173487500Y-131232500D03*
X170947600Y-131232500D03*
X173487500Y-128692500D03*
X170947600Y-128692500D03*
X137387500Y-138912500D03*
X137387500Y-126112500D03*
D17*
X205500000Y-110420000D03*
D18*
X205500000Y-112960000D03*
X205500000Y-115500000D03*
X205500000Y-118040000D03*
X205500000Y-120580000D03*
X205500000Y-123120000D03*
X205500000Y-125660000D03*
X205500000Y-128200000D03*
D19*
X164150000Y-149900000D03*
X162650000Y-149900000D03*
X178500000Y-151300000D03*
X178500000Y-149800000D03*
D11*
X186350001Y-123500000D03*
D14*
X199050001Y-123500000D03*
D11*
X186350001Y-131500000D03*
D14*
X199050001Y-131500000D03*
D20*
X194600000Y-145255000D03*
D21*
X194600000Y-150335000D03*
D22*
X145020000Y-151300000D03*
D18*
X145020000Y-148760000D03*
X145020000Y-146220000D03*
X145020000Y-143680000D03*
D23*
X136320000Y-145400000D03*
D24*
X133780000Y-145400000D03*
X131240000Y-145400000D03*
X128700000Y-145400000D03*
D11*
X155800000Y-151350000D03*
D14*
X155800000Y-138650000D03*
D25*
X181144999Y-117394999D03*
X123144999Y-117394999D03*
X181144999Y-140394999D03*
X123144999Y-140394999D03*
D26*
X128014999Y-118664999D03*
D27*
X128014999Y-116124999D03*
X130554999Y-118664999D03*
X130554999Y-116124999D03*
X133094999Y-118664999D03*
X133094999Y-116124999D03*
X135634999Y-118664999D03*
X135634999Y-116124999D03*
X138174999Y-118664999D03*
X138174999Y-116124999D03*
X140714999Y-118664999D03*
X140714999Y-116124999D03*
X143254999Y-118664999D03*
X143254999Y-116124999D03*
X145794999Y-118664999D03*
X145794999Y-116124999D03*
X148334999Y-118664999D03*
X148334999Y-116124999D03*
X150874999Y-118664999D03*
X150874999Y-116124999D03*
X153414999Y-118664999D03*
X153414999Y-116124999D03*
X155954999Y-118664999D03*
X155954999Y-116124999D03*
X158494999Y-118664999D03*
X158494999Y-116124999D03*
X161034999Y-118664999D03*
X161034999Y-116124999D03*
X163574999Y-118664999D03*
X163574999Y-116124999D03*
X166114999Y-118664999D03*
X166114999Y-116124999D03*
X168654999Y-118664999D03*
X168654999Y-116124999D03*
X171194999Y-118664999D03*
X171194999Y-116124999D03*
X173734999Y-118664999D03*
X173734999Y-116124999D03*
X176274999Y-118664999D03*
X176274999Y-116124999D03*
D11*
X151500000Y-149050000D03*
D14*
X151500000Y-136350000D03*
M02*
