G04 #@! TF.GenerationSoftware,KiCad,Pcbnew,8.0.5*
G04 #@! TF.CreationDate,2024-11-05T09:26:53+01:00*
G04 #@! TF.ProjectId,raspberry_pi_hat,72617370-6265-4727-9279-5f70695f6861,rev?*
G04 #@! TF.SameCoordinates,Original*
G04 #@! TF.FileFunction,Legend,Top*
G04 #@! TF.FilePolarity,Positive*
%FSLAX46Y46*%
G04 Gerber Fmt 4.6, Leading zero omitted, Abs format (unit mm)*
G04 Created by KiCad (PCBNEW 8.0.5) date 2024-11-05 09:26:53*
%MOMM*%
%LPD*%
G01*
G04 APERTURE LIST*
%ADD10C,0.150000*%
%ADD11C,0.120000*%
%ADD12C,0.127000*%
%ADD13C,0.200000*%
G04 APERTURE END LIST*
D10*
X159959580Y-146466666D02*
X160007200Y-146514285D01*
X160007200Y-146514285D02*
X160054819Y-146657142D01*
X160054819Y-146657142D02*
X160054819Y-146752380D01*
X160054819Y-146752380D02*
X160007200Y-146895237D01*
X160007200Y-146895237D02*
X159911961Y-146990475D01*
X159911961Y-146990475D02*
X159816723Y-147038094D01*
X159816723Y-147038094D02*
X159626247Y-147085713D01*
X159626247Y-147085713D02*
X159483390Y-147085713D01*
X159483390Y-147085713D02*
X159292914Y-147038094D01*
X159292914Y-147038094D02*
X159197676Y-146990475D01*
X159197676Y-146990475D02*
X159102438Y-146895237D01*
X159102438Y-146895237D02*
X159054819Y-146752380D01*
X159054819Y-146752380D02*
X159054819Y-146657142D01*
X159054819Y-146657142D02*
X159102438Y-146514285D01*
X159102438Y-146514285D02*
X159150057Y-146466666D01*
X159483390Y-145895237D02*
X159435771Y-145990475D01*
X159435771Y-145990475D02*
X159388152Y-146038094D01*
X159388152Y-146038094D02*
X159292914Y-146085713D01*
X159292914Y-146085713D02*
X159245295Y-146085713D01*
X159245295Y-146085713D02*
X159150057Y-146038094D01*
X159150057Y-146038094D02*
X159102438Y-145990475D01*
X159102438Y-145990475D02*
X159054819Y-145895237D01*
X159054819Y-145895237D02*
X159054819Y-145704761D01*
X159054819Y-145704761D02*
X159102438Y-145609523D01*
X159102438Y-145609523D02*
X159150057Y-145561904D01*
X159150057Y-145561904D02*
X159245295Y-145514285D01*
X159245295Y-145514285D02*
X159292914Y-145514285D01*
X159292914Y-145514285D02*
X159388152Y-145561904D01*
X159388152Y-145561904D02*
X159435771Y-145609523D01*
X159435771Y-145609523D02*
X159483390Y-145704761D01*
X159483390Y-145704761D02*
X159483390Y-145895237D01*
X159483390Y-145895237D02*
X159531009Y-145990475D01*
X159531009Y-145990475D02*
X159578628Y-146038094D01*
X159578628Y-146038094D02*
X159673866Y-146085713D01*
X159673866Y-146085713D02*
X159864342Y-146085713D01*
X159864342Y-146085713D02*
X159959580Y-146038094D01*
X159959580Y-146038094D02*
X160007200Y-145990475D01*
X160007200Y-145990475D02*
X160054819Y-145895237D01*
X160054819Y-145895237D02*
X160054819Y-145704761D01*
X160054819Y-145704761D02*
X160007200Y-145609523D01*
X160007200Y-145609523D02*
X159959580Y-145561904D01*
X159959580Y-145561904D02*
X159864342Y-145514285D01*
X159864342Y-145514285D02*
X159673866Y-145514285D01*
X159673866Y-145514285D02*
X159578628Y-145561904D01*
X159578628Y-145561904D02*
X159531009Y-145609523D01*
X159531009Y-145609523D02*
X159483390Y-145704761D01*
X170873810Y-154354819D02*
X170873810Y-153354819D01*
X171921428Y-154259580D02*
X171873809Y-154307200D01*
X171873809Y-154307200D02*
X171730952Y-154354819D01*
X171730952Y-154354819D02*
X171635714Y-154354819D01*
X171635714Y-154354819D02*
X171492857Y-154307200D01*
X171492857Y-154307200D02*
X171397619Y-154211961D01*
X171397619Y-154211961D02*
X171350000Y-154116723D01*
X171350000Y-154116723D02*
X171302381Y-153926247D01*
X171302381Y-153926247D02*
X171302381Y-153783390D01*
X171302381Y-153783390D02*
X171350000Y-153592914D01*
X171350000Y-153592914D02*
X171397619Y-153497676D01*
X171397619Y-153497676D02*
X171492857Y-153402438D01*
X171492857Y-153402438D02*
X171635714Y-153354819D01*
X171635714Y-153354819D02*
X171730952Y-153354819D01*
X171730952Y-153354819D02*
X171873809Y-153402438D01*
X171873809Y-153402438D02*
X171921428Y-153450057D01*
X172873809Y-154354819D02*
X172302381Y-154354819D01*
X172588095Y-154354819D02*
X172588095Y-153354819D01*
X172588095Y-153354819D02*
X172492857Y-153497676D01*
X172492857Y-153497676D02*
X172397619Y-153592914D01*
X172397619Y-153592914D02*
X172302381Y-153640533D01*
X189383334Y-119954819D02*
X189050001Y-119478628D01*
X188811906Y-119954819D02*
X188811906Y-118954819D01*
X188811906Y-118954819D02*
X189192858Y-118954819D01*
X189192858Y-118954819D02*
X189288096Y-119002438D01*
X189288096Y-119002438D02*
X189335715Y-119050057D01*
X189335715Y-119050057D02*
X189383334Y-119145295D01*
X189383334Y-119145295D02*
X189383334Y-119288152D01*
X189383334Y-119288152D02*
X189335715Y-119383390D01*
X189335715Y-119383390D02*
X189288096Y-119431009D01*
X189288096Y-119431009D02*
X189192858Y-119478628D01*
X189192858Y-119478628D02*
X188811906Y-119478628D01*
X190240477Y-118954819D02*
X190050001Y-118954819D01*
X190050001Y-118954819D02*
X189954763Y-119002438D01*
X189954763Y-119002438D02*
X189907144Y-119050057D01*
X189907144Y-119050057D02*
X189811906Y-119192914D01*
X189811906Y-119192914D02*
X189764287Y-119383390D01*
X189764287Y-119383390D02*
X189764287Y-119764342D01*
X189764287Y-119764342D02*
X189811906Y-119859580D01*
X189811906Y-119859580D02*
X189859525Y-119907200D01*
X189859525Y-119907200D02*
X189954763Y-119954819D01*
X189954763Y-119954819D02*
X190145239Y-119954819D01*
X190145239Y-119954819D02*
X190240477Y-119907200D01*
X190240477Y-119907200D02*
X190288096Y-119859580D01*
X190288096Y-119859580D02*
X190335715Y-119764342D01*
X190335715Y-119764342D02*
X190335715Y-119526247D01*
X190335715Y-119526247D02*
X190288096Y-119431009D01*
X190288096Y-119431009D02*
X190240477Y-119383390D01*
X190240477Y-119383390D02*
X190145239Y-119335771D01*
X190145239Y-119335771D02*
X189954763Y-119335771D01*
X189954763Y-119335771D02*
X189859525Y-119383390D01*
X189859525Y-119383390D02*
X189811906Y-119431009D01*
X189811906Y-119431009D02*
X189764287Y-119526247D01*
X184333333Y-146264693D02*
X184285714Y-146312313D01*
X184285714Y-146312313D02*
X184142857Y-146359932D01*
X184142857Y-146359932D02*
X184047619Y-146359932D01*
X184047619Y-146359932D02*
X183904762Y-146312313D01*
X183904762Y-146312313D02*
X183809524Y-146217074D01*
X183809524Y-146217074D02*
X183761905Y-146121836D01*
X183761905Y-146121836D02*
X183714286Y-145931360D01*
X183714286Y-145931360D02*
X183714286Y-145788503D01*
X183714286Y-145788503D02*
X183761905Y-145598027D01*
X183761905Y-145598027D02*
X183809524Y-145502789D01*
X183809524Y-145502789D02*
X183904762Y-145407551D01*
X183904762Y-145407551D02*
X184047619Y-145359932D01*
X184047619Y-145359932D02*
X184142857Y-145359932D01*
X184142857Y-145359932D02*
X184285714Y-145407551D01*
X184285714Y-145407551D02*
X184333333Y-145455170D01*
X185238095Y-145359932D02*
X184761905Y-145359932D01*
X184761905Y-145359932D02*
X184714286Y-145836122D01*
X184714286Y-145836122D02*
X184761905Y-145788503D01*
X184761905Y-145788503D02*
X184857143Y-145740884D01*
X184857143Y-145740884D02*
X185095238Y-145740884D01*
X185095238Y-145740884D02*
X185190476Y-145788503D01*
X185190476Y-145788503D02*
X185238095Y-145836122D01*
X185238095Y-145836122D02*
X185285714Y-145931360D01*
X185285714Y-145931360D02*
X185285714Y-146169455D01*
X185285714Y-146169455D02*
X185238095Y-146264693D01*
X185238095Y-146264693D02*
X185190476Y-146312313D01*
X185190476Y-146312313D02*
X185095238Y-146359932D01*
X185095238Y-146359932D02*
X184857143Y-146359932D01*
X184857143Y-146359932D02*
X184761905Y-146312313D01*
X184761905Y-146312313D02*
X184714286Y-146264693D01*
X189283334Y-115914691D02*
X188950001Y-115438500D01*
X188711906Y-115914691D02*
X188711906Y-114914691D01*
X188711906Y-114914691D02*
X189092858Y-114914691D01*
X189092858Y-114914691D02*
X189188096Y-114962310D01*
X189188096Y-114962310D02*
X189235715Y-115009929D01*
X189235715Y-115009929D02*
X189283334Y-115105167D01*
X189283334Y-115105167D02*
X189283334Y-115248024D01*
X189283334Y-115248024D02*
X189235715Y-115343262D01*
X189235715Y-115343262D02*
X189188096Y-115390881D01*
X189188096Y-115390881D02*
X189092858Y-115438500D01*
X189092858Y-115438500D02*
X188711906Y-115438500D01*
X189616668Y-114914691D02*
X190283334Y-114914691D01*
X190283334Y-114914691D02*
X189854763Y-115914691D01*
X189283334Y-127954819D02*
X188950001Y-127478628D01*
X188711906Y-127954819D02*
X188711906Y-126954819D01*
X188711906Y-126954819D02*
X189092858Y-126954819D01*
X189092858Y-126954819D02*
X189188096Y-127002438D01*
X189188096Y-127002438D02*
X189235715Y-127050057D01*
X189235715Y-127050057D02*
X189283334Y-127145295D01*
X189283334Y-127145295D02*
X189283334Y-127288152D01*
X189283334Y-127288152D02*
X189235715Y-127383390D01*
X189235715Y-127383390D02*
X189188096Y-127431009D01*
X189188096Y-127431009D02*
X189092858Y-127478628D01*
X189092858Y-127478628D02*
X188711906Y-127478628D01*
X190140477Y-127288152D02*
X190140477Y-127954819D01*
X189902382Y-126907200D02*
X189664287Y-127621485D01*
X189664287Y-127621485D02*
X190283334Y-127621485D01*
X139985695Y-140354819D02*
X139985695Y-141164342D01*
X139985695Y-141164342D02*
X140033314Y-141259580D01*
X140033314Y-141259580D02*
X140080933Y-141307200D01*
X140080933Y-141307200D02*
X140176171Y-141354819D01*
X140176171Y-141354819D02*
X140366647Y-141354819D01*
X140366647Y-141354819D02*
X140461885Y-141307200D01*
X140461885Y-141307200D02*
X140509504Y-141259580D01*
X140509504Y-141259580D02*
X140557123Y-141164342D01*
X140557123Y-141164342D02*
X140557123Y-140354819D01*
X141557123Y-141354819D02*
X140985695Y-141354819D01*
X141271409Y-141354819D02*
X141271409Y-140354819D01*
X141271409Y-140354819D02*
X141176171Y-140497676D01*
X141176171Y-140497676D02*
X141080933Y-140592914D01*
X141080933Y-140592914D02*
X140985695Y-140640533D01*
X200634819Y-111179523D02*
X201349104Y-111179523D01*
X201349104Y-111179523D02*
X201491961Y-111227142D01*
X201491961Y-111227142D02*
X201587200Y-111322380D01*
X201587200Y-111322380D02*
X201634819Y-111465237D01*
X201634819Y-111465237D02*
X201634819Y-111560475D01*
X201634819Y-110179523D02*
X201634819Y-110750951D01*
X201634819Y-110465237D02*
X200634819Y-110465237D01*
X200634819Y-110465237D02*
X200777676Y-110560475D01*
X200777676Y-110560475D02*
X200872914Y-110655713D01*
X200872914Y-110655713D02*
X200920533Y-110750951D01*
X200634819Y-109560475D02*
X200634819Y-109465237D01*
X200634819Y-109465237D02*
X200682438Y-109369999D01*
X200682438Y-109369999D02*
X200730057Y-109322380D01*
X200730057Y-109322380D02*
X200825295Y-109274761D01*
X200825295Y-109274761D02*
X201015771Y-109227142D01*
X201015771Y-109227142D02*
X201253866Y-109227142D01*
X201253866Y-109227142D02*
X201444342Y-109274761D01*
X201444342Y-109274761D02*
X201539580Y-109322380D01*
X201539580Y-109322380D02*
X201587200Y-109369999D01*
X201587200Y-109369999D02*
X201634819Y-109465237D01*
X201634819Y-109465237D02*
X201634819Y-109560475D01*
X201634819Y-109560475D02*
X201587200Y-109655713D01*
X201587200Y-109655713D02*
X201539580Y-109703332D01*
X201539580Y-109703332D02*
X201444342Y-109750951D01*
X201444342Y-109750951D02*
X201253866Y-109798570D01*
X201253866Y-109798570D02*
X201015771Y-109798570D01*
X201015771Y-109798570D02*
X200825295Y-109750951D01*
X200825295Y-109750951D02*
X200730057Y-109703332D01*
X200730057Y-109703332D02*
X200682438Y-109655713D01*
X200682438Y-109655713D02*
X200634819Y-109560475D01*
X160759580Y-150966666D02*
X160807200Y-151014285D01*
X160807200Y-151014285D02*
X160854819Y-151157142D01*
X160854819Y-151157142D02*
X160854819Y-151252380D01*
X160854819Y-151252380D02*
X160807200Y-151395237D01*
X160807200Y-151395237D02*
X160711961Y-151490475D01*
X160711961Y-151490475D02*
X160616723Y-151538094D01*
X160616723Y-151538094D02*
X160426247Y-151585713D01*
X160426247Y-151585713D02*
X160283390Y-151585713D01*
X160283390Y-151585713D02*
X160092914Y-151538094D01*
X160092914Y-151538094D02*
X159997676Y-151490475D01*
X159997676Y-151490475D02*
X159902438Y-151395237D01*
X159902438Y-151395237D02*
X159854819Y-151252380D01*
X159854819Y-151252380D02*
X159854819Y-151157142D01*
X159854819Y-151157142D02*
X159902438Y-151014285D01*
X159902438Y-151014285D02*
X159950057Y-150966666D01*
X159854819Y-150633332D02*
X159854819Y-149966666D01*
X159854819Y-149966666D02*
X160854819Y-150395237D01*
X175609580Y-150716666D02*
X175657200Y-150764285D01*
X175657200Y-150764285D02*
X175704819Y-150907142D01*
X175704819Y-150907142D02*
X175704819Y-151002380D01*
X175704819Y-151002380D02*
X175657200Y-151145237D01*
X175657200Y-151145237D02*
X175561961Y-151240475D01*
X175561961Y-151240475D02*
X175466723Y-151288094D01*
X175466723Y-151288094D02*
X175276247Y-151335713D01*
X175276247Y-151335713D02*
X175133390Y-151335713D01*
X175133390Y-151335713D02*
X174942914Y-151288094D01*
X174942914Y-151288094D02*
X174847676Y-151240475D01*
X174847676Y-151240475D02*
X174752438Y-151145237D01*
X174752438Y-151145237D02*
X174704819Y-151002380D01*
X174704819Y-151002380D02*
X174704819Y-150907142D01*
X174704819Y-150907142D02*
X174752438Y-150764285D01*
X174752438Y-150764285D02*
X174800057Y-150716666D01*
X174704819Y-149859523D02*
X174704819Y-150049999D01*
X174704819Y-150049999D02*
X174752438Y-150145237D01*
X174752438Y-150145237D02*
X174800057Y-150192856D01*
X174800057Y-150192856D02*
X174942914Y-150288094D01*
X174942914Y-150288094D02*
X175133390Y-150335713D01*
X175133390Y-150335713D02*
X175514342Y-150335713D01*
X175514342Y-150335713D02*
X175609580Y-150288094D01*
X175609580Y-150288094D02*
X175657200Y-150240475D01*
X175657200Y-150240475D02*
X175704819Y-150145237D01*
X175704819Y-150145237D02*
X175704819Y-149954761D01*
X175704819Y-149954761D02*
X175657200Y-149859523D01*
X175657200Y-149859523D02*
X175609580Y-149811904D01*
X175609580Y-149811904D02*
X175514342Y-149764285D01*
X175514342Y-149764285D02*
X175276247Y-149764285D01*
X175276247Y-149764285D02*
X175181009Y-149811904D01*
X175181009Y-149811904D02*
X175133390Y-149859523D01*
X175133390Y-149859523D02*
X175085771Y-149954761D01*
X175085771Y-149954761D02*
X175085771Y-150145237D01*
X175085771Y-150145237D02*
X175133390Y-150240475D01*
X175133390Y-150240475D02*
X175181009Y-150288094D01*
X175181009Y-150288094D02*
X175276247Y-150335713D01*
X189283334Y-124204819D02*
X188950001Y-123728628D01*
X188711906Y-124204819D02*
X188711906Y-123204819D01*
X188711906Y-123204819D02*
X189092858Y-123204819D01*
X189092858Y-123204819D02*
X189188096Y-123252438D01*
X189188096Y-123252438D02*
X189235715Y-123300057D01*
X189235715Y-123300057D02*
X189283334Y-123395295D01*
X189283334Y-123395295D02*
X189283334Y-123538152D01*
X189283334Y-123538152D02*
X189235715Y-123633390D01*
X189235715Y-123633390D02*
X189188096Y-123681009D01*
X189188096Y-123681009D02*
X189092858Y-123728628D01*
X189092858Y-123728628D02*
X188711906Y-123728628D01*
X190188096Y-123204819D02*
X189711906Y-123204819D01*
X189711906Y-123204819D02*
X189664287Y-123681009D01*
X189664287Y-123681009D02*
X189711906Y-123633390D01*
X189711906Y-123633390D02*
X189807144Y-123585771D01*
X189807144Y-123585771D02*
X190045239Y-123585771D01*
X190045239Y-123585771D02*
X190140477Y-123633390D01*
X190140477Y-123633390D02*
X190188096Y-123681009D01*
X190188096Y-123681009D02*
X190235715Y-123776247D01*
X190235715Y-123776247D02*
X190235715Y-124014342D01*
X190235715Y-124014342D02*
X190188096Y-124109580D01*
X190188096Y-124109580D02*
X190140477Y-124157200D01*
X190140477Y-124157200D02*
X190045239Y-124204819D01*
X190045239Y-124204819D02*
X189807144Y-124204819D01*
X189807144Y-124204819D02*
X189711906Y-124157200D01*
X189711906Y-124157200D02*
X189664287Y-124109580D01*
X189183334Y-131904819D02*
X188850001Y-131428628D01*
X188611906Y-131904819D02*
X188611906Y-130904819D01*
X188611906Y-130904819D02*
X188992858Y-130904819D01*
X188992858Y-130904819D02*
X189088096Y-130952438D01*
X189088096Y-130952438D02*
X189135715Y-131000057D01*
X189135715Y-131000057D02*
X189183334Y-131095295D01*
X189183334Y-131095295D02*
X189183334Y-131238152D01*
X189183334Y-131238152D02*
X189135715Y-131333390D01*
X189135715Y-131333390D02*
X189088096Y-131381009D01*
X189088096Y-131381009D02*
X188992858Y-131428628D01*
X188992858Y-131428628D02*
X188611906Y-131428628D01*
X189516668Y-130904819D02*
X190135715Y-130904819D01*
X190135715Y-130904819D02*
X189802382Y-131285771D01*
X189802382Y-131285771D02*
X189945239Y-131285771D01*
X189945239Y-131285771D02*
X190040477Y-131333390D01*
X190040477Y-131333390D02*
X190088096Y-131381009D01*
X190088096Y-131381009D02*
X190135715Y-131476247D01*
X190135715Y-131476247D02*
X190135715Y-131714342D01*
X190135715Y-131714342D02*
X190088096Y-131809580D01*
X190088096Y-131809580D02*
X190040477Y-131857200D01*
X190040477Y-131857200D02*
X189945239Y-131904819D01*
X189945239Y-131904819D02*
X189659525Y-131904819D01*
X189659525Y-131904819D02*
X189564287Y-131857200D01*
X189564287Y-131857200D02*
X189516668Y-131809580D01*
X191054819Y-148128333D02*
X191769104Y-148128333D01*
X191769104Y-148128333D02*
X191911961Y-148175952D01*
X191911961Y-148175952D02*
X192007200Y-148271190D01*
X192007200Y-148271190D02*
X192054819Y-148414047D01*
X192054819Y-148414047D02*
X192054819Y-148509285D01*
X192054819Y-147128333D02*
X192054819Y-147699761D01*
X192054819Y-147414047D02*
X191054819Y-147414047D01*
X191054819Y-147414047D02*
X191197676Y-147509285D01*
X191197676Y-147509285D02*
X191292914Y-147604523D01*
X191292914Y-147604523D02*
X191340533Y-147699761D01*
X140354819Y-147823333D02*
X141069104Y-147823333D01*
X141069104Y-147823333D02*
X141211961Y-147870952D01*
X141211961Y-147870952D02*
X141307200Y-147966190D01*
X141307200Y-147966190D02*
X141354819Y-148109047D01*
X141354819Y-148109047D02*
X141354819Y-148204285D01*
X141354819Y-147299523D02*
X141354819Y-147109047D01*
X141354819Y-147109047D02*
X141307200Y-147013809D01*
X141307200Y-147013809D02*
X141259580Y-146966190D01*
X141259580Y-146966190D02*
X141116723Y-146870952D01*
X141116723Y-146870952D02*
X140926247Y-146823333D01*
X140926247Y-146823333D02*
X140545295Y-146823333D01*
X140545295Y-146823333D02*
X140450057Y-146870952D01*
X140450057Y-146870952D02*
X140402438Y-146918571D01*
X140402438Y-146918571D02*
X140354819Y-147013809D01*
X140354819Y-147013809D02*
X140354819Y-147204285D01*
X140354819Y-147204285D02*
X140402438Y-147299523D01*
X140402438Y-147299523D02*
X140450057Y-147347142D01*
X140450057Y-147347142D02*
X140545295Y-147394761D01*
X140545295Y-147394761D02*
X140783390Y-147394761D01*
X140783390Y-147394761D02*
X140878628Y-147347142D01*
X140878628Y-147347142D02*
X140926247Y-147299523D01*
X140926247Y-147299523D02*
X140973866Y-147204285D01*
X140973866Y-147204285D02*
X140973866Y-147013809D01*
X140973866Y-147013809D02*
X140926247Y-146918571D01*
X140926247Y-146918571D02*
X140878628Y-146870952D01*
X140878628Y-146870952D02*
X140783390Y-146823333D01*
X136966666Y-148974819D02*
X136966666Y-149689104D01*
X136966666Y-149689104D02*
X136919047Y-149831961D01*
X136919047Y-149831961D02*
X136823809Y-149927200D01*
X136823809Y-149927200D02*
X136680952Y-149974819D01*
X136680952Y-149974819D02*
X136585714Y-149974819D01*
X137395238Y-149070057D02*
X137442857Y-149022438D01*
X137442857Y-149022438D02*
X137538095Y-148974819D01*
X137538095Y-148974819D02*
X137776190Y-148974819D01*
X137776190Y-148974819D02*
X137871428Y-149022438D01*
X137871428Y-149022438D02*
X137919047Y-149070057D01*
X137919047Y-149070057D02*
X137966666Y-149165295D01*
X137966666Y-149165295D02*
X137966666Y-149260533D01*
X137966666Y-149260533D02*
X137919047Y-149403390D01*
X137919047Y-149403390D02*
X137347619Y-149974819D01*
X137347619Y-149974819D02*
X137966666Y-149974819D01*
D11*
X160154113Y-144184000D02*
X160154113Y-143616000D01*
X160194113Y-144418000D02*
X160194113Y-143382000D01*
X160234113Y-144577000D02*
X160234113Y-143223000D01*
X160274114Y-144705000D02*
X160274114Y-143095000D01*
X160314113Y-144815000D02*
X160314113Y-142985000D01*
X160354113Y-144911000D02*
X160354113Y-142889000D01*
X160394113Y-144998000D02*
X160394113Y-142802000D01*
X160434113Y-145078000D02*
X160434113Y-142722000D01*
X160474113Y-142860000D02*
X160474113Y-142648999D01*
X160474113Y-145151001D02*
X160474113Y-144940000D01*
X160514113Y-142860000D02*
X160514113Y-142581000D01*
X160514113Y-145219000D02*
X160514113Y-144940000D01*
X160554113Y-142859999D02*
X160554113Y-142517000D01*
X160554113Y-145283000D02*
X160554113Y-144940001D01*
X160594113Y-142860000D02*
X160594113Y-142457000D01*
X160594113Y-145343000D02*
X160594113Y-144940000D01*
X160634113Y-142860000D02*
X160634113Y-142400000D01*
X160634113Y-145400000D02*
X160634113Y-144940000D01*
X160674113Y-142860000D02*
X160674113Y-142346000D01*
X160674113Y-145454000D02*
X160674113Y-144940000D01*
X160714113Y-145505000D02*
X160714114Y-144940000D01*
X160714114Y-142860000D02*
X160714113Y-142295000D01*
X160754112Y-145553000D02*
X160754113Y-144940000D01*
X160754113Y-142860000D02*
X160754112Y-142247000D01*
X160794113Y-142860000D02*
X160794114Y-142201000D01*
X160794114Y-145599000D02*
X160794113Y-144940000D01*
X160834112Y-142860000D02*
X160834113Y-142156999D01*
X160834113Y-145643001D02*
X160834112Y-144940000D01*
X160874113Y-142860000D02*
X160874113Y-142115000D01*
X160874113Y-145685000D02*
X160874113Y-144940000D01*
X160914113Y-142860000D02*
X160914113Y-142074000D01*
X160914113Y-145726000D02*
X160914113Y-144940000D01*
X160954113Y-142860000D02*
X160954113Y-142036000D01*
X160954113Y-145764000D02*
X160954113Y-144940000D01*
X160994112Y-145801000D02*
X160994113Y-144940001D01*
X160994113Y-142859999D02*
X160994112Y-141999000D01*
X161034113Y-142860000D02*
X161034113Y-141963000D01*
X161034113Y-145837000D02*
X161034113Y-144940000D01*
X161074113Y-142860000D02*
X161074113Y-141929001D01*
X161074113Y-145870999D02*
X161074113Y-144940000D01*
X161114113Y-142860000D02*
X161114113Y-141896000D01*
X161114113Y-145904000D02*
X161114113Y-144940000D01*
X161154113Y-145935000D02*
X161154114Y-144940000D01*
X161154114Y-142860000D02*
X161154113Y-141865000D01*
X161194113Y-142860000D02*
X161194113Y-141835000D01*
X161194113Y-145965000D02*
X161194113Y-144940000D01*
X161234113Y-142860000D02*
X161234113Y-141805000D01*
X161234113Y-145995000D02*
X161234113Y-144940000D01*
X161274112Y-142860000D02*
X161274113Y-141778000D01*
X161274113Y-146022000D02*
X161274112Y-144940000D01*
X161314113Y-142860000D02*
X161314113Y-141751000D01*
X161314113Y-146049000D02*
X161314113Y-144940000D01*
X161354113Y-142860000D02*
X161354113Y-141725000D01*
X161354113Y-146075000D02*
X161354113Y-144940000D01*
X161394113Y-142860000D02*
X161394113Y-141700000D01*
X161394113Y-146100000D02*
X161394113Y-144940000D01*
X161434113Y-142859999D02*
X161434113Y-141676000D01*
X161434113Y-146124000D02*
X161434113Y-144940001D01*
X161474113Y-142860000D02*
X161474113Y-141653000D01*
X161474113Y-146147000D02*
X161474113Y-144940000D01*
X161514113Y-142860000D02*
X161514113Y-141632000D01*
X161514113Y-146168000D02*
X161514113Y-144940000D01*
X161554113Y-142860000D02*
X161554113Y-141610000D01*
X161554113Y-146190000D02*
X161554113Y-144940000D01*
X161594113Y-142859999D02*
X161594113Y-141590000D01*
X161594113Y-146210000D02*
X161594113Y-144940001D01*
X161634113Y-142860000D02*
X161634113Y-141571000D01*
X161634113Y-146229000D02*
X161634113Y-144940000D01*
X161674113Y-142860000D02*
X161674113Y-141552000D01*
X161674113Y-146248000D02*
X161674113Y-144940000D01*
X161714112Y-142860000D02*
X161714113Y-141535000D01*
X161714113Y-146265000D02*
X161714112Y-144940000D01*
X161754113Y-146282000D02*
X161754114Y-144940000D01*
X161754114Y-142860000D02*
X161754113Y-141518000D01*
X161794113Y-142860000D02*
X161794113Y-141502000D01*
X161794113Y-146298000D02*
X161794113Y-144940000D01*
X161834113Y-142860000D02*
X161834113Y-141486000D01*
X161834113Y-146314000D02*
X161834113Y-144940000D01*
X161874113Y-142859999D02*
X161874113Y-141472000D01*
X161874113Y-146328000D02*
X161874113Y-144940001D01*
X161914113Y-142860000D02*
X161914113Y-141458000D01*
X161914113Y-146342000D02*
X161914113Y-144940000D01*
X161954113Y-142860000D02*
X161954113Y-141445000D01*
X161954113Y-146355000D02*
X161954113Y-144940000D01*
X161994113Y-142860000D02*
X161994113Y-141432000D01*
X161994113Y-146368000D02*
X161994113Y-144940000D01*
X162034113Y-142859999D02*
X162034113Y-141420000D01*
X162034113Y-146380000D02*
X162034113Y-144940001D01*
X162075113Y-142860000D02*
X162075113Y-141409000D01*
X162075113Y-146391000D02*
X162075113Y-144940000D01*
X162115113Y-142860000D02*
X162115113Y-141399000D01*
X162115113Y-146401000D02*
X162115113Y-144940000D01*
X162155113Y-142859999D02*
X162155113Y-141388999D01*
X162155113Y-146411001D02*
X162155113Y-144940001D01*
X162195113Y-142860000D02*
X162195113Y-141380000D01*
X162195113Y-146420000D02*
X162195113Y-144940000D01*
X162235113Y-142860000D02*
X162235113Y-141372000D01*
X162235113Y-146428000D02*
X162235113Y-144940000D01*
X162275113Y-142860000D02*
X162275113Y-141364000D01*
X162275113Y-146436000D02*
X162275113Y-144940000D01*
X162315113Y-142859999D02*
X162315113Y-141357000D01*
X162315113Y-146443000D02*
X162315113Y-144940001D01*
X162355113Y-142860000D02*
X162355113Y-141350000D01*
X162355113Y-146450000D02*
X162355113Y-144940000D01*
X162395113Y-142860000D02*
X162395113Y-141344000D01*
X162395113Y-146456000D02*
X162395113Y-144940000D01*
X162435113Y-142860000D02*
X162435113Y-141339000D01*
X162435113Y-146461000D02*
X162435113Y-144940000D01*
X162475114Y-142860000D02*
X162475114Y-141335000D01*
X162475114Y-146465000D02*
X162475114Y-144940000D01*
X162515113Y-142860000D02*
X162515113Y-141331000D01*
X162515113Y-146469000D02*
X162515113Y-144940000D01*
X162555113Y-146473000D02*
X162555113Y-141327000D01*
X162595113Y-146476001D02*
X162595113Y-141323999D01*
X162635113Y-146478000D02*
X162635113Y-141322000D01*
X162675113Y-146478999D02*
X162675113Y-141321001D01*
X162715113Y-146480000D02*
X162715113Y-141320000D01*
X162755113Y-146480000D02*
X162755113Y-141320000D01*
X165309888Y-145625000D02*
X165309888Y-145125000D01*
X165559887Y-145375000D02*
X165059888Y-145375000D01*
X165375115Y-143900000D02*
G75*
G02*
X160135113Y-143900000I-2620001J0D01*
G01*
X160135113Y-143900000D02*
G75*
G02*
X165375115Y-143900000I2620001J0D01*
G01*
X168784000Y-142780000D02*
X168784001Y-153020000D01*
X171914999Y-142780000D02*
X171915000Y-153020000D01*
X173425000Y-142780000D02*
X168784000Y-142780000D01*
X173425000Y-142780000D02*
X173425000Y-153020000D01*
X173425000Y-146050000D02*
X171915000Y-146050000D01*
X173425000Y-149751000D02*
X171915000Y-149751000D01*
X173425000Y-153020000D02*
X168784001Y-153020000D01*
X187390001Y-119500000D02*
X188080001Y-119500000D01*
X188080001Y-117780000D02*
X188080001Y-121220000D01*
X188080001Y-121220000D02*
X197320001Y-121220000D01*
X197320001Y-117780000D02*
X188080001Y-117780000D01*
X197320001Y-121220000D02*
X197320001Y-117780000D01*
X198010001Y-119500000D02*
X197320000Y-119500000D01*
X183220000Y-149715113D02*
X188380000Y-149715113D01*
X183220000Y-149755113D02*
X188380000Y-149755113D01*
X183221000Y-149675113D02*
X188379000Y-149675113D01*
X183222000Y-149635113D02*
X188378000Y-149635113D01*
X183224000Y-149595113D02*
X188376000Y-149595113D01*
X183227000Y-149555113D02*
X188373000Y-149555113D01*
X183231000Y-149515113D02*
X184760000Y-149515113D01*
X183235000Y-149475113D02*
X184760000Y-149475113D01*
X183239000Y-149435113D02*
X184760000Y-149435113D01*
X183244000Y-149395113D02*
X184760000Y-149395113D01*
X183250000Y-149355113D02*
X184760000Y-149355113D01*
X183257000Y-149315113D02*
X184760000Y-149315113D01*
X183264000Y-149275113D02*
X184760000Y-149275113D01*
X183272000Y-149235113D02*
X184760000Y-149235113D01*
X183280000Y-149195113D02*
X184760000Y-149195113D01*
X183289000Y-149155113D02*
X184760000Y-149155113D01*
X183299000Y-149115113D02*
X184760000Y-149115113D01*
X183309000Y-149075113D02*
X184760000Y-149075113D01*
X183320000Y-149034113D02*
X184760000Y-149034113D01*
X183332000Y-148994113D02*
X184760000Y-148994113D01*
X183345000Y-148954113D02*
X184760000Y-148954113D01*
X183358000Y-148914113D02*
X184760000Y-148914113D01*
X183372000Y-148874113D02*
X184760000Y-148874113D01*
X183386000Y-148834113D02*
X184760000Y-148834113D01*
X183402000Y-148794113D02*
X184760000Y-148794113D01*
X183418000Y-148754113D02*
X184760000Y-148754113D01*
X183435000Y-148714113D02*
X184760000Y-148714113D01*
X183452000Y-148674113D02*
X184760000Y-148674113D01*
X183471000Y-148634113D02*
X184760000Y-148634113D01*
X183490000Y-148594113D02*
X184760000Y-148594113D01*
X183510000Y-148554113D02*
X184760000Y-148554113D01*
X183532000Y-148514113D02*
X184760000Y-148514113D01*
X183553000Y-148474113D02*
X184760000Y-148474113D01*
X183576000Y-148434113D02*
X184760000Y-148434113D01*
X183600000Y-148394113D02*
X184760000Y-148394113D01*
X183625000Y-148354113D02*
X184760000Y-148354113D01*
X183651000Y-148314113D02*
X184760000Y-148314113D01*
X183678000Y-148274113D02*
X184760000Y-148274113D01*
X183705000Y-148234113D02*
X184760000Y-148234113D01*
X183735000Y-148194113D02*
X184760000Y-148194113D01*
X183765000Y-148154113D02*
X184760000Y-148154113D01*
X183796000Y-148114113D02*
X184760000Y-148114113D01*
X183829000Y-148074113D02*
X184760000Y-148074113D01*
X183863000Y-148034113D02*
X184760000Y-148034113D01*
X183899000Y-147994113D02*
X184760000Y-147994113D01*
X183936000Y-147954113D02*
X184760000Y-147954113D01*
X183974000Y-147914113D02*
X184760000Y-147914113D01*
X184015000Y-147874113D02*
X184760000Y-147874113D01*
X184057000Y-147834113D02*
X184760000Y-147834113D01*
X184075000Y-152309888D02*
X184575000Y-152309888D01*
X184101000Y-147794113D02*
X184760000Y-147794113D01*
X184147000Y-147754113D02*
X184760000Y-147754113D01*
X184195000Y-147714113D02*
X184760000Y-147714113D01*
X184246000Y-147674113D02*
X184760000Y-147674113D01*
X184300000Y-147634113D02*
X184760000Y-147634113D01*
X184325000Y-152559888D02*
X184325000Y-152059888D01*
X184357000Y-147594113D02*
X184760000Y-147594113D01*
X184417000Y-147554113D02*
X184760000Y-147554113D01*
X184481000Y-147514113D02*
X184760000Y-147514113D01*
X184549000Y-147474113D02*
X184760000Y-147474113D01*
X184622000Y-147434113D02*
X186978000Y-147434113D01*
X184702000Y-147394113D02*
X186898000Y-147394113D01*
X184789000Y-147354113D02*
X186811000Y-147354113D01*
X184885000Y-147314113D02*
X186715000Y-147314113D01*
X184995000Y-147274113D02*
X186605000Y-147274113D01*
X185123000Y-147234113D02*
X186477000Y-147234113D01*
X185282000Y-147194113D02*
X186318000Y-147194113D01*
X185516000Y-147154113D02*
X186084000Y-147154113D01*
X186840000Y-147474113D02*
X187051000Y-147474113D01*
X186840000Y-147514113D02*
X187119000Y-147514113D01*
X186840000Y-147554113D02*
X187183000Y-147554113D01*
X186840000Y-147594113D02*
X187243000Y-147594113D01*
X186840000Y-147634113D02*
X187300000Y-147634113D01*
X186840000Y-147674113D02*
X187354000Y-147674113D01*
X186840000Y-147714113D02*
X187405000Y-147714113D01*
X186840000Y-147754113D02*
X187453000Y-147754113D01*
X186840000Y-147794113D02*
X187499000Y-147794113D01*
X186840000Y-147834113D02*
X187543000Y-147834113D01*
X186840000Y-147874113D02*
X187585000Y-147874113D01*
X186840000Y-147914113D02*
X187626000Y-147914113D01*
X186840000Y-147954113D02*
X187664000Y-147954113D01*
X186840000Y-147994113D02*
X187701000Y-147994113D01*
X186840000Y-148034113D02*
X187737000Y-148034113D01*
X186840000Y-148074113D02*
X187771000Y-148074113D01*
X186840000Y-148114113D02*
X187804000Y-148114113D01*
X186840000Y-148154113D02*
X187835000Y-148154113D01*
X186840000Y-148194113D02*
X187865000Y-148194113D01*
X186840000Y-148234113D02*
X187895000Y-148234113D01*
X186840000Y-148274113D02*
X187922000Y-148274113D01*
X186840000Y-148314113D02*
X187949000Y-148314113D01*
X186840000Y-148354113D02*
X187975000Y-148354113D01*
X186840000Y-148394113D02*
X188000000Y-148394113D01*
X186840000Y-148434113D02*
X188024000Y-148434113D01*
X186840000Y-148474113D02*
X188047000Y-148474113D01*
X186840000Y-148514113D02*
X188068000Y-148514113D01*
X186840000Y-148554113D02*
X188090000Y-148554113D01*
X186840000Y-148594113D02*
X188110000Y-148594113D01*
X186840000Y-148634113D02*
X188129000Y-148634113D01*
X186840000Y-148674113D02*
X188148000Y-148674113D01*
X186840000Y-148714113D02*
X188165000Y-148714113D01*
X186840000Y-148754113D02*
X188182000Y-148754113D01*
X186840000Y-148794113D02*
X188198000Y-148794113D01*
X186840000Y-148834113D02*
X188214000Y-148834113D01*
X186840000Y-148874113D02*
X188228000Y-148874113D01*
X186840000Y-148914113D02*
X188242000Y-148914113D01*
X186840000Y-148954113D02*
X188255000Y-148954113D01*
X186840000Y-148994113D02*
X188268000Y-148994113D01*
X186840000Y-149034113D02*
X188280000Y-149034113D01*
X186840000Y-149075113D02*
X188291000Y-149075113D01*
X186840000Y-149115113D02*
X188301000Y-149115113D01*
X186840000Y-149155113D02*
X188311000Y-149155113D01*
X186840000Y-149195113D02*
X188320000Y-149195113D01*
X186840000Y-149235113D02*
X188328000Y-149235113D01*
X186840000Y-149275113D02*
X188336000Y-149275113D01*
X186840000Y-149315113D02*
X188343000Y-149315113D01*
X186840000Y-149355113D02*
X188350000Y-149355113D01*
X186840000Y-149395113D02*
X188356000Y-149395113D01*
X186840000Y-149435113D02*
X188361000Y-149435113D01*
X186840000Y-149475113D02*
X188365000Y-149475113D01*
X186840000Y-149515113D02*
X188369000Y-149515113D01*
X188420000Y-149755113D02*
G75*
G02*
X183180000Y-149755113I-2620000J0D01*
G01*
X183180000Y-149755113D02*
G75*
G02*
X188420000Y-149755113I2620000J0D01*
G01*
X187390001Y-115509872D02*
X188080001Y-115509872D01*
X188080001Y-113789872D02*
X188080001Y-117229872D01*
X188080001Y-117229872D02*
X197320001Y-117229872D01*
X197320001Y-113789872D02*
X188080001Y-113789872D01*
X197320001Y-117229872D02*
X197320001Y-113789872D01*
X198010001Y-115509872D02*
X197320000Y-115509872D01*
X187390001Y-127400000D02*
X188080001Y-127400000D01*
X188080001Y-125680000D02*
X188080001Y-129120000D01*
X188080001Y-129120000D02*
X197320001Y-129120000D01*
X197320001Y-125680000D02*
X188080001Y-125680000D01*
X197320001Y-129120000D02*
X197320001Y-125680000D01*
X198010001Y-127400000D02*
X197320000Y-127400000D01*
D12*
X135287500Y-125112500D02*
X135287500Y-139912500D01*
X135287500Y-139912500D02*
X175087500Y-139912500D01*
X175087500Y-125112500D02*
X135287500Y-125112500D01*
X175087500Y-139912500D02*
X175087500Y-125112500D01*
D13*
X174587500Y-137412500D02*
G75*
G02*
X174387500Y-137412500I-100000J0D01*
G01*
X174387500Y-137412500D02*
G75*
G02*
X174587500Y-137412500I100000J0D01*
G01*
D11*
X202510000Y-109040000D02*
X202510000Y-129580000D01*
X202510000Y-110420000D02*
X203510000Y-110420000D01*
X202510000Y-110670000D02*
X203510000Y-110670000D01*
X202510000Y-127950000D02*
X203510000Y-127950000D01*
X202510000Y-128200000D02*
X203510000Y-128200000D01*
X202510000Y-129580000D02*
X208530000Y-129580000D01*
X203510000Y-110420000D02*
X203510000Y-115500000D01*
X203510000Y-110420000D02*
X204040000Y-110670000D01*
X203510000Y-115500000D02*
X202510000Y-115500000D01*
X203510000Y-123120000D02*
X202510000Y-123120000D01*
X203510000Y-128200000D02*
X203510000Y-123120000D01*
X203510000Y-128200000D02*
X204040000Y-127950000D01*
X204040000Y-110670000D02*
X204040000Y-115500000D01*
X204040000Y-115500000D02*
X203510000Y-115500000D01*
X204040000Y-123120000D02*
X203510000Y-123120000D01*
X204040000Y-127950000D02*
X204040000Y-123120000D01*
X207500000Y-108750000D02*
X203500000Y-108750000D01*
X207930000Y-109620000D02*
X207930000Y-111220000D01*
X207930000Y-111220000D02*
X208530000Y-111220000D01*
X207930000Y-112160000D02*
X207930000Y-113760000D01*
X207930000Y-113760000D02*
X208530000Y-113760000D01*
X207930000Y-114700000D02*
X207930000Y-116300000D01*
X207930000Y-116300000D02*
X208530000Y-116300000D01*
X207930000Y-117240000D02*
X207930000Y-118840000D01*
X207930000Y-118840000D02*
X208530000Y-118840000D01*
X207930000Y-119780000D02*
X207930000Y-121380000D01*
X207930000Y-121380000D02*
X208530000Y-121380000D01*
X207930000Y-122320000D02*
X207930000Y-123920000D01*
X207930000Y-123920000D02*
X208530000Y-123920000D01*
X207930000Y-124860000D02*
X207930000Y-126460000D01*
X207930000Y-126460000D02*
X208530000Y-126460000D01*
X207930000Y-127400000D02*
X207930000Y-129000000D01*
X207930000Y-129000000D02*
X208530000Y-129000000D01*
X208530000Y-109040000D02*
X202510000Y-109040000D01*
X208530000Y-109620000D02*
X207930000Y-109620000D01*
X208530000Y-112160000D02*
X207930000Y-112160000D01*
X208530000Y-114700000D02*
X207930000Y-114700000D01*
X208530000Y-117240000D02*
X207930000Y-117240000D01*
X208530000Y-119780000D02*
X207930000Y-119780000D01*
X208530000Y-122320000D02*
X207930000Y-122320000D01*
X208530000Y-124860000D02*
X207930000Y-124860000D01*
X208530000Y-127400000D02*
X207930000Y-127400000D01*
X208530000Y-129580000D02*
X208530000Y-109040000D01*
X165519999Y-149900000D02*
G75*
G02*
X161280001Y-149900000I-2119999J0D01*
G01*
X161280001Y-149900000D02*
G75*
G02*
X165519999Y-149900000I2119999J0D01*
G01*
X180620000Y-150550000D02*
G75*
G02*
X176380000Y-150550000I-2120000J0D01*
G01*
X176380000Y-150550000D02*
G75*
G02*
X180620000Y-150550000I2120000J0D01*
G01*
X187390001Y-123500000D02*
X188080001Y-123500000D01*
X188080001Y-121780000D02*
X188080001Y-125220000D01*
X188080001Y-125220000D02*
X197320001Y-125220000D01*
X197320001Y-121780000D02*
X188080001Y-121780000D01*
X197320001Y-125220000D02*
X197320001Y-121780000D01*
X198010001Y-123500000D02*
X197320000Y-123500000D01*
X187390001Y-131500000D02*
X188080001Y-131500000D01*
X188080001Y-129780000D02*
X188080001Y-133220000D01*
X188080001Y-133220000D02*
X197320001Y-133220000D01*
X197320001Y-129780000D02*
X188080001Y-129780000D01*
X197320001Y-133220000D02*
X197320001Y-129780000D01*
X198010001Y-131500000D02*
X197320000Y-131500000D01*
X190300000Y-142415000D02*
X190300000Y-144415000D01*
X190540000Y-142655000D02*
X190540000Y-152935000D01*
X192540000Y-142415000D02*
X190300000Y-142415000D01*
X192600000Y-142655000D02*
X192600000Y-152935000D01*
X193384000Y-149325000D02*
X193326000Y-149266000D01*
X193624000Y-149155000D02*
X193531000Y-149061000D01*
X195669000Y-151610000D02*
X195576000Y-151516000D01*
X195875000Y-151405000D02*
X195816000Y-151346000D01*
X196600000Y-142655000D02*
X196600000Y-152935000D01*
X198660000Y-142655000D02*
X190540000Y-142655000D01*
X198660000Y-142655000D02*
X198660000Y-152935000D01*
X198660000Y-152935000D02*
X190540000Y-152935000D01*
X192919550Y-145284383D02*
G75*
G02*
X193116000Y-144466000I1680445J29385D01*
G01*
X193116648Y-146043712D02*
G75*
G02*
X192920000Y-145255000I1483352J788712D01*
G01*
X193810911Y-143771047D02*
G75*
G02*
X195389000Y-143771000I789089J-1483948D01*
G01*
X195389089Y-146738953D02*
G75*
G02*
X193811000Y-146739000I-789089J1483953D01*
G01*
X196083953Y-144465911D02*
G75*
G02*
X196084000Y-146044000I-1483948J-789089D01*
G01*
X196280000Y-150335000D02*
G75*
G02*
X192920000Y-150335000I-1680000J0D01*
G01*
X192920000Y-150335000D02*
G75*
G02*
X196280000Y-150335000I1680000J0D01*
G01*
X141990000Y-142300000D02*
X141990000Y-152680000D01*
X141990000Y-144480000D02*
X142590000Y-144480000D01*
X141990000Y-147020000D02*
X142590000Y-147020000D01*
X141990000Y-149560000D02*
X142590000Y-149560000D01*
X141990000Y-152100000D02*
X142590000Y-152100000D01*
X141990000Y-152680000D02*
X148010000Y-152680000D01*
X142590000Y-142880000D02*
X141990000Y-142880000D01*
X142590000Y-144480000D02*
X142590000Y-142880000D01*
X142590000Y-145420000D02*
X141990000Y-145420000D01*
X142590000Y-147020000D02*
X142590000Y-145420000D01*
X142590000Y-147960000D02*
X141990000Y-147960000D01*
X142590000Y-149560000D02*
X142590000Y-147960000D01*
X142590000Y-150500000D02*
X141990000Y-150500000D01*
X142590000Y-152100000D02*
X142590000Y-150500000D01*
X143020000Y-152970000D02*
X147020000Y-152970000D01*
X146480000Y-143930000D02*
X147010000Y-143680000D01*
X146480000Y-151050000D02*
X146480000Y-143930000D01*
X147010000Y-143680000D02*
X148010000Y-143680000D01*
X147010000Y-151300000D02*
X146480000Y-151050000D01*
X147010000Y-151300000D02*
X147010000Y-143680000D01*
X148010000Y-142300000D02*
X141990000Y-142300000D01*
X148010000Y-143930000D02*
X147010000Y-143930000D01*
X148010000Y-151050000D02*
X147010000Y-151050000D01*
X148010000Y-151300000D02*
X147010000Y-151300000D01*
X148010000Y-152680000D02*
X148010000Y-142300000D01*
X127320000Y-142410000D02*
X127320000Y-148430000D01*
X127320000Y-148430000D02*
X137700000Y-148430000D01*
X127900000Y-147830000D02*
X127900000Y-148430000D01*
X128700000Y-143410000D02*
X128700000Y-142410000D01*
X128950000Y-142410000D02*
X128950000Y-143410000D01*
X128950000Y-143940000D02*
X128700000Y-143410000D01*
X129500000Y-147830000D02*
X127900000Y-147830000D01*
X129500000Y-148430000D02*
X129500000Y-147830000D01*
X130440000Y-147830000D02*
X130440000Y-148430000D01*
X132040000Y-147830000D02*
X130440000Y-147830000D01*
X132040000Y-148430000D02*
X132040000Y-147830000D01*
X132980000Y-147830000D02*
X132980000Y-148430000D01*
X134580000Y-147830000D02*
X132980000Y-147830000D01*
X134580000Y-148430000D02*
X134580000Y-147830000D01*
X135520000Y-147830000D02*
X135520000Y-148430000D01*
X136070000Y-142410000D02*
X136070000Y-143410000D01*
X136070000Y-143940000D02*
X128950000Y-143940000D01*
X136320000Y-142410000D02*
X136320000Y-143410000D01*
X136320000Y-143410000D02*
X128700000Y-143410000D01*
X136320000Y-143410000D02*
X136070000Y-143940000D01*
X137120000Y-147830000D02*
X135520000Y-147830000D01*
X137120000Y-148430000D02*
X137120000Y-147830000D01*
X137700000Y-142410000D02*
X127320000Y-142410000D01*
X137700000Y-148430000D02*
X137700000Y-142410000D01*
X137990000Y-147400000D02*
X137990000Y-143400000D01*
M02*
