G04 #@! TF.GenerationSoftware,KiCad,Pcbnew,8.0.5*
G04 #@! TF.CreationDate,2024-10-16T23:16:24+02:00*
G04 #@! TF.ProjectId,raspberry_pi_hat,72617370-6265-4727-9279-5f70695f6861,rev?*
G04 #@! TF.SameCoordinates,Original*
G04 #@! TF.FileFunction,Legend,Top*
G04 #@! TF.FilePolarity,Positive*
%FSLAX46Y46*%
G04 Gerber Fmt 4.6, Leading zero omitted, Abs format (unit mm)*
G04 Created by KiCad (PCBNEW 8.0.5) date 2024-10-16 23:16:24*
%MOMM*%
%LPD*%
G01*
G04 APERTURE LIST*
%ADD10C,0.150000*%
%ADD11C,0.120000*%
%ADD12C,0.200000*%
%ADD13C,0.127000*%
G04 APERTURE END LIST*
D10*
X121714162Y-180737995D02*
X121141743Y-180636980D01*
X121310101Y-181142056D02*
X120602995Y-180434949D01*
X120602995Y-180434949D02*
X120872369Y-180165575D01*
X120872369Y-180165575D02*
X120973384Y-180131903D01*
X120973384Y-180131903D02*
X121040727Y-180131903D01*
X121040727Y-180131903D02*
X121141743Y-180165575D01*
X121141743Y-180165575D02*
X121242758Y-180266590D01*
X121242758Y-180266590D02*
X121276430Y-180367606D01*
X121276430Y-180367606D02*
X121276430Y-180434949D01*
X121276430Y-180434949D02*
X121242758Y-180535964D01*
X121242758Y-180535964D02*
X120973384Y-180805338D01*
X121646819Y-179391125D02*
X121310101Y-179727842D01*
X121310101Y-179727842D02*
X121613147Y-180098232D01*
X121613147Y-180098232D02*
X121613147Y-180030888D01*
X121613147Y-180030888D02*
X121646819Y-179929873D01*
X121646819Y-179929873D02*
X121815178Y-179761514D01*
X121815178Y-179761514D02*
X121916193Y-179727842D01*
X121916193Y-179727842D02*
X121983536Y-179727842D01*
X121983536Y-179727842D02*
X122084552Y-179761514D01*
X122084552Y-179761514D02*
X122252910Y-179929873D01*
X122252910Y-179929873D02*
X122286582Y-180030888D01*
X122286582Y-180030888D02*
X122286582Y-180098232D01*
X122286582Y-180098232D02*
X122252910Y-180199247D01*
X122252910Y-180199247D02*
X122084552Y-180367606D01*
X122084552Y-180367606D02*
X121983536Y-180401277D01*
X121983536Y-180401277D02*
X121916193Y-180401277D01*
X166274819Y-139063333D02*
X166989104Y-139063333D01*
X166989104Y-139063333D02*
X167131961Y-139110952D01*
X167131961Y-139110952D02*
X167227200Y-139206190D01*
X167227200Y-139206190D02*
X167274819Y-139349047D01*
X167274819Y-139349047D02*
X167274819Y-139444285D01*
X166370057Y-138634761D02*
X166322438Y-138587142D01*
X166322438Y-138587142D02*
X166274819Y-138491904D01*
X166274819Y-138491904D02*
X166274819Y-138253809D01*
X166274819Y-138253809D02*
X166322438Y-138158571D01*
X166322438Y-138158571D02*
X166370057Y-138110952D01*
X166370057Y-138110952D02*
X166465295Y-138063333D01*
X166465295Y-138063333D02*
X166560533Y-138063333D01*
X166560533Y-138063333D02*
X166703390Y-138110952D01*
X166703390Y-138110952D02*
X167274819Y-138682380D01*
X167274819Y-138682380D02*
X167274819Y-138063333D01*
X133333333Y-155459580D02*
X133285714Y-155507200D01*
X133285714Y-155507200D02*
X133142857Y-155554819D01*
X133142857Y-155554819D02*
X133047619Y-155554819D01*
X133047619Y-155554819D02*
X132904762Y-155507200D01*
X132904762Y-155507200D02*
X132809524Y-155411961D01*
X132809524Y-155411961D02*
X132761905Y-155316723D01*
X132761905Y-155316723D02*
X132714286Y-155126247D01*
X132714286Y-155126247D02*
X132714286Y-154983390D01*
X132714286Y-154983390D02*
X132761905Y-154792914D01*
X132761905Y-154792914D02*
X132809524Y-154697676D01*
X132809524Y-154697676D02*
X132904762Y-154602438D01*
X132904762Y-154602438D02*
X133047619Y-154554819D01*
X133047619Y-154554819D02*
X133142857Y-154554819D01*
X133142857Y-154554819D02*
X133285714Y-154602438D01*
X133285714Y-154602438D02*
X133333333Y-154650057D01*
X133666667Y-154554819D02*
X134285714Y-154554819D01*
X134285714Y-154554819D02*
X133952381Y-154935771D01*
X133952381Y-154935771D02*
X134095238Y-154935771D01*
X134095238Y-154935771D02*
X134190476Y-154983390D01*
X134190476Y-154983390D02*
X134238095Y-155031009D01*
X134238095Y-155031009D02*
X134285714Y-155126247D01*
X134285714Y-155126247D02*
X134285714Y-155364342D01*
X134285714Y-155364342D02*
X134238095Y-155459580D01*
X134238095Y-155459580D02*
X134190476Y-155507200D01*
X134190476Y-155507200D02*
X134095238Y-155554819D01*
X134095238Y-155554819D02*
X133809524Y-155554819D01*
X133809524Y-155554819D02*
X133714286Y-155507200D01*
X133714286Y-155507200D02*
X133666667Y-155459580D01*
X167436666Y-190337319D02*
X167436666Y-191051604D01*
X167436666Y-191051604D02*
X167389047Y-191194461D01*
X167389047Y-191194461D02*
X167293809Y-191289700D01*
X167293809Y-191289700D02*
X167150952Y-191337319D01*
X167150952Y-191337319D02*
X167055714Y-191337319D01*
X168436666Y-191337319D02*
X167865238Y-191337319D01*
X168150952Y-191337319D02*
X168150952Y-190337319D01*
X168150952Y-190337319D02*
X168055714Y-190480176D01*
X168055714Y-190480176D02*
X167960476Y-190575414D01*
X167960476Y-190575414D02*
X167865238Y-190623033D01*
X110714162Y-180737995D02*
X110141743Y-180636980D01*
X110310101Y-181142056D02*
X109602995Y-180434949D01*
X109602995Y-180434949D02*
X109872369Y-180165575D01*
X109872369Y-180165575D02*
X109973384Y-180131903D01*
X109973384Y-180131903D02*
X110040727Y-180131903D01*
X110040727Y-180131903D02*
X110141743Y-180165575D01*
X110141743Y-180165575D02*
X110242758Y-180266590D01*
X110242758Y-180266590D02*
X110276430Y-180367606D01*
X110276430Y-180367606D02*
X110276430Y-180434949D01*
X110276430Y-180434949D02*
X110242758Y-180535964D01*
X110242758Y-180535964D02*
X109973384Y-180805338D01*
X110242758Y-179795186D02*
X110714162Y-179323781D01*
X110714162Y-179323781D02*
X111118223Y-180333934D01*
X157086666Y-194367319D02*
X157086666Y-195081604D01*
X157086666Y-195081604D02*
X157039047Y-195224461D01*
X157039047Y-195224461D02*
X156943809Y-195319700D01*
X156943809Y-195319700D02*
X156800952Y-195367319D01*
X156800952Y-195367319D02*
X156705714Y-195367319D01*
X158039047Y-194367319D02*
X157562857Y-194367319D01*
X157562857Y-194367319D02*
X157515238Y-194843509D01*
X157515238Y-194843509D02*
X157562857Y-194795890D01*
X157562857Y-194795890D02*
X157658095Y-194748271D01*
X157658095Y-194748271D02*
X157896190Y-194748271D01*
X157896190Y-194748271D02*
X157991428Y-194795890D01*
X157991428Y-194795890D02*
X158039047Y-194843509D01*
X158039047Y-194843509D02*
X158086666Y-194938747D01*
X158086666Y-194938747D02*
X158086666Y-195176842D01*
X158086666Y-195176842D02*
X158039047Y-195272080D01*
X158039047Y-195272080D02*
X157991428Y-195319700D01*
X157991428Y-195319700D02*
X157896190Y-195367319D01*
X157896190Y-195367319D02*
X157658095Y-195367319D01*
X157658095Y-195367319D02*
X157562857Y-195319700D01*
X157562857Y-195319700D02*
X157515238Y-195272080D01*
X127117968Y-180844061D02*
X126545549Y-180743046D01*
X126713907Y-181248122D02*
X126006801Y-180541015D01*
X126006801Y-180541015D02*
X126276175Y-180271641D01*
X126276175Y-180271641D02*
X126377190Y-180237969D01*
X126377190Y-180237969D02*
X126444533Y-180237969D01*
X126444533Y-180237969D02*
X126545549Y-180271641D01*
X126545549Y-180271641D02*
X126646564Y-180372656D01*
X126646564Y-180372656D02*
X126680236Y-180473672D01*
X126680236Y-180473672D02*
X126680236Y-180541015D01*
X126680236Y-180541015D02*
X126646564Y-180642030D01*
X126646564Y-180642030D02*
X126377190Y-180911404D01*
X127252655Y-179766565D02*
X127724060Y-180237969D01*
X126814923Y-179665550D02*
X127151640Y-180338985D01*
X127151640Y-180338985D02*
X127589373Y-179901252D01*
X107606666Y-199117319D02*
X107606666Y-199831604D01*
X107606666Y-199831604D02*
X107559047Y-199974461D01*
X107559047Y-199974461D02*
X107463809Y-200069700D01*
X107463809Y-200069700D02*
X107320952Y-200117319D01*
X107320952Y-200117319D02*
X107225714Y-200117319D01*
X108511428Y-199117319D02*
X108320952Y-199117319D01*
X108320952Y-199117319D02*
X108225714Y-199164938D01*
X108225714Y-199164938D02*
X108178095Y-199212557D01*
X108178095Y-199212557D02*
X108082857Y-199355414D01*
X108082857Y-199355414D02*
X108035238Y-199545890D01*
X108035238Y-199545890D02*
X108035238Y-199926842D01*
X108035238Y-199926842D02*
X108082857Y-200022080D01*
X108082857Y-200022080D02*
X108130476Y-200069700D01*
X108130476Y-200069700D02*
X108225714Y-200117319D01*
X108225714Y-200117319D02*
X108416190Y-200117319D01*
X108416190Y-200117319D02*
X108511428Y-200069700D01*
X108511428Y-200069700D02*
X108559047Y-200022080D01*
X108559047Y-200022080D02*
X108606666Y-199926842D01*
X108606666Y-199926842D02*
X108606666Y-199688747D01*
X108606666Y-199688747D02*
X108559047Y-199593509D01*
X108559047Y-199593509D02*
X108511428Y-199545890D01*
X108511428Y-199545890D02*
X108416190Y-199498271D01*
X108416190Y-199498271D02*
X108225714Y-199498271D01*
X108225714Y-199498271D02*
X108130476Y-199545890D01*
X108130476Y-199545890D02*
X108082857Y-199593509D01*
X108082857Y-199593509D02*
X108035238Y-199688747D01*
X116390938Y-180914772D02*
X115818519Y-180813757D01*
X115986877Y-181318833D02*
X115279771Y-180611726D01*
X115279771Y-180611726D02*
X115549145Y-180342352D01*
X115549145Y-180342352D02*
X115650160Y-180308680D01*
X115650160Y-180308680D02*
X115717503Y-180308680D01*
X115717503Y-180308680D02*
X115818519Y-180342352D01*
X115818519Y-180342352D02*
X115919534Y-180443367D01*
X115919534Y-180443367D02*
X115953206Y-180544383D01*
X115953206Y-180544383D02*
X115953206Y-180611726D01*
X115953206Y-180611726D02*
X115919534Y-180712741D01*
X115919534Y-180712741D02*
X115650160Y-180982115D01*
X116289923Y-179601574D02*
X116155236Y-179736261D01*
X116155236Y-179736261D02*
X116121564Y-179837276D01*
X116121564Y-179837276D02*
X116121564Y-179904619D01*
X116121564Y-179904619D02*
X116155236Y-180072978D01*
X116155236Y-180072978D02*
X116256251Y-180241337D01*
X116256251Y-180241337D02*
X116525625Y-180510711D01*
X116525625Y-180510711D02*
X116626641Y-180544383D01*
X116626641Y-180544383D02*
X116693984Y-180544383D01*
X116693984Y-180544383D02*
X116794999Y-180510711D01*
X116794999Y-180510711D02*
X116929686Y-180376024D01*
X116929686Y-180376024D02*
X116963358Y-180275009D01*
X116963358Y-180275009D02*
X116963358Y-180207665D01*
X116963358Y-180207665D02*
X116929686Y-180106650D01*
X116929686Y-180106650D02*
X116761328Y-179938291D01*
X116761328Y-179938291D02*
X116660312Y-179904619D01*
X116660312Y-179904619D02*
X116592969Y-179904619D01*
X116592969Y-179904619D02*
X116491954Y-179938291D01*
X116491954Y-179938291D02*
X116357267Y-180072978D01*
X116357267Y-180072978D02*
X116323595Y-180173993D01*
X116323595Y-180173993D02*
X116323595Y-180241337D01*
X116323595Y-180241337D02*
X116357267Y-180342352D01*
X155383333Y-188167319D02*
X155050000Y-187691128D01*
X154811905Y-188167319D02*
X154811905Y-187167319D01*
X154811905Y-187167319D02*
X155192857Y-187167319D01*
X155192857Y-187167319D02*
X155288095Y-187214938D01*
X155288095Y-187214938D02*
X155335714Y-187262557D01*
X155335714Y-187262557D02*
X155383333Y-187357795D01*
X155383333Y-187357795D02*
X155383333Y-187500652D01*
X155383333Y-187500652D02*
X155335714Y-187595890D01*
X155335714Y-187595890D02*
X155288095Y-187643509D01*
X155288095Y-187643509D02*
X155192857Y-187691128D01*
X155192857Y-187691128D02*
X154811905Y-187691128D01*
X155764286Y-187262557D02*
X155811905Y-187214938D01*
X155811905Y-187214938D02*
X155907143Y-187167319D01*
X155907143Y-187167319D02*
X156145238Y-187167319D01*
X156145238Y-187167319D02*
X156240476Y-187214938D01*
X156240476Y-187214938D02*
X156288095Y-187262557D01*
X156288095Y-187262557D02*
X156335714Y-187357795D01*
X156335714Y-187357795D02*
X156335714Y-187453033D01*
X156335714Y-187453033D02*
X156288095Y-187595890D01*
X156288095Y-187595890D02*
X155716667Y-188167319D01*
X155716667Y-188167319D02*
X156335714Y-188167319D01*
X140133333Y-141859580D02*
X140085714Y-141907200D01*
X140085714Y-141907200D02*
X139942857Y-141954819D01*
X139942857Y-141954819D02*
X139847619Y-141954819D01*
X139847619Y-141954819D02*
X139704762Y-141907200D01*
X139704762Y-141907200D02*
X139609524Y-141811961D01*
X139609524Y-141811961D02*
X139561905Y-141716723D01*
X139561905Y-141716723D02*
X139514286Y-141526247D01*
X139514286Y-141526247D02*
X139514286Y-141383390D01*
X139514286Y-141383390D02*
X139561905Y-141192914D01*
X139561905Y-141192914D02*
X139609524Y-141097676D01*
X139609524Y-141097676D02*
X139704762Y-141002438D01*
X139704762Y-141002438D02*
X139847619Y-140954819D01*
X139847619Y-140954819D02*
X139942857Y-140954819D01*
X139942857Y-140954819D02*
X140085714Y-141002438D01*
X140085714Y-141002438D02*
X140133333Y-141050057D01*
X141085714Y-141954819D02*
X140514286Y-141954819D01*
X140800000Y-141954819D02*
X140800000Y-140954819D01*
X140800000Y-140954819D02*
X140704762Y-141097676D01*
X140704762Y-141097676D02*
X140609524Y-141192914D01*
X140609524Y-141192914D02*
X140514286Y-141240533D01*
X155233333Y-192267319D02*
X154900000Y-191791128D01*
X154661905Y-192267319D02*
X154661905Y-191267319D01*
X154661905Y-191267319D02*
X155042857Y-191267319D01*
X155042857Y-191267319D02*
X155138095Y-191314938D01*
X155138095Y-191314938D02*
X155185714Y-191362557D01*
X155185714Y-191362557D02*
X155233333Y-191457795D01*
X155233333Y-191457795D02*
X155233333Y-191600652D01*
X155233333Y-191600652D02*
X155185714Y-191695890D01*
X155185714Y-191695890D02*
X155138095Y-191743509D01*
X155138095Y-191743509D02*
X155042857Y-191791128D01*
X155042857Y-191791128D02*
X154661905Y-191791128D01*
X156185714Y-192267319D02*
X155614286Y-192267319D01*
X155900000Y-192267319D02*
X155900000Y-191267319D01*
X155900000Y-191267319D02*
X155804762Y-191410176D01*
X155804762Y-191410176D02*
X155709524Y-191505414D01*
X155709524Y-191505414D02*
X155614286Y-191553033D01*
X116033333Y-158564692D02*
X115985714Y-158612312D01*
X115985714Y-158612312D02*
X115842857Y-158659931D01*
X115842857Y-158659931D02*
X115747619Y-158659931D01*
X115747619Y-158659931D02*
X115604762Y-158612312D01*
X115604762Y-158612312D02*
X115509524Y-158517073D01*
X115509524Y-158517073D02*
X115461905Y-158421835D01*
X115461905Y-158421835D02*
X115414286Y-158231359D01*
X115414286Y-158231359D02*
X115414286Y-158088502D01*
X115414286Y-158088502D02*
X115461905Y-157898026D01*
X115461905Y-157898026D02*
X115509524Y-157802788D01*
X115509524Y-157802788D02*
X115604762Y-157707550D01*
X115604762Y-157707550D02*
X115747619Y-157659931D01*
X115747619Y-157659931D02*
X115842857Y-157659931D01*
X115842857Y-157659931D02*
X115985714Y-157707550D01*
X115985714Y-157707550D02*
X116033333Y-157755169D01*
X116890476Y-157993264D02*
X116890476Y-158659931D01*
X116652381Y-157612312D02*
X116414286Y-158326597D01*
X116414286Y-158326597D02*
X117033333Y-158326597D01*
X138859580Y-148166666D02*
X138907200Y-148214285D01*
X138907200Y-148214285D02*
X138954819Y-148357142D01*
X138954819Y-148357142D02*
X138954819Y-148452380D01*
X138954819Y-148452380D02*
X138907200Y-148595237D01*
X138907200Y-148595237D02*
X138811961Y-148690475D01*
X138811961Y-148690475D02*
X138716723Y-148738094D01*
X138716723Y-148738094D02*
X138526247Y-148785713D01*
X138526247Y-148785713D02*
X138383390Y-148785713D01*
X138383390Y-148785713D02*
X138192914Y-148738094D01*
X138192914Y-148738094D02*
X138097676Y-148690475D01*
X138097676Y-148690475D02*
X138002438Y-148595237D01*
X138002438Y-148595237D02*
X137954819Y-148452380D01*
X137954819Y-148452380D02*
X137954819Y-148357142D01*
X137954819Y-148357142D02*
X138002438Y-148214285D01*
X138002438Y-148214285D02*
X138050057Y-148166666D01*
X138050057Y-147785713D02*
X138002438Y-147738094D01*
X138002438Y-147738094D02*
X137954819Y-147642856D01*
X137954819Y-147642856D02*
X137954819Y-147404761D01*
X137954819Y-147404761D02*
X138002438Y-147309523D01*
X138002438Y-147309523D02*
X138050057Y-147261904D01*
X138050057Y-147261904D02*
X138145295Y-147214285D01*
X138145295Y-147214285D02*
X138240533Y-147214285D01*
X138240533Y-147214285D02*
X138383390Y-147261904D01*
X138383390Y-147261904D02*
X138954819Y-147833332D01*
X138954819Y-147833332D02*
X138954819Y-147214285D01*
X132537385Y-180914772D02*
X131964966Y-180813757D01*
X132133324Y-181318833D02*
X131426218Y-180611726D01*
X131426218Y-180611726D02*
X131695592Y-180342352D01*
X131695592Y-180342352D02*
X131796607Y-180308680D01*
X131796607Y-180308680D02*
X131863950Y-180308680D01*
X131863950Y-180308680D02*
X131964966Y-180342352D01*
X131964966Y-180342352D02*
X132065981Y-180443367D01*
X132065981Y-180443367D02*
X132099653Y-180544383D01*
X132099653Y-180544383D02*
X132099653Y-180611726D01*
X132099653Y-180611726D02*
X132065981Y-180712741D01*
X132065981Y-180712741D02*
X131796607Y-180982115D01*
X132065981Y-179971963D02*
X132503714Y-179534230D01*
X132503714Y-179534230D02*
X132537385Y-180039306D01*
X132537385Y-180039306D02*
X132638401Y-179938291D01*
X132638401Y-179938291D02*
X132739416Y-179904619D01*
X132739416Y-179904619D02*
X132806759Y-179904619D01*
X132806759Y-179904619D02*
X132907775Y-179938291D01*
X132907775Y-179938291D02*
X133076133Y-180106650D01*
X133076133Y-180106650D02*
X133109805Y-180207665D01*
X133109805Y-180207665D02*
X133109805Y-180275009D01*
X133109805Y-180275009D02*
X133076133Y-180376024D01*
X133076133Y-180376024D02*
X132874103Y-180578054D01*
X132874103Y-180578054D02*
X132773088Y-180611726D01*
X132773088Y-180611726D02*
X132705744Y-180611726D01*
D11*
X176065000Y-199322500D02*
G75*
G02*
X173005000Y-202382500I-3060000J0D01*
G01*
X173005000Y-162982500D02*
G75*
G02*
X176065000Y-166042500I1J-3059999D01*
G01*
X88075000Y-202352500D02*
G75*
G02*
X85015000Y-199292500I0J3060000D01*
G01*
X85075000Y-165952500D02*
G75*
G02*
X88075000Y-162952500I2999999J1D01*
G01*
X176065000Y-166042500D02*
X176065000Y-199322500D01*
X159545000Y-176712500D02*
X158215000Y-176712500D01*
X159545000Y-175382500D02*
X159545000Y-176712500D01*
X159545000Y-174112500D02*
X156945000Y-174112500D01*
X159545000Y-171512500D02*
X159545000Y-174112500D01*
X159545000Y-171512500D02*
X108625000Y-171512500D01*
X156945000Y-176712500D02*
X108625000Y-176712500D01*
X156945000Y-174112500D02*
X156945000Y-176712500D01*
X108625000Y-171512500D02*
X108625000Y-176712500D01*
X88075000Y-202352500D02*
X173005000Y-202382500D01*
X88075000Y-162952500D02*
X173005000Y-162982500D01*
X85075000Y-165952500D02*
X85015000Y-199292500D01*
X176055000Y-157375000D02*
G75*
G02*
X172995000Y-160435000I-3060000J0D01*
G01*
X172995000Y-122745000D02*
G75*
G02*
X176055000Y-125805000I1J-3059999D01*
G01*
X88089470Y-160424969D02*
G75*
G02*
X85053127Y-157375000I13657J3049969D01*
G01*
X85075545Y-125843933D02*
G75*
G02*
X88135545Y-122783933I3059999J1D01*
G01*
X176055000Y-125805000D02*
X176055000Y-157375000D01*
X159385000Y-136475000D02*
X158055000Y-136475000D01*
X159385000Y-135145000D02*
X159385000Y-136475000D01*
X159385000Y-133875000D02*
X156785000Y-133875000D01*
X159385000Y-131275000D02*
X159385000Y-133875000D01*
X159385000Y-131275000D02*
X108465000Y-131275000D01*
X156785000Y-136475000D02*
X108465000Y-136475000D01*
X156785000Y-133875000D02*
X156785000Y-136475000D01*
X108465000Y-131275000D02*
X108465000Y-136475000D01*
X88089470Y-160424969D02*
X172995000Y-160435000D01*
X88116874Y-122745000D02*
X172995000Y-122745000D01*
X85053127Y-157375000D02*
X85075545Y-125843933D01*
X113449390Y-191145557D02*
X119983057Y-184611890D01*
X119983057Y-184611890D02*
X117550610Y-182179443D01*
X111745263Y-190417237D02*
X112233167Y-189929333D01*
X119254737Y-182907763D02*
X118766833Y-183395667D01*
X111016943Y-188713110D02*
X113449390Y-191145557D01*
X117550610Y-182179443D02*
X111016943Y-188713110D01*
X172150000Y-138230000D02*
X170450000Y-138230000D01*
X172150000Y-147570000D02*
X170450000Y-147570000D01*
X132820000Y-157200000D02*
G75*
G02*
X128580000Y-157200000I-2120000J0D01*
G01*
X128580000Y-157200000D02*
G75*
G02*
X132820000Y-157200000I2120000J0D01*
G01*
X164760000Y-179292500D02*
X164760000Y-189672500D01*
X164760000Y-181472500D02*
X165360000Y-181472500D01*
X164760000Y-184012500D02*
X165360000Y-184012500D01*
X164760000Y-186552500D02*
X165360000Y-186552500D01*
X164760000Y-189092500D02*
X165360000Y-189092500D01*
X164760000Y-189672500D02*
X170780000Y-189672500D01*
X165360000Y-179872500D02*
X164760000Y-179872500D01*
X165360000Y-181472500D02*
X165360000Y-179872500D01*
X165360000Y-182412500D02*
X164760000Y-182412500D01*
X165360000Y-184012500D02*
X165360000Y-182412500D01*
X165360000Y-184952500D02*
X164760000Y-184952500D01*
X165360000Y-186552500D02*
X165360000Y-184952500D01*
X165360000Y-187492500D02*
X164760000Y-187492500D01*
X165360000Y-189092500D02*
X165360000Y-187492500D01*
X165790000Y-189962500D02*
X169790000Y-189962500D01*
X169250000Y-180922500D02*
X169780000Y-180672500D01*
X169250000Y-188042500D02*
X169250000Y-180922500D01*
X169780000Y-180672500D02*
X170780000Y-180672500D01*
X169780000Y-188292500D02*
X169250000Y-188042500D01*
X169780000Y-188292500D02*
X169780000Y-180672500D01*
X170780000Y-179292500D02*
X164760000Y-179292500D01*
X170780000Y-180922500D02*
X169780000Y-180922500D01*
X170780000Y-188042500D02*
X169780000Y-188042500D01*
X170780000Y-188292500D02*
X169780000Y-188292500D01*
X170780000Y-189672500D02*
X170780000Y-179292500D01*
X139110000Y-149290000D02*
X139110000Y-159790000D01*
X139110000Y-152000000D02*
X137150000Y-152000000D01*
X139110000Y-154540000D02*
X137150000Y-154540000D01*
X139110000Y-157080000D02*
X137150000Y-157080000D01*
X155220000Y-149290000D02*
X139110000Y-149290000D01*
X155220000Y-149290000D02*
X155220000Y-159790000D01*
X155220000Y-159790000D02*
X139110000Y-159790000D01*
X102449390Y-191145557D02*
X108983057Y-184611890D01*
X108983057Y-184611890D02*
X106550610Y-182179443D01*
X100745263Y-190417237D02*
X101233167Y-189929333D01*
X108254737Y-182907763D02*
X107766833Y-183395667D01*
X100016943Y-188713110D02*
X102449390Y-191145557D01*
X106550610Y-182179443D02*
X100016943Y-188713110D01*
D12*
X125387500Y-150012500D02*
G75*
G02*
X125187500Y-150012500I-100000J0D01*
G01*
X125187500Y-150012500D02*
G75*
G02*
X125387500Y-150012500I100000J0D01*
G01*
D13*
X125887500Y-152512500D02*
X125887500Y-137712500D01*
X125887500Y-137712500D02*
X86087500Y-137712500D01*
X86087500Y-152512500D02*
X125887500Y-152512500D01*
X86087500Y-137712500D02*
X86087500Y-152512500D01*
D11*
X158670000Y-200912500D02*
X158670000Y-196912500D01*
X158380000Y-201942500D02*
X158380000Y-195922500D01*
X158380000Y-195922500D02*
X148000000Y-195922500D01*
X157800000Y-201942500D02*
X157800000Y-201342500D01*
X157800000Y-201342500D02*
X156200000Y-201342500D01*
X157000000Y-196922500D02*
X156750000Y-197452500D01*
X157000000Y-196922500D02*
X149380000Y-196922500D01*
X157000000Y-195922500D02*
X157000000Y-196922500D01*
X156750000Y-197452500D02*
X149630000Y-197452500D01*
X156750000Y-195922500D02*
X156750000Y-196922500D01*
X156200000Y-201342500D02*
X156200000Y-201942500D01*
X155260000Y-201942500D02*
X155260000Y-201342500D01*
X155260000Y-201342500D02*
X153660000Y-201342500D01*
X153660000Y-201342500D02*
X153660000Y-201942500D01*
X152720000Y-201942500D02*
X152720000Y-201342500D01*
X152720000Y-201342500D02*
X151120000Y-201342500D01*
X151120000Y-201342500D02*
X151120000Y-201942500D01*
X150180000Y-201942500D02*
X150180000Y-201342500D01*
X150180000Y-201342500D02*
X148580000Y-201342500D01*
X149630000Y-197452500D02*
X149380000Y-196922500D01*
X149630000Y-195922500D02*
X149630000Y-196922500D01*
X149380000Y-196922500D02*
X149380000Y-195922500D01*
X148580000Y-201342500D02*
X148580000Y-201942500D01*
X148000000Y-201942500D02*
X158380000Y-201942500D01*
X148000000Y-195922500D02*
X148000000Y-201942500D01*
X118959262Y-191145557D02*
X125492929Y-184611890D01*
X125492929Y-184611890D02*
X123060482Y-182179443D01*
X117255135Y-190417237D02*
X117743039Y-189929333D01*
X124764609Y-182907763D02*
X124276705Y-183395667D01*
X116526815Y-188713110D02*
X118959262Y-191145557D01*
X123060482Y-182179443D02*
X116526815Y-188713110D01*
X130310000Y-200537500D02*
X130310000Y-196537500D01*
X130020000Y-201567500D02*
X130020000Y-195547500D01*
X130020000Y-195547500D02*
X109480000Y-195547500D01*
X129440000Y-201567500D02*
X129440000Y-200967500D01*
X129440000Y-200967500D02*
X127840000Y-200967500D01*
X128640000Y-196547500D02*
X128390000Y-197077500D01*
X128640000Y-196547500D02*
X123560000Y-196547500D01*
X128640000Y-195547500D02*
X128640000Y-196547500D01*
X128390000Y-197077500D02*
X123560000Y-197077500D01*
X128390000Y-195547500D02*
X128390000Y-196547500D01*
X127840000Y-200967500D02*
X127840000Y-201567500D01*
X126900000Y-201567500D02*
X126900000Y-200967500D01*
X126900000Y-200967500D02*
X125300000Y-200967500D01*
X125300000Y-200967500D02*
X125300000Y-201567500D01*
X124360000Y-201567500D02*
X124360000Y-200967500D01*
X124360000Y-200967500D02*
X122760000Y-200967500D01*
X123560000Y-197077500D02*
X123560000Y-196547500D01*
X123560000Y-196547500D02*
X123560000Y-195547500D01*
X122760000Y-200967500D02*
X122760000Y-201567500D01*
X121820000Y-201567500D02*
X121820000Y-200967500D01*
X121820000Y-200967500D02*
X120220000Y-200967500D01*
X120220000Y-200967500D02*
X120220000Y-201567500D01*
X119280000Y-201567500D02*
X119280000Y-200967500D01*
X119280000Y-200967500D02*
X117680000Y-200967500D01*
X117680000Y-200967500D02*
X117680000Y-201567500D01*
X116740000Y-201567500D02*
X116740000Y-200967500D01*
X116740000Y-200967500D02*
X115140000Y-200967500D01*
X115940000Y-197077500D02*
X115940000Y-196547500D01*
X115940000Y-196547500D02*
X115940000Y-195547500D01*
X115140000Y-200967500D02*
X115140000Y-201567500D01*
X114200000Y-201567500D02*
X114200000Y-200967500D01*
X114200000Y-200967500D02*
X112600000Y-200967500D01*
X112600000Y-200967500D02*
X112600000Y-201567500D01*
X111660000Y-201567500D02*
X111660000Y-200967500D01*
X111660000Y-200967500D02*
X110060000Y-200967500D01*
X111110000Y-197077500D02*
X115940000Y-197077500D01*
X111110000Y-195547500D02*
X111110000Y-196547500D01*
X110860000Y-196547500D02*
X115940000Y-196547500D01*
X110860000Y-196547500D02*
X111110000Y-197077500D01*
X110860000Y-195547500D02*
X110860000Y-196547500D01*
X110060000Y-200967500D02*
X110060000Y-201567500D01*
X109480000Y-201567500D02*
X130020000Y-201567500D01*
X109480000Y-195547500D02*
X109480000Y-201567500D01*
X107949390Y-191145557D02*
X114483057Y-184611890D01*
X114483057Y-184611890D02*
X112050610Y-182179443D01*
X106245263Y-190417237D02*
X106733167Y-189929333D01*
X113754737Y-182907763D02*
X113266833Y-183395667D01*
X105516943Y-188713110D02*
X107949390Y-191145557D01*
X112050610Y-182179443D02*
X105516943Y-188713110D01*
X152310000Y-186912500D02*
X151620000Y-186912500D01*
X151620000Y-188632500D02*
X151620000Y-185192500D01*
X151620000Y-185192500D02*
X142380000Y-185192500D01*
X142380000Y-188632500D02*
X151620000Y-188632500D01*
X142380000Y-185192500D02*
X142380000Y-188632500D01*
X141690000Y-186912500D02*
X142380000Y-186912500D01*
X141460000Y-144784888D02*
X139931000Y-144784888D01*
X141460000Y-144824888D02*
X139935000Y-144824888D01*
X141460000Y-144864888D02*
X139939000Y-144864888D01*
X141460000Y-144904888D02*
X139944000Y-144904888D01*
X141460000Y-144944888D02*
X139950000Y-144944888D01*
X141460000Y-144984888D02*
X139957000Y-144984888D01*
X141460000Y-145024888D02*
X139964000Y-145024888D01*
X141460000Y-145064888D02*
X139972000Y-145064888D01*
X141460000Y-145104888D02*
X139980000Y-145104888D01*
X141460000Y-145144888D02*
X139989000Y-145144888D01*
X141460000Y-145184888D02*
X139999000Y-145184888D01*
X141460000Y-145224888D02*
X140009000Y-145224888D01*
X141460000Y-145265888D02*
X140020000Y-145265888D01*
X141460000Y-145305888D02*
X140032000Y-145305888D01*
X141460000Y-145345888D02*
X140045000Y-145345888D01*
X141460000Y-145385888D02*
X140058000Y-145385888D01*
X141460000Y-145425888D02*
X140072000Y-145425888D01*
X141460000Y-145465888D02*
X140086000Y-145465888D01*
X141460000Y-145505888D02*
X140102000Y-145505888D01*
X141460000Y-145545888D02*
X140118000Y-145545888D01*
X141460000Y-145585888D02*
X140135000Y-145585888D01*
X141460000Y-145625888D02*
X140152000Y-145625888D01*
X141460000Y-145665888D02*
X140171000Y-145665888D01*
X141460000Y-145705888D02*
X140190000Y-145705888D01*
X141460000Y-145745888D02*
X140210000Y-145745888D01*
X141460000Y-145785888D02*
X140232000Y-145785888D01*
X141460000Y-145825888D02*
X140253000Y-145825888D01*
X141460000Y-145865888D02*
X140276000Y-145865888D01*
X141460000Y-145905888D02*
X140300000Y-145905888D01*
X141460000Y-145945888D02*
X140325000Y-145945888D01*
X141460000Y-145985888D02*
X140351000Y-145985888D01*
X141460000Y-146025888D02*
X140378000Y-146025888D01*
X141460000Y-146065888D02*
X140405000Y-146065888D01*
X141460000Y-146105888D02*
X140435000Y-146105888D01*
X141460000Y-146145888D02*
X140465000Y-146145888D01*
X141460000Y-146185888D02*
X140496000Y-146185888D01*
X141460000Y-146225888D02*
X140529000Y-146225888D01*
X141460000Y-146265888D02*
X140563000Y-146265888D01*
X141460000Y-146305888D02*
X140599000Y-146305888D01*
X141460000Y-146345888D02*
X140636000Y-146345888D01*
X141460000Y-146385888D02*
X140674000Y-146385888D01*
X141460000Y-146425888D02*
X140715000Y-146425888D01*
X141460000Y-146465888D02*
X140757000Y-146465888D01*
X141460000Y-146505888D02*
X140801000Y-146505888D01*
X141460000Y-146545888D02*
X140847000Y-146545888D01*
X141460000Y-146585888D02*
X140895000Y-146585888D01*
X141460000Y-146625888D02*
X140946000Y-146625888D01*
X141460000Y-146665888D02*
X141000000Y-146665888D01*
X141460000Y-146705888D02*
X141057000Y-146705888D01*
X141460000Y-146745888D02*
X141117000Y-146745888D01*
X141460000Y-146785888D02*
X141181000Y-146785888D01*
X141460000Y-146825888D02*
X141249000Y-146825888D01*
X142784000Y-147145888D02*
X142216000Y-147145888D01*
X143018000Y-147105888D02*
X141982000Y-147105888D01*
X143177000Y-147065888D02*
X141823000Y-147065888D01*
X143305000Y-147025888D02*
X141695000Y-147025888D01*
X143415000Y-146985888D02*
X141585000Y-146985888D01*
X143511000Y-146945888D02*
X141489000Y-146945888D01*
X143598000Y-146905888D02*
X141402000Y-146905888D01*
X143678000Y-146865888D02*
X141322000Y-146865888D01*
X143751000Y-146825888D02*
X143540000Y-146825888D01*
X143819000Y-146785888D02*
X143540000Y-146785888D01*
X143883000Y-146745888D02*
X143540000Y-146745888D01*
X143943000Y-146705888D02*
X143540000Y-146705888D01*
X143975000Y-141740113D02*
X143975000Y-142240113D01*
X144000000Y-146665888D02*
X143540000Y-146665888D01*
X144054000Y-146625888D02*
X143540000Y-146625888D01*
X144105000Y-146585888D02*
X143540000Y-146585888D01*
X144153000Y-146545888D02*
X143540000Y-146545888D01*
X144199000Y-146505888D02*
X143540000Y-146505888D01*
X144225000Y-141990113D02*
X143725000Y-141990113D01*
X144243000Y-146465888D02*
X143540000Y-146465888D01*
X144285000Y-146425888D02*
X143540000Y-146425888D01*
X144326000Y-146385888D02*
X143540000Y-146385888D01*
X144364000Y-146345888D02*
X143540000Y-146345888D01*
X144401000Y-146305888D02*
X143540000Y-146305888D01*
X144437000Y-146265888D02*
X143540000Y-146265888D01*
X144471000Y-146225888D02*
X143540000Y-146225888D01*
X144504000Y-146185888D02*
X143540000Y-146185888D01*
X144535000Y-146145888D02*
X143540000Y-146145888D01*
X144565000Y-146105888D02*
X143540000Y-146105888D01*
X144595000Y-146065888D02*
X143540000Y-146065888D01*
X144622000Y-146025888D02*
X143540000Y-146025888D01*
X144649000Y-145985888D02*
X143540000Y-145985888D01*
X144675000Y-145945888D02*
X143540000Y-145945888D01*
X144700000Y-145905888D02*
X143540000Y-145905888D01*
X144724000Y-145865888D02*
X143540000Y-145865888D01*
X144747000Y-145825888D02*
X143540000Y-145825888D01*
X144768000Y-145785888D02*
X143540000Y-145785888D01*
X144790000Y-145745888D02*
X143540000Y-145745888D01*
X144810000Y-145705888D02*
X143540000Y-145705888D01*
X144829000Y-145665888D02*
X143540000Y-145665888D01*
X144848000Y-145625888D02*
X143540000Y-145625888D01*
X144865000Y-145585888D02*
X143540000Y-145585888D01*
X144882000Y-145545888D02*
X143540000Y-145545888D01*
X144898000Y-145505888D02*
X143540000Y-145505888D01*
X144914000Y-145465888D02*
X143540000Y-145465888D01*
X144928000Y-145425888D02*
X143540000Y-145425888D01*
X144942000Y-145385888D02*
X143540000Y-145385888D01*
X144955000Y-145345888D02*
X143540000Y-145345888D01*
X144968000Y-145305888D02*
X143540000Y-145305888D01*
X144980000Y-145265888D02*
X143540000Y-145265888D01*
X144991000Y-145224888D02*
X143540000Y-145224888D01*
X145001000Y-145184888D02*
X143540000Y-145184888D01*
X145011000Y-145144888D02*
X143540000Y-145144888D01*
X145020000Y-145104888D02*
X143540000Y-145104888D01*
X145028000Y-145064888D02*
X143540000Y-145064888D01*
X145036000Y-145024888D02*
X143540000Y-145024888D01*
X145043000Y-144984888D02*
X143540000Y-144984888D01*
X145050000Y-144944888D02*
X143540000Y-144944888D01*
X145056000Y-144904888D02*
X143540000Y-144904888D01*
X145061000Y-144864888D02*
X143540000Y-144864888D01*
X145065000Y-144824888D02*
X143540000Y-144824888D01*
X145069000Y-144784888D02*
X143540000Y-144784888D01*
X145073000Y-144744888D02*
X139927000Y-144744888D01*
X145076000Y-144704888D02*
X139924000Y-144704888D01*
X145078000Y-144664888D02*
X139922000Y-144664888D01*
X145079000Y-144624888D02*
X139921000Y-144624888D01*
X145080000Y-144544888D02*
X139920000Y-144544888D01*
X145080000Y-144584888D02*
X139920000Y-144584888D01*
X145120000Y-144544888D02*
G75*
G02*
X139880000Y-144544888I-2620000J0D01*
G01*
X139880000Y-144544888D02*
G75*
G02*
X145120000Y-144544888I2620000J0D01*
G01*
X152310000Y-190912500D02*
X151620000Y-190912500D01*
X151620000Y-192632500D02*
X151620000Y-189192500D01*
X151620000Y-189192500D02*
X142380000Y-189192500D01*
X142380000Y-192632500D02*
X151620000Y-192632500D01*
X142380000Y-189192500D02*
X142380000Y-192632500D01*
X141690000Y-190912500D02*
X142380000Y-190912500D01*
X121040000Y-156815112D02*
X122569000Y-156815112D01*
X121040000Y-156775112D02*
X122565000Y-156775112D01*
X121040000Y-156735112D02*
X122561000Y-156735112D01*
X121040000Y-156695112D02*
X122556000Y-156695112D01*
X121040000Y-156655112D02*
X122550000Y-156655112D01*
X121040000Y-156615112D02*
X122543000Y-156615112D01*
X121040000Y-156575112D02*
X122536000Y-156575112D01*
X121040000Y-156535112D02*
X122528000Y-156535112D01*
X121040000Y-156495112D02*
X122520000Y-156495112D01*
X121040000Y-156455112D02*
X122511000Y-156455112D01*
X121040000Y-156415112D02*
X122501000Y-156415112D01*
X121040000Y-156375112D02*
X122491000Y-156375112D01*
X121040000Y-156334112D02*
X122480000Y-156334112D01*
X121040000Y-156294112D02*
X122468000Y-156294112D01*
X121040000Y-156254112D02*
X122455000Y-156254112D01*
X121040000Y-156214112D02*
X122442000Y-156214112D01*
X121040000Y-156174112D02*
X122428000Y-156174112D01*
X121040000Y-156134112D02*
X122414000Y-156134112D01*
X121040000Y-156094112D02*
X122398000Y-156094112D01*
X121040000Y-156054112D02*
X122382000Y-156054112D01*
X121040000Y-156014112D02*
X122365000Y-156014112D01*
X121040000Y-155974112D02*
X122348000Y-155974112D01*
X121040000Y-155934112D02*
X122329000Y-155934112D01*
X121040000Y-155894112D02*
X122310000Y-155894112D01*
X121040000Y-155854112D02*
X122290000Y-155854112D01*
X121040000Y-155814112D02*
X122268000Y-155814112D01*
X121040000Y-155774112D02*
X122247000Y-155774112D01*
X121040000Y-155734112D02*
X122224000Y-155734112D01*
X121040000Y-155694112D02*
X122200000Y-155694112D01*
X121040000Y-155654112D02*
X122175000Y-155654112D01*
X121040000Y-155614112D02*
X122149000Y-155614112D01*
X121040000Y-155574112D02*
X122122000Y-155574112D01*
X121040000Y-155534112D02*
X122095000Y-155534112D01*
X121040000Y-155494112D02*
X122065000Y-155494112D01*
X121040000Y-155454112D02*
X122035000Y-155454112D01*
X121040000Y-155414112D02*
X122004000Y-155414112D01*
X121040000Y-155374112D02*
X121971000Y-155374112D01*
X121040000Y-155334112D02*
X121937000Y-155334112D01*
X121040000Y-155294112D02*
X121901000Y-155294112D01*
X121040000Y-155254112D02*
X121864000Y-155254112D01*
X121040000Y-155214112D02*
X121826000Y-155214112D01*
X121040000Y-155174112D02*
X121785000Y-155174112D01*
X121040000Y-155134112D02*
X121743000Y-155134112D01*
X121040000Y-155094112D02*
X121699000Y-155094112D01*
X121040000Y-155054112D02*
X121653000Y-155054112D01*
X121040000Y-155014112D02*
X121605000Y-155014112D01*
X121040000Y-154974112D02*
X121554000Y-154974112D01*
X121040000Y-154934112D02*
X121500000Y-154934112D01*
X121040000Y-154894112D02*
X121443000Y-154894112D01*
X121040000Y-154854112D02*
X121383000Y-154854112D01*
X121040000Y-154814112D02*
X121319000Y-154814112D01*
X121040000Y-154774112D02*
X121251000Y-154774112D01*
X119716000Y-154454112D02*
X120284000Y-154454112D01*
X119482000Y-154494112D02*
X120518000Y-154494112D01*
X119323000Y-154534112D02*
X120677000Y-154534112D01*
X119195000Y-154574112D02*
X120805000Y-154574112D01*
X119085000Y-154614112D02*
X120915000Y-154614112D01*
X118989000Y-154654112D02*
X121011000Y-154654112D01*
X118902000Y-154694112D02*
X121098000Y-154694112D01*
X118822000Y-154734112D02*
X121178000Y-154734112D01*
X118749000Y-154774112D02*
X118960000Y-154774112D01*
X118681000Y-154814112D02*
X118960000Y-154814112D01*
X118617000Y-154854112D02*
X118960000Y-154854112D01*
X118557000Y-154894112D02*
X118960000Y-154894112D01*
X118525000Y-159859887D02*
X118525000Y-159359887D01*
X118500000Y-154934112D02*
X118960000Y-154934112D01*
X118446000Y-154974112D02*
X118960000Y-154974112D01*
X118395000Y-155014112D02*
X118960000Y-155014112D01*
X118347000Y-155054112D02*
X118960000Y-155054112D01*
X118301000Y-155094112D02*
X118960000Y-155094112D01*
X118275000Y-159609887D02*
X118775000Y-159609887D01*
X118257000Y-155134112D02*
X118960000Y-155134112D01*
X118215000Y-155174112D02*
X118960000Y-155174112D01*
X118174000Y-155214112D02*
X118960000Y-155214112D01*
X118136000Y-155254112D02*
X118960000Y-155254112D01*
X118099000Y-155294112D02*
X118960000Y-155294112D01*
X118063000Y-155334112D02*
X118960000Y-155334112D01*
X118029000Y-155374112D02*
X118960000Y-155374112D01*
X117996000Y-155414112D02*
X118960000Y-155414112D01*
X117965000Y-155454112D02*
X118960000Y-155454112D01*
X117935000Y-155494112D02*
X118960000Y-155494112D01*
X117905000Y-155534112D02*
X118960000Y-155534112D01*
X117878000Y-155574112D02*
X118960000Y-155574112D01*
X117851000Y-155614112D02*
X118960000Y-155614112D01*
X117825000Y-155654112D02*
X118960000Y-155654112D01*
X117800000Y-155694112D02*
X118960000Y-155694112D01*
X117776000Y-155734112D02*
X118960000Y-155734112D01*
X117753000Y-155774112D02*
X118960000Y-155774112D01*
X117732000Y-155814112D02*
X118960000Y-155814112D01*
X117710000Y-155854112D02*
X118960000Y-155854112D01*
X117690000Y-155894112D02*
X118960000Y-155894112D01*
X117671000Y-155934112D02*
X118960000Y-155934112D01*
X117652000Y-155974112D02*
X118960000Y-155974112D01*
X117635000Y-156014112D02*
X118960000Y-156014112D01*
X117618000Y-156054112D02*
X118960000Y-156054112D01*
X117602000Y-156094112D02*
X118960000Y-156094112D01*
X117586000Y-156134112D02*
X118960000Y-156134112D01*
X117572000Y-156174112D02*
X118960000Y-156174112D01*
X117558000Y-156214112D02*
X118960000Y-156214112D01*
X117545000Y-156254112D02*
X118960000Y-156254112D01*
X117532000Y-156294112D02*
X118960000Y-156294112D01*
X117520000Y-156334112D02*
X118960000Y-156334112D01*
X117509000Y-156375112D02*
X118960000Y-156375112D01*
X117499000Y-156415112D02*
X118960000Y-156415112D01*
X117489000Y-156455112D02*
X118960000Y-156455112D01*
X117480000Y-156495112D02*
X118960000Y-156495112D01*
X117472000Y-156535112D02*
X118960000Y-156535112D01*
X117464000Y-156575112D02*
X118960000Y-156575112D01*
X117457000Y-156615112D02*
X118960000Y-156615112D01*
X117450000Y-156655112D02*
X118960000Y-156655112D01*
X117444000Y-156695112D02*
X118960000Y-156695112D01*
X117439000Y-156735112D02*
X118960000Y-156735112D01*
X117435000Y-156775112D02*
X118960000Y-156775112D01*
X117431000Y-156815112D02*
X118960000Y-156815112D01*
X117427000Y-156855112D02*
X122573000Y-156855112D01*
X117424000Y-156895112D02*
X122576000Y-156895112D01*
X117422000Y-156935112D02*
X122578000Y-156935112D01*
X117421000Y-156975112D02*
X122579000Y-156975112D01*
X117420000Y-157055112D02*
X122580000Y-157055112D01*
X117420000Y-157015112D02*
X122580000Y-157015112D01*
X122620000Y-157055112D02*
G75*
G02*
X117380000Y-157055112I-2620000J0D01*
G01*
X117380000Y-157055112D02*
G75*
G02*
X122620000Y-157055112I2620000J0D01*
G01*
X137870000Y-146000000D02*
G75*
G02*
X133630000Y-146000000I-2120000J0D01*
G01*
X133630000Y-146000000D02*
G75*
G02*
X137870000Y-146000000I2120000J0D01*
G01*
X128550610Y-182179443D02*
X122016943Y-188713110D01*
X122016943Y-188713110D02*
X124449390Y-191145557D01*
X130254737Y-182907763D02*
X129766833Y-183395667D01*
X122745263Y-190417237D02*
X123233167Y-189929333D01*
X130983057Y-184611890D02*
X128550610Y-182179443D01*
X124449390Y-191145557D02*
X130983057Y-184611890D01*
M02*
