G04 #@! TF.GenerationSoftware,KiCad,Pcbnew,8.0.5*
G04 #@! TF.CreationDate,2024-10-16T23:16:24+02:00*
G04 #@! TF.ProjectId,raspberry_pi_hat,72617370-6265-4727-9279-5f70695f6861,rev?*
G04 #@! TF.SameCoordinates,Original*
G04 #@! TF.FileFunction,Copper,L1,Top*
G04 #@! TF.FilePolarity,Positive*
%FSLAX46Y46*%
G04 Gerber Fmt 4.6, Leading zero omitted, Abs format (unit mm)*
G04 Created by KiCad (PCBNEW 8.0.5) date 2024-10-16 23:16:24*
%MOMM*%
%LPD*%
G01*
G04 APERTURE LIST*
G04 Aperture macros list*
%AMRoundRect*
0 Rectangle with rounded corners*
0 $1 Rounding radius*
0 $2 $3 $4 $5 $6 $7 $8 $9 X,Y pos of 4 corners*
0 Add a 4 corners polygon primitive as box body*
4,1,4,$2,$3,$4,$5,$6,$7,$8,$9,$2,$3,0*
0 Add four circle primitives for the rounded corners*
1,1,$1+$1,$2,$3*
1,1,$1+$1,$4,$5*
1,1,$1+$1,$6,$7*
1,1,$1+$1,$8,$9*
0 Add four rect primitives between the rounded corners*
20,1,$1+$1,$2,$3,$4,$5,0*
20,1,$1+$1,$4,$5,$6,$7,0*
20,1,$1+$1,$6,$7,$8,$9,0*
20,1,$1+$1,$8,$9,$2,$3,0*%
%AMHorizOval*
0 Thick line with rounded ends*
0 $1 width*
0 $2 $3 position (X,Y) of the first rounded end (center of the circle)*
0 $4 $5 position (X,Y) of the second rounded end (center of the circle)*
0 Add line between two ends*
20,1,$1,$2,$3,$4,$5,0*
0 Add two circle primitives to create the rounded ends*
1,1,$1,$2,$3*
1,1,$1,$4,$5*%
G04 Aperture macros list end*
%ADD10C,0.300000*%
G04 #@! TA.AperFunction,NonConductor*
%ADD11C,0.300000*%
G04 #@! TD*
G04 #@! TA.AperFunction,ComponentPad*
%ADD12O,1.700000X1.700000*%
G04 #@! TD*
G04 #@! TA.AperFunction,ComponentPad*
%ADD13R,1.700000X1.700000*%
G04 #@! TD*
G04 #@! TA.AperFunction,ComponentPad*
%ADD14C,1.600000*%
G04 #@! TD*
G04 #@! TA.AperFunction,ComponentPad*
%ADD15HorizOval,1.600000X0.000000X0.000000X0.000000X0.000000X0*%
G04 #@! TD*
G04 #@! TA.AperFunction,SMDPad,CuDef*
%ADD16RoundRect,0.175000X0.425000X-0.175000X0.425000X0.175000X-0.425000X0.175000X-0.425000X-0.175000X0*%
G04 #@! TD*
G04 #@! TA.AperFunction,SMDPad,CuDef*
%ADD17RoundRect,0.190000X-0.410000X0.190000X-0.410000X-0.190000X0.410000X-0.190000X0.410000X0.190000X0*%
G04 #@! TD*
G04 #@! TA.AperFunction,SMDPad,CuDef*
%ADD18RoundRect,0.200000X-0.400000X0.200000X-0.400000X-0.200000X0.400000X-0.200000X0.400000X0.200000X0*%
G04 #@! TD*
G04 #@! TA.AperFunction,SMDPad,CuDef*
%ADD19RoundRect,0.175000X-0.425000X0.175000X-0.425000X-0.175000X0.425000X-0.175000X0.425000X0.175000X0*%
G04 #@! TD*
G04 #@! TA.AperFunction,SMDPad,CuDef*
%ADD20RoundRect,0.190000X0.410000X-0.190000X0.410000X0.190000X-0.410000X0.190000X-0.410000X-0.190000X0*%
G04 #@! TD*
G04 #@! TA.AperFunction,SMDPad,CuDef*
%ADD21RoundRect,0.200000X0.400000X-0.200000X0.400000X0.200000X-0.400000X0.200000X-0.400000X-0.200000X0*%
G04 #@! TD*
G04 #@! TA.AperFunction,ComponentPad*
%ADD22O,1.700000X1.100000*%
G04 #@! TD*
G04 #@! TA.AperFunction,ComponentPad*
%ADD23C,1.200000*%
G04 #@! TD*
G04 #@! TA.AperFunction,ComponentPad*
%ADD24RoundRect,0.250000X0.845000X-0.620000X0.845000X0.620000X-0.845000X0.620000X-0.845000X-0.620000X0*%
G04 #@! TD*
G04 #@! TA.AperFunction,ComponentPad*
%ADD25O,2.190000X1.740000*%
G04 #@! TD*
G04 #@! TA.AperFunction,ComponentPad*
%ADD26O,2.000000X1.905000*%
G04 #@! TD*
G04 #@! TA.AperFunction,ComponentPad*
%ADD27R,2.000000X1.905000*%
G04 #@! TD*
G04 #@! TA.AperFunction,ComponentPad*
%ADD28C,1.524000*%
G04 #@! TD*
G04 #@! TA.AperFunction,ComponentPad*
%ADD29R,1.524000X1.524000*%
G04 #@! TD*
G04 #@! TA.AperFunction,ComponentPad*
%ADD30RoundRect,0.250000X0.620000X0.845000X-0.620000X0.845000X-0.620000X-0.845000X0.620000X-0.845000X0*%
G04 #@! TD*
G04 #@! TA.AperFunction,ComponentPad*
%ADD31O,1.740000X2.190000*%
G04 #@! TD*
G04 #@! TA.AperFunction,ComponentPad*
%ADD32O,1.600000X1.600000*%
G04 #@! TD*
G04 #@! TA.AperFunction,ComponentPad*
%ADD33R,1.600000X1.600000*%
G04 #@! TD*
G04 #@! TA.AperFunction,ViaPad*
%ADD34C,2.000000*%
G04 #@! TD*
G04 #@! TA.AperFunction,Conductor*
%ADD35C,1.000000*%
G04 #@! TD*
G04 #@! TA.AperFunction,Conductor*
%ADD36C,0.800000*%
G04 #@! TD*
G04 APERTURE END LIST*
D10*
D11*
X137654510Y-125500828D02*
X137654510Y-124000828D01*
X137654510Y-124000828D02*
X138154510Y-125072257D01*
X138154510Y-125072257D02*
X138654510Y-124000828D01*
X138654510Y-124000828D02*
X138654510Y-125500828D01*
X139154511Y-124000828D02*
X140011654Y-124000828D01*
X139583082Y-125500828D02*
X139583082Y-124000828D01*
X140511653Y-125500828D02*
X140511653Y-124000828D01*
X140511653Y-124000828D02*
X141083082Y-124000828D01*
X141083082Y-124000828D02*
X141225939Y-124072257D01*
X141225939Y-124072257D02*
X141297368Y-124143685D01*
X141297368Y-124143685D02*
X141368796Y-124286542D01*
X141368796Y-124286542D02*
X141368796Y-124500828D01*
X141368796Y-124500828D02*
X141297368Y-124643685D01*
X141297368Y-124643685D02*
X141225939Y-124715114D01*
X141225939Y-124715114D02*
X141083082Y-124786542D01*
X141083082Y-124786542D02*
X140511653Y-124786542D01*
X142940225Y-124500828D02*
X143511653Y-124500828D01*
X143154510Y-124000828D02*
X143154510Y-125286542D01*
X143154510Y-125286542D02*
X143225939Y-125429400D01*
X143225939Y-125429400D02*
X143368796Y-125500828D01*
X143368796Y-125500828D02*
X143511653Y-125500828D01*
X144011653Y-125500828D02*
X144011653Y-124500828D01*
X144011653Y-124786542D02*
X144083082Y-124643685D01*
X144083082Y-124643685D02*
X144154511Y-124572257D01*
X144154511Y-124572257D02*
X144297368Y-124500828D01*
X144297368Y-124500828D02*
X144440225Y-124500828D01*
X145583082Y-125500828D02*
X145583082Y-124715114D01*
X145583082Y-124715114D02*
X145511653Y-124572257D01*
X145511653Y-124572257D02*
X145368796Y-124500828D01*
X145368796Y-124500828D02*
X145083082Y-124500828D01*
X145083082Y-124500828D02*
X144940224Y-124572257D01*
X145583082Y-125429400D02*
X145440224Y-125500828D01*
X145440224Y-125500828D02*
X145083082Y-125500828D01*
X145083082Y-125500828D02*
X144940224Y-125429400D01*
X144940224Y-125429400D02*
X144868796Y-125286542D01*
X144868796Y-125286542D02*
X144868796Y-125143685D01*
X144868796Y-125143685D02*
X144940224Y-125000828D01*
X144940224Y-125000828D02*
X145083082Y-124929400D01*
X145083082Y-124929400D02*
X145440224Y-124929400D01*
X145440224Y-124929400D02*
X145583082Y-124857971D01*
X146297367Y-124500828D02*
X146297367Y-125500828D01*
X146297367Y-124643685D02*
X146368796Y-124572257D01*
X146368796Y-124572257D02*
X146511653Y-124500828D01*
X146511653Y-124500828D02*
X146725939Y-124500828D01*
X146725939Y-124500828D02*
X146868796Y-124572257D01*
X146868796Y-124572257D02*
X146940225Y-124715114D01*
X146940225Y-124715114D02*
X146940225Y-125500828D01*
X147583082Y-125429400D02*
X147725939Y-125500828D01*
X147725939Y-125500828D02*
X148011653Y-125500828D01*
X148011653Y-125500828D02*
X148154510Y-125429400D01*
X148154510Y-125429400D02*
X148225939Y-125286542D01*
X148225939Y-125286542D02*
X148225939Y-125215114D01*
X148225939Y-125215114D02*
X148154510Y-125072257D01*
X148154510Y-125072257D02*
X148011653Y-125000828D01*
X148011653Y-125000828D02*
X147797368Y-125000828D01*
X147797368Y-125000828D02*
X147654510Y-124929400D01*
X147654510Y-124929400D02*
X147583082Y-124786542D01*
X147583082Y-124786542D02*
X147583082Y-124715114D01*
X147583082Y-124715114D02*
X147654510Y-124572257D01*
X147654510Y-124572257D02*
X147797368Y-124500828D01*
X147797368Y-124500828D02*
X148011653Y-124500828D01*
X148011653Y-124500828D02*
X148154510Y-124572257D01*
X149511654Y-125429400D02*
X149368796Y-125500828D01*
X149368796Y-125500828D02*
X149083082Y-125500828D01*
X149083082Y-125500828D02*
X148940225Y-125429400D01*
X148940225Y-125429400D02*
X148868796Y-125357971D01*
X148868796Y-125357971D02*
X148797368Y-125215114D01*
X148797368Y-125215114D02*
X148797368Y-124786542D01*
X148797368Y-124786542D02*
X148868796Y-124643685D01*
X148868796Y-124643685D02*
X148940225Y-124572257D01*
X148940225Y-124572257D02*
X149083082Y-124500828D01*
X149083082Y-124500828D02*
X149368796Y-124500828D01*
X149368796Y-124500828D02*
X149511654Y-124572257D01*
X150725939Y-125429400D02*
X150583082Y-125500828D01*
X150583082Y-125500828D02*
X150297368Y-125500828D01*
X150297368Y-125500828D02*
X150154510Y-125429400D01*
X150154510Y-125429400D02*
X150083082Y-125286542D01*
X150083082Y-125286542D02*
X150083082Y-124715114D01*
X150083082Y-124715114D02*
X150154510Y-124572257D01*
X150154510Y-124572257D02*
X150297368Y-124500828D01*
X150297368Y-124500828D02*
X150583082Y-124500828D01*
X150583082Y-124500828D02*
X150725939Y-124572257D01*
X150725939Y-124572257D02*
X150797368Y-124715114D01*
X150797368Y-124715114D02*
X150797368Y-124857971D01*
X150797368Y-124857971D02*
X150083082Y-125000828D01*
X151440224Y-125500828D02*
X151440224Y-124500828D01*
X151440224Y-124000828D02*
X151368796Y-124072257D01*
X151368796Y-124072257D02*
X151440224Y-124143685D01*
X151440224Y-124143685D02*
X151511653Y-124072257D01*
X151511653Y-124072257D02*
X151440224Y-124000828D01*
X151440224Y-124000828D02*
X151440224Y-124143685D01*
X152011653Y-124500828D02*
X152368796Y-125500828D01*
X152368796Y-125500828D02*
X152725939Y-124500828D01*
X153868796Y-125429400D02*
X153725939Y-125500828D01*
X153725939Y-125500828D02*
X153440225Y-125500828D01*
X153440225Y-125500828D02*
X153297367Y-125429400D01*
X153297367Y-125429400D02*
X153225939Y-125286542D01*
X153225939Y-125286542D02*
X153225939Y-124715114D01*
X153225939Y-124715114D02*
X153297367Y-124572257D01*
X153297367Y-124572257D02*
X153440225Y-124500828D01*
X153440225Y-124500828D02*
X153725939Y-124500828D01*
X153725939Y-124500828D02*
X153868796Y-124572257D01*
X153868796Y-124572257D02*
X153940225Y-124715114D01*
X153940225Y-124715114D02*
X153940225Y-124857971D01*
X153940225Y-124857971D02*
X153225939Y-125000828D01*
X154583081Y-125500828D02*
X154583081Y-124500828D01*
X154583081Y-124786542D02*
X154654510Y-124643685D01*
X154654510Y-124643685D02*
X154725939Y-124572257D01*
X154725939Y-124572257D02*
X154868796Y-124500828D01*
X154868796Y-124500828D02*
X155011653Y-124500828D01*
X156654509Y-124500828D02*
X156654509Y-126000828D01*
X156654509Y-124572257D02*
X156797367Y-124500828D01*
X156797367Y-124500828D02*
X157083081Y-124500828D01*
X157083081Y-124500828D02*
X157225938Y-124572257D01*
X157225938Y-124572257D02*
X157297367Y-124643685D01*
X157297367Y-124643685D02*
X157368795Y-124786542D01*
X157368795Y-124786542D02*
X157368795Y-125215114D01*
X157368795Y-125215114D02*
X157297367Y-125357971D01*
X157297367Y-125357971D02*
X157225938Y-125429400D01*
X157225938Y-125429400D02*
X157083081Y-125500828D01*
X157083081Y-125500828D02*
X156797367Y-125500828D01*
X156797367Y-125500828D02*
X156654509Y-125429400D01*
X158011652Y-125500828D02*
X158011652Y-124500828D01*
X158011652Y-124786542D02*
X158083081Y-124643685D01*
X158083081Y-124643685D02*
X158154510Y-124572257D01*
X158154510Y-124572257D02*
X158297367Y-124500828D01*
X158297367Y-124500828D02*
X158440224Y-124500828D01*
X159154509Y-125500828D02*
X159011652Y-125429400D01*
X159011652Y-125429400D02*
X158940223Y-125357971D01*
X158940223Y-125357971D02*
X158868795Y-125215114D01*
X158868795Y-125215114D02*
X158868795Y-124786542D01*
X158868795Y-124786542D02*
X158940223Y-124643685D01*
X158940223Y-124643685D02*
X159011652Y-124572257D01*
X159011652Y-124572257D02*
X159154509Y-124500828D01*
X159154509Y-124500828D02*
X159368795Y-124500828D01*
X159368795Y-124500828D02*
X159511652Y-124572257D01*
X159511652Y-124572257D02*
X159583081Y-124643685D01*
X159583081Y-124643685D02*
X159654509Y-124786542D01*
X159654509Y-124786542D02*
X159654509Y-125215114D01*
X159654509Y-125215114D02*
X159583081Y-125357971D01*
X159583081Y-125357971D02*
X159511652Y-125429400D01*
X159511652Y-125429400D02*
X159368795Y-125500828D01*
X159368795Y-125500828D02*
X159154509Y-125500828D01*
X160297366Y-124500828D02*
X160297366Y-125786542D01*
X160297366Y-125786542D02*
X160225938Y-125929400D01*
X160225938Y-125929400D02*
X160083081Y-126000828D01*
X160083081Y-126000828D02*
X160011652Y-126000828D01*
X160297366Y-124000828D02*
X160225938Y-124072257D01*
X160225938Y-124072257D02*
X160297366Y-124143685D01*
X160297366Y-124143685D02*
X160368795Y-124072257D01*
X160368795Y-124072257D02*
X160297366Y-124000828D01*
X160297366Y-124000828D02*
X160297366Y-124143685D01*
X161583081Y-125429400D02*
X161440224Y-125500828D01*
X161440224Y-125500828D02*
X161154510Y-125500828D01*
X161154510Y-125500828D02*
X161011652Y-125429400D01*
X161011652Y-125429400D02*
X160940224Y-125286542D01*
X160940224Y-125286542D02*
X160940224Y-124715114D01*
X160940224Y-124715114D02*
X161011652Y-124572257D01*
X161011652Y-124572257D02*
X161154510Y-124500828D01*
X161154510Y-124500828D02*
X161440224Y-124500828D01*
X161440224Y-124500828D02*
X161583081Y-124572257D01*
X161583081Y-124572257D02*
X161654510Y-124715114D01*
X161654510Y-124715114D02*
X161654510Y-124857971D01*
X161654510Y-124857971D02*
X160940224Y-125000828D01*
X162940224Y-125429400D02*
X162797366Y-125500828D01*
X162797366Y-125500828D02*
X162511652Y-125500828D01*
X162511652Y-125500828D02*
X162368795Y-125429400D01*
X162368795Y-125429400D02*
X162297366Y-125357971D01*
X162297366Y-125357971D02*
X162225938Y-125215114D01*
X162225938Y-125215114D02*
X162225938Y-124786542D01*
X162225938Y-124786542D02*
X162297366Y-124643685D01*
X162297366Y-124643685D02*
X162368795Y-124572257D01*
X162368795Y-124572257D02*
X162511652Y-124500828D01*
X162511652Y-124500828D02*
X162797366Y-124500828D01*
X162797366Y-124500828D02*
X162940224Y-124572257D01*
X163368795Y-124500828D02*
X163940223Y-124500828D01*
X163583080Y-124000828D02*
X163583080Y-125286542D01*
X163583080Y-125286542D02*
X163654509Y-125429400D01*
X163654509Y-125429400D02*
X163797366Y-125500828D01*
X163797366Y-125500828D02*
X163940223Y-125500828D01*
X165368795Y-124000828D02*
X166225938Y-124000828D01*
X165797366Y-125500828D02*
X165797366Y-124000828D01*
X166725937Y-124715114D02*
X167225937Y-124715114D01*
X167440223Y-125500828D02*
X166725937Y-125500828D01*
X166725937Y-125500828D02*
X166725937Y-124000828D01*
X166725937Y-124000828D02*
X167440223Y-124000828D01*
X168011652Y-125072257D02*
X168725938Y-125072257D01*
X167868795Y-125500828D02*
X168368795Y-124000828D01*
X168368795Y-124000828D02*
X168868795Y-125500828D01*
X169368794Y-125500828D02*
X169368794Y-124000828D01*
X169368794Y-124000828D02*
X169868794Y-125072257D01*
X169868794Y-125072257D02*
X170368794Y-124000828D01*
X170368794Y-124000828D02*
X170368794Y-125500828D01*
X172154509Y-125072257D02*
X172868795Y-125072257D01*
X172011652Y-125500828D02*
X172511652Y-124000828D01*
X172511652Y-124000828D02*
X173011652Y-125500828D01*
D10*
D11*
X91200828Y-200245489D02*
X89700828Y-200245489D01*
X89700828Y-200245489D02*
X90772257Y-199745489D01*
X90772257Y-199745489D02*
X89700828Y-199245489D01*
X89700828Y-199245489D02*
X91200828Y-199245489D01*
X89700828Y-198745488D02*
X89700828Y-197888346D01*
X91200828Y-198316917D02*
X89700828Y-198316917D01*
X91200828Y-197388346D02*
X89700828Y-197388346D01*
X89700828Y-197388346D02*
X89700828Y-196816917D01*
X89700828Y-196816917D02*
X89772257Y-196674060D01*
X89772257Y-196674060D02*
X89843685Y-196602631D01*
X89843685Y-196602631D02*
X89986542Y-196531203D01*
X89986542Y-196531203D02*
X90200828Y-196531203D01*
X90200828Y-196531203D02*
X90343685Y-196602631D01*
X90343685Y-196602631D02*
X90415114Y-196674060D01*
X90415114Y-196674060D02*
X90486542Y-196816917D01*
X90486542Y-196816917D02*
X90486542Y-197388346D01*
X90200828Y-194959774D02*
X90200828Y-194388346D01*
X89700828Y-194745489D02*
X90986542Y-194745489D01*
X90986542Y-194745489D02*
X91129400Y-194674060D01*
X91129400Y-194674060D02*
X91200828Y-194531203D01*
X91200828Y-194531203D02*
X91200828Y-194388346D01*
X91200828Y-193888346D02*
X90200828Y-193888346D01*
X90486542Y-193888346D02*
X90343685Y-193816917D01*
X90343685Y-193816917D02*
X90272257Y-193745489D01*
X90272257Y-193745489D02*
X90200828Y-193602631D01*
X90200828Y-193602631D02*
X90200828Y-193459774D01*
X91200828Y-192316918D02*
X90415114Y-192316918D01*
X90415114Y-192316918D02*
X90272257Y-192388346D01*
X90272257Y-192388346D02*
X90200828Y-192531203D01*
X90200828Y-192531203D02*
X90200828Y-192816918D01*
X90200828Y-192816918D02*
X90272257Y-192959775D01*
X91129400Y-192316918D02*
X91200828Y-192459775D01*
X91200828Y-192459775D02*
X91200828Y-192816918D01*
X91200828Y-192816918D02*
X91129400Y-192959775D01*
X91129400Y-192959775D02*
X90986542Y-193031203D01*
X90986542Y-193031203D02*
X90843685Y-193031203D01*
X90843685Y-193031203D02*
X90700828Y-192959775D01*
X90700828Y-192959775D02*
X90629400Y-192816918D01*
X90629400Y-192816918D02*
X90629400Y-192459775D01*
X90629400Y-192459775D02*
X90557971Y-192316918D01*
X90200828Y-191602632D02*
X91200828Y-191602632D01*
X90343685Y-191602632D02*
X90272257Y-191531203D01*
X90272257Y-191531203D02*
X90200828Y-191388346D01*
X90200828Y-191388346D02*
X90200828Y-191174060D01*
X90200828Y-191174060D02*
X90272257Y-191031203D01*
X90272257Y-191031203D02*
X90415114Y-190959775D01*
X90415114Y-190959775D02*
X91200828Y-190959775D01*
X91129400Y-190316917D02*
X91200828Y-190174060D01*
X91200828Y-190174060D02*
X91200828Y-189888346D01*
X91200828Y-189888346D02*
X91129400Y-189745489D01*
X91129400Y-189745489D02*
X90986542Y-189674060D01*
X90986542Y-189674060D02*
X90915114Y-189674060D01*
X90915114Y-189674060D02*
X90772257Y-189745489D01*
X90772257Y-189745489D02*
X90700828Y-189888346D01*
X90700828Y-189888346D02*
X90700828Y-190102632D01*
X90700828Y-190102632D02*
X90629400Y-190245489D01*
X90629400Y-190245489D02*
X90486542Y-190316917D01*
X90486542Y-190316917D02*
X90415114Y-190316917D01*
X90415114Y-190316917D02*
X90272257Y-190245489D01*
X90272257Y-190245489D02*
X90200828Y-190102632D01*
X90200828Y-190102632D02*
X90200828Y-189888346D01*
X90200828Y-189888346D02*
X90272257Y-189745489D01*
X91129400Y-188388346D02*
X91200828Y-188531203D01*
X91200828Y-188531203D02*
X91200828Y-188816917D01*
X91200828Y-188816917D02*
X91129400Y-188959774D01*
X91129400Y-188959774D02*
X91057971Y-189031203D01*
X91057971Y-189031203D02*
X90915114Y-189102631D01*
X90915114Y-189102631D02*
X90486542Y-189102631D01*
X90486542Y-189102631D02*
X90343685Y-189031203D01*
X90343685Y-189031203D02*
X90272257Y-188959774D01*
X90272257Y-188959774D02*
X90200828Y-188816917D01*
X90200828Y-188816917D02*
X90200828Y-188531203D01*
X90200828Y-188531203D02*
X90272257Y-188388346D01*
X91129400Y-187174060D02*
X91200828Y-187316917D01*
X91200828Y-187316917D02*
X91200828Y-187602632D01*
X91200828Y-187602632D02*
X91129400Y-187745489D01*
X91129400Y-187745489D02*
X90986542Y-187816917D01*
X90986542Y-187816917D02*
X90415114Y-187816917D01*
X90415114Y-187816917D02*
X90272257Y-187745489D01*
X90272257Y-187745489D02*
X90200828Y-187602632D01*
X90200828Y-187602632D02*
X90200828Y-187316917D01*
X90200828Y-187316917D02*
X90272257Y-187174060D01*
X90272257Y-187174060D02*
X90415114Y-187102632D01*
X90415114Y-187102632D02*
X90557971Y-187102632D01*
X90557971Y-187102632D02*
X90700828Y-187816917D01*
X91200828Y-186459775D02*
X90200828Y-186459775D01*
X89700828Y-186459775D02*
X89772257Y-186531203D01*
X89772257Y-186531203D02*
X89843685Y-186459775D01*
X89843685Y-186459775D02*
X89772257Y-186388346D01*
X89772257Y-186388346D02*
X89700828Y-186459775D01*
X89700828Y-186459775D02*
X89843685Y-186459775D01*
X90200828Y-185888346D02*
X91200828Y-185531203D01*
X91200828Y-185531203D02*
X90200828Y-185174060D01*
X91129400Y-184031203D02*
X91200828Y-184174060D01*
X91200828Y-184174060D02*
X91200828Y-184459775D01*
X91200828Y-184459775D02*
X91129400Y-184602632D01*
X91129400Y-184602632D02*
X90986542Y-184674060D01*
X90986542Y-184674060D02*
X90415114Y-184674060D01*
X90415114Y-184674060D02*
X90272257Y-184602632D01*
X90272257Y-184602632D02*
X90200828Y-184459775D01*
X90200828Y-184459775D02*
X90200828Y-184174060D01*
X90200828Y-184174060D02*
X90272257Y-184031203D01*
X90272257Y-184031203D02*
X90415114Y-183959775D01*
X90415114Y-183959775D02*
X90557971Y-183959775D01*
X90557971Y-183959775D02*
X90700828Y-184674060D01*
X91200828Y-183316918D02*
X90200828Y-183316918D01*
X90486542Y-183316918D02*
X90343685Y-183245489D01*
X90343685Y-183245489D02*
X90272257Y-183174061D01*
X90272257Y-183174061D02*
X90200828Y-183031203D01*
X90200828Y-183031203D02*
X90200828Y-182888346D01*
X90200828Y-181245490D02*
X91700828Y-181245490D01*
X90272257Y-181245490D02*
X90200828Y-181102633D01*
X90200828Y-181102633D02*
X90200828Y-180816918D01*
X90200828Y-180816918D02*
X90272257Y-180674061D01*
X90272257Y-180674061D02*
X90343685Y-180602633D01*
X90343685Y-180602633D02*
X90486542Y-180531204D01*
X90486542Y-180531204D02*
X90915114Y-180531204D01*
X90915114Y-180531204D02*
X91057971Y-180602633D01*
X91057971Y-180602633D02*
X91129400Y-180674061D01*
X91129400Y-180674061D02*
X91200828Y-180816918D01*
X91200828Y-180816918D02*
X91200828Y-181102633D01*
X91200828Y-181102633D02*
X91129400Y-181245490D01*
X91200828Y-179888347D02*
X90200828Y-179888347D01*
X90486542Y-179888347D02*
X90343685Y-179816918D01*
X90343685Y-179816918D02*
X90272257Y-179745490D01*
X90272257Y-179745490D02*
X90200828Y-179602632D01*
X90200828Y-179602632D02*
X90200828Y-179459775D01*
X91200828Y-178745490D02*
X91129400Y-178888347D01*
X91129400Y-178888347D02*
X91057971Y-178959776D01*
X91057971Y-178959776D02*
X90915114Y-179031204D01*
X90915114Y-179031204D02*
X90486542Y-179031204D01*
X90486542Y-179031204D02*
X90343685Y-178959776D01*
X90343685Y-178959776D02*
X90272257Y-178888347D01*
X90272257Y-178888347D02*
X90200828Y-178745490D01*
X90200828Y-178745490D02*
X90200828Y-178531204D01*
X90200828Y-178531204D02*
X90272257Y-178388347D01*
X90272257Y-178388347D02*
X90343685Y-178316919D01*
X90343685Y-178316919D02*
X90486542Y-178245490D01*
X90486542Y-178245490D02*
X90915114Y-178245490D01*
X90915114Y-178245490D02*
X91057971Y-178316919D01*
X91057971Y-178316919D02*
X91129400Y-178388347D01*
X91129400Y-178388347D02*
X91200828Y-178531204D01*
X91200828Y-178531204D02*
X91200828Y-178745490D01*
X90200828Y-177602633D02*
X91486542Y-177602633D01*
X91486542Y-177602633D02*
X91629400Y-177674061D01*
X91629400Y-177674061D02*
X91700828Y-177816918D01*
X91700828Y-177816918D02*
X91700828Y-177888347D01*
X89700828Y-177602633D02*
X89772257Y-177674061D01*
X89772257Y-177674061D02*
X89843685Y-177602633D01*
X89843685Y-177602633D02*
X89772257Y-177531204D01*
X89772257Y-177531204D02*
X89700828Y-177602633D01*
X89700828Y-177602633D02*
X89843685Y-177602633D01*
X91129400Y-176316918D02*
X91200828Y-176459775D01*
X91200828Y-176459775D02*
X91200828Y-176745490D01*
X91200828Y-176745490D02*
X91129400Y-176888347D01*
X91129400Y-176888347D02*
X90986542Y-176959775D01*
X90986542Y-176959775D02*
X90415114Y-176959775D01*
X90415114Y-176959775D02*
X90272257Y-176888347D01*
X90272257Y-176888347D02*
X90200828Y-176745490D01*
X90200828Y-176745490D02*
X90200828Y-176459775D01*
X90200828Y-176459775D02*
X90272257Y-176316918D01*
X90272257Y-176316918D02*
X90415114Y-176245490D01*
X90415114Y-176245490D02*
X90557971Y-176245490D01*
X90557971Y-176245490D02*
X90700828Y-176959775D01*
X91129400Y-174959776D02*
X91200828Y-175102633D01*
X91200828Y-175102633D02*
X91200828Y-175388347D01*
X91200828Y-175388347D02*
X91129400Y-175531204D01*
X91129400Y-175531204D02*
X91057971Y-175602633D01*
X91057971Y-175602633D02*
X90915114Y-175674061D01*
X90915114Y-175674061D02*
X90486542Y-175674061D01*
X90486542Y-175674061D02*
X90343685Y-175602633D01*
X90343685Y-175602633D02*
X90272257Y-175531204D01*
X90272257Y-175531204D02*
X90200828Y-175388347D01*
X90200828Y-175388347D02*
X90200828Y-175102633D01*
X90200828Y-175102633D02*
X90272257Y-174959776D01*
X90200828Y-174531204D02*
X90200828Y-173959776D01*
X89700828Y-174316919D02*
X90986542Y-174316919D01*
X90986542Y-174316919D02*
X91129400Y-174245490D01*
X91129400Y-174245490D02*
X91200828Y-174102633D01*
X91200828Y-174102633D02*
X91200828Y-173959776D01*
X89700828Y-172531204D02*
X89700828Y-171674062D01*
X91200828Y-172102633D02*
X89700828Y-172102633D01*
X90415114Y-171174062D02*
X90415114Y-170674062D01*
X91200828Y-170459776D02*
X91200828Y-171174062D01*
X91200828Y-171174062D02*
X89700828Y-171174062D01*
X89700828Y-171174062D02*
X89700828Y-170459776D01*
X90772257Y-169888347D02*
X90772257Y-169174062D01*
X91200828Y-170031204D02*
X89700828Y-169531204D01*
X89700828Y-169531204D02*
X91200828Y-169031204D01*
X91200828Y-168531205D02*
X89700828Y-168531205D01*
X89700828Y-168531205D02*
X90772257Y-168031205D01*
X90772257Y-168031205D02*
X89700828Y-167531205D01*
X89700828Y-167531205D02*
X91200828Y-167531205D01*
X90772257Y-165745490D02*
X90772257Y-165031205D01*
X91200828Y-165888347D02*
X89700828Y-165388347D01*
X89700828Y-165388347D02*
X91200828Y-164888347D01*
D12*
X109955000Y-172842500D03*
X109955000Y-175382500D03*
X112495000Y-172842500D03*
X112495000Y-175382500D03*
X115035000Y-172842500D03*
X115035000Y-175382500D03*
X117575000Y-172842500D03*
X117575000Y-175382500D03*
X120115000Y-172842500D03*
X120115000Y-175382500D03*
X122655000Y-172842500D03*
X122655000Y-175382500D03*
X125195000Y-172842500D03*
X125195000Y-175382500D03*
X127735000Y-172842500D03*
X127735000Y-175382500D03*
X130275000Y-172842500D03*
X130275000Y-175382500D03*
X132815000Y-172842500D03*
X132815000Y-175382500D03*
X135355000Y-172842500D03*
X135355000Y-175382500D03*
X137895000Y-172842500D03*
X137895000Y-175382500D03*
X140435000Y-172842500D03*
X140435000Y-175382500D03*
X142975000Y-172842500D03*
X142975000Y-175382500D03*
X145515000Y-172842500D03*
X145515000Y-175382500D03*
X148055000Y-172842500D03*
X148055000Y-175382500D03*
X150595000Y-172842500D03*
X150595000Y-175382500D03*
X153135000Y-172842500D03*
X153135000Y-175382500D03*
X155675000Y-172842500D03*
X155675000Y-175382500D03*
X158215000Y-172842500D03*
D13*
X158215000Y-175382500D03*
D12*
X109795000Y-132605000D03*
X109795000Y-135145000D03*
X112335000Y-132605000D03*
X112335000Y-135145000D03*
X114875000Y-132605000D03*
X114875000Y-135145000D03*
X117415000Y-132605000D03*
X117415000Y-135145000D03*
X119955000Y-132605000D03*
X119955000Y-135145000D03*
X122495000Y-132605000D03*
X122495000Y-135145000D03*
X125035000Y-132605000D03*
X125035000Y-135145000D03*
X127575000Y-132605000D03*
X127575000Y-135145000D03*
X130115000Y-132605000D03*
X130115000Y-135145000D03*
X132655000Y-132605000D03*
X132655000Y-135145000D03*
X135195000Y-132605000D03*
X135195000Y-135145000D03*
X137735000Y-132605000D03*
X137735000Y-135145000D03*
X140275000Y-132605000D03*
X140275000Y-135145000D03*
X142815000Y-132605000D03*
X142815000Y-135145000D03*
X145355000Y-132605000D03*
X145355000Y-135145000D03*
X147895000Y-132605000D03*
X147895000Y-135145000D03*
X150435000Y-132605000D03*
X150435000Y-135145000D03*
X152975000Y-132605000D03*
X152975000Y-135145000D03*
X155515000Y-132605000D03*
X155515000Y-135145000D03*
X158055000Y-132605000D03*
D13*
X158055000Y-135145000D03*
D14*
X119990128Y-182172372D03*
D15*
X111009872Y-191152628D03*
D16*
X169320000Y-143400000D03*
D17*
X169320000Y-141380000D03*
D18*
X169320000Y-140150000D03*
D19*
X169320000Y-142400000D03*
D20*
X169320000Y-144420000D03*
D21*
X169320000Y-145650000D03*
D22*
X169400000Y-147220000D03*
X173200000Y-147220000D03*
X169400000Y-138580000D03*
X173200000Y-138580000D03*
D23*
X130700000Y-157950000D03*
X130700000Y-156450000D03*
D24*
X167790000Y-188292500D03*
D25*
X167790000Y-185752500D03*
X167790000Y-183212500D03*
X167790000Y-180672500D03*
D26*
X136000000Y-157080000D03*
X136000000Y-154540000D03*
D27*
X136000000Y-152000000D03*
D14*
X108990128Y-182172372D03*
D15*
X100009872Y-191152628D03*
D28*
X88187500Y-138712500D03*
X88187500Y-151512500D03*
X121747600Y-141292500D03*
X124287500Y-141292500D03*
X121747600Y-143832500D03*
X124287500Y-143832500D03*
X121747600Y-146372500D03*
X124287500Y-146372500D03*
X121747600Y-148912500D03*
D29*
X124287500Y-148912500D03*
D30*
X157000000Y-198912500D03*
D31*
X154460000Y-198912500D03*
X151920000Y-198912500D03*
X149380000Y-198912500D03*
D14*
X125500000Y-182172372D03*
D15*
X116519744Y-191152628D03*
D30*
X128640000Y-198537500D03*
D31*
X126100000Y-198537500D03*
X123560000Y-198537500D03*
X121020000Y-198537500D03*
X118480000Y-198537500D03*
X115940000Y-198537500D03*
X113400000Y-198537500D03*
X110860000Y-198537500D03*
D14*
X114490128Y-182172372D03*
D15*
X105509872Y-191152628D03*
D14*
X153350000Y-186912500D03*
D32*
X140650000Y-186912500D03*
D33*
X142500000Y-143294888D03*
D14*
X142500000Y-145794888D03*
X153350000Y-190912500D03*
D32*
X140650000Y-190912500D03*
D33*
X120000000Y-158305112D03*
D14*
X120000000Y-155805112D03*
D23*
X135000000Y-146000000D03*
X136500000Y-146000000D03*
D15*
X122009872Y-191152628D03*
D14*
X130990128Y-182172372D03*
D34*
X136000000Y-188912500D03*
X132000000Y-188912500D03*
X97500000Y-189162500D03*
X146750000Y-169412500D03*
X135250000Y-169412500D03*
X139250000Y-167162500D03*
X131500000Y-166412500D03*
X127250000Y-166162500D03*
X106750000Y-178912500D03*
X122000000Y-169912500D03*
X116500000Y-169912500D03*
X151000000Y-181162500D03*
X157750000Y-187912500D03*
X160250000Y-182162500D03*
X162750000Y-183912500D03*
X137750000Y-178662500D03*
X158000000Y-178662500D03*
X151800000Y-138100000D03*
X96200000Y-135100000D03*
X130000000Y-151100000D03*
X132700000Y-141300000D03*
X132700000Y-137700000D03*
X130100000Y-137700000D03*
X129900000Y-143832500D03*
X133800000Y-127400000D03*
X120000000Y-129500000D03*
X169700000Y-135800000D03*
X161400000Y-144400000D03*
X163000000Y-146500000D03*
D35*
X130000000Y-167912500D02*
X131500000Y-166412500D01*
X123250000Y-166662500D02*
X124500000Y-167912500D01*
X105750000Y-186662500D02*
X97250000Y-178162500D01*
X129750000Y-186662500D02*
X105750000Y-186662500D01*
X100750000Y-166662500D02*
X123250000Y-166662500D01*
X132000000Y-188912500D02*
X129750000Y-186662500D01*
X97250000Y-170162500D02*
X100750000Y-166662500D01*
X97250000Y-178162500D02*
X97250000Y-170162500D01*
X124500000Y-167912500D02*
X130000000Y-167912500D01*
X134500000Y-167162500D02*
X139250000Y-167162500D01*
X132250000Y-169412500D02*
X134500000Y-167162500D01*
X122704164Y-168212500D02*
X123904164Y-169412500D01*
X123904164Y-169412500D02*
X132250000Y-169412500D01*
X101252944Y-168212500D02*
X122704164Y-168212500D01*
X98550000Y-170915444D02*
X101252944Y-168212500D01*
X132500000Y-185412500D02*
X106552944Y-185412500D01*
X136000000Y-188912500D02*
X132500000Y-185412500D01*
X98550000Y-177409556D02*
X98550000Y-170915444D01*
X106552944Y-185412500D02*
X98550000Y-177409556D01*
X95750000Y-169162500D02*
X95750000Y-187412500D01*
X123728238Y-164890738D02*
X100239697Y-164890738D01*
X100239697Y-164890738D02*
X100021762Y-164890738D01*
X124000000Y-165162500D02*
X123728238Y-164890738D01*
X125000000Y-166162500D02*
X124000000Y-165162500D01*
X95750000Y-187412500D02*
X97500000Y-189162500D01*
X127250000Y-166162500D02*
X125000000Y-166162500D01*
X100021762Y-164890738D02*
X95750000Y-169162500D01*
X135250000Y-169412500D02*
X146750000Y-169412500D01*
X99750000Y-176912500D02*
X99750000Y-171412500D01*
X99750000Y-171412500D02*
X101250000Y-169912500D01*
X101250000Y-169912500D02*
X116500000Y-169912500D01*
X101750000Y-178912500D02*
X99750000Y-176912500D01*
X106750000Y-178912500D02*
X101750000Y-178912500D01*
X116500000Y-169912500D02*
X122000000Y-169912500D01*
X159000000Y-180162500D02*
X158000000Y-181162500D01*
X158000000Y-181162500D02*
X151000000Y-181162500D01*
X161250000Y-180162500D02*
X159000000Y-180162500D01*
X162750000Y-181662500D02*
X161250000Y-180162500D01*
X162750000Y-183912500D02*
X162750000Y-181662500D01*
X159000000Y-187912500D02*
X157750000Y-187912500D01*
X160250000Y-186662500D02*
X159000000Y-187912500D01*
X160250000Y-182162500D02*
X160250000Y-186662500D01*
X158000000Y-178662500D02*
X137750000Y-178662500D01*
D36*
X151800000Y-138100000D02*
X167400000Y-138100000D01*
X167800000Y-140100000D02*
X169570000Y-140100000D01*
X167000000Y-139300000D02*
X167800000Y-140100000D01*
X167400000Y-138100000D02*
X167000000Y-138500000D01*
X167000000Y-138500000D02*
X167000000Y-139300000D01*
X169700000Y-135800000D02*
X167400000Y-138100000D01*
D35*
X108500000Y-152200000D02*
X96200000Y-139900000D01*
X96200000Y-139900000D02*
X96200000Y-135100000D01*
X128900000Y-152200000D02*
X108500000Y-152200000D01*
X130000000Y-151100000D02*
X128900000Y-152200000D01*
X132700000Y-137700000D02*
X132700000Y-141400000D01*
X130100000Y-137700000D02*
X130100000Y-143632500D01*
X130100000Y-143632500D02*
X129900000Y-143832500D01*
X121000000Y-127400000D02*
X133800000Y-127400000D01*
X120000000Y-128400000D02*
X121000000Y-127400000D01*
X120000000Y-129500000D02*
X120000000Y-128400000D01*
D36*
X161600000Y-144400000D02*
X164600000Y-141400000D01*
X164600000Y-141400000D02*
X169570000Y-141400000D01*
X161600000Y-144400000D02*
X169370000Y-144400000D01*
X166500000Y-142400000D02*
X169570000Y-142400000D01*
X165500000Y-143400000D02*
X166500000Y-142400000D01*
X169470000Y-143400000D02*
X165500000Y-143400000D01*
X171500000Y-141000000D02*
X170650000Y-140150000D01*
X171500000Y-145500000D02*
X171500000Y-141000000D01*
X171350000Y-145650000D02*
X171500000Y-145500000D01*
X169320000Y-145650000D02*
X171350000Y-145650000D01*
X170650000Y-140150000D02*
X169320000Y-140150000D01*
X163850000Y-145650000D02*
X169320000Y-145650000D01*
X163000000Y-146500000D02*
X163850000Y-145650000D01*
G04 #@! TA.AperFunction,NonConductor*
G36*
X151190578Y-140007818D02*
G01*
X151206991Y-140013939D01*
X151234954Y-140024369D01*
X151399284Y-140060116D01*
X151514566Y-140085195D01*
X151514568Y-140085195D01*
X151514572Y-140085196D01*
X151768220Y-140103337D01*
X151799999Y-140105610D01*
X151800000Y-140105610D01*
X151800001Y-140105610D01*
X151828595Y-140103564D01*
X152085428Y-140085196D01*
X152365046Y-140024369D01*
X152396940Y-140012472D01*
X152409422Y-140007818D01*
X152452754Y-140000000D01*
X159275379Y-140000000D01*
X159342418Y-140019685D01*
X159388173Y-140072489D01*
X159399376Y-140124619D01*
X159322415Y-155517119D01*
X159300617Y-159876620D01*
X159280598Y-159943560D01*
X159227566Y-159989051D01*
X159176619Y-160000000D01*
X146424621Y-160000000D01*
X146357582Y-159980315D01*
X146311827Y-159927511D01*
X146300623Y-159875380D01*
X146315101Y-156979899D01*
X146327300Y-154540000D01*
X149044473Y-154540000D01*
X149064563Y-154872136D01*
X149064563Y-154872141D01*
X149064564Y-154872142D01*
X149124544Y-155199441D01*
X149124545Y-155199445D01*
X149124546Y-155199449D01*
X149223530Y-155517104D01*
X149223534Y-155517116D01*
X149223537Y-155517123D01*
X149360102Y-155820557D01*
X149532246Y-156105318D01*
X149532251Y-156105326D01*
X149737460Y-156367255D01*
X149972744Y-156602539D01*
X150234673Y-156807748D01*
X150234678Y-156807751D01*
X150234682Y-156807754D01*
X150519443Y-156979898D01*
X150822877Y-157116463D01*
X150822890Y-157116467D01*
X150822895Y-157116469D01*
X151034665Y-157182458D01*
X151140559Y-157215456D01*
X151467858Y-157275436D01*
X151800000Y-157295527D01*
X152132142Y-157275436D01*
X152459441Y-157215456D01*
X152777123Y-157116463D01*
X153080557Y-156979898D01*
X153365318Y-156807754D01*
X153627252Y-156602542D01*
X153862542Y-156367252D01*
X154067754Y-156105318D01*
X154239898Y-155820557D01*
X154376463Y-155517123D01*
X154475456Y-155199441D01*
X154535436Y-154872142D01*
X154555527Y-154540000D01*
X154535436Y-154207858D01*
X154475456Y-153880559D01*
X154376463Y-153562877D01*
X154239898Y-153259443D01*
X154067754Y-152974682D01*
X154067751Y-152974678D01*
X154067748Y-152974673D01*
X153862539Y-152712744D01*
X153627255Y-152477460D01*
X153365326Y-152272251D01*
X153365318Y-152272246D01*
X153080557Y-152100102D01*
X152777123Y-151963537D01*
X152777116Y-151963534D01*
X152777104Y-151963530D01*
X152459449Y-151864546D01*
X152459445Y-151864545D01*
X152459441Y-151864544D01*
X152132142Y-151804564D01*
X152132141Y-151804563D01*
X152132136Y-151804563D01*
X151800000Y-151784473D01*
X151467863Y-151804563D01*
X151467858Y-151804564D01*
X151140559Y-151864544D01*
X151140556Y-151864544D01*
X151140550Y-151864546D01*
X150822895Y-151963530D01*
X150822879Y-151963536D01*
X150822877Y-151963537D01*
X150629656Y-152050498D01*
X150519447Y-152100100D01*
X150519445Y-152100101D01*
X150234673Y-152272251D01*
X149972744Y-152477460D01*
X149737460Y-152712744D01*
X149532251Y-152974673D01*
X149360101Y-153259445D01*
X149360100Y-153259447D01*
X149223536Y-153562880D01*
X149223530Y-153562895D01*
X149124546Y-153880550D01*
X149064563Y-154207863D01*
X149044473Y-154540000D01*
X146327300Y-154540000D01*
X146399383Y-140123379D01*
X146419402Y-140056440D01*
X146472434Y-140010949D01*
X146523381Y-140000000D01*
X151147246Y-140000000D01*
X151190578Y-140007818D01*
G37*
G04 #@! TD.AperFunction*
M02*
