G04 #@! TF.GenerationSoftware,KiCad,Pcbnew,8.0.5*
G04 #@! TF.CreationDate,2024-10-16T23:16:24+02:00*
G04 #@! TF.ProjectId,raspberry_pi_hat,72617370-6265-4727-9279-5f70695f6861,rev?*
G04 #@! TF.SameCoordinates,Original*
G04 #@! TF.FileFunction,Copper,L2,Bot*
G04 #@! TF.FilePolarity,Positive*
%FSLAX46Y46*%
G04 Gerber Fmt 4.6, Leading zero omitted, Abs format (unit mm)*
G04 Created by KiCad (PCBNEW 8.0.5) date 2024-10-16 23:16:24*
%MOMM*%
%LPD*%
G01*
G04 APERTURE LIST*
G04 Aperture macros list*
%AMRoundRect*
0 Rectangle with rounded corners*
0 $1 Rounding radius*
0 $2 $3 $4 $5 $6 $7 $8 $9 X,Y pos of 4 corners*
0 Add a 4 corners polygon primitive as box body*
4,1,4,$2,$3,$4,$5,$6,$7,$8,$9,$2,$3,0*
0 Add four circle primitives for the rounded corners*
1,1,$1+$1,$2,$3*
1,1,$1+$1,$4,$5*
1,1,$1+$1,$6,$7*
1,1,$1+$1,$8,$9*
0 Add four rect primitives between the rounded corners*
20,1,$1+$1,$2,$3,$4,$5,0*
20,1,$1+$1,$4,$5,$6,$7,0*
20,1,$1+$1,$6,$7,$8,$9,0*
20,1,$1+$1,$8,$9,$2,$3,0*%
%AMHorizOval*
0 Thick line with rounded ends*
0 $1 width*
0 $2 $3 position (X,Y) of the first rounded end (center of the circle)*
0 $4 $5 position (X,Y) of the second rounded end (center of the circle)*
0 Add line between two ends*
20,1,$1,$2,$3,$4,$5,0*
0 Add two circle primitives to create the rounded ends*
1,1,$1,$2,$3*
1,1,$1,$4,$5*%
G04 Aperture macros list end*
G04 #@! TA.AperFunction,ComponentPad*
%ADD10O,1.700000X1.700000*%
G04 #@! TD*
G04 #@! TA.AperFunction,ComponentPad*
%ADD11R,1.700000X1.700000*%
G04 #@! TD*
G04 #@! TA.AperFunction,ComponentPad*
%ADD12C,1.600000*%
G04 #@! TD*
G04 #@! TA.AperFunction,ComponentPad*
%ADD13HorizOval,1.600000X0.000000X0.000000X0.000000X0.000000X0*%
G04 #@! TD*
G04 #@! TA.AperFunction,ComponentPad*
%ADD14O,1.700000X1.100000*%
G04 #@! TD*
G04 #@! TA.AperFunction,ComponentPad*
%ADD15C,1.200000*%
G04 #@! TD*
G04 #@! TA.AperFunction,ComponentPad*
%ADD16RoundRect,0.250000X0.845000X-0.620000X0.845000X0.620000X-0.845000X0.620000X-0.845000X-0.620000X0*%
G04 #@! TD*
G04 #@! TA.AperFunction,ComponentPad*
%ADD17O,2.190000X1.740000*%
G04 #@! TD*
G04 #@! TA.AperFunction,ComponentPad*
%ADD18O,2.000000X1.905000*%
G04 #@! TD*
G04 #@! TA.AperFunction,ComponentPad*
%ADD19R,2.000000X1.905000*%
G04 #@! TD*
G04 #@! TA.AperFunction,ComponentPad*
%ADD20C,1.524000*%
G04 #@! TD*
G04 #@! TA.AperFunction,ComponentPad*
%ADD21R,1.524000X1.524000*%
G04 #@! TD*
G04 #@! TA.AperFunction,ComponentPad*
%ADD22RoundRect,0.250000X0.620000X0.845000X-0.620000X0.845000X-0.620000X-0.845000X0.620000X-0.845000X0*%
G04 #@! TD*
G04 #@! TA.AperFunction,ComponentPad*
%ADD23O,1.740000X2.190000*%
G04 #@! TD*
G04 #@! TA.AperFunction,ComponentPad*
%ADD24O,1.600000X1.600000*%
G04 #@! TD*
G04 #@! TA.AperFunction,ComponentPad*
%ADD25R,1.600000X1.600000*%
G04 #@! TD*
G04 #@! TA.AperFunction,ViaPad*
%ADD26C,2.000000*%
G04 #@! TD*
G04 #@! TA.AperFunction,Conductor*
%ADD27C,1.000000*%
G04 #@! TD*
G04 APERTURE END LIST*
D10*
X109955000Y-172842500D03*
X109955000Y-175382500D03*
X112495000Y-172842500D03*
X112495000Y-175382500D03*
X115035000Y-172842500D03*
X115035000Y-175382500D03*
X117575000Y-172842500D03*
X117575000Y-175382500D03*
X120115000Y-172842500D03*
X120115000Y-175382500D03*
X122655000Y-172842500D03*
X122655000Y-175382500D03*
X125195000Y-172842500D03*
X125195000Y-175382500D03*
X127735000Y-172842500D03*
X127735000Y-175382500D03*
X130275000Y-172842500D03*
X130275000Y-175382500D03*
X132815000Y-172842500D03*
X132815000Y-175382500D03*
X135355000Y-172842500D03*
X135355000Y-175382500D03*
X137895000Y-172842500D03*
X137895000Y-175382500D03*
X140435000Y-172842500D03*
X140435000Y-175382500D03*
X142975000Y-172842500D03*
X142975000Y-175382500D03*
X145515000Y-172842500D03*
X145515000Y-175382500D03*
X148055000Y-172842500D03*
X148055000Y-175382500D03*
X150595000Y-172842500D03*
X150595000Y-175382500D03*
X153135000Y-172842500D03*
X153135000Y-175382500D03*
X155675000Y-172842500D03*
X155675000Y-175382500D03*
X158215000Y-172842500D03*
D11*
X158215000Y-175382500D03*
D10*
X109795000Y-132605000D03*
X109795000Y-135145000D03*
X112335000Y-132605000D03*
X112335000Y-135145000D03*
X114875000Y-132605000D03*
X114875000Y-135145000D03*
X117415000Y-132605000D03*
X117415000Y-135145000D03*
X119955000Y-132605000D03*
X119955000Y-135145000D03*
X122495000Y-132605000D03*
X122495000Y-135145000D03*
X125035000Y-132605000D03*
X125035000Y-135145000D03*
X127575000Y-132605000D03*
X127575000Y-135145000D03*
X130115000Y-132605000D03*
X130115000Y-135145000D03*
X132655000Y-132605000D03*
X132655000Y-135145000D03*
X135195000Y-132605000D03*
X135195000Y-135145000D03*
X137735000Y-132605000D03*
X137735000Y-135145000D03*
X140275000Y-132605000D03*
X140275000Y-135145000D03*
X142815000Y-132605000D03*
X142815000Y-135145000D03*
X145355000Y-132605000D03*
X145355000Y-135145000D03*
X147895000Y-132605000D03*
X147895000Y-135145000D03*
X150435000Y-132605000D03*
X150435000Y-135145000D03*
X152975000Y-132605000D03*
X152975000Y-135145000D03*
X155515000Y-132605000D03*
X155515000Y-135145000D03*
X158055000Y-132605000D03*
D11*
X158055000Y-135145000D03*
D12*
X119990128Y-182172372D03*
D13*
X111009872Y-191152628D03*
D14*
X169400000Y-147220000D03*
X173200000Y-147220000D03*
X169400000Y-138580000D03*
X173200000Y-138580000D03*
D15*
X130700000Y-157950000D03*
X130700000Y-156450000D03*
D16*
X167790000Y-188292500D03*
D17*
X167790000Y-185752500D03*
X167790000Y-183212500D03*
X167790000Y-180672500D03*
D18*
X136000000Y-157080000D03*
X136000000Y-154540000D03*
D19*
X136000000Y-152000000D03*
D12*
X108990128Y-182172372D03*
D13*
X100009872Y-191152628D03*
D20*
X88187500Y-138712500D03*
X88187500Y-151512500D03*
X121747600Y-141292500D03*
X124287500Y-141292500D03*
X121747600Y-143832500D03*
X124287500Y-143832500D03*
X121747600Y-146372500D03*
X124287500Y-146372500D03*
X121747600Y-148912500D03*
D21*
X124287500Y-148912500D03*
D22*
X157000000Y-198912500D03*
D23*
X154460000Y-198912500D03*
X151920000Y-198912500D03*
X149380000Y-198912500D03*
D12*
X125500000Y-182172372D03*
D13*
X116519744Y-191152628D03*
D22*
X128640000Y-198537500D03*
D23*
X126100000Y-198537500D03*
X123560000Y-198537500D03*
X121020000Y-198537500D03*
X118480000Y-198537500D03*
X115940000Y-198537500D03*
X113400000Y-198537500D03*
X110860000Y-198537500D03*
D12*
X114490128Y-182172372D03*
D13*
X105509872Y-191152628D03*
D12*
X153350000Y-186912500D03*
D24*
X140650000Y-186912500D03*
D25*
X142500000Y-143294888D03*
D12*
X142500000Y-145794888D03*
X153350000Y-190912500D03*
D24*
X140650000Y-190912500D03*
D25*
X120000000Y-158305112D03*
D12*
X120000000Y-155805112D03*
D15*
X135000000Y-146000000D03*
X136500000Y-146000000D03*
D13*
X122009872Y-191152628D03*
D12*
X130990128Y-182172372D03*
D26*
X136000000Y-188912500D03*
X132000000Y-188912500D03*
X97500000Y-189162500D03*
X146750000Y-169412500D03*
X135250000Y-169412500D03*
X139250000Y-167162500D03*
X131500000Y-166412500D03*
X127250000Y-166162500D03*
X106750000Y-178912500D03*
X122000000Y-169912500D03*
X116500000Y-169912500D03*
X151000000Y-181162500D03*
X157750000Y-187912500D03*
X160250000Y-182162500D03*
X162750000Y-183912500D03*
X137750000Y-178662500D03*
X158000000Y-178662500D03*
X151800000Y-138100000D03*
X96200000Y-135100000D03*
X130000000Y-151100000D03*
X132700000Y-141300000D03*
X132700000Y-137700000D03*
X130100000Y-137700000D03*
X129900000Y-143832500D03*
X133800000Y-127400000D03*
X120000000Y-129500000D03*
X169700000Y-135800000D03*
X161400000Y-144400000D03*
X163000000Y-146500000D03*
D27*
X128640000Y-200052500D02*
X129750000Y-201162500D01*
X128640000Y-198537500D02*
X128640000Y-200052500D01*
X129750000Y-201162500D02*
X153500000Y-201162500D01*
X127250000Y-201162500D02*
X129750000Y-201162500D01*
X126100000Y-200012500D02*
X127250000Y-201162500D01*
X126100000Y-198537500D02*
X126100000Y-200012500D01*
X124500000Y-201162500D02*
X127250000Y-201162500D01*
X123560000Y-200222500D02*
X124500000Y-201162500D01*
X123560000Y-198537500D02*
X123560000Y-200222500D01*
X134000000Y-186912500D02*
X140650000Y-186912500D01*
X132000000Y-188912500D02*
X134000000Y-186912500D01*
X136000000Y-188912500D02*
X138000000Y-190912500D01*
X138000000Y-190912500D02*
X140650000Y-190912500D01*
X95750000Y-181912500D02*
X104990128Y-191152628D01*
X98750000Y-166412500D02*
X95750000Y-169412500D01*
X95750000Y-169412500D02*
X95750000Y-181912500D01*
X115750000Y-166412500D02*
X98750000Y-166412500D01*
X120115000Y-170777500D02*
X115750000Y-166412500D01*
X104990128Y-191152628D02*
X105509872Y-191152628D01*
X120115000Y-172842500D02*
X120115000Y-170777500D01*
X110860000Y-196272500D02*
X110860000Y-198537500D01*
X107500000Y-192912500D02*
X110860000Y-196272500D01*
X101769744Y-192912500D02*
X107500000Y-192912500D01*
X100009872Y-191152628D02*
X101769744Y-192912500D01*
X113400000Y-196312500D02*
X113400000Y-198537500D01*
X108240128Y-191152628D02*
X113400000Y-196312500D01*
X105509872Y-191152628D02*
X108240128Y-191152628D01*
X121020000Y-194642500D02*
X121020000Y-198537500D01*
X122009872Y-191152628D02*
X122009872Y-193652628D01*
X122009872Y-193652628D02*
X121020000Y-194642500D01*
X118480000Y-193112884D02*
X118480000Y-198537500D01*
X116519744Y-191152628D02*
X118480000Y-193112884D01*
X115940000Y-196082756D02*
X115940000Y-198537500D01*
X111009872Y-191152628D02*
X115940000Y-196082756D01*
X97500000Y-189162500D02*
X98019744Y-189162500D01*
X98019744Y-189162500D02*
X100009872Y-191152628D01*
X127735000Y-170647500D02*
X127735000Y-172842500D01*
X127250000Y-170162500D02*
X127735000Y-170647500D01*
X127250000Y-166162500D02*
X127250000Y-170162500D01*
X137895000Y-169307500D02*
X137895000Y-172842500D01*
X131500000Y-166412500D02*
X135000000Y-166412500D01*
X135000000Y-166412500D02*
X137895000Y-169307500D01*
X135355000Y-169517500D02*
X135250000Y-169412500D01*
X135355000Y-172842500D02*
X135355000Y-169517500D01*
X140435000Y-168347500D02*
X140435000Y-172842500D01*
X139250000Y-167162500D02*
X140435000Y-168347500D01*
X110000000Y-177162500D02*
X110750000Y-177912500D01*
X106750000Y-178912500D02*
X108250000Y-178912500D01*
X108250000Y-178912500D02*
X110000000Y-177162500D01*
X109955000Y-177117500D02*
X110000000Y-177162500D01*
X107269744Y-187412500D02*
X111009872Y-191152628D01*
X97250000Y-178412500D02*
X106250000Y-187412500D01*
X111500000Y-167662500D02*
X99500000Y-167662500D01*
X99500000Y-167662500D02*
X97250000Y-169912500D01*
X115035000Y-171197500D02*
X111500000Y-167662500D01*
X106250000Y-187412500D02*
X107269744Y-187412500D01*
X115035000Y-172842500D02*
X115035000Y-171197500D01*
X97250000Y-169912500D02*
X97250000Y-178412500D01*
X111279616Y-185912500D02*
X116519744Y-191152628D01*
X107250000Y-185912500D02*
X111279616Y-185912500D01*
X112495000Y-170907500D02*
X112495000Y-172842500D01*
X110500000Y-168912500D02*
X112495000Y-170907500D01*
X100250000Y-168912500D02*
X110500000Y-168912500D01*
X98750000Y-170412500D02*
X100250000Y-168912500D01*
X107250000Y-185912500D02*
X98750000Y-177412500D01*
X98750000Y-177412500D02*
X98750000Y-170412500D01*
X109955000Y-170867500D02*
X109955000Y-172842500D01*
X101000000Y-170162500D02*
X109250000Y-170162500D01*
X109250000Y-170162500D02*
X109955000Y-170867500D01*
X100500000Y-170662500D02*
X101000000Y-170162500D01*
X100500000Y-176912500D02*
X100500000Y-170662500D01*
X108000000Y-184412500D02*
X100500000Y-176912500D01*
X122009872Y-191152628D02*
X115269744Y-184412500D01*
X115269744Y-184412500D02*
X108000000Y-184412500D01*
X114490128Y-180672372D02*
X115000000Y-180162500D01*
X114490128Y-182172372D02*
X114490128Y-180672372D01*
X111000000Y-180162500D02*
X115000000Y-180162500D01*
X115000000Y-180162500D02*
X120000000Y-180162500D01*
X119990128Y-180172372D02*
X120000000Y-180162500D01*
X119990128Y-182172372D02*
X119990128Y-180172372D01*
X120000000Y-180162500D02*
X126000000Y-180162500D01*
X125500000Y-180662500D02*
X126000000Y-180162500D01*
X125500000Y-182172372D02*
X125500000Y-180662500D01*
X126000000Y-180162500D02*
X131500000Y-180162500D01*
X130990128Y-180672372D02*
X131500000Y-180162500D01*
X130990128Y-182172372D02*
X130990128Y-180672372D01*
X131500000Y-180162500D02*
X133000000Y-180162500D01*
X153750000Y-183912500D02*
X157750000Y-187912500D01*
X136750000Y-183912500D02*
X153750000Y-183912500D01*
X133000000Y-180162500D02*
X136750000Y-183912500D01*
X108990128Y-182172372D02*
X111000000Y-180162500D01*
X122655000Y-170567500D02*
X122000000Y-169912500D01*
X122655000Y-172842500D02*
X122655000Y-170567500D01*
X117575000Y-170987500D02*
X116500000Y-169912500D01*
X117575000Y-172842500D02*
X117575000Y-170987500D01*
X155100000Y-189162500D02*
X155100000Y-188662500D01*
X153350000Y-190912500D02*
X155100000Y-189162500D01*
X155100000Y-188662500D02*
X154350000Y-187912500D01*
X157000000Y-188662500D02*
X155100000Y-188662500D01*
X157750000Y-187912500D02*
X157000000Y-188662500D01*
X154350000Y-187912500D02*
X153350000Y-186912500D01*
X148055000Y-179467500D02*
X149750000Y-181162500D01*
X148055000Y-175382500D02*
X148055000Y-179467500D01*
X149750000Y-181162500D02*
X151000000Y-181162500D01*
X136500000Y-181162500D02*
X149750000Y-181162500D01*
X135750000Y-180412500D02*
X136500000Y-181162500D01*
X135750000Y-179412500D02*
X135750000Y-180412500D01*
X134250000Y-177912500D02*
X135750000Y-179412500D01*
X129000000Y-177912500D02*
X134250000Y-177912500D01*
X161490000Y-180672500D02*
X160250000Y-181912500D01*
X167790000Y-180672500D02*
X161490000Y-180672500D01*
X162750000Y-183912500D02*
X163450000Y-183212500D01*
X163450000Y-183212500D02*
X167790000Y-183212500D01*
X127735000Y-175382500D02*
X127735000Y-176647500D01*
X127735000Y-176647500D02*
X129000000Y-177912500D01*
X110750000Y-177912500D02*
X129000000Y-177912500D01*
X109955000Y-175382500D02*
X109955000Y-177117500D01*
X149380000Y-197292500D02*
X143000000Y-190912500D01*
X149380000Y-198912500D02*
X149380000Y-197292500D01*
X143000000Y-190912500D02*
X140650000Y-190912500D01*
X142000000Y-186912500D02*
X140650000Y-186912500D01*
X151920000Y-196832500D02*
X142000000Y-186912500D01*
X151920000Y-198912500D02*
X151920000Y-196832500D01*
X157000000Y-200162500D02*
X157000000Y-198912500D01*
X156000000Y-201162500D02*
X157000000Y-200162500D01*
X153500000Y-201162500D02*
X156000000Y-201162500D01*
X153500000Y-201162500D02*
X153750000Y-200912500D01*
X154460000Y-200202500D02*
X153750000Y-200912500D01*
X154460000Y-198912500D02*
X154460000Y-200202500D01*
X158000000Y-194412500D02*
X158125000Y-194287500D01*
X160250000Y-192162500D02*
X158125000Y-194287500D01*
X158125000Y-194287500D02*
X157000000Y-195412500D01*
X154460000Y-195202500D02*
X155250000Y-194412500D01*
X154460000Y-198912500D02*
X154460000Y-195202500D01*
X155250000Y-194412500D02*
X158000000Y-194412500D01*
X157000000Y-195412500D02*
X157000000Y-198912500D01*
X170000000Y-190662500D02*
X168500000Y-192162500D01*
X170000000Y-184162500D02*
X170000000Y-190662500D01*
X169050000Y-183212500D02*
X170000000Y-184162500D01*
X167790000Y-183212500D02*
X169050000Y-183212500D01*
X168500000Y-192162500D02*
X160250000Y-192162500D01*
X161130000Y-188292500D02*
X167790000Y-188292500D01*
X153135000Y-180297500D02*
X161130000Y-188292500D01*
X153135000Y-178617500D02*
X153135000Y-180297500D01*
X155720000Y-180632500D02*
X160840000Y-185752500D01*
X155720000Y-178632500D02*
X155720000Y-180632500D01*
X155675000Y-178587500D02*
X155720000Y-178632500D01*
X160840000Y-185752500D02*
X167790000Y-185752500D01*
X155675000Y-175382500D02*
X155675000Y-178587500D01*
X153000000Y-169412500D02*
X153135000Y-169277500D01*
X143750000Y-169412500D02*
X153000000Y-169412500D01*
X142975000Y-170187500D02*
X143750000Y-169412500D01*
X142975000Y-172842500D02*
X142975000Y-170187500D01*
X170250000Y-170162500D02*
X167500000Y-167412500D01*
X153135000Y-169277500D02*
X153135000Y-172842500D01*
X170250000Y-181662500D02*
X170250000Y-170162500D01*
X168700000Y-183212500D02*
X170250000Y-181662500D01*
X167500000Y-167412500D02*
X155000000Y-167412500D01*
X167790000Y-183212500D02*
X168700000Y-183212500D01*
X155000000Y-167412500D02*
X153135000Y-169277500D01*
X137895000Y-178517500D02*
X137750000Y-178662500D01*
X137895000Y-175382500D02*
X137895000Y-178517500D01*
X158215000Y-178197500D02*
X158000000Y-178412500D01*
X158215000Y-175382500D02*
X158215000Y-178197500D01*
X158215000Y-169647500D02*
X158910000Y-168952500D01*
X158910000Y-168952500D02*
X166340000Y-168952500D01*
X156430000Y-168952500D02*
X158910000Y-168952500D01*
X158215000Y-172842500D02*
X158215000Y-169647500D01*
X167790000Y-170402500D02*
X167790000Y-180672500D01*
X155675000Y-169707500D02*
X156430000Y-168952500D01*
X155675000Y-172842500D02*
X155675000Y-169707500D01*
X166340000Y-168952500D02*
X167790000Y-170402500D01*
X153135000Y-178617500D02*
X153120000Y-178632500D01*
X153135000Y-175382500D02*
X153135000Y-178617500D01*
X149400000Y-138100000D02*
X147895000Y-136595000D01*
X151800000Y-138100000D02*
X149400000Y-138100000D01*
X147895000Y-136595000D02*
X147895000Y-135145000D01*
X96200000Y-130800000D02*
X96200000Y-135000000D01*
X100800000Y-126200000D02*
X96200000Y-130800000D01*
X129100000Y-126200000D02*
X100800000Y-126200000D01*
X132655000Y-129755000D02*
X129100000Y-126200000D01*
X132655000Y-132605000D02*
X132655000Y-129755000D01*
X129900000Y-148600000D02*
X129900000Y-151000000D01*
X128600000Y-147300000D02*
X129900000Y-148600000D01*
X127672500Y-146372500D02*
X128600000Y-147300000D01*
X124287500Y-146372500D02*
X127672500Y-146372500D01*
X134700000Y-139500000D02*
X119300000Y-139500000D01*
X118500000Y-140300000D02*
X118500000Y-142600000D01*
X118500000Y-142600000D02*
X119732500Y-143832500D01*
X119732500Y-143832500D02*
X121747600Y-143832500D01*
X135195000Y-139005000D02*
X134700000Y-139500000D01*
X119300000Y-139500000D02*
X118500000Y-140300000D01*
X135195000Y-135145000D02*
X135195000Y-139005000D01*
X132600000Y-141300000D02*
X132700000Y-141400000D01*
X128200000Y-141300000D02*
X132600000Y-141300000D01*
X132655000Y-137455000D02*
X132700000Y-137500000D01*
X132655000Y-135145000D02*
X132655000Y-137455000D01*
X130115000Y-135145000D02*
X130115000Y-137585000D01*
X130100000Y-137600000D02*
X130115000Y-137585000D01*
X109795000Y-136905000D02*
X109000000Y-137700000D01*
X109795000Y-135145000D02*
X109795000Y-136905000D01*
X109000000Y-137700000D02*
X126600000Y-137700000D01*
X101600000Y-137700000D02*
X109000000Y-137700000D01*
X127575000Y-136725000D02*
X127575000Y-135145000D01*
X100600000Y-131900000D02*
X100600000Y-136700000D01*
X126600000Y-137700000D02*
X127575000Y-136725000D01*
X103000000Y-129500000D02*
X100600000Y-131900000D01*
X100600000Y-136700000D02*
X101600000Y-137700000D01*
X118200000Y-129500000D02*
X103000000Y-129500000D01*
X124120000Y-143832500D02*
X129900000Y-143832500D01*
X128192500Y-141292500D02*
X128200000Y-141300000D01*
X124287500Y-141292500D02*
X128192500Y-141292500D01*
X106972500Y-146372500D02*
X121747600Y-146372500D01*
X98300000Y-131400000D02*
X98300000Y-137700000D01*
X98300000Y-137700000D02*
X106972500Y-146372500D01*
X127500000Y-127500000D02*
X102200000Y-127500000D01*
X102200000Y-127500000D02*
X98300000Y-131400000D01*
X130115000Y-130115000D02*
X127500000Y-127500000D01*
X130115000Y-132605000D02*
X130115000Y-130115000D01*
X134000000Y-127600000D02*
X133800000Y-127400000D01*
X137400000Y-127600000D02*
X134000000Y-127600000D01*
X118200000Y-129500000D02*
X120000000Y-129500000D01*
X117415000Y-130285000D02*
X118200000Y-129500000D01*
X117415000Y-132605000D02*
X117415000Y-130285000D01*
X121500000Y-129500000D02*
X120000000Y-129500000D01*
X122495000Y-132605000D02*
X122495000Y-130495000D01*
X122495000Y-130495000D02*
X121500000Y-129500000D01*
X135195000Y-129805000D02*
X137400000Y-127600000D01*
X137400000Y-127600000D02*
X145100000Y-127600000D01*
X135195000Y-132605000D02*
X135195000Y-129805000D01*
X142815000Y-129885000D02*
X145100000Y-127600000D01*
X142815000Y-132605000D02*
X142815000Y-129885000D01*
X145100000Y-127600000D02*
X154800000Y-127600000D01*
X169000000Y-127600000D02*
X169700000Y-128300000D01*
X154800000Y-127600000D02*
X169000000Y-127600000D01*
X169700000Y-128300000D02*
X169700000Y-135800000D01*
X152975000Y-129425000D02*
X154800000Y-127600000D01*
X152975000Y-132605000D02*
X152975000Y-129425000D01*
X172200000Y-135800000D02*
X169700000Y-135800000D01*
X173200000Y-136800000D02*
X172200000Y-135800000D01*
X173200000Y-138580000D02*
X173200000Y-136800000D01*
X169400000Y-136100000D02*
X169700000Y-135800000D01*
X169400000Y-138580000D02*
X169400000Y-136100000D01*
X156400000Y-129600000D02*
X158800000Y-129600000D01*
X155515000Y-130485000D02*
X156400000Y-129600000D01*
X155515000Y-132605000D02*
X155515000Y-130485000D01*
X166700000Y-129600000D02*
X167400000Y-130300000D01*
X161400000Y-142000000D02*
X161400000Y-144400000D01*
X158800000Y-129600000D02*
X166700000Y-129600000D01*
X167400000Y-130300000D02*
X167400000Y-136000000D01*
X158055000Y-130345000D02*
X158800000Y-129600000D01*
X167400000Y-136000000D02*
X161400000Y-142000000D01*
X158055000Y-132605000D02*
X158055000Y-130345000D01*
X148694888Y-143294888D02*
X142500000Y-143294888D01*
X149300000Y-143300000D02*
X148700000Y-143300000D01*
X148700000Y-143300000D02*
X148694888Y-143294888D01*
X150400000Y-144400000D02*
X149300000Y-143300000D01*
X161400000Y-144400000D02*
X150400000Y-144400000D01*
X163000000Y-147000000D02*
X163000000Y-146500000D01*
X160500000Y-149500000D02*
X163000000Y-147000000D01*
X160500000Y-149500000D02*
X146205112Y-149500000D01*
X168000000Y-149500000D02*
X160500000Y-149500000D01*
X169400000Y-138580000D02*
X173200000Y-138580000D01*
X173200000Y-138580000D02*
X173200000Y-147220000D01*
X146205112Y-149500000D02*
X142500000Y-145794888D01*
X172000000Y-149500000D02*
X168000000Y-149500000D01*
X173200000Y-148300000D02*
X172000000Y-149500000D01*
X173200000Y-147220000D02*
X173200000Y-148300000D01*
X169400000Y-148100000D02*
X168000000Y-149500000D01*
X169400000Y-147220000D02*
X169400000Y-148100000D01*
X136205112Y-143294888D02*
X142500000Y-143294888D01*
X135000000Y-146000000D02*
X135000000Y-144500000D01*
X135000000Y-144500000D02*
X136205112Y-143294888D01*
X142400000Y-146000000D02*
X142500000Y-146100000D01*
X136500000Y-146000000D02*
X142400000Y-146000000D01*
X133500000Y-149500000D02*
X133500000Y-147500000D01*
X133500000Y-147500000D02*
X135000000Y-146000000D01*
X136000000Y-152000000D02*
X133500000Y-149500000D01*
X139000000Y-152500000D02*
X139000000Y-151500000D01*
X136500000Y-149000000D02*
X136500000Y-146000000D01*
X136960000Y-154540000D02*
X139000000Y-152500000D01*
X136000000Y-154540000D02*
X136960000Y-154540000D01*
X139000000Y-151500000D02*
X136500000Y-149000000D01*
X122805112Y-155805112D02*
X120000000Y-155805112D01*
X123450000Y-156450000D02*
X122805112Y-155805112D01*
X130700000Y-156450000D02*
X123450000Y-156450000D01*
X132610000Y-154540000D02*
X130700000Y-156450000D01*
X136000000Y-154540000D02*
X132610000Y-154540000D01*
X135130000Y-157950000D02*
X130700000Y-157950000D01*
X136000000Y-157080000D02*
X135130000Y-157950000D01*
X130344888Y-158305112D02*
X130700000Y-157950000D01*
X120000000Y-158305112D02*
X130344888Y-158305112D01*
X115500000Y-156500000D02*
X117305112Y-158305112D01*
X117305112Y-158305112D02*
X120000000Y-158305112D01*
X115500000Y-152500000D02*
X115500000Y-156500000D01*
X119087500Y-148912500D02*
X115500000Y-152500000D01*
X121747600Y-148912500D02*
X119087500Y-148912500D01*
X118000000Y-153000000D02*
X119000000Y-152000000D01*
X119000000Y-152000000D02*
X122000000Y-152000000D01*
X118805112Y-155805112D02*
X118000000Y-155000000D01*
X122000000Y-152000000D02*
X124287500Y-149712500D01*
X120000000Y-155805112D02*
X118805112Y-155805112D01*
X118000000Y-155000000D02*
X118000000Y-153000000D01*
X124287500Y-149712500D02*
X124287500Y-148912500D01*
M02*
