M48
; DRILL file {KiCad 8.0.5} date 2024-10-16T23:15:54+0200
; FORMAT={-:-/ absolute / metric / decimal}
; #@! TF.CreationDate,2024-10-16T23:15:54+02:00
; #@! TF.GenerationSoftware,Kicad,Pcbnew,8.0.5
; #@! TF.FileFunction,Plated,1,2,PTH
FMAT,2
METRIC
; #@! TA.AperFunction,Plated,PTH,ComponentDrill
T1C0.600
; #@! TA.AperFunction,Plated,PTH,ComponentDrill
T2C0.800
; #@! TA.AperFunction,Plated,PTH,ViaDrill
T3C1.000
; #@! TA.AperFunction,Plated,PTH,ComponentDrill
T4C1.000
; #@! TA.AperFunction,Plated,PTH,ComponentDrill
T5C1.016
; #@! TA.AperFunction,Plated,PTH,ComponentDrill
T6C1.190
; #@! TA.AperFunction,Plated,PTH,ComponentDrill
T7C1.200
%
G90
G05
T1
X130.7Y-156.45
X130.7Y-157.95
X135.0Y-146.0
X136.5Y-146.0
T2
X100.01Y-191.153
X105.51Y-191.153
X108.99Y-182.172
X111.01Y-191.153
X114.49Y-182.172
X116.52Y-191.153
X119.99Y-182.172
X120.0Y-155.805
X120.0Y-158.305
X122.01Y-191.153
X125.5Y-182.172
X130.99Y-182.172
X140.65Y-186.912
X140.65Y-190.912
X142.5Y-143.295
X142.5Y-145.795
X153.35Y-186.912
X153.35Y-190.912
T3
X96.2Y-135.1
X97.5Y-189.162
X106.75Y-178.912
X116.5Y-169.912
X120.0Y-129.5
X122.0Y-169.912
X127.25Y-166.162
X129.9Y-143.832
X130.0Y-151.1
X130.1Y-137.7
X131.5Y-166.412
X132.0Y-188.912
X132.7Y-137.7
X132.7Y-141.3
X133.8Y-127.4
X135.25Y-169.412
X136.0Y-188.912
X137.75Y-178.662
X139.25Y-167.162
X146.75Y-169.412
X151.0Y-181.162
X151.8Y-138.1
X157.75Y-187.912
X158.0Y-178.662
X160.25Y-182.162
X161.4Y-144.4
X162.75Y-183.912
X163.0Y-146.5
X169.7Y-135.8
T4
X109.795Y-132.605
X109.795Y-135.145
X109.955Y-172.843
X109.955Y-175.382
X112.335Y-132.605
X112.335Y-135.145
X112.495Y-172.843
X112.495Y-175.382
X114.875Y-132.605
X114.875Y-135.145
X115.035Y-172.843
X115.035Y-175.382
X117.415Y-132.605
X117.415Y-135.145
X117.575Y-172.843
X117.575Y-175.382
X119.955Y-132.605
X119.955Y-135.145
X120.115Y-172.843
X120.115Y-175.382
X122.495Y-132.605
X122.495Y-135.145
X122.655Y-172.843
X122.655Y-175.382
X125.035Y-132.605
X125.035Y-135.145
X125.195Y-172.843
X125.195Y-175.382
X127.575Y-132.605
X127.575Y-135.145
X127.735Y-172.843
X127.735Y-175.382
X130.115Y-132.605
X130.115Y-135.145
X130.275Y-172.843
X130.275Y-175.382
X132.655Y-132.605
X132.655Y-135.145
X132.815Y-172.843
X132.815Y-175.382
X135.195Y-132.605
X135.195Y-135.145
X135.355Y-172.843
X135.355Y-175.382
X137.735Y-132.605
X137.735Y-135.145
X137.895Y-172.843
X137.895Y-175.382
X140.275Y-132.605
X140.275Y-135.145
X140.435Y-172.843
X140.435Y-175.382
X142.815Y-132.605
X142.815Y-135.145
X142.975Y-172.843
X142.975Y-175.382
X145.355Y-132.605
X145.355Y-135.145
X145.515Y-172.843
X145.515Y-175.382
X147.895Y-132.605
X147.895Y-135.145
X148.055Y-172.843
X148.055Y-175.382
X150.435Y-132.605
X150.435Y-135.145
X150.595Y-172.843
X150.595Y-175.382
X152.975Y-132.605
X152.975Y-135.145
X153.135Y-172.843
X153.135Y-175.382
X155.515Y-132.605
X155.515Y-135.145
X155.675Y-172.843
X155.675Y-175.382
X158.055Y-132.605
X158.055Y-135.145
X158.215Y-172.843
X158.215Y-175.382
T5
X88.188Y-138.713
X88.188Y-151.512
X121.748Y-141.292
X121.748Y-143.832
X121.748Y-146.373
X121.748Y-148.912
X124.287Y-141.292
X124.287Y-143.832
X124.287Y-146.373
X124.287Y-148.912
T6
X110.86Y-198.537
X113.4Y-198.537
X115.94Y-198.537
X118.48Y-198.537
X121.02Y-198.537
X123.56Y-198.537
X126.1Y-198.537
X128.64Y-198.537
X149.38Y-198.912
X151.92Y-198.912
X154.46Y-198.912
X157.0Y-198.912
X167.79Y-180.672
X167.79Y-183.213
X167.79Y-185.752
X167.79Y-188.292
T7
X136.0Y-152.0
X136.0Y-154.54
X136.0Y-157.08
T1
G00X169.1Y-138.58
M15
G01X169.7Y-138.58
M16
G05
G00X169.1Y-147.22
M15
G01X169.7Y-147.22
M16
G05
G00X172.9Y-138.58
M15
G01X173.5Y-138.58
M16
G05
G00X172.9Y-147.22
M15
G01X173.5Y-147.22
M16
G05
M30
